<?xml version="1.0" encoding="utf-8"?>
<svg version="1.1" xmlns:xlink="http://www.w3.org/1999/xlink" width="18px" height="17px" xmlns="http://www.w3.org/2000/svg">
  <g transform="matrix(1 0 0 1 -320 -476 )">
    <path d="M 17 12.160833339843748  C 17.33333333984376 12.624166679687505  16.954166679687546 13  16.50666666015627 13  L 9.833333339843762 13  L 9.833333339843762 14.666666660156238  L 12.333333339843762 14.666666660156238  C 12.793570634965022 14.666666660156238  13.166666679687523 15.03976270487874  13.166666679687523 15.5  C 13.166666679687523 15.96023729512126  12.793570634965022 16.33333333984376  12.333333339843762 16.33333333984376  L 5.666666660156238 16.33333333984376  C 5.206429365034978 16.33333333984376  4.833333320312477 15.96023729512126  4.833333320312477 15.5  C 4.833333320312477 15.03976270487874  5.206429365034978 14.666666660156238  5.666666660156238 14.666666660156238  L 8.166666660156238 14.666666660156238  L 8.166666660156238 13  L 1.4933333398437298 13  C 1.0359628496785263 12.997268911452352  0.6666327079882421 12.625726810634887  0.6666327079882421 12.168348166491342  C 0.6666327079882421 12.165843185926406  0.6666440254931558 12.163338218144759  1 12.160833339843748  L 1 1.339166660156252  C 0.6666666601562383 0.8758333398437799  1.045833339843739 0.5  1.4933333398437298 0.5  L 16.50666666015627 0.5  C 16.963333320312472 0.5  17.333333320312477 0.8741666601562201  17 1.339166660156252  L 17 12.160833339843748  Z M 11.228260865319271 5.111111114583309  L 11.989130439028713 4.4888888854167135  L 9 2.044444447916703  L 6.010869560971287 4.4888888854167135  L 6.771739134680729 5.111111114583309  L 8.456521734884518 3.7333333333333485  L 8.456521734884518 10  L 9.543478265115482 10  L 9.543478265115482 3.7333333333333485  L 11.228260865319271 5.111111114583309  Z " fill-rule="nonzero" fill="#3399ff" stroke="none" transform="matrix(1 0 0 1 320 476 )" />
  </g>
</svg>