<?xml version="1.0" encoding="utf-8"?>
<svg version="1.1" xmlns:xlink="http://www.w3.org/1999/xlink" width="20px" height="18px" xmlns="http://www.w3.org/2000/svg">
  <g transform="matrix(1 0 0 1 -41 -475 )">
    <path d="M 0.6467013888889142 17.471788194444457  C -2.039930555555543 4.405381944444457  10.859375 3.767361111111086  10.859375 3.767361111111086  L 10.859375 0.8463541666666288  C 11.121961805555543 -0.3754340277778283  12.122395833333371 0.36892361111108585  12.122395833333371 0.36892361111108585  L 19.071180555555543 6.369357638888914  C 20.59895833333337 7.430555555555543  19.17534722222217 8.229166666666742  19.17534722222217 8.229166666666742  L 12.332899305555543 14.1775173611112  C 10.963541666666629 15.186631944444457  10.859375 13.645833333333371  10.859375 13.645833333333371  L 10.859375 10.9375  C 3.9105902777778283 8.760850694444457  1.0677083333333712 17.471788194444457  1.0677083333333712 17.471788194444457  C 0.8051215277778283 17.94921875  0.6467013888889142 17.471788194444457  0.6467013888889142 17.471788194444457  Z " fill-rule="nonzero" fill="#00c15e" stroke="none" transform="matrix(1 0 0 1 41 475 )" />
  </g>
</svg>