<?xml version="1.0" encoding="utf-8"?>
<svg version="1.1" xmlns:xlink="http://www.w3.org/1999/xlink" width="19px" height="17px" xmlns="http://www.w3.org/2000/svg">
  <g transform="matrix(1 0 0 1 -83 -17 )">
    <path d="M 9.422266303000251 4.047619047619048  L 9.422266303000251 6.476190476190483  L 11.306719563600295 6.476190476190483  L 11.306719563600295 4.047619047619048  L 14.133399454500378 4.047619047619048  L 14.133399454500378 2.428571428571435  L 11.306719563600295 2.428571428571435  L 11.306719563600295 0  L 9.422266303000251 0  L 9.422266303000251 2.428571428571435  L 6.595586412100169 2.428571428571435  L 6.595586412100169 4.047619047619048  L 9.422266303000251 4.047619047619048  Z M 7.537813042400208 15.380952380952387  C 7.537813042400208 14.486428571428567  6.694520208281669 13.76190476190476  5.653359781800147 13.76190476190476  C 4.612199355318625 13.76190476190476  3.7783287875031006 14.486428571428567  3.7783287875031006 15.380952380952387  C 3.7783287875031006 16.27547619047619  4.612199355318625 17  5.653359781800147 17  C 6.694520208281669 17  7.537813042400208 16.27547619047619  7.537813042400208 15.380952380952387  Z M 16.96007934540046 15.380952380952387  C 16.96007934540046 14.486428571428567  16.11678651128192 13.76190476190476  15.075626084800398 13.76190476190476  C 14.034465658318876 13.76190476190476  13.200595090503352 14.486428571428567  13.200595090503352 15.380952380952387  C 13.200595090503352 16.27547619047619  14.034465658318876 17  15.075626084800398 17  C 16.11678651128192 17  16.96007934540046 16.27547619047619  16.96007934540046 15.380952380952387  Z M 6.053806099677665 11  C 5.921894371435658 11.33333333333334  5.81824944210266 11.244285714285708  5.81824944210266 11.130952380952387  C 5.81824944210266 11.094523809523814  5.8276717084056555 11.06214285714286  5.84651624101165 11.03380952380952  L 6.694520208281669 9.71428571428571  L 13.714108604016864 9.71428571428571  C 14.420778576741881 9.71428571428571  15.037937019588394 9.378333333333334  15.363005207041901 8.880476190476198  L 19 3.2057142857142864  L 17.351103396974963 2.428571428571435  L 17.346392263823464 2.428571428571435  L 16.305231837341925 4.047619047619048  L 13.709397470865365 8.095238095238097  L 7.099677659310685 8.095238095238097  L 6.977188197371693 7.87666666666666  L 4.861889412348125 4.047619047619048  L 3.9667741135631047 2.428571428571435  L 3.0763699479295825 0.8095238095238066  L 0 0.8095238095238066  L 0 2.428571428571435  L 1.884453260600043 2.428571428571435  L 5.276469129680138 8.568809523809527  L 3.9997520456236106 10.552142857142854  C 3.8537069179271097 10.786904761904761  3.768906521200104 11.050000000000006  3.768906521200104 11.33333333333334  C 3.768906521200104 12.227857142857143  4.612199355318625 12.952380952380953  5.653359781800147 13  L 16.96007934540046 13  L 16.96007934540046 11  L 6.053806099677665 11  Z " fill-rule="nonzero" fill="#8a1410" stroke="none" transform="matrix(1 0 0 1 83 17 )" />
  </g>
</svg>