<?xml version="1.0" encoding="utf-8"?>
<svg version="1.1" xmlns:xlink="http://www.w3.org/1999/xlink" width="22px" height="12px" xmlns="http://www.w3.org/2000/svg">
  <defs>
    <mask fill="white" id="clip857">
      <path d="M 3.1104304956521873 0.333333333  C 3.1104304956521873 0.333333333  18.57066515652174 0.333333333  18.57066515652174 0.333333333  C 19.572232469565204 0.333333333  19.942146686956512 0.42468405099999995  20.310108069565228 0.6304168800000001  C 20.64120319130437 0.81553717  20.901048539130464 1.08719368  21.078120130434804 1.43333853  C 21.274908026086944 1.8180254800000002  21.362286956521746 2.20475396  21.362286956521746 3.2518470400000004  C 21.362286956521746 3.2518470400000004  21.362286956521746 8.74815296  21.362286956521746 8.74815296  C 21.362286956521746 9.79524604  21.274908026086944 10.18197452  21.078120130434804 10.5666615  C 20.901048539130464 10.9128063  20.64120319130437 11.1844628  20.310108069565228 11.3695831  C 19.942146686956512 11.5753159  19.572232469565204 11.6666667  18.57066515652174 11.6666667  C 18.57066515652174 11.6666667  3.1104304956521873 11.6666667  3.1104304956521873 11.6666667  C 2.10886320173912 11.6666667  1.738949013043487 11.5753159  1.370987582608702 11.3695831  C 1.0398925086956297 11.1844628  0.7800471513043663 10.9128063  0.6029755695651948 10.5666615  C 0.4061876423478452 10.18197452  0.3188086956521819 9.79524604  0.3188086956521819 8.74815296  C 0.3188086956521819 8.74815296  0.3188086956521819 3.2518470400000004  0.3188086956521819 3.2518470400000004  C 0.3188086956521819 2.20475396  0.4061876423478452 1.8180254800000002  0.6029755695651948 1.43333853  C 0.7800471513043663 1.08719368  1.0398925086956297 0.81553717  1.370987582608702 0.6304168800000001  C 1.738949013043487 0.42468405099999995  2.10886320173912 0.333333333  3.1104304956521873 0.333333333  Z " fill-rule="evenodd" />
    </mask>
  </defs>
  <g transform="matrix(1 0 0 1 -323 -17 )">
    <path d="M 3.1104304956521873 0.333333333  C 3.1104304956521873 0.333333333  18.57066515652174 0.333333333  18.57066515652174 0.333333333  C 19.572232469565204 0.333333333  19.942146686956512 0.42468405099999995  20.310108069565228 0.6304168800000001  C 20.64120319130437 0.81553717  20.901048539130464 1.08719368  21.078120130434804 1.43333853  C 21.274908026086944 1.8180254800000002  21.362286956521746 2.20475396  21.362286956521746 3.2518470400000004  C 21.362286956521746 3.2518470400000004  21.362286956521746 8.74815296  21.362286956521746 8.74815296  C 21.362286956521746 9.79524604  21.274908026086944 10.18197452  21.078120130434804 10.5666615  C 20.901048539130464 10.9128063  20.64120319130437 11.1844628  20.310108069565228 11.3695831  C 19.942146686956512 11.5753159  19.572232469565204 11.6666667  18.57066515652174 11.6666667  C 18.57066515652174 11.6666667  3.1104304956521873 11.6666667  3.1104304956521873 11.6666667  C 2.10886320173912 11.6666667  1.738949013043487 11.5753159  1.370987582608702 11.3695831  C 1.0398925086956297 11.1844628  0.7800471513043663 10.9128063  0.6029755695651948 10.5666615  C 0.4061876423478452 10.18197452  0.3188086956521819 9.79524604  0.3188086956521819 8.74815296  C 0.3188086956521819 8.74815296  0.3188086956521819 3.2518470400000004  0.3188086956521819 3.2518470400000004  C 0.3188086956521819 2.20475396  0.4061876423478452 1.8180254800000002  0.6029755695651948 1.43333853  C 0.7800471513043663 1.08719368  1.0398925086956297 0.81553717  1.370987582608702 0.6304168800000001  C 1.738949013043487 0.42468405099999995  2.10886320173912 0.333333333  3.1104304956521873 0.333333333  Z " fill-rule="nonzero" fill="#ffffff" stroke="none" transform="matrix(1 0 0 1 323 17 )" />
    <path d="M 3.1104304956521873 0.333333333  C 3.1104304956521873 0.333333333  18.57066515652174 0.333333333  18.57066515652174 0.333333333  C 19.572232469565204 0.333333333  19.942146686956512 0.42468405099999995  20.310108069565228 0.6304168800000001  C 20.64120319130437 0.81553717  20.901048539130464 1.08719368  21.078120130434804 1.43333853  C 21.274908026086944 1.8180254800000002  21.362286956521746 2.20475396  21.362286956521746 3.2518470400000004  C 21.362286956521746 3.2518470400000004  21.362286956521746 8.74815296  21.362286956521746 8.74815296  C 21.362286956521746 9.79524604  21.274908026086944 10.18197452  21.078120130434804 10.5666615  C 20.901048539130464 10.9128063  20.64120319130437 11.1844628  20.310108069565228 11.3695831  C 19.942146686956512 11.5753159  19.572232469565204 11.6666667  18.57066515652174 11.6666667  C 18.57066515652174 11.6666667  3.1104304956521873 11.6666667  3.1104304956521873 11.6666667  C 2.10886320173912 11.6666667  1.738949013043487 11.5753159  1.370987582608702 11.3695831  C 1.0398925086956297 11.1844628  0.7800471513043663 10.9128063  0.6029755695651948 10.5666615  C 0.4061876423478452 10.18197452  0.3188086956521819 9.79524604  0.3188086956521819 8.74815296  C 0.3188086956521819 8.74815296  0.3188086956521819 3.2518470400000004  0.3188086956521819 3.2518470400000004  C 0.3188086956521819 2.20475396  0.4061876423478452 1.8180254800000002  0.6029755695651948 1.43333853  C 0.7800471513043663 1.08719368  1.0398925086956297 0.81553717  1.370987582608702 0.6304168800000001  C 1.738949013043487 0.42468405099999995  2.10886320173912 0.333333333  3.1104304956521873 0.333333333  Z " stroke-width="2" stroke="#ffffff" fill="none" transform="matrix(1 0 0 1 323 17 )" mask="url(#clip857)" />
  </g>
</svg>