<?xml version="1.0" encoding="utf-8"?>
<svg version="1.1" xmlns:xlink="http://www.w3.org/1999/xlink" width="14px" height="10px" xmlns="http://www.w3.org/2000/svg">
  <g transform="matrix(1 0 0 1 -300 -9 )">
    <path d="M 12.710526315789474 0.19127640343990054  C 12.85733539358016 0.19127640343990054  12.998111077725605 0.25225957612965094  13.10178947368421 0.36076923076923034  C 13.205730300760019 0.46900491885788453  13.264145760915463 0.6159685451635678  13.264145760915463 0.7692307692307693  C 13.264145760915463 0.9224929932979706  13.205730300760019 1.069456619603654  13.10178947368421 1.1776923076923083  L 5.364947368421052 9.254615384615384  C 5.261268972462447 9.363125039254962  5.120493288317002 9.424108211944713  4.973684210526314 9.424108211944713  C 4.826875132735627 9.424108211944713  4.686099448590184 9.363125039254962  4.5824210526315765 9.254615384615384  L 0.7139999999999989 5.216153846153845  C 0.6102305586596214 5.107823110688615  0.5519334935430732 4.960895103009086  0.5519334935430732 4.807692307692307  C 0.5519334935430732 4.488664001661654  0.7996676226443206 4.230040460292219  1.1052631578947356 4.230040460292219  C 1.252015309198177 4.230040460292219  1.3927568744490952 4.2909000337655385  1.4965263157894728 4.399230769230767  L 4.973684210526316 8.030384615384614  L 12.319263157894738 0.3607692307692296  C 12.422941553853343 0.25225957612965233  12.563717237998787 0.19127640343990054  12.710526315789474 0.19127640343990054  Z " fill-rule="nonzero" fill="#8a1410" stroke="none" transform="matrix(1 0 0 1 300 9 )" />
  </g>
</svg>