<?xml version="1.0" encoding="utf-8"?>
<svg version="1.1" xmlns:xlink="http://www.w3.org/1999/xlink" width="8px" height="10px" xmlns="http://www.w3.org/2000/svg">
  <defs>
    <mask fill="white" id="clip869">
      <path d="M 0.49910621631458163 0.5  C 0.49910621631458163 0.4003795543563191  0.5519582993123654 0.3048531972576254  0.6459999999999996 0.23449999999999993  C 0.7398042630101666 0.1639687244842738  0.8671727391417589 0.12432966223593578  1 0.12432966223593578  C 1.1328272608582413 0.12432966223593578  1.2601957369898333 0.1639687244842738  1.3540000000000003 0.23449999999999993  L 7.353999999999999 4.7345  C 7.448041700687635 4.804853197257626  7.5008937836854175 4.900379554356319  7.5008937836854175 5  C 7.5008937836854175 5.09962044564368  7.448041700687635 5.195146802742374  7.353999999999999 5.265499999999999  L 1.3539999999999992 9.7655  C 1.2601133625968022 9.835914978052397  1.132775755941207 9.875473700810058  0.9999999999999988 9.875473700810058  C 0.723508801440099 9.875473700810058  0.49936839891992335 9.707368398919925  0.49936839891992335 9.5  C 0.49936839891992335 9.400418183044094  0.5521133625968003 9.304914978052398  0.645999999999999 9.234499999999999  L 6.292999999999999 5  L 0.6459999999999996 0.7655000000000001  C 0.5519582993123654 0.6951468027423748  0.49910621631458163 0.5996204456436811  0.49910621631458163 0.5  Z " fill-rule="evenodd" />
    </mask>
  </defs>
  <g transform="matrix(1 0 0 1 -311 -154 )">
    <path d="M 0.49910621631458163 0.5  C 0.49910621631458163 0.4003795543563191  0.5519582993123654 0.3048531972576254  0.6459999999999996 0.23449999999999993  C 0.7398042630101666 0.1639687244842738  0.8671727391417589 0.12432966223593578  1 0.12432966223593578  C 1.1328272608582413 0.12432966223593578  1.2601957369898333 0.1639687244842738  1.3540000000000003 0.23449999999999993  L 7.353999999999999 4.7345  C 7.448041700687635 4.804853197257626  7.5008937836854175 4.900379554356319  7.5008937836854175 5  C 7.5008937836854175 5.09962044564368  7.448041700687635 5.195146802742374  7.353999999999999 5.265499999999999  L 1.3539999999999992 9.7655  C 1.2601133625968022 9.835914978052397  1.132775755941207 9.875473700810058  0.9999999999999988 9.875473700810058  C 0.723508801440099 9.875473700810058  0.49936839891992335 9.707368398919925  0.49936839891992335 9.5  C 0.49936839891992335 9.400418183044094  0.5521133625968003 9.304914978052398  0.645999999999999 9.234499999999999  L 6.292999999999999 5  L 0.6459999999999996 0.7655000000000001  C 0.5519582993123654 0.6951468027423748  0.49910621631458163 0.5996204456436811  0.49910621631458163 0.5  Z " fill-rule="nonzero" fill="#666666" stroke="none" transform="matrix(1 0 0 1 311 154 )" />
    <path d="M 0.49910621631458163 0.5  C 0.49910621631458163 0.4003795543563191  0.5519582993123654 0.3048531972576254  0.6459999999999996 0.23449999999999993  C 0.7398042630101666 0.1639687244842738  0.8671727391417589 0.12432966223593578  1 0.12432966223593578  C 1.1328272608582413 0.12432966223593578  1.2601957369898333 0.1639687244842738  1.3540000000000003 0.23449999999999993  L 7.353999999999999 4.7345  C 7.448041700687635 4.804853197257626  7.5008937836854175 4.900379554356319  7.5008937836854175 5  C 7.5008937836854175 5.09962044564368  7.448041700687635 5.195146802742374  7.353999999999999 5.265499999999999  L 1.3539999999999992 9.7655  C 1.2601133625968022 9.835914978052397  1.132775755941207 9.875473700810058  0.9999999999999988 9.875473700810058  C 0.723508801440099 9.875473700810058  0.49936839891992335 9.707368398919925  0.49936839891992335 9.5  C 0.49936839891992335 9.400418183044094  0.5521133625968003 9.304914978052398  0.645999999999999 9.234499999999999  L 6.292999999999999 5  L 0.6459999999999996 0.7655000000000001  C 0.5519582993123654 0.6951468027423748  0.49910621631458163 0.5996204456436811  0.49910621631458163 0.5  Z " stroke-width="2" stroke="#cccccc" fill="none" transform="matrix(1 0 0 1 311 154 )" mask="url(#clip869)" />
  </g>
</svg>