<?xml version="1.0" encoding="utf-8"?>
<svg version="1.1" xmlns:xlink="http://www.w3.org/1999/xlink" width="7px" height="10px" xmlns="http://www.w3.org/2000/svg">
  <g transform="matrix(1 0 0 1 -314 -47 )">
    <path d="M 0.4367179392752589 0.5  C 0.4367179392752589 0.4003795543563191  0.4829635118983197 0.3048531972576254  0.5652499999999996 0.23449999999999993  C 0.6473287301338957 0.1639687244842738  0.758776146749039 0.12432966223593578  0.875 0.12432966223593578  C 0.9912238532509611 0.12432966223593578  1.102671269866104 0.1639687244842738  1.1847500000000002 0.23449999999999993  L 6.434749999999999 4.7345  C 6.517036488101681 4.804853197257626  6.56328206072474 4.900379554356319  6.56328206072474 5  C 6.56328206072474 5.09962044564368  6.517036488101681 5.195146802742374  6.434749999999999 5.265499999999999  L 1.1847499999999993 9.7655  C 1.1025991922722018 9.835914978052397  0.9911787864485562 9.875473700810058  0.8749999999999989 9.875473700810058  C 0.6330702012600866 9.875473700810058  0.43694734905493293 9.707368398919925  0.43694734905493293 9.5  C 0.43694734905493293 9.400418183044094  0.4830991922722003 9.304914978052398  0.5652499999999991 9.234499999999999  L 5.506374999999999 5  L 0.5652499999999996 0.7655000000000001  C 0.4829635118983197 0.6951468027423748  0.4367179392752589 0.5996204456436811  0.4367179392752589 0.5  Z " fill-rule="nonzero" fill="#666666" stroke="none" transform="matrix(1 0 0 1 314 47 )" />
  </g>
</svg>