<?xml version="1.0" encoding="utf-8"?>
<svg version="1.1" xmlns:xlink="http://www.w3.org/1999/xlink" width="75px" height="103px" xmlns="http://www.w3.org/2000/svg">
  <g>
    <path d="M 0 0  L 75 0  L 75 103  L 0 103  L 0 0  " fill-rule="nonzero" fill="#cccccc" stroke="none" />
    <path d="M 5 5  L 70 5  L 70 98  L 5 98  L 5 5  " fill-rule="nonzero" fill="#ffffff" stroke="none" />
    <path d="M 44.625 26.7  C 41.475 26.7  39 24.225  39 21.075  C 39 17.924999999999997  41.475 15.45  44.625 15.45  C 47.775 15.45  50.25 17.924999999999997  50.25 21.075  C 50.25 24.225  47.775 26.7  44.625 26.7  " fill-rule="nonzero" fill="#cccccc" stroke="none" />
    <path d="M 7 96  L 7 47.05  L 22.25 24.799999999999997  L 43.6 42.6  L 55.800000000000004 38.15  L 68 42.6  L 68 96  L 7 96  " fill-rule="nonzero" fill="#169bd5" stroke="none" />
  </g>
</svg>