<?xml version="1.0" encoding="utf-8"?>
<svg version="1.1" xmlns:xlink="http://www.w3.org/1999/xlink" width="15px" height="16px" xmlns="http://www.w3.org/2000/svg">
  <g>
    <path d="M 14.452285766601562 2.2686680405735977  C 14.452285766601562 1.343815401017665  13.741166247166694 0.584228515625  12.873123711962252 0.584228515625  L 2.1268762880377476 0.584228515625  C 1.259826938454061 0.584228515625  0.5477142333984375 1.3427560030221937  0.5477142333984375 2.2686680405735977  L 0.5477142333984375 13.731331959426402  C 0.5477142333984375 14.656184598982335  1.2588337528333065 15.415771484375  2.1268762880377476 15.415771484375  L 12.873123711962252 15.415771484375  C 13.741166247166692 15.415771484375  14.452285766601562 14.657243996977806  14.452285766601562 13.731331959426402  L 14.452285766601562 2.2686680405735977  Z M 13.50478853110224 13.730272561430931  L 13.504788531102237 13.7313319594264  C 13.498403156910827 14.100826917906627  13.218550416940694 14.398399269618375  12.872130526341497 14.404048368513584  L 2.1278694736585018 14.404048368513585  C 1.7812404854952955 14.398367832119991  1.5015301573875108 14.100010148805017  1.4962046545185141 13.730272561430931  L 1.4962046545185141 2.2697274385690687  C 1.4962046545185141 1.9052952378392218  1.78621428547427 1.595951631486415  2.1278694736585018 1.595951631486415  L 12.872130526341499 1.595951631486415  C 13.21378571452573 1.595951631486415  13.50478853110224 1.9052952378392214  13.50478853110224 2.2697274385690687  L 13.50478853110224 13.730272561430931  Z " fill-rule="nonzero" fill="#669df6" stroke="none" />
  </g>
</svg>