<?xml version="1.0" encoding="utf-8"?>
<svg version="1.1" xmlns:xlink="http://www.w3.org/1999/xlink" width="16px" height="19px" xmlns="http://www.w3.org/2000/svg">
  <defs>
    <mask fill="white" id="clip871">
      <path d="M 16 7.986540701436752  C 16 3.570337776627639  12.421441774491655 0  8.004929143561299 0  C 3.5785582255083455 0  0 3.570337776627639  0 7.986540701436752  C 0 12.137181312281427  3.164510166358582 17.094344506276684  7.245841035120179 18.84508865018779  C 7.728897104128123 19.05163711660407  8.271102895871877 19.05163711660407  8.764017252002418 18.84508865018779  C 13.032655576093703 17.055001941244882  16 12.147016953539605  16 7.986540701436752  Z M 11 8.5  C 11 9.88132295719879  9.88132295719845 11  8.5 11  C 7.118677042801551 11  6 9.88132295719879  6 8.5  C 6 7.11867704280121  7.118677042801551 6  8.5 6  C 9.88132295719845 6  11 7.11867704280121  11 8.5  Z " fill-rule="evenodd" />
    </mask>
  </defs>
  <g transform="matrix(1 0 0 1 -20 -31 )">
    <path d="M 16 7.986540701436752  C 16 3.570337776627639  12.421441774491655 0  8.004929143561299 0  C 3.5785582255083455 0  0 3.570337776627639  0 7.986540701436752  C 0 12.137181312281427  3.164510166358582 17.094344506276684  7.245841035120179 18.84508865018779  C 7.728897104128123 19.05163711660407  8.271102895871877 19.05163711660407  8.764017252002418 18.84508865018779  C 13.032655576093703 17.055001941244882  16 12.147016953539605  16 7.986540701436752  Z M 11 8.5  C 11 9.88132295719879  9.88132295719845 11  8.5 11  C 7.118677042801551 11  6 9.88132295719879  6 8.5  C 6 7.11867704280121  7.118677042801551 6  8.5 6  C 9.88132295719845 6  11 7.11867704280121  11 8.5  Z " fill-rule="nonzero" fill="#ffffff" stroke="none" fill-opacity="0" transform="matrix(1 0 0 1 20 31 )" />
    <path d="M 16 7.986540701436752  C 16 3.570337776627639  12.421441774491655 0  8.004929143561299 0  C 3.5785582255083455 0  0 3.570337776627639  0 7.986540701436752  C 0 12.137181312281427  3.164510166358582 17.094344506276684  7.245841035120179 18.84508865018779  C 7.728897104128123 19.05163711660407  8.271102895871877 19.05163711660407  8.764017252002418 18.84508865018779  C 13.032655576093703 17.055001941244882  16 12.147016953539605  16 7.986540701436752  Z " stroke-width="3" stroke="#e63214" fill="none" transform="matrix(1 0 0 1 20 31 )" mask="url(#clip871)" />
    <path d="M 11 8.5  C 11 9.88132295719879  9.88132295719845 11  8.5 11  C 7.118677042801551 11  6 9.88132295719879  6 8.5  C 6 7.11867704280121  7.118677042801551 6  8.5 6  C 9.88132295719845 6  11 7.11867704280121  11 8.5  Z " stroke-width="3" stroke="#e63214" fill="none" transform="matrix(1 0 0 1 20 31 )" mask="url(#clip871)" />
  </g>
</svg>