<?xml version="1.0" encoding="utf-8"?>
<svg version="1.1" xmlns:xlink="http://www.w3.org/1999/xlink" width="16px" height="18px" xmlns="http://www.w3.org/2000/svg">
  <g transform="matrix(1 0 0 1 -60 -7 )">
    <path d="M 6.4 16.2  C 6.4 15.2055  5.684 14.4  4.8 14.4  C 3.9159999999999995 14.4  3.2079999999999997 15.2055  3.2079999999999997 16.2  C 3.2079999999999997 17.1945  3.9159999999999995 18  4.8 18  C 5.684 18  6.4 17.1945  6.4 16.2  Z M 2.6119999999999997 0  L 0 0  L 0 1.8  L 1.6 1.8  L 4.476000000000001 8.626500000000002  L 3.396000000000001 10.8315  C 3.2720000000000007 11.0925  3.2000000000000006 11.385000000000002  3.2000000000000006 11.700000000000001  C 3.2000000000000006 12.694500000000001  3.9160000000000013 13.5  4.800000000000001 13.5  L 14.4 13.5  L 14.4 11.700000000000001  L 5.14 11.700000000000001  C 5.0280000000000005 11.700000000000001  4.9399999999999995 11.601  4.9399999999999995 11.475  C 4.9399999999999995 11.4345  4.9479999999999995 11.3985  4.964 11.367  L 5.68 9.9  L 11.64 9.9  C 12.24 9.9  12.764000000000001 9.5265  13.040000000000001 8.973  L 15.9 3.132  C 15.963999999999999 3.0060000000000007  16 2.8575000000000004  16 2.6999999999999997  C 16 2.2005000000000003  15.64 1.8  15.2 2  L 3.372 2  L 2.6119999999999997 0  Z M 14.4 16.2  C 14.4 15.2055  13.684000000000001 14.4  12.8 14.4  C 11.916 14.4  11.208 15.2055  11.208 16.2  C 11.208 17.1945  11.916 18  12.8 18  C 13.684000000000001 18  14.4 17.1945  14.4 16.2  Z " fill-rule="nonzero" fill="#ffffff" stroke="none" transform="matrix(1 0 0 1 60 7 )" />
  </g>
</svg>