<?xml version="1.0" encoding="utf-8"?>
<svg version="1.1" xmlns:xlink="http://www.w3.org/1999/xlink" width="20px" height="18px" xmlns="http://www.w3.org/2000/svg">
  <g transform="matrix(1 0 0 1 -32 -17 )">
    <path d="M 20 2.25  C 20 1.008984375  18.87890625 0  17.5 0  L 2.5 0  C 1.12109375 0  0 1.008984375  0 2.25  L 0 12.375  C 0 13.616015625000001  1.12109375 14.625  2.5 14.625  L 6.25 14.625  L 6.25 17.578125  C 6.25 17.827734375000002  6.4765625 18  6.71875 18  C 6.8125 18  6.91015625 17.975390625  6.99609375 17.915625000000002  L 11.875 14.625  L 17.5 14.625  C 18.87890625 14.625  20 13.616015625000001  20 12.375  L 20 2.25  Z M 18 2.25  L 18 12.375  C 18.125 12.684375000000001  17.84375 12.9375  17.5 12.9375  L 11.25 12.9375  L 10.75 13.275  L 8.125 15.046875  L 8.125 12.9375  L 2.5 12.9375  C 2.15625 12.9375  1.875 12.684375000000001  2 12.375  L 2 2.25  C 1.875 1.940625  2.15625 1.6875  2.5 2  L 17.5 2  C 17.84375 1.6875  18.125 1.940625  18 2.25  Z " fill-rule="nonzero" fill="#8a1410" stroke="none" fill-opacity="0.8352941176470589" transform="matrix(1 0 0 1 32 17 )" />
  </g>
</svg>