<?xml version="1.0" encoding="utf-8"?>
<svg version="1.1" xmlns:xlink="http://www.w3.org/1999/xlink" width="12px" height="12px" xmlns="http://www.w3.org/2000/svg">
  <g transform="matrix(1 0 0 1 -329 -102 )">
    <path d="M 1.251105519897294 0.447006651884692  L 8.713953273427478 0.447006651884692  C 8.86988675631818 0.4469991650677514  9.021477424334222 0.5030459755822108  9.145275481386392 0.6064771151826562  C 9.455963029525037 0.866077068502733  9.51473376123235 1.3510490372272272  9.276520667522476 1.689644812696912  L 6.3108847240051205 5.90508558758313  L 6.3108847240051205 10.843332757614633  C 6.3108848622561595 10.934665084830073  6.291338628745876 11.024736117534331  6.253802310654692 11.10637432605904  L 6.247394094993581 11.119898797992732  C 6.107226700898593 11.405942723771744  5.780851347881907 11.514017504959725  5.518373299101398 11.36126894620142  L 4.201324775353015 10.59479705916678  C 3.878178177150204 10.406731613957277  3.676368677792027 10.0399441708484  3.676368677792027 9.640689928813174  L 3.676368677792027 5.92155425370521  L 0.6892898587933303 1.6906934298051226  C 0.5969067411223818 1.5598597443256494  0.5454125123033009 1.40015860534362  0.5423691912708648 1.2350424086824603  L 0.5422336328626329 1.2195820282413479  C 0.5422336328626329 0.7929024156844378  0.8596128369704843 0.447006651884692  1.251105519897294 0.447006651884692  Z M 7.5761252888318324 9.779658583265245  L 11.09222695763799 9.779658583265245  C 11.295811039794614 9.779658583265245  11.46084724005135 9.959536748745478  11.46084724005135 10.18139992998016  C 11.46084724005135 10.400103816081213  11.30049396662389 10.577992297817701  11.100927342747099 10.583020282413344  L 11.09222695763799 10.583127832885992  L 7.5761252888318324 10.583127832885992  C 7.372541206675237 10.583127832885992  7.207517329910132 10.403276555023922  7.207517329910132 10.18139992998016  C 7.207517329910132 9.962696043879077  7.367870603337622 9.78480756214259  7.567424903722724 9.779766133737894  L 7.5761252888318324 9.779658583265245  Z M 7.5761252888318324 7.616469039561196  L 11.09222695763799 7.616469039561196  C 11.295811039794614 7.616469039561196  11.46084724005135 7.796320317423266  11.46084724005135 8.018196942467029  C 11.46084724005135 8.236900828568082  11.30049396662389 8.414789310304599  11.100927342747099 8.419830738709294  L 11.09222695763799 8.419938289181914  L 7.5761252888318324 8.419938289181914  C 7.372541206675237 8.419938289181914  7.207517329910132 8.24006012370171  7.207517329910132 8.018196942467029  C 7.207517329910132 7.799493056365975  7.367870603337622 7.621604574629487  7.567424903722724 7.616576590033816  L 7.5761252888318324 7.616469039561196  Z M 7.5761252888318324 5.453266052048065  L 11.09222695763799 5.453266052048065  C 11.295811039794614 5.453266052048065  11.46084724005135 5.633130773719216  11.46084724005135 5.855007398762979  C 11.46084724005135 6.073711284864032  11.30049396662389 6.2515997666005205  11.100927342747099 6.256627751196163  L 11.09222695763799 6.256735301668812  L 7.5761252888318324 6.256735301668812  C 7.372541206675237 6.256735301668812  7.207517329910132 6.07687057999766  7.207517329910132 5.855007398762979  C 7.207517329910132 5.636303512661897  7.367870603337622 5.4584150309254085  7.567424903722724 5.453373602520713  L 7.5761252888318324 5.453266052048065  Z " fill-rule="nonzero" fill="#333333" stroke="none" transform="matrix(1 0 0 1 329 102 )" />
  </g>
</svg>