<?xml version="1.0" encoding="utf-8"?>
<svg version="1.1" xmlns:xlink="http://www.w3.org/1999/xlink" width="19px" height="22px" xmlns="http://www.w3.org/2000/svg">
  <g transform="matrix(1 0 0 1 -305 -609 )">
    <path d="M 8.097265625 4.3203125  L 8.11953125 4.296875  C 8.946921875000001 3.5049921874999996  10.223810937500001 3.5547031249999996  10.991796875 4.4140625  L 18.09453125 12.4765625  C 18.293964453125 12.69575  18.40625 12.9942265625  18.40625 13.296875  C 18.40625 13.977265624999998  17.8851453125 14.515906249999997  17.2484375 14.515625  L 14.420703125000001 14.515625  C 14.322327403936391 14.515625  14.242578125 14.599571609406729  14.242578125 14.703125  L 14.242578125 18.21875  C 14.242578125 19.87559375  12.966579687500001 21.21875  11.392578125 21.21875  L 7.607421875 21.21875  C 6.0334203125 21.21875  4.7574218749999995 19.87559375  4.7574218749999995 18.21875  L 4.7574218749999995 14.703125  C 4.7574218749999995 14.599571609406729  4.677672596063611 14.515625  4.579296875 14.515625  L 1.7515625000000001 14.515625  C 1.45974921875 14.515906249999997  1.1853253906249999 14.405375000000001  0.972265625 14.2109375  L 0.972265625 14.1875  C 0.49208515625000016 13.741320312500001  0.4711777343750001 12.977492187500001  0.9054687499999999 12.4765625  L 7.9859374999999995 4.4375  C 8.025058203124999 4.3943281249999995  8.060749999999999 4.3562421874999995  8.097265625 4.3203125  Z M 2.219140625 1  L 16.803125 1  C 17.19210546875 0.8046875  17.515625 1.1457031249999998  17.515625 1.578125  C 17.515625 1.9871093750000002  17.19210546875 2.328125  16.803125 2.328125  L 2.219140625 2.328125  C 1.80789453125 2.328125  1.484375 1.9871093750000002  1.484375 1.578125  C 1.484375 1.1457031249999998  1.80789453125 0.8046875  2.219140625 1  Z " fill-rule="nonzero" fill="#ffffff" stroke="none" transform="matrix(1 0 0 1 305 609 )" />
  </g>
</svg>