<?xml version="1.0" encoding="utf-8"?>
<svg version="1.1" xmlns:xlink="http://www.w3.org/1999/xlink" width="15px" height="18px" xmlns="http://www.w3.org/2000/svg">
  <g transform="matrix(1 0 0 1 -40 -118 )">
    <path d="M 1.7880681818181818 2.0700000000000003  C 2.7263669310195398 1.7398401077996364  3.671631069666677 1.4341296820070104  4.623068181818181 1.1531250000000002  C 5.689772727272728 0.842625  6.821931818181818 0.5625  7.5 0.5625  C 8.177045454545457 0.5625  9.310227272727271 0.842625  10.376931818181818 1.153125  C 11.3283709950779 1.4341216054173729  12.273635306752691 1.7398320871693391  13.211931818181819 2.07  C 13.75193181818182 2.259  14.158977272727274 2.770875  14.237727272727273 3.4019999999999997  C 14.82375 8.123625  13.464545454545455 11.622375  11.816931818181818 13.937624999999997  C 11.11481225955749 14.931234368888676  10.281228068819562 15.8034295725971  9.343977272727274 16.525125  C 9.01808213600064 16.776231656438032  8.673573671726887 16.99675812721347  8.314090909090911 17.184375  C 8.037954545454546 17.323875  7.743409090909093 17.4375  7.500000000000002 17.4375  C 7.256590909090912 17.4375  6.962045454545456 17.323874999999997  6.685909090909093 17.184375  C 6.326349383548188 16.996918772083255  5.981828906645833 16.776384611794022  5.656022727272728 16.525125  C 4.719144486893988 15.803328227202037  3.8859107769781644 14.931139031468883  3.1840909090909113 13.937625  C 1.534431818181818 11.622375  0.17624999999999996 8.123625  0.7622727272727269 3.4019999999999997  C 0.8422405173326142 2.777631924900901  1.2413301145907072 2.2594122923296736  1.7880681818181818 2.0700000000000003  Z M 7.5 1.6875  C 6.978409090909091 1.6875  5.976136363636364 1.92375  4.8848863636363635 2.2398750000000005  C 3.9495839366840504 2.5164588619690345  3.0203477910469387 2.8172926702923595  2.097954545454545 3.1421250000000005  C 1.9276143393618308 3.199964700515926  1.802419266782516 3.3599759266125355  1.7757954545454542 3.553875  C 1.2306818181818182 7.938  2.4886363636363638 11.137500000000001  3.988977272727273 13.244625000000001  C 4.741704545454545 14.302124999999998  5.556818181818181 15.085124999999998  6.235909090909091 15.59925  C 6.576477272727273 15.855749999999999  6.876136363636364 16.0425  7.112386363636364 16.161749999999998  C 7.231022727272727 16.221375000000002  7.327159090909092 16.261875  7.400795454545456 16.2855  C 7.433264184923462 16.296981927005117  7.4664099988976504 16.30600305575685  7.5 16.3125  C 7.507159090909091 16.311375  7.5388636363636365 16.306874999999998  7.599204545454545 16.286624999999997  C 7.672840909090908 16.261875  7.768977272727273 16.221375000000002  7.887613636363636 16.161749999999998  C 8.122840909090908 16.0425  8.424545454545454 15.855749999999999  8.764090909090909 15.59925  C 9.615634135063926 14.942036243546765  10.37299482603266 14.148376016502018  11.011022727272726 13.244625000000001  C 12.511363636363637 11.137500000000001  13.769318181818182 7.938  13.224204545454544 3.553875  C 13.197580733217482 3.3599759266125346  13.072385660638169 3.199964700515926  12.902045454545455 3.1421249999999996  C 12.261818181818184 2.9171249999999995  11.18181818181818 2.5503749999999994  10.115113636363636 2.2398749999999996  C 9.024886363636362 1.92375  8.021590909090909 1.6875  7.5 1.6875  Z " fill-rule="nonzero" fill="#666666" stroke="none" transform="matrix(1 0 0 1 40 118 )" />
  </g>
</svg>