<?xml version="1.0" encoding="utf-8"?>
<svg version="1.1" xmlns:xlink="http://www.w3.org/1999/xlink" width="5px" height="6px" xmlns="http://www.w3.org/2000/svg">
  <g transform="matrix(1 0 0 1 -45 -123 )">
    <path d="M 2.03125 0.75  C 2.03125 0.43933982822017814  2.241116523516815 0.1875  2.5 0.1875  C 2.758883476483185 0.1875  2.96875 0.43933982822017814  2.96875 0.75  L 2.96875 2.4375  L 4.375 2.4375  C 4.633883476483184 2.4375  4.84375 2.689339828220178  4.84375 3  C 4.84375 3.310660171779822  4.633883476483184 3.5625  4.375 3.5625  L 2.96875 3.5625  L 2.96875 5.25  C 2.96875 5.560660171779822  2.758883476483185 5.8125  2.5 5.8125  C 2.241116523516815 5.8125  2.03125 5.560660171779822  2.03125 5.25  L 2.03125 3.5625  L 0.625 3.5625  C 0.3661165235168151 3.5625  0.15625 3.310660171779822  0.15625 3  C 0.15625 2.689339828220178  0.3661165235168151 2.4375  0.625 2.4375  L 2.03125 2.4375  L 2.03125 0.75  Z " fill-rule="nonzero" fill="#666666" stroke="none" transform="matrix(1 0 0 1 45 123 )" />
  </g>
</svg>