<?xml version="1.0" encoding="utf-8"?>
<svg version="1.1" xmlns:xlink="http://www.w3.org/1999/xlink" width="18px" height="14px" xmlns="http://www.w3.org/2000/svg">
  <g transform="matrix(1 0 0 1 -30 -66 )">
    <path d="M 18 7  C 17.99983431374664 6.914696758645804  17.98234491315602 6.83029715125016  17.94857142857143 6.751818181818181  L 16.02 2.297272727272727  C 15.91939337368126 2.062133214619342  15.686537271082594 1.9092990269453414  15.428571428571427 1.909090909090909  L 13.5 1.909090909090909  L 13.5 0.6363636363636364  C 13.5 0.2849097046531316  13.212183053462654 0  12.857142857142858 0  L 0.6428571428571428 0  C 0.28781694653734724 0  0 0.2849097046531316  0 0.6363636363636364  L 0 11.454545454545455  C 0 11.805999386255959  0.28781694653734724 12.090909090909092  0.6428571428571428 12.090909090909092  L 2.0185714285714282 12.090909090909092  C 2.322898596960139 13.199429312830128  3.3395526914435583 13.968818485137428  4.5 13.968818485137428  C 5.660447308556442 13.968818485137428  6.6771014030398605 13.199429312830128  6.981428571428571 12.090909090909092  L 11.01857142857143 12.090909090909092  C 11.322898596960142 13.199429312830128  12.33955269144356 13.968818485137428  13.5 13.968818485137428  C 14.660447308556442 13.968818485137428  15.677101403039858 13.199429312830128  15.98142857142857 12.090909090909092  L 17.357142857142858 12.090909090909092  C 17.712183053462653 12.090909090909092  18 11.805999386255959  18 11.454545454545455  L 18 7  Z M 13.5 6.363636363636363  L 13.5 3.1818181818181817  L 15.004285714285713 3.1818181818181817  L 16.38 6.363636363636363  L 13.5 6.363636363636363  Z M 5.7857142857142865 11.454545454545455  C 5.7857142857142865 12.157453317966464  5.2100803926395916 12.727272727272727  4.5 12.727272727272727  C 3.7899196073604084 12.727272727272727  3.2142857142857144 12.157453317966464  3.2142857142857144 11.454545454545455  C 3.2142857142857144 10.751637591124444  3.7899196073604084 10.181818181818182  4.5 10.181818181818182  C 5.2100803926395916 10.181818181818182  5.7857142857142865 10.751637591124444  5.7857142857142865 11.454545454545455  Z M 12.214285714285715 9.265454545454544  C 11.623065261283108 9.6051279747593  11.192805978457686 10.163852856421158  11.01857142857143 10.818181818181818  L 6.981428571428571 10.818181818181818  C 6.6771014030398605 9.70966159626078  5.660447308556441 8.94027242395348  4.5 8.94027242395348  C 3.3395526914435583 8.94027242395348  2.322898596960139 9.70966159626078  2.0185714285714282 10.818181818181818  L 1.2857142857142856 10.818181818181818  L 1.2857142857142856 1.2727272727272727  L 12.214285714285715 1.2727272727272727  L 12.214285714285715 9.265454545454544  Z M 14.785714285714285 11.454545454545455  C 14.785714285714285 12.157453317966464  14.21008039263959 12.727272727272727  13.5 12.727272727272727  C 12.78991960736041 12.727272727272727  12.214285714285715 12.157453317966464  12.214285714285715 11.454545454545455  C 12.214285714285715 10.751637591124444  12.78991960736041 10.181818181818182  13.5 10.181818181818182  C 14.21008039263959 10.181818181818182  14.785714285714285 10.751637591124444  14.785714285714285 11.454545454545455  Z M 16.714285714285715 7.636363636363636  L 16.714285714285715 10.818181818181818  L 15.98142857142857 10.818181818181818  C 15.689068680520439 9.697289039794747  14.669458060442462 8.912850032355262  13.5 8.909090909090908  L 13.5 7.636363636363636  L 16.714285714285715 7.636363636363636  Z " fill-rule="nonzero" fill="#cccccc" stroke="none" transform="matrix(1 0 0 1 30 66 )" />
  </g>
</svg>