<?xml version="1.0" encoding="utf-8"?>
<svg version="1.1" xmlns:xlink="http://www.w3.org/1999/xlink" width="16px" height="16px" xmlns="http://www.w3.org/2000/svg">
  <g transform="matrix(1 0 0 1 -15 -10 )">
    <path d="M 11.518924160156246 3.0279110742187356  C 11.715430937500003 3.0279110742187356  11.900605371093775 3.073280312500003  12.074467500000026 3.1639988085937603  C 12.24832962890622 3.254657343749983  12.401345878906227 3.3699191992187707  12.533616191406281 3.509784374999981  C 12.665906503906228 3.6495895898437425  12.771714765625006 3.808321972656273  12.851140917968792 3.98596152343751  C 12.930507109375014 4.163561113281247  12.970180214843765 4.335524511718745  12.970180214843765 4.5018117773437325  L 12.970180214843765 11.54245822265625  C 12.970180214843765 11.716320351562501  12.928608398437461 11.888223789062465  12.845464765625024 12.058328457031223  C 12.762321132812474 12.22841314453126  12.650836718749986 12.381449374999988  12.510991542968725 12.517537109374985  C 12.371186328124963 12.653564882812532  12.21243396484374 12.765029316406299  12.034814394531224 12.851950371093722  C 11.857154843749981 12.938891425781208  11.677676542968754 12.98234197265623  11.496299511718746 12.98234197265623  L 4.398931523437483 12.98234197265623  C 4.232644257812495 12.98234197265623  4.068235742187483 12.942668867187535  3.905725917968738 12.863302675781256  C 3.743216093749993 12.783936484374976  3.597734726562493 12.680026933593751  3.4692418554687663 12.551514062500019  C 3.340748984374983 12.423001191406229  3.236839433593758 12.271863671874996  3.157473242187507 12.098001542968746  C 3.078107050781256 11.924199375  3.0384139648437554 11.7389849609375  3.0384139648437554 11.542458203124966  L 3.0384139648437554 4.524476406250017  C 3.0384139648437554 4.335524511718745  3.078087070312506 4.150370058593751  3.157473242187507 3.9689330664062368  C 3.236839433593758 3.7875560351562285  3.34642513671875 3.626944941406265  3.4862703124999825 3.4870797656249977  C 3.626075527343744 3.3472945312500144  3.7866866210937644 3.235810117187498  3.96812361328125 3.1526665039062607  C 4.149500644531258 3.069502890624989  4.3422299609374875 3.027931074218742  4.546311601562479 3.027931074218742  L 11.518924160156246 3.027931054687514  Z M 13.548320063920471 15.936055717329566  L 13.548320063920471 16  L 2.453460546874993 16  C 1.1361718572443067 15.936055717329566  0.06444394531249031 14.865763192471604  0 13.550109747869328  L 0 2.4699493785511493  C 0.06444394531249031 1.1544049538352397  1.136153693181825 0.08409426491476779  2.453460546874993 0  L 13.548320063920471 0  C 14.865608753551157 0.08409426491476779  15.937318501420464 1.1543867897727296  16 2.4699493785511493  L 16 13.550109765624995  C 15.937318501420464 14.865763192471604  14.865699609374985 15.936055717329566  13.548320063920471 15.936055717329566  Z M 2.453460546874993 1.162363192471588  C 1.7314773259943195 1.162363192471588  1.1441482599431936 1.7489291370738727  1.1441482599431936 2.4699493785511493  L 1.1441482599431936 13.550109765624995  C 1.1441482599431936 14.271148171164782  1.7314773259943195 14.857714115767067  2.453460546874993 14.857714115767067  L 13.548320063920471 14.857714098011343  C 14.270285120738663 14.857714098011343  14.85763235085227 14.271148153409115  14.85763235085227 13.550109747869328  L 14.85763235085227 2.4699493785511493  C 14.85763235085227 1.7489291370738727  14.270303284801116 1.162363192471588  13.548320063920471 1.162363192471588  L 2.453460546874993 1.162363192471588  Z " fill-rule="nonzero" fill="#8a1410" stroke="none" transform="matrix(1 0 0 1 15 10 )" />
  </g>
</svg>