<?xml version="1.0" encoding="utf-8"?>
<svg version="1.1" xmlns:xlink="http://www.w3.org/1999/xlink" width="16px" height="16px" xmlns="http://www.w3.org/2000/svg">
  <g transform="matrix(1 0 0 1 -14 -9 )">
    <path d="M 15.875 13.625  C 15.875 14.87375  14.871500000000001 15.875  13.625 15.875  L 2.375 15.875  C 1.1284999999999998 15.875  0.125 14.87375  0.125 13.625  L 0.125 2.375  C 0.125 1.1284999999999998  1.1262500000000002 0.125  2.375 0.125  L 13.625 0.125  C 14.871500000000001 0.125  15.875 1.1262500000000002  15.875 2.375  L 15.875 13.625  Z M 11.704625000000002 3.829625  L 6.3125 9.22175  L 3.732875 6.642125  L 2.142125 8.232875  L 6.3125 12.40325  L 13.295375 5.420375  L 11.704625000000002 3.829625  Z " fill-rule="nonzero" fill="#8a1410" stroke="none" transform="matrix(1 0 0 1 14 9 )" />
  </g>
</svg>