<?xml version="1.0" encoding="utf-8"?>
<svg version="1.1" xmlns:xlink="http://www.w3.org/1999/xlink" width="50px" height="60px" xmlns="http://www.w3.org/2000/svg">
  <g transform="matrix(1 0 0 1 -68 -10 )">
    <path d="M 68 10  L 118 10  L 118 70  L 68 70  L 68 10  " fill-rule="nonzero" fill="#cccccc" stroke="none" />
    <path d="M 72 14  L 114 14  L 114 66  L 72 66  L 72 14  " fill-rule="nonzero" fill="#ffffff" stroke="none" />
    <path d="M 97.75 26.5  C 95.65 26.5  94 24.85  94 22.75  C 94 20.65  95.65 19  97.75 19  C 99.85 19  101.5 20.65  101.5 22.75  C 101.5 24.85  99.85 26.5  97.75 26.5  " fill-rule="nonzero" fill="#cccccc" stroke="none" />
    <path d="M 74 65  L 74 38.05  L 83.75 25.799999999999997  L 97.4 35.6  L 105.2 33.15  L 113 35.6  L 113 65  L 74 65  " fill-rule="nonzero" fill="#169bd5" stroke="none" />
  </g>
</svg>