<?xml version="1.0" encoding="utf-8"?>
<svg version="1.1" xmlns:xlink="http://www.w3.org/1999/xlink" width="8px" height="10px" xmlns="http://www.w3.org/2000/svg">
  <g transform="matrix(1 0 0 1 -316 -574 )">
    <path d="M 7.840909090909091 3.835227272727273  C 7.946969696969697 3.9678030303030285  8 4.128787878787879  8 4.3181818181818175  L 8 5.681818181818182  C 8 5.871212121212121  7.946969696969697 6.032196969696969  7.840909090909091 6.164772727272727  C 7.734848484848485 6.297348484848484  7.606060606060606 6.363636363636363  7.454545454545454 6.363636363636363  L 5.090909090909091 6.363636363636363  L 5.090909090909091 9.318181818181818  C 5.090909090909091 9.507575757575758  5.037878787878788 9.668560606060606  4.931818181818182 9.801136363636363  C 4.825757575757577 9.933712121212121  4.696969696969697 10  4.545454545454546 10  L 3.4545454545454546 10  C 3.303030303030303 10  3.1742424242424248 9.933712121212121  3.0681818181818183 9.801136363636363  C 2.9621212121212124 9.668560606060606  2.909090909090909 9.507575757575758  2.909090909090909 9.318181818181818  L 2.909090909090909 6.363636363636363  L 0.5454545454545454 6.363636363636363  C 0.393939393939394 6.363636363636363  0.2651515151515152 6.297348484848484  0.1590909090909091 6.164772727272727  C 0.053030303030303025 6.032196969696969  0 5.871212121212121  0 5.681818181818182  L 0 4.3181818181818175  C 0 4.128787878787879  0.053030303030303025 3.9678030303030285  0.1590909090909091 3.835227272727273  C 0.2651515151515152 3.7026515151515147  0.393939393939394 3.6363636363636367  0.5454545454545454 3.6363636363636367  L 2.909090909090909 3.6363636363636367  L 2.909090909090909 0.6818181818181823  C 2.909090909090909 0.492424242424242  2.9621212121212124 0.33143939393939337  3.0681818181818183 0.19886363636363646  C 3.1742424242424248 0.06628787878787845  3.303030303030303 0  3.4545454545454546 0  L 4.545454545454546 0  C 4.696969696969697 0  4.825757575757577 0.06628787878787845  4.931818181818182 0.19886363636363646  C 5.037878787878788 0.33143939393939337  5.090909090909091 0.492424242424242  5.090909090909091 0.6818181818181823  L 5.090909090909091 3.6363636363636367  L 7.454545454545454 3.6363636363636367  C 7.606060606060606 3.6363636363636367  7.734848484848485 3.7026515151515147  7.840909090909091 3.835227272727273  Z " fill-rule="nonzero" fill="#ffffff" stroke="none" transform="matrix(1 0 0 1 316 574 )" />
  </g>
</svg>