<?xml version="1.0" encoding="utf-8"?>
<svg version="1.1" xmlns:xlink="http://www.w3.org/1999/xlink" width="22px" height="22px" xmlns="http://www.w3.org/2000/svg">
  <g transform="matrix(1 0 0 1 -19 -62 )">
    <path d="M 17.11111111111111 15.074074074074074  C 15.797222222222222 17.029629629629632  13.546296296296298 18.333333333333336  11 18.333333333333336  C 8.453703703703704 18.333333333333336  6.2027777777777775 17.029629629629632  4.888888888888888 15.074074074074074  C 4.919444444444444 13.037037037037038  8.962962962962964 11.916666666666666  11 11.916666666666666  C 13.037037037037038 11.916666666666666  17.080555555555556 13.037037037037038  17.11111111111111 15.074074074074074  Z M 7.944444444444445 6.9259259259259265  C 7.944444444444445 5.235185185185185  9.30925925925926 3.8703703703703702  11 3.8703703703703702  C 12.690740740740743 3.8703703703703702  14.055555555555554 5.235185185185185  14.055555555555554 6.9259259259259265  C 14.055555555555554 8.616666666666667  12.690740740740743 9.981481481481483  11 9.981481481481483  C 9.30925925925926 9.981481481481483  7.944444444444445 8.616666666666667  7.944444444444445 6.9259259259259265  Z M 21.18518518518519 11  C 21.18518518518519 5.367592592592592  16.60185185185185 0.8148148148148149  11 0.8148148148148149  C 5.377777777777778 0.8148148148148149  0.8148148148148149 5.377777777777778  0.8148148148148149 11  C 0.8148148148148149 16.62222222222222  5.377777777777778 21.18518518518519  11 21.18518518518519  C 16.62222222222222 21.18518518518519  21.18518518518519 16.62222222222222  21.18518518518519 11  Z " fill-rule="nonzero" fill="#aaaaaa" stroke="none" transform="matrix(1 0 0 1 19 62 )" />
  </g>
</svg>