<?xml version="1.0" encoding="utf-8"?>
<svg version="1.1" xmlns:xlink="http://www.w3.org/1999/xlink" width="22px" height="19px" xmlns="http://www.w3.org/2000/svg">
  <g transform="matrix(1 0 0 1 -19 -159 )">
    <path d="M 7.333333333333334 13.65625  L 11 18.40625  L 14.666666666666666 13.65625  C 13.648148148148147 12.9140625  12.375 12.46875  11 12.46875  C 9.625 12.46875  8.351851851851853 12.9140625  7.333333333333334 13.65625  Z M 22 4.15625  C 18.93425925925926 1.9197916666666668  15.125000000000002 0.59375  11 0.59375  C 6.875 0.59375  3.0657407407407407 1.9197916666666668  0 4.15625  L 1.8333333333333333 6.53125  C 4.37962962962963 4.670833333333333  7.557407407407407 3.5625  11 3.5625  C 14.442592592592595 3.5625  17.620370370370374 4.670833333333333  20.166666666666664 6.53125  L 22 4.15625  Z M 18.333333333333336 8.90625  C 16.28611111111111 7.411979166666667  13.75 6.53125  11 6.53125  C 8.250000000000002 6.53125  5.713888888888889 7.411979166666667  3.6666666666666665 8.90625  L 5.5 11.281250000000002  C 7.027777777777777 10.163020833333334  8.932407407407409 9.5  11 9.5  C 13.067592592592591 9.5  14.972222222222223 10.163020833333334  16.5 11.281250000000002  L 18.333333333333336 8.90625  Z " fill-rule="nonzero" fill="#333333" stroke="none" transform="matrix(1 0 0 1 19 159 )" />
  </g>
</svg>