<?xml version="1.0" encoding="utf-8"?>
<svg version="1.1" xmlns:xlink="http://www.w3.org/1999/xlink" width="18px" height="18px" xmlns="http://www.w3.org/2000/svg">
  <g transform="matrix(1 0 0 1 -25 -875 )">
    <path d="M 34 875  C 39.04 875  43 878.96  43 884  C 43 889.04  39.04 893  34 893  C 28.96 893  25 889.04  25 884  C 25 878.96  28.96 875  34 875  Z " fill-rule="nonzero" fill="#f2f2f2" stroke="none" />
    <path d="M 34 875.5  C 38.76 875.5  42.5 879.24  42.5 884  C 42.5 888.76  38.76 892.5  34 892.5  C 29.24 892.5  25.5 888.76  25.5 884  C 25.5 879.24  29.24 875.5  34 875.5  Z " stroke-width="1" stroke="#8a1410" fill="none" />
  </g>
</svg>