<?xml version="1.0" encoding="utf-8"?>
<svg version="1.1" xmlns:xlink="http://www.w3.org/1999/xlink" width="60px" height="33px" xmlns="http://www.w3.org/2000/svg">
  <g transform="matrix(1 0 0 1 -20 -182 )">
    <path d="M 20 194.06153846153848  C 20 187.4001347097332  25.400134709733198 182  32.06153846153846 182  C 32.06153846153846 182  67.93846153846154 182  67.93846153846154 182  C 74.59986529026679 182  80 187.4001347097332  80 194.06153846153848  C 80 200.7229422133437  74.59986529026679 206.12307692307692  67.93846153846154 206.12307692307692  C 67.93846153846154 206.12307692307692  57.25 206.12307692307692  57.25 206.12307692307692  C 57.25 206.12307692307692  49 215  49 215  C 49 215  40.75 206.12307692307692  40.75 206.12307692307692  C 40.75 206.12307692307692  32.06153846153846 206.12307692307692  32.06153846153846 206.12307692307692  C 25.400134709733198 206.12307692307692  20 200.7229422133437  20 194.06153846153845  Z " fill-rule="nonzero" fill="#ffffff" stroke="none" fill-opacity="0" />
  </g>
</svg>