<?xml version="1.0" encoding="utf-8"?>
<svg version="1.1" xmlns:xlink="http://www.w3.org/1999/xlink" width="73px" height="33px" xmlns="http://www.w3.org/2000/svg">
  <g transform="matrix(1 0 0 1 -196 -173 )">
    <path d="M 196 185.06153846153848  C 196 178.4001347097332  201.4001347097332 173  208.06153846153848 173  C 208.06153846153848 173  256.9384615384615 173  256.9384615384615 173  C 263.5998652902668 173  269 178.4001347097332  269 185.06153846153848  C 269 191.7229422133437  263.5998652902668 197.12307692307692  256.9384615384615 197.12307692307692  C 256.9384615384615 197.12307692307692  241.32083333333333 197.12307692307692  241.32083333333333 197.12307692307692  C 241.32083333333333 197.12307692307692  231.28333333333333 206  231.28333333333333 206  C 231.28333333333333 206  221.24583333333334 197.12307692307692  221.24583333333334 197.12307692307692  C 221.24583333333334 197.12307692307692  208.06153846153848 197.12307692307692  208.06153846153848 197.12307692307692  C 201.4001347097332 197.12307692307692  196 191.7229422133437  196 185.06153846153845  Z " fill-rule="nonzero" fill="#1abc9c" stroke="none" />
  </g>
</svg>