<?xml version="1.0" encoding="utf-8"?>
<svg version="1.1" xmlns:xlink="http://www.w3.org/1999/xlink" width="340px" height="575px" xmlns="http://www.w3.org/2000/svg">
  <defs>
    <mask fill="white" id="clip890">
      <path d="M 110 585  C 54.5 585  10 540.5  10 485  L 10 110  C 10 54.5  54.5 10  110 10  L 250 10  C 305.5 10  350 54.5  350 110  L 350 485  C 350 540.5  305.5 585  250 585  " fill-rule="evenodd" />
    </mask>
  </defs>
  <g transform="matrix(1 0 0 1 -10 -10 )">
    <path d="M 10 10  L 350 10  L 350 585  L 10 585  L 10 10  " fill-rule="nonzero" fill="#cccccc" stroke="none" mask="url(#clip890)" />
    <path d="M 34 34  L 326 34  L 326 561  L 34 561  L 34 34  " fill-rule="nonzero" fill="#ffffff" stroke="none" mask="url(#clip890)" />
    <path d="M 212.3 147.25  C 198.02 147.25  186.8 136.03  186.8 121.75  C 186.8 107.47  198.02 96.25  212.3 96.25  C 226.58 96.25  237.8 107.47  237.8 121.75  C 237.8 136.03  226.58 147.25  212.3 147.25  " fill-rule="nonzero" fill="#cccccc" stroke="none" mask="url(#clip890)" />
    <path d="M 43 553  L 43 272.5  L 111.75 145  L 208 247  L 263 221.5  L 318 247  L 318 553  L 43 553  " fill-rule="nonzero" fill="#169bd5" stroke="none" mask="url(#clip890)" />
  </g>
</svg>