<?xml version="1.0" encoding="utf-8"?>
<svg version="1.1" xmlns:xlink="http://www.w3.org/1999/xlink" width="11px" height="12px" xmlns="http://www.w3.org/2000/svg">
  <g transform="matrix(1 0 0 1 -182 -167 )">
    <path d="M 10.96354330297321 2.7702234306617015  C 10.963240600677512 2.45227693273878  10.711136715068573 2.194694474941283  10.400255540201027 2.2311557788944754  L 7.777429785385268 2.2311557788944754  C 7.744885868265163 0.9726177535331431  6.766536281372613 -0.0006048572551620168  5.571173696608052 0  C 4.374392893634856 0  3.4002944922529292 0.9712752395899393  3.359158580402015 2.2311557788944754  L 0.5663043907035217 2.2311557788944754  C 0.25542321583597527 2.188524087994601  0.0033193302270130213 2.446106545792098  0.003016627931316407 2.7640530437150197  C 0.003319336578332847 3.0819995370375572  0.2554232203279279 3.339581987664129  0.5663043907035217 3.3768844221105567  L 1.238190954773868 3.3768844221105567  L 1.238190954773868 9.79128203997907  C 1.1882793760469137 11.002641131325102  1.9923493425460626 11.991866304368315  2.983724826214408 11.939698492462313  L 8.04152233877723 11.939698492462313  C 9.032897822445575 11.991866304368315  9.836967777428821 11.008531045602503  9.787604690117266 9.79128203997907  L 9.787604690117266 3.3768844221105567  L 10.400255540201027 3.3768844221105567  C 10.71124371358319 3.346032734251583  10.963391896554645 3.0882794719054907  10.96354330297321 2.7702234306617015  Z M 8.903182579564497 9.829426252336297  C 8.92429900963151 10.487974796060026  8.531862413107222 10.94879048482072  8.17507692943888 10.914572864321606  L 3.04652564803183 10.914572864321606  L 3.04652564803183 10.942900570543319  C 2.6897401758793933 10.942900570543319  2.2970293278894416 10.481804397335704  2.2994974874371867 9.823536338058908  L 2.2994974874371867 3.437185929648244  L 8.903182579564497 3.437185929648244  L 8.903182579564497 9.829426252336297  Z M 4.336273621231163 2.1105527638191006  C 4.377135293132339 1.4994042394255267  4.873234394891129 1.0427956289265126  5.486159484924626 1.0427956289265126  C 6.099084574958122 1.0427956289265126  6.595457916666671 1.4991237667562451  6.630286309673384 2.1105527638191006  L 4.336273621231163 2.1105527638191006  Z M 3.360804020100505 5.528105641488686  L 3.360804020100505 8.809629542242465  C 3.31665146880235 9.129367768530155  3.5396081103433783 9.384597408919603  3.8267367849665046 9.384597408919603  C 4.1072837007956515 9.384597408919603  4.336273621231163 9.129367768530155  4.363149078726974 8.809629542242465  L 4.363149078726974 5.528105641488686  C 4.336273621231163 5.208367415201007  4.107009472361819 4.953137774811559  3.826462545016746 4.953137786589199  C 3.546189869137358 4.953137786589199  3.31665146880235 5.208367426978647  3.360804020100505 5.528105641488686  Z M 5.129648241206043 5.528105641488686  L 5.129648241206043 8.809629542242465  C 5.100853104061984 9.129367768530155  5.330391492881088 9.384597408919603  5.6109384087102345 9.384597408919603  C 5.891485324539381 9.384597408919603  6.1207494734087255 9.129367768530155  6.073031825795662 8.809629542242465  L 6.073031825795662 5.528105641488686  C 6.12074948492463 5.208367415201007  5.891211096105526 4.953137774811559  5.610664168760476 4.953137786589199  C 5.330391492881088 4.953137786589199  5.10085309254608 5.208367426978647  5.129648241206043 5.528105641488686  Z M 7.14009738588778 4.953137786589199  C 6.859824698492466 4.953137798366839  6.630286309673384 5.208367426978647  6.603685092127311 5.528105641488686  L 6.603685092127311 8.809629542242465  C 6.630286309673384 9.129367768530155  6.853242951214412 9.384597408919603  7.14009738588778 9.384597408919603  C 7.420370061767168 9.384597408919603  7.649908462102197 9.129367768530155  7.60603015075378 8.809629542242465  L 7.60603015075378 5.528105641488686  C 7.649908462102197 5.208367415201007  7.4203700732830935 4.953137774811559  7.14009738588778 4.953137786589199  Z " fill-rule="nonzero" fill="#ff0000" stroke="none" transform="matrix(1 0 0 1 182 167 )" />
  </g>
</svg>