<?xml version="1.0" encoding="utf-8"?>
<svg version="1.1" xmlns:xlink="http://www.w3.org/1999/xlink" width="31px" height="24px" xmlns="http://www.w3.org/2000/svg">
  <defs>
    <mask fill="white" id="clip889">
      <path d="M 30.066831361607143 3.0100722991071507  L 10.579460959821375 23.99556987723213  L 0.0863695647321947 10.504819453124952  L 3.9276737276785236 7.225933962053546  L 10.579460959821375 14.158707823660734  L 27.068795491071484 0.012139185267869834  L 30.066831361607143 3.0100722991071507  Z " fill-rule="evenodd" />
    </mask>
  </defs>
  <g transform="matrix(1 0 0 1 -86 -34 )">
    <path d="M 30.066831361607143 3.0100722991071507  L 10.579460959821375 23.99556987723213  L 0.0863695647321947 10.504819453124952  L 3.9276737276785236 7.225933962053546  L 10.579460959821375 14.158707823660734  L 27.068795491071484 0.012139185267869834  L 30.066831361607143 3.0100722991071507  Z " fill-rule="nonzero" fill="#ffffff" stroke="none" transform="matrix(1 0 0 1 86 34 )" />
    <path d="M 30.066831361607143 3.0100722991071507  L 10.579460959821375 23.99556987723213  L 0.0863695647321947 10.504819453124952  L 3.9276737276785236 7.225933962053546  L 10.579460959821375 14.158707823660734  L 27.068795491071484 0.012139185267869834  L 30.066831361607143 3.0100722991071507  Z " stroke-width="2" stroke="#cecece" fill="none" transform="matrix(1 0 0 1 86 34 )" mask="url(#clip889)" />
  </g>
</svg>