<?xml version="1.0" encoding="utf-8"?>
<svg version="1.1" xmlns:xlink="http://www.w3.org/1999/xlink" width="22px" height="22px" xmlns="http://www.w3.org/2000/svg">
  <g transform="matrix(1 0 0 1 -18 -61 )">
    <path d="M 21.78 1.045  C 21.78 0.5912499999999999  21.40875 0.22  20.955000000000002 0.22  L 14.024999999999999 0.22  C 13.93425 0.22  13.86 0.29425000000000007  13.86 0.385  L 13.86 1.9249999999999998  C 13.86 2.01575  13.93425 2.09  14.024999999999999 2.09  L 18.436 2.09  L 12.955250000000001 7.57075  C 11.580250000000001 6.5120000000000005  9.902750000000001 5.94  8.14 5.94  C 6.025250000000001 5.94  4.034249999999999 6.765  2.541 8.261  C 1.0477500000000006 9.757  0.22 11.74525  0.22 13.86  C 0.22 15.97475  1.045 17.96575  2.541 19.459000000000003  C 4.034249999999999 20.955000000000002  6.025250000000001 21.78  8.14 21.78  C 10.25475 21.78  12.245749999999997 20.955000000000002  13.739 19.459000000000003  C 15.235 17.96575  16.06 15.97475  16.06 13.86  C 16.06 12.09725  15.488000000000001 10.425250000000002  14.431999999999999 9.050250000000002  L 19.91 3.5722500000000004  L 19.91 7.975  C 19.91 8.065750000000001  19.98425 8.14  20.075 8.14  L 21.615000000000002 8.14  C 21.70575 8.14  21.78 8.065750000000001  21.78 7.975  L 21.78 1.045  Z M 13.97 13.86  C 13.97 17.074749999999998  11.35475 19.69  8.14 19.69  C 4.92525 19.69  2.31 17.074749999999998  2.31 13.86  C 2.31 10.64525  4.92525 8.03  8.14 8.03  C 11.35475 8.03  13.97 10.64525  13.97 13.86  Z " fill-rule="nonzero" fill="#000000" stroke="none" transform="matrix(1 0 0 1 18 61 )" />
  </g>
</svg>