<?xml version="1.0" encoding="utf-8"?>
<svg version="1.1" xmlns:xlink="http://www.w3.org/1999/xlink" width="17px" height="22px" xmlns="http://www.w3.org/2000/svg">
  <g transform="matrix(1 0 0 1 -17 -110 )">
    <path d="M 9.621527777777777 13.885044642857144  C 11.436631944444445 13.683705357142857  13.110069444444447 12.998660714285712  14.426388888888887 11.903571428571428  C 16.008333333333333 10.587499999999999  16.881944444444446 8.834374999999998  16.881944444444446 6.973214285714284  C 16.881944444444446 5.109598214285712  16.01128472222222 3.3589285714285704  14.426388888888887 2.042857142857141  C 12.844444444444447 0.7267857142857141  10.737152777777776 0  8.5 0  C 6.262847222222224 0  4.155555555555556 0.7243303571428572  2.573611111111111 2.0428571428571427  C 0.9916666666666674 3.3613839285714286  0.11805555555555555 5.109598214285715  0.11805555555555555 6.973214285714286  C 0.11805555555555555 8.539732142857144  0.7348958333333335 10.027678571428572  1.8711805555555547 11.243080357142857  C 2.086631944444444 11.473883928571428  2.3197916666666654 11.692410714285714  2.570659722222221 11.903571428571428  C 2.8215277777777765 12.112276785714284  3.0871527777777765 12.306249999999999  3.361631944444444 12.485491071428571  C 4.530381944444445 13.241741071428569  5.908680555555556 13.722991071428572  7.378472222222222 13.885044642857144  L 7.378472222222222 16.5  L 4.013888888888888 16.5  C 3.8840277777777787 16.5  3.7777777777777777 16.588392857142857  3.7777777777777777 16.69642857142857  L 3.7777777777777777 18.169642857142858  C 3.7777777777777777 18.27767857142857  3.8840277777777787 18.36607142857143  4.013888888888888 18.36607142857143  L 7.378472222222222 18.36607142857143  L 7.378472222222222 21.80357142857143  C 7.378472222222222 21.911607142857143  7.484722222222223 22  7.614583333333334 22  L 9.385416666666668 22  C 9.515277777777778 22  9.621527777777777 21.911607142857143  9.621527777777777 21.80357142857143  L 9.621527777777777 18.36607142857143  L 12.98611111111111 18.36607142857143  C 13.11597222222222 18.36607142857143  13.222222222222223 18.27767857142857  13.222222222222223 18.169642857142858  L 13.222222222222223 16.69642857142857  C 13.222222222222223 16.588392857142857  13.11597222222222 16.5  12.98611111111111 16.5  L 9.621527777777777 16.5  L 9.621527777777777 13.885044642857144  Z M 12.841493055555556 10.585044642857143  C 11.678645833333334 11.55  10.140972222222222 12.080357142857144  8.5 12.080357142857144  C 6.859027777777777 12.080357142857144  5.3213541666666675 11.55  4.158506944444444 10.585044642857143  C 2.998611111111112 9.620089285714286  2.361111111111111 8.338392857142859  2.361111111111111 6.973214285714286  C 2.361111111111111 5.608035714285714  2.998611111111112 4.328794642857143  4.158506944444444 3.3613839285714286  C 5.318402777777778 2.3939732142857144  6.859027777777777 1.8660714285714286  8.5 1.8660714285714286  C 10.140972222222222 1.8660714285714286  11.678645833333334 2.3964285714285714  12.841493055555556 3.3613839285714286  C 14.001388888888888 4.326339285714286  14.63888888888889 5.608035714285714  14.63888888888889 6.973214285714286  C 14.63888888888889 8.338392857142859  14.001388888888888 9.61763392857143  12.841493055555556 10.585044642857143  Z " fill-rule="nonzero" fill="#000000" stroke="none" transform="matrix(1 0 0 1 17 110 )" />
  </g>
</svg>