<?xml version="1.0" encoding="utf-8"?>
<svg version="1.1" xmlns:xlink="http://www.w3.org/1999/xlink" width="8px" height="8px" xmlns="http://www.w3.org/2000/svg">
  <g transform="matrix(1 0 0 1 -27 -164 )">
    <path d="M 4.8 6.4  L 4.8 8  L 3.2 8  L 3.2 4.8  L 4.8 4.8  C 5.683655599729269 4.8  6.4 4.083655599729269  6.4 3.2  C 6.4 2.3163444002707307  5.683655599729269 1.6  4.8 1.6  L 3.2 1.6000000000000014  C 2.3167647423559288 1.6010139724474386  1.601013972447437 2.3167647423559274  1.6 3.2  L 1.6 3.6  L 0 3.6  L 0 3.2  C 0.001983953819301121 1.4335112337420965  1.433511233742098 0.0019839538193025417  3.2 0  L 4.8 0  C 6.567311199458539 0  8 1.4326888005414617  8 3.2  C 8 4.967311199458538  6.567311199458539 6.4  4.8 6.4  Z " fill-rule="nonzero" fill="#000000" stroke="none" transform="matrix(1 0 0 1 27 164 )" />
  </g>
</svg>