<?xml version="1.0" encoding="utf-8"?>
<svg version="1.1" xmlns:xlink="http://www.w3.org/1999/xlink" width="22px" height="21px" xmlns="http://www.w3.org/2000/svg">
  <g transform="matrix(1 0 0 1 -20 -159 )">
    <path d="M 12.157514285714283 20.542947490488025  C 11.850766256427907 20.83625886902825  11.434181858653128 21.00074917216637  11 20.99999743465513  C 10.565818141346867 21.00074917216637  10.149233743572095 20.83625886902825  9.842485714285715 20.542947490488025  L 0.47881428571428564 11.604898582353774  C -0.15956189535543097 10.994323124335619  -0.15956189535543028 10.005674310319506  0.47881428571428564 9.39509885230135  L 9.842485714285715 0.45704994416710126  C 10.482136272253507 -0.15230906332421473  11.517863727746493 -0.15230906332421473  12.157514285714283 0.45704994416710126  L 21.521185714285718 9.395098852301352  C 22.159561895355427 10.005674310319508  22.159561895355427 10.994323124335619  21.521185714285714 11.604898582353774  L 12.157514285714283 20.542947490488025  Z M 11.046435714285714 1.5176998145988623  C 11.034084766183332 1.5060021689519938  11.017398915892757 1.499426389345435  11 1.4993998168343765  C 10.982601084107245 1.499426389345435  10.965915233816668 1.5060021689519942  10.953564285714286 1.5176998145988614  L 1.5899714285714286 10.455673722742274  C 1.5644207220964674 10.480191245316655  1.5644207220964674 10.519806189338476  1.5899714285714286 10.544323711912856  L 10.953564285714284 19.482297620056272  C 10.979319498823296 19.506524039581354  11.020680501176706 19.506524039581354  11.046435714285714 19.48229762005627  L 20.410028571428573 10.544323711912856  C 20.435579277903532 10.519806189338476  20.435579277903532 10.480191245316655  20.410028571428573 10.455673722742276  L 11.046435714285714 1.5176998145988623  Z " fill-rule="nonzero" fill="#000000" stroke="none" transform="matrix(1 0 0 1 20 159 )" />
  </g>
</svg>