<?xml version="1.0" encoding="utf-8"?>
<svg version="1.1" xmlns:xlink="http://www.w3.org/1999/xlink" width="11px" height="11px" xmlns="http://www.w3.org/2000/svg">
  <g transform="matrix(1 0 0 1 -153 -167 )">
    <path d="M 10.868005733909373 10.05636991152732  C 11.011316503259529 9.912898976872937  11.011316503259529 9.680570403042227  10.867976594836485 9.53714314854098  L 9.309844934809592 7.979157070053801  C 9.166548706539725 7.835686135399419  8.93404542632452 7.835686135399419  8.790632727131628 7.979157070053801  L 8.74867177928392 8.021088907284776  C 8.74867177928392 8.021088907284776  7.97888773282283 7.255745553083606  7.958475086661831 7.242918499068706  C 8.56826297211298 6.483792125413913  8.933390252483461 5.519782143781051  8.933390252483461 4.470379739238402  C 8.933390252483461 2.023249483909363  6.949665018367129 0.03956792994618657  4.502665803497515 0.03956792994618657  C 2.0556665886279006 0.03956792994618657  0.07195592404801232 2.0232786087541417  0.07195592404801232 4.470379739238402  C 0.07195592404801232 6.917233358340235  2.0556666028559674 8.901089618687926  4.502665803497515 8.901089618687926  C 5.552242928652723 8.901089618687926  6.516369381208589 8.535874978011176  7.275481199555046 7.925941496792223  C 7.28832282310639 7.946310462800087  8.053607927617982 8.715948913493374  8.053607927617982 8.715948913493374  L 8.011588730080716 8.757938986185842  C 7.868292501810848 8.901424490376666  7.868292501810848 9.134087935896117  8.011588730080716 9.277355039321185  L 9.569633044029406 10.835384783733453  C 9.713074868067036 10.978855718387836  9.945563592973924 10.978855718387836  10.089005417011595 10.835384783733453  L 10.868005733909373 10.05636991152732  Z M 7.226924705091059 4.470379739238402  C 7.226924705091059 5.974786233702397  6.007276129190803 7.194318338679628  4.502665789269448 7.194318338679628  C 2.998244725269031 7.194318338679628  1.7787417451365988 5.97480080323882  1.7787417451365988 4.470379739238402  C 1.7787417451365988 2.96560924824089  2.998244725269031 1.7460917128000801  4.502665789269448 1.7460917128000801  C 6.007261573882446 1.7460917128000801  7.226924705091059 2.96560924824089  7.226924705091059 4.470379739238402  Z " fill-rule="nonzero" fill="#669df6" stroke="none" transform="matrix(1 0 0 1 153 167 )" />
  </g>
</svg>