<?xml version="1.0" encoding="utf-8"?>
<svg version="1.1" xmlns:xlink="http://www.w3.org/1999/xlink" width="70px" height="139px" xmlns="http://www.w3.org/2000/svg">
  <defs>
    <filter x="138px" y="428px" width="70px" height="139px" filterUnits="userSpaceOnUse" id="filter898">
      <feOffset dx="-1" dy="1" in="SourceAlpha" result="shadowOffsetInner" />
      <feGaussianBlur stdDeviation="2.5" in="shadowOffsetInner" result="shadowGaussian" />
      <feComposite in2="shadowGaussian" operator="atop" in="SourceAlpha" result="shadowComposite" />
      <feColorMatrix type="matrix" values="0 0 0 0 0  0 0 0 0 0  0 0 0 0 0  0 0 0 0.34901960784313724 0  " in="shadowComposite" />
    </filter>
    <g id="widget899">
      <path d="M 0 127  L 0 6  C 0 4.8799999999999955  0.9263157894736764 4  2.10526315789474 4  L 57.89473684210526 4  C 59.073684210526295 4  60 4.8799999999999955  60 6  L 60 127  C 60 128.12  59.073684210526295 129  57.89473684210526 129  L 2.10526315789474 129  C 0.9263157894736764 129  0 128.12  0 127  Z M 25.26315789473685 5  L 30 0  L 34.73684210526315 5  L 25.26315789473685 5  Z " fill-rule="nonzero" fill="#ffffff" stroke="none" transform="matrix(1 0 0 1 144 432 )" />
    </g>
  </defs>
  <g transform="matrix(1 0 0 1 -138 -428 )">
    <use xlink:href="#widget899" filter="url(#filter898)" />
    <use xlink:href="#widget899" />
  </g>
</svg>