<?xml version="1.0" encoding="utf-8"?>
<svg version="1.1" xmlns:xlink="http://www.w3.org/1999/xlink" width="15px" height="16px" xmlns="http://www.w3.org/2000/svg">
  <g transform="matrix(1 0 0 1 -274 -386 )">
    <path d="M 13.26787109375 15.6790234375  L 1.0639257812499991 15.6790234375  C 0.4849414062499995 15.6790234375  0.01556640624999961 15.20962890625  0 14.630546875  L 0 2.8246093749999996  C 0.01556640624999961 2.2455859374999996  0.48496093750000036 1.7761718749999993  1.0639257812499991 1.7761718749999993  L 2.257578125 1.8003710937499995  L 2.257578125 2.30115234375  C 2.257578125 3.16966796875  2.9616796875 4.011875  3.83013671875 4.011875  C 4.69869140625 4.011875  5.4028125 3.09712890625  5.4028125 2.228671875  L 5.4028125 1.7761914062499997  L 9.20130859375 1.7761914062499997  L 9.20130859375 2.228671875  C 9.20130859375 3.0971484374999996  9.905390624999999 4.011875  10.773867187499999 4.011875  C 11.6423828125 4.011875  12.34642578125 3.09712890625  12.34642578125 2.228671875  L 12.34642578125 1.7761914062499997  L 13.267851562499999 1.7761914062499997  C 13.846914062500002 1.7761914062499997  14.3162109375 2.173828125  14.3162109375 2.7527929687499997  L 14.3162109375 14.63056640625  C 14.316191406250002 15.20966796875  13.846894531250001 15.67904296875  13.267832031250002 15.67904296875  Z M 13.049199218750001 14.424433593750003  L 13.049199218750001 5.1467578125  L 1.2728710937500018 5.1467578125  L 1.2728710937500018 14.424433593750003  L 13.049199218750001 14.424433593750003  Z M 4.21287109375 6.409765625  L 4.21287109375 8.086250000000001  L 2.52884765625 8.086250000000001  L 2.52884765625 6.409765625  L 4.21287109375 6.409765625  Z M 4.21287109375 8.950292968749999  L 4.21287109375 10.6113671875  L 2.52884765625 10.6113671875  L 2.52884765625 8.950292968749999  L 4.21287109375 8.950292968749999  Z M 4.21287109375 11.46478515625  L 4.21287109375 13.13923828125  L 2.52884765625 13.13923828125  L 2.52884765625 11.46478515625  L 4.21287109375 11.46478515625  Z M 6.734433593750001 6.409765625  L 6.734433593750001 8.086250000000001  L 5.062070312500001 8.086250000000001  L 5.062070312500001 6.409765625  L 6.734433593750001 6.409765625  Z M 6.734433593750001 8.950292968749999  L 6.734433593750001 10.6113671875  L 5.062070312500001 10.6113671875  L 5.062070312500001 8.950292968749999  L 6.734433593750001 8.950292968749999  Z M 6.734433593750001 11.46478515625  L 6.734433593750001 13.13923828125  L 5.062070312500001 13.13923828125  L 5.062070312500001 11.46478515625  L 6.734433593750001 11.46478515625  Z M 9.2755859375 6.409765625  L 9.2755859375 8.086250000000001  L 7.577636718749999 8.086250000000001  L 7.577636718749999 6.409765625  L 9.2755859375 6.409765625  Z M 9.2755859375 8.950292968749999  L 9.2755859375 10.6113671875  L 7.577636718749999 10.6113671875  L 7.577636718749999 8.950292968749999  L 9.2755859375 8.950292968749999  Z M 9.2755859375 11.46478515625  L 9.2755859375 13.13923828125  L 7.577636718749999 13.13923828125  L 7.577636718749999 11.46478515625  L 9.2755859375 11.46478515625  Z M 11.800214843749998 6.409765625  L 11.800214843749998 8.086250000000001  L 10.112656249999999 8.086250000000001  L 10.112656249999999 6.409765625  L 11.800214843749998 6.409765625  Z M 11.800214843749998 8.950292968749999  L 11.800214843749998 10.6113671875  L 10.112656249999999 10.6113671875  L 10.112656249999999 8.950292968749999  L 11.800214843749998 8.950292968749999  Z M 11.800214843749998 11.46478515625  L 11.800214843749998 13.13923828125  L 10.112656249999999 13.13923828125  L 10.112656249999999 11.46478515625  L 11.800214843749998 11.46478515625  Z M 11.78951171875 2.2483593750000006  C 11.78953125 2.8183398437500005  11.327460937499998 3.2804101562500003  10.75751953125 3.2804101562500003  C 10.18755859375 3.2804101562500003  9.72546875 2.8183007812500005  9.72546875 2.2483593750000006  L 9.72546875 1.3744531250000005  C 9.72546875 0.8044726562500006  10.187578124999998 0.3424218750000003  10.75751953125 0.3424218750000003  C 11.32744140625 0.3424218750000003  11.78951171875 0.8044921875000006  11.78951171875 1.3744531250000005  L 11.78951171875 2.2483593750000006  Z M 4.845820312500001 2.2483593750000006  C 4.845820312500001 2.8183398437500005  4.3837890625 3.2804101562500003  3.8137890625 3.2804101562500003  C 3.2438671874999994 3.2804101562500003  2.7817968749999995 2.8183007812500005  2.7817968749999995 2.2483593750000006  L 2.7817968749999995 1.3744531250000005  C 2.7817968749999995 0.8044726562500006  3.2438671874999994 0.3424218750000003  3.8137890625 0.3424218750000003  C 4.3837890625 0.3424218750000003  4.845820312500001 0.8044921875000006  4.845820312500001 1.3744531250000005  L 4.845820312500001 2.2483593750000006  Z " fill-rule="nonzero" fill="#7ca7ec" stroke="none" transform="matrix(1 0 0 1 274 386 )" />
  </g>
</svg>