<?xml version="1.0" encoding="utf-8"?>
<svg version="1.1" xmlns:xlink="http://www.w3.org/1999/xlink" width="246px" height="246px" xmlns="http://www.w3.org/2000/svg">
  <g transform="matrix(1 0 0 1 -56 -1124 )">
    <path d="M 179 1128.5  C 245.36 1128.5  297.5 1180.64  297.5 1247  C 297.5 1313.3600000000001  245.36 1365.5  179 1365.5  C 112.63999999999999 1365.5  60.5 1313.3600000000001  60.5 1247  C 60.5 1180.64  112.63999999999999 1128.5  179 1128.5  Z " fill-rule="nonzero" fill="#ffffff" stroke="none" fill-opacity="0" />
    <path d="M 179 1126.5  C 246.48000000000002 1126.5  299.5 1179.52  299.5 1247  C 299.5 1314.48  246.48000000000002 1367.5  179 1367.5  C 111.52 1367.5  58.5 1314.48  58.5 1247  C 58.5 1179.52  111.52 1126.5  179 1126.5  Z " stroke-width="5" stroke="#142344" fill="none" stroke-opacity="0.24705882352941178" />
  </g>
</svg>