<?xml version="1.0" encoding="utf-8"?>
<svg version="1.1" xmlns:xlink="http://www.w3.org/1999/xlink" width="7px" height="3px" xmlns="http://www.w3.org/2000/svg">
  <g transform="matrix(1 0 0 1 -34 -1085 )">
    <path d="M 6.960922086303981 0.35748878048775623  C 7.026650439197057 0.5871646128123302  6.903014985878599 0.8292850405498484  6.683804457786209 0.9001797073170792  L 1.3575887379611231 2.63872602439028  C 1.2386313877723296 2.683162123191778  1.1066101589678965 2.6667436622889227  1.0009638574108521 2.594375341463433  L 0.9878412958098579 2.594375341463433  L 0.21592598373990768 2.843545463414671  L 0.08470036772973799 2.416972646341492  L 0.7933186241400563 2.1839300487804394  C 0.8025021680728059 1.9970256412010485  0.9224277158969016 1.8359981836748602  1.0935937060662582 1.7807421219512207  L 6.420581343339563 0.04703410975605493  C 6.462186424550737 0.03344520354789893  6.505525097912368 0.026532637312811858  6.549116331277446 0.026532637312811858  C 6.73836471794084 0.026532637312811858  6.905444563392393 0.15557511523024914  6.960922086303981 0.34458676829262913  C 6.960592207176887 0.3488805358448417  6.960592207176887 0.35319501293565736  6.960922086303981 0.35748878048775623  Z " fill-rule="nonzero" fill="#1c1c1d" stroke="none" transform="matrix(1 0 0 1 34 1085 )" />
  </g>
</svg>