<?xml version="1.0" encoding="utf-8"?>
<svg version="1.1" xmlns:xlink="http://www.w3.org/1999/xlink" width="29px" height="27px" xmlns="http://www.w3.org/2000/svg">
  <g transform="matrix(1 0 0 1 -19 -1076 )">
    <path d="M 0.17660508414633114 13.493318470243935  L 0.641964582926903 13.492544347317107  C 0.6778214207317887 13.617951910243962  0.8360592487804297 13.74645596487801  1.0917341414633484 13.746455999999968  C 1.5812580317074207 13.746455999999968  1.7691167073171528 13.272694068292708  1.7519677695122482 12.689781084878064  L 1.7246854182926654 12.689781084878064  C 1.6404997975610058 12.90963139902442  1.4128867548779454 13.104709814634134  1.0285949170731783 13.104709849756091  C 0.5265990817072179 13.104709849756091  0.10411190975605678 12.76487083317079  0.10411190975605678 12.155637740487805  C 0.10411190975605678 11.546404647804934  0.5515429719512213 11.177149065365825  1.138503926829344 11.177149065365825  C 1.6841515878049904 11.177149065365825  2.2087528170732185 11.495312710243866  2.2087528170732185 12.61314312585364  C 2.2087528170732185 13.625693139512236  1.8416099170731286 14.149772920975577  1.083939153658548 14.149772920975577  C 0.5102296426828161 14.149772920975577  0.21012342560970865 13.823093959024389  0.17660508414633114 13.493318470243935  Z M 1.1166780317073517 11.5750471609756  C 0.8150128170732387 11.5750471609756  0.5710303707317053 11.788704491707335  0.5710303707317053 12.151767160975623  C 0.5710303707317053 12.527215761951197  0.8267052634146239 12.71532710634142  1.1260319817072286 12.715327071219463  C 1.13368559327796 12.715658290136048  1.1413455599843019 12.715823958496458  1.1490064349361546 12.715823958496458  C 1.4404577147595319 12.715823958496458  1.6767256593263937 12.481185448029919  1.6767256593263937 12.191744177033115  C 1.6767256593263937 12.180215369800408  1.676342598195106 12.168689701622952  1.67557710121946 12.15718598634146  C 1.67557710121946 11.787930368780508  1.437051146341446 11.574273038048773  1.1166780317073517 11.574273038048773  Z M 3.237688378048688 20.53936596292681  C 2.6000601439025104 20.53936596292681  2.1736754780488354 20.197204577561024  2.1736754780488354 19.698670782438967  C 2.169504164667842 19.348709752071613  2.420148375810868 19.04680549689374  2.766872387804824 18.98415728780492  L 2.766872387804824 18.96093367024389  C 2.480010214773529 18.881210173485783  2.2831829127271703 18.619630153124035  2.2874819817072876 18.32383225756098  C 2.2874819817072876 17.885679875121923  2.677230310975574 17.5651938614634  3.2454833304877866 17.5651938614634  C 3.8137363499999988 17.5651938614634  4.201925717073209 17.885679875121923  4.201925717073209 18.32383225756098  C 4.204944268794179 18.619714994389824  4.007810118249836 18.880853558257513  3.720976278048738 18.96093367024389  L 3.720976278048738 18.98415728780492  C 4.067286419010998 19.046415646916216  4.317901446119777 19.347630625550437  4.3141732231706555 19.69712253658531  C 4.3141732231706555 20.1941080858536  3.8753166121950926 20.53936596292681  3.237688378048688 20.53936596292681  Z M 3.2462628292682894 20.16391739707319  C 3.5861233426828676 20.16391743219515  3.8433572682927206 19.962645998048743  3.8433572682927206 19.66925418146343  C 3.8433572682927206 19.373540031219477  3.5861233780487964 19.170720386341486  3.2462628292682894 19.170720386341486  C 2.9064022804877823 19.170720386341486  2.6468299292682786 19.374314154146305  2.6468299292682786 19.66925418146343  C 2.6468299292682786 19.96419420878044  2.906402315853711 20.163917361951235  3.2462628292682894 20.16391739707319  Z M 3.2462628292682894 18.812302454634164  C 3.5331175670730772 18.812302419512207  3.7420226743902276 18.633480550243917  3.7420227097561565 18.374150107317064  C 3.7420227097561565 18.118690243902392  3.533117602439006 17.944513077073225  3.2462628292682894 17.944513041951268  C 2.9594080560975726 17.94451300682931  2.748164487804843 18.118690208780436  2.748164487804843 18.374150107317064  C 2.748164487804843 18.629610005853692  2.9594080914635015 18.81230248975612  3.2462628292682894 18.812302454634164  Z M 7.036175467073235 21.985423621463383  L 8.948280706097648 21.98619774439021  L 8.948280706097648 22.41351240585368  L 7.775138295121906 24.846574056585382  L 7.27236296097567 24.846574056585382  L 8.466551803658604 22.425898337560966  L 8.466551803658604 22.400352351219567  L 7.036175467073235 22.400352351219567  L 7.036175467073235 21.985423621463383  Z M 15.50306791463413 24.628272023414638  L 15.03848791463406 24.628272023414638  C 15.002631076829175 24.500542091707302  14.854526697560916 24.34339555902443  14.566112962195119 24.34339555902443  C 14.176364632926834 24.34339555902443  13.912115289024314 24.737423039999953  13.916012782926828 25.406263422438997  L 13.945633630487919 25.406263422438997  C 14.028260289024502 25.208862602926843  14.257432293902411 24.99752764097559  14.65887306951231 24.99752764097559  C 15.11020162560976 24.99752764097559  15.562309680487717 25.307175968780484  15.562309645122012 25.910990165853605  C 15.562309645122012 26.54422096390249  15.12345303414645 26.90650951024395  14.53649207926833 26.90650951024395  C 14.200529024390335 26.90650951024395  13.873919954878147 26.78729489560976  13.66891234146351 26.453648862438968  C 13.535618403658646 26.237669162926863  13.453771279268267 25.931891449756108  13.453771279268267 25.50844736780482  C 13.453771279268267 24.43938655609759  13.90354083780494 23.93853039219516  14.5762464109755 23.93853039219516  C 15.15697141097553 23.93853039219516  15.482021482926939 24.300818938536622  15.50306791463413 24.628272023414638  Z M 14.518604567530021 26.50815448855917  C 14.524828270564967 26.50815448855917  14.531051518112692 26.508048740800177  14.53727157804883 26.507837291707347  C 14.849070241463323 26.507837291707347  15.096170647560937 26.32127419317078  15.096170682926868 25.939632643902428  C 15.096640529815659 25.93059398450714  15.096875570471639 25.921544794448664  15.096875570471639 25.912494099152013  C 15.096875570471639 25.62177021929415  14.859560645430067 25.386091948908188  14.566817849739891 25.386091948908188  C 14.556963346571592 25.386091948908188  14.547110759708632 25.386364866816848  14.53727157804883 25.386910384390262  C 14.528067853241739 25.386438779234936  14.518853416624554 25.3862028591293  14.509637448877129 25.3862028591293  C 14.213450630407124 25.3862028591293  13.973343773267288 25.624653806909578  13.973343773267288 25.918797957665902  C 13.973343773267288 25.925228352750196  13.973461040024176 25.93165822051151  13.973695515853706 25.938084398048773  C 13.97320319299979 25.94747161802718  13.972956906554373 25.9568699708027  13.972956906554373 25.966269914900636  C 13.972956906554373 26.265544501100862  14.217251685592373 26.50815448855917  14.518604567530021 26.50815448855917  Z M 20.23617149512188 24.296948323902484  L 20.680484562195034 24.293077709268346  C 20.731151841463316 24.540022255609756  20.979811280487866 24.65381800975615  21.23158867926827 24.65381800975615  C 21.23258854801611 24.653823294928884  21.233588429157862 24.65382593752929  21.23458831206858 24.65382593752929  C 21.545842776588643 24.65382593752929  21.798164374263706 24.403244488803807  21.798164374263706 24.094136606797633  C 21.798164374263706 24.085098577305985  21.797943930793053 24.076061873722324  21.797503237804904 24.067034446829325  C 21.797538090236003 24.06453425840857  21.797555517077626 24.062033860365773  21.797555517077626 24.059533432375474  C 21.797555517077626 23.76025884617536  21.553260738039626 23.51764885871694  21.25190785610198 23.51764885871694  C 21.243832648576245 23.51764885871694  21.235758436026344 23.517826883649036  21.227691185365757 23.518182801951184  C 21.017131915219807 23.51298135554964  20.81990814593246 23.620218901140788  20.71088494390233 23.799188651707368  L 20.29697222317077 23.799188651707368  L 20.42169167439033 22.141021908292714  L 22.116317354877992 22.141021908292714  L 22.116317354877992 22.552080023414646  L 20.811440003658618 22.552080023414646  L 20.742064789024425 23.36955158634146  L 20.765449681707423 23.36955158634146  C 20.827029908536588 23.277431203902438  21.02268357195112 23.126477654634186  21.346174681707225 23.126477654634186  C 21.844273023170672 23.126477654634186  22.26831919268284 23.46167196878048  22.26831919268284 24.055422602926797  C 22.26831919268284 24.660785080975643  21.841934526829164 25.061779633170772  21.21521924024387 25.06177966829273  C 20.649304681707235 25.06177966829273  20.258776853658446 24.732778337560944  20.23617149512188 24.296948323902484  Z M 25.688750434146414 17.71769565658542  L 26.385620434146404 17.71769565658542  L 26.385620434146404 19.616613962926863  L 26.74886587560968 19.616613962926863  L 26.74886587560968 20.027672113170752  L 26.385620434146404 20.027672113170752  L 26.385620434146404 20.578846126829262  L 25.931953381707217 20.578846126829262  L 25.931953381707217 20.027672113170752  L 24.53665441951216 20.027672113170752  L 24.53665441951216 19.6104210146342  C 24.88275092317076 18.975641970731658  25.29432514756104 18.346281752195182  25.688750434146414 17.71769565658542  Z M 24.986423978048833 19.616613962926863  L 25.931953381707217 19.616613962926863  L 25.931953381707217 18.11017489170729  L 25.908568489024447 18.11017489170729  C 25.596769825609726 18.581614454634177  25.264704264634247 19.0995012526829  24.986423978048833 19.5980350829268  L 24.986423978048833 19.616613962926863  Z M 27.608650660975627 12.816736893658572  L 27.610989157317135 12.423483535609762  L 27.91265433658532 12.423483535609762  C 28.19327311951224 12.423483535609762  28.398280732926878 12.240791016585376  28.39594223658537 11.991524136585326  C 28.39360374024386 11.74225725658539  28.19327311951224 11.574273038048773  27.91031584024381 11.574273038048773  C 27.62735856097561 11.574273038048773  27.43794088780487 11.752320819512192  27.42468944390248 11.94972160390239  L 26.974919885365807 11.94972160390239  C 26.987391830487923 11.530922259512181  27.317118895121894 11.182567890731661  27.92044928902442 11.17560081951217  C 28.494158799999923 11.17560081951217  28.855845243902422 11.492216218536555  28.869876221951245 11.915660300487843  C 28.877950817896135 12.236946571257022  28.652975061146208 12.51777610602062  28.335921007316983 12.58217831414629  L 28.335921007316983 12.609272546341458  C 28.69047638354914 12.64397486216717  28.96043277271815 12.940554522929006  28.959518334146424 13.294369439999969  C 28.968092785365798 13.822319836097563  28.49961532682937 14.151321166829234  27.904079885365945 14.151321166829234  C 27.28983654390254 14.151321166829234  26.92892959878054 13.799096218536533  26.911780660975637 13.377200347317057  L 27.35297576829271 13.377200347317057  C 27.374022164634198 13.588535309268309  27.597737713414745 13.750326579512148  27.90797734390253 13.752648948292633  C 28.257971341463417 13.752648948292633  28.484025351219543 13.555248128780477  28.480127892682958 13.281209385365855  C 28.476230434146373 13.007170641951234  28.25641234390241 12.816736893658572  27.925126281707435 12.816736893658572  L 27.608650660975627 12.816736893658572  Z M 25.580400421951254 5.4834906029268495  L 25.11971788048777 5.481168234146367  L 25.11971788048777 5.457944616585337  C 25.11971788048777 5.022114602926877  25.436193501219577 4.592477572682924  26.069144813414596 4.592477572682924  C 26.638956865853743 4.592477572682924  27.010776758536622 4.9338648351219945  27.010776723170693 5.38672551804882  C 27.010776723170693 5.768367067317058  26.776927725609767 6.011440999024444  26.512678381707246 6.29399509463417  L 25.801777439024363 7.06811587902439  L 25.801777439024363 7.092887742439076  L 27.061444002438975 7.092887742439076  L 27.061444002438975 7.507816507317102  L 25.13842581585368 7.507816507317102  L 25.13842581585368 7.1981681795122086  L 26.208674706097554 6.036986985365843  C 26.364574037804914 5.867454520975571  26.533724813414665 5.678569053658521  26.533724778048736 5.433172753170766  C 26.533724778048736 5.175390520975611  26.333394157317116 5.003535722926813  26.061349825609796 5.003535722926813  C 26.051995824481082 5.0029583172959065  26.042626029430266 5.002669405796837  26.03325397624144 5.002669405796837  C 25.783131086967614 5.002669405796837  25.580366422582983 5.204035693185915  25.580366422582983 5.452433597016352  C 25.580366422582983 5.454270655256664  25.580377755918335 5.456107696257504  25.580400421951254 5.457944616585337  L 25.580400421951254 5.4834906029268495  Z M 21.979125958536542 2.9745651160975513  L 21.506751006097602 2.970694501463413  L 21.506751006097602 0.6065295804878588  L 21.483366113414604 0.6065295804878588  L 20.823132450000003 1.0710020721951423  L 20.823132450000003 0.6026590009755637  L 21.506751006097602 0.11031815414639823  L 21.979125958536542 0.11031815414639823  L 21.979125958536542 2.9745651160975513  Z " fill-rule="nonzero" fill="#000000" stroke="none" transform="matrix(1 0 0 1 19 1076 )" />
  </g>
</svg>