<?xml version="1.0" encoding="utf-8"?>
<svg version="1.1" xmlns:xlink="http://www.w3.org/1999/xlink" width="29px" height="29px" xmlns="http://www.w3.org/2000/svg">
  <g transform="matrix(1 0 0 1 -19 -1073 )">
    <path d="M 13.223819740243925 3.023884856368568  L 13.696974226829298 3.023884856368568  L 13.696974226829298 0.17843342848539123  L 13.223819740243925 0.17843342848539123  L 12.540201219512255 0.6680728166214749  L 12.540201219512255 1.1376954808793016  L 13.20121434634143 0.6726920337247293  L 13.223819740243925 0.6726920337247293  L 13.223819740243925 3.023884856368568  Z M 15.212315682926826 2.611232827461663  L 15.212315682926826 2.585827011141191  L 15.923216590244012 1.8159537681420943  C 16.185127473170724 1.534180162601615  16.42131493170723 1.292439969888619  16.421314967073158 0.9136623510991058  C 16.421314967073158 0.46328650045165887  16.04949507439028 0.123772419150896  15.479683021951134 0.12377245408004002  C 14.846731745122042 0.12377245408004002  14.530256124390233 0.5510520794940703  14.530256124390233 0.9844907076181926  L 14.530256124390233 1.0045073965673055  L 14.988600134146283 1.0045073965673055  L 14.988600134146283 0.9791015802469474  C 14.988587188325026 0.9777209124064256  14.988580715310036 0.9763401927639279  14.988580715310036 0.9749594657208719  C 14.988580715310036 0.7279245133516952  15.191345379694894 0.5276631164285845  15.44146826896872 0.5276631164285845  C 15.45187729786744 0.5276631164285845  15.462283232901425 0.5280175429659266  15.472667532926835 0.5287257645287582  C 15.744711864634155 0.5287257645287582  15.945042485365777 0.6996376356519249  15.945042520731704 0.9560053899427885  C 15.945042520731704 1.2000552086720973  15.775891745121955 1.3871343920505979  15.619992413414593 1.5565065124961848  L 14.549743523170717 2.711316342065629  L 14.549743523170717 3.0192656043360557  L 16.47432070731702 3.0192656043360557  L 16.47432070731702 2.611232827461663  L 15.212315682926826 2.611232827461663  Z M 7.068134846341536 2.5419442216200423  L 7.0915197390243065 2.5419442216200423  L 7.0915197390243065 4.893137044263767  L 7.5638946914634735 4.893137044263767  L 7.5638946914634735 2.0484554917193236  L 7.0915197390243065 2.0484554917193236  L 6.407901182926935 2.5380948449262632  L 6.407901182926935 3.006947633845243  L 7.068134846341536 2.5419442216200423  Z M 9.102621040244003 2.0484554917193236  L 8.419002484146404 2.5380948449262632  L 8.419002484146404 3.006947633845243  L 9.080015646341508 2.5419442216200423  L 9.102621040244003 2.5419442216200423  L 9.102621040244003 4.893137044263767  L 9.575775491463446 4.893137044263767  L 9.575775491463446 2.0484554917193236  L 9.102621040244003 2.0484554917193236  Z M 2.582131707317103 7.382907008732331  L 2.605516600000101 7.382907008732331  L 2.605516600000101 9.734099831376056  L 3.0778915524390413 9.734099831376056  L 3.0778915524390413 6.88864840349288  L 2.605516600000101 6.88864840349288  L 1.9218980439025017 7.378287791629077  L 1.9218980439025017 7.847140580548057  L 2.582131707317103 7.382907008732331  Z M 6.0197118512194265 8.252093890996662  C 6.020491349999929 7.38906601144231  5.632302018292648 6.8324476784100625  4.962714440243872 6.8324476784100625  C 4.291567829268388 6.8324476784100625  3.8948040463415055 7.397534605239343  3.8948040463415055 8.252093890996662  L 3.8948040463415055 8.370654378801532  C 3.8948040463415055 9.231372632339685  4.284552375609792 9.790300591388132  4.954139953658569 9.790300591388132  C 5.623727531707345 9.790300591388132  6.0197118512194265 9.227523255645906  6.0197118512194265 8.370654378801532  L 6.0197118512194265 8.252093890996662  Z M 5.543439404877972 8.257483018367907  L 5.543439404877972 8.372194094549855  C 5.543439404877972 9.001950375188244  5.319723856097653 9.380728028906901  4.958816946341358 9.380728028906901  C 4.59791003658529 9.380728028906901  4.3718559914634625 9.003490160794968  4.3718559914634625 8.372194094549855  L 4.3718559914634625 8.257483018367907  C 4.3718559914634625 7.627726737729631  4.595571540244009 7.24894908401086  4.958816946341358 7.24894908401086  C 5.322062352438934 7.24894908401086  5.543439404877972 7.6284965781391065  5.543439404877972 8.257483018367907  Z M 2.2336967073169944 14.634342879855467  C 2.2360352036585027 13.52418568021676  1.7098749768292691 13.20699791388131  1.1657863134146282 13.20699791388131  C 0.5788253585365055 13.20699791388131  0.1313942963415684 13.569608185486345  0.1313942963415684 14.180117687443499  C 0.1313942963415684 14.790627189400766  0.5538814682927296 15.12398226799155  1.0558773036584626 15.123982233062295  C 1.4378306451219487 15.123982233062295  1.6677821487805886 14.929974171635081  1.7519677695122482 14.711330204155388  L 1.7792501560975325 14.711330204155388  C 1.796399093902437 15.291044727491679  1.6085403829267761 15.762207142426973  1.11901652804886 15.762207142426973  C 0.8633416353659413 15.762207142426973  0.705103807317073 15.635178060825067  0.6692469695121872 15.509688729900631  L 0.20154897439033448 15.509688729900631  C 0.23506731585371202 15.836884840710582  0.5351735329268195 16.162541235772323  1.108883079268253 16.162541200843066  C 1.8665538073171322 16.162541200843066  2.2336967073169944 15.641337028605792  2.2336967073169944 14.634342879855467  Z M 1.1533143682927403 14.736736020475744  C 0.8539876499999082 14.736736020475744  0.5983127573169895 14.548886961758512  0.5983127573169895 14.17626831074972  C 0.5983127573169895 13.815967630231853  0.8430747024390257 13.602712755194261  1.143960418292636 13.602712755194261  C 1.465113031707233 13.602712755194261  1.7051979841462526 13.81519775489312  1.7051979841462526 14.182427313459812  C 1.7059682194010293 14.193903135179312  1.7063536535563344 14.205400992438172  1.7063536535563344 14.216902000587766  C 1.7063536535563344 14.504755116462547  1.4700857089894726 14.738106172825042  1.1786344291660953 14.738106172825042  C 1.1701907619481062 14.738106172825042  1.1617483108391298 14.73790602285942  1.1533143682927403 14.73750589581448  Z M 4.341455609756167 21.604005145438123  C 4.344929059202286 21.256786041043938  4.094865650708698 20.957489864731997  3.749038163414525 20.894951879554355  L 3.749038163414525 20.871855689250197  C 4.035872003615623 20.79221497431172  4.233006154159966 20.532509269505113  4.229987602438996 20.23825003191814  C 4.229987602438996 19.80250177777782  3.840239273170709 19.48377426076479  3.2735452158535736 19.483774295694047  C 2.706851158536665 19.483774330623305  2.3155438670730746 19.802501812706964  2.3155438670730746 20.23825003191814  C 2.3112447980929574 20.532424893760663  2.508072100139316 20.792569632803634  2.7949342731708384 20.871855689250197  L 2.7949342731708384 20.894951879554355  C 2.448210247095858 20.957256324865284  2.197566017667441 21.257504044923508  2.2017373280486936 21.605544861186445  C 2.2017373280486936 22.10134321710325  2.630460490243877 22.44162717374286  3.265750263414702 22.441627208672116  C 3.9010400365853 22.441627243601374  4.341455609756167 22.099033626016308  4.341455609756167 21.604005145438123  Z M 2.77622637317063 20.288291789220125  C 2.77622637317063 20.034233626016317  2.9874699768292885 19.861012163806095  3.2743247146340764 19.861012163806095  C 3.5611794524390916 19.861012163806095  3.7700845597560146 20.034233626016317  3.7700845597560146 20.288291789220125  C 3.7700845597560146 20.542349952423933  3.5611794524390916 20.724040043360446  3.2743247146340764 20.724040043360446  C 2.9874699768292885 20.724040043360446  2.7754468743903544 20.546969204456445  2.7754468743903544 20.288291789220125  Z M 3.2735452158535736 22.069008557663324  L 3.2743247146340764 22.06823868232459  C 2.9344641658535693 22.06823868232459  2.6748918146340657 21.868071653116544  2.6748918146340657 21.576289703101452  C 2.6748918146340657 21.284507753086473  2.934464201219498 21.080491347184534  3.2743247146340764 21.080491347184534  C 3.614185228048882 21.080491347184534  3.8714191536585076 21.282968002408893  3.8714191182925783 21.576289703101452  C 3.8714190829268773 21.86961140379401  3.613405729268379 22.069008557663324  3.2735452158535736 22.069008557663324  Z M 7.064237352439022 23.958277434507636  L 7.064237352439022 24.370929498343912  L 8.495393187804893 24.370929498343912  L 8.495393187804893 24.395565439325537  L 7.300424846341458 26.803728862390813  L 7.803200145121991 26.803728862390813  L 8.976342591463435 24.383247468834725  L 8.976342591463435 23.958277434507636  L 7.064237352439022 23.958277434507636  Z M 15.59271002682931 27.86461414513701  C 15.589592031707298 27.267192523938547  15.138263475609847 26.95616376031319  14.686155456097595 26.95616376031319  C 14.28081722195111 26.95616376031319  14.054763176829283 27.166339133995734  13.972916017073203 27.362656821439373  L 13.94329513414641 27.362656821439373  C 13.939397640243897 26.697486345076754  14.205206017073124 26.305620880457695  14.593395348780406 26.305620880457695  C 14.882588582926928 26.305620880457695  15.029913463414687 26.459595529057538  15.065770301219573 26.58893423667564  L 15.533468296341423 26.58893423667564  C 15.512421899999936 26.264047751882003  15.187371792682825 25.90297719602529  14.606646792683023 25.90297719602529  C 13.933161685365803 25.90297719602529  13.48417162560986 26.401085177958407  13.48417162560986 27.46428008672092  C 13.48417162560986 27.885400744354115  13.566798284146444 28.18950066486002  13.699312687804877 28.404295290575078  C 13.904320301219514 28.73534077807892  14.23092940609763 28.854671141222525  14.566892460975623 28.854671106293267  C 15.153853415853744 28.854671106293267  15.59271002682931 28.4943704257754  15.59271002682931 27.86461414513701  Z M 15.125791530487732 27.890789836796102  C 15.12501203170723 28.26956745558573  14.878691089024413 28.455106923215908  14.566112962195119 28.455106923215908  C 14.560672949083253 28.455267739420947  14.555230804300436 28.45534816102338  14.549788354934888 28.45534816102338  C 14.248435472997244 28.45534816102338  14.004140693959243 28.214069366911758  14.004140693959243 27.916436890923933  C 14.004140693959243 27.907113289520566  14.004385677219489 27.89779125816233  14.004875396341504 27.888480210779903  C 14.004640920511974 27.88208929347593  14.004523653755086 27.875694706196327  14.004523653755086 27.86929959448696  C 14.004523653755086 27.57676940340548  14.244630510894922 27.33962682845265  14.540817329364925 27.33962682845265  C 14.550033297112348 27.33962682845265  14.559247733729533 27.33986145407198  14.568451458536629 27.34033047154469  C 14.577784510795937 27.33984245086492  14.587128999322887 27.339598312485236  14.596475122581978 27.339598312485236  C 14.889217918272152 27.339598312485236  15.126532843313726 27.5739834236374  15.126532843313726 27.863112110738825  C 15.126532843313726 27.87234286083526  15.12628565261116 27.88157199637567  15.125791530487732 27.890789836796102  Z M 22.29560157926835 26.009989553748824  C 22.29560157926835 25.424885903041286  21.871555409756184 25.091530789521244  21.373457068292737 25.0915308244505  C 21.050745457317134 25.0915308244505  20.854312295121872 25.241656096356564  20.792732068292707 25.333271017163497  L 20.773244669512223 25.333271017163497  L 20.842619848780487 24.52028489491113  L 22.146717736585288 24.52028489491113  L 22.146717736585288 24.111482207768745  L 20.448974060975615 24.111482207768745  L 20.324254609756053 25.760550642577527  L 20.73816733048784 25.760550642577527  C 20.847190532517743 25.582562893385784  21.04441430180509 25.475913756823957  21.25497357195127 25.481086663053247  C 21.263293846314355 25.480710107177515  21.271621759688287 25.48052175520047  21.279950764840123 25.48052175520047  C 21.58130364677777 25.48052175520047  21.82559842581577 25.72180054931198  21.82559842581577 26.019433025299804  C 21.82559842581577 26.02141773748997  21.825587324764683 26.023402434537957  21.82556512317069 26.025387025594682  C 21.82600581615884 26.034364919281188  21.826226259629493 26.043352038757348  21.826226259629493 26.052340476866448  C 21.826226259629493 26.359752293676365  21.57390466195443 26.60895880989858  21.26265019743437 26.60895880989858  C 21.261650314523195 26.60895880989858  21.260650433382352 26.60895618179802  21.259650564634057 26.608950925624868  C 21.008652664634155 26.608950925624868  20.75921372682933 26.496549440529975  20.708546447561048 26.250189995784353  L 20.263453846341463 26.250189995784353  C 20.28683873902446 26.683628623908476  20.67736656707325 27.010824734718426  21.24250162682938 27.010824734718426  C 21.866098918292664 27.010824734718426  22.29560157926835 26.61280026738939  22.29560157926835 26.009989553748824  Z M 26.412123321951185 21.604005145438123  L 26.41056432439018 19.712426642577498  L 25.71369432439019 19.712426642577498  C 25.319269037804816 20.337563706112633  24.907694813414537 20.96270073471851  24.561598309756164 21.5947666413731  L 24.561598309756164 22.009728331225574  L 25.95689727195122 22.009728331225574  L 25.95689727195122 22.560957536886463  L 26.41056432439018 22.560957536886463  L 26.41056432439018 22.012807797651362  L 26.77536876341469 22.012807797651362  L 26.77536876341469 21.604005145438123  L 26.412123321951185 21.604005145438123  Z M 25.95689727195122 20.10275235651909  L 25.95689727195122 21.600925644083077  L 25.01136786829261 21.600925644083077  L 25.01136786829261 21.582448670882286  C 25.289648154878023 21.086650314965368  25.62171371585373 20.57160514543807  25.933512379268223 20.10275235651909  L 25.95689727195122 20.10275235651909  Z M 28.991477678048795 15.319530045167085  C 28.993895004261276 14.965674180490852  28.722219647012025 14.668616055067105  28.365541890244003 14.6351127551942  L 28.365541890244003 14.608167188196376  C 28.682595929971058 14.544118338264068  28.9075716686732 14.264829710203912  28.89949706951211 13.94530633785007  C 28.888584121951226 13.52418568021676  28.523779682926715 13.207767789220156  27.95007017195121 13.209307539897623  C 27.346739778048686 13.213156916591402  27.014674217073207 13.559599841011732  27.0045407682926 13.97918078289672  L 27.454310326829273 13.97918078289672  C 27.46678227195116 13.783632970791928  27.654640947560893 13.605792256549194  27.93993672317083 13.605792256549194  C 28.225232498780542 13.605792256549194  28.425563119512162 13.774394501656161  28.425563119512162 14.020753911472411  C 28.425563119512162 14.267113321288775  28.222894002439034 14.450343162902755  27.942275219512112 14.450343162902755  L 27.640610004878 14.450343162902755  L 27.640610004878 14.844518253538125  L 27.95708566097551 14.844518253538125  C 28.288371723170712 14.844518253538125  28.50974877560975 15.033907062932828  28.51208723658533 15.306442199337539  C 28.51442569756091 15.578977335742252  28.290710184146292 15.777604614272834  27.93993672317083 15.775294988256519  C 27.62813805975611 15.775294988256519  27.4059815439025 15.612851745859643  27.38493511219508 15.401906461909105  L 26.94374000487801 15.401906461909105  C 26.960888942682914 15.825336745558614  27.32179588780491 16.171779669978946  27.936039229268317 16.171779704908204  C 28.531574670731743 16.171779704908204  29.000052129268397 15.84458359409814  28.991477678048795 15.319530045167085  Z M 25.606123810975532 7.541500909364686  L 25.606123810975532 7.518404719060528  C 25.60610114465362 7.516577866206375  25.60608981117366 7.514750893338714  25.60608981117366 7.512923903326168  C 25.60608981117366 7.265888950956992  25.80885447555829 7.065627554033767  26.058977364832117 7.065627554033767  C 26.068349418166008 7.065627554033767  26.077719213361434 7.065914880293462  26.087073214634074 7.066489117735614  C 26.359117546341395 7.066489117735614  26.559448167073242 7.237400988858781  26.559448167073242 7.493768778078901  C 26.559448167073242 7.737818596808211  26.39029739146349 7.924897780186711  26.23439809512206 8.094269865703154  L 25.16414920487796 9.249079695272485  L 25.16414920487796 9.55702899247217  L 27.08716739146348 9.55702899247217  L 27.08716739146348 9.14437696356515  L 25.829059825609647 9.14437696356515  L 25.829059825609647 9.119741022583526  L 26.539960768292758 8.349867779584429  C 26.80187165121947 8.06809417404395  27.038059109756205 7.8263539813309535  27.038059109756205 7.447576362541441  C 27.038059109756205 6.997200511893993  26.666239217073098 6.65768643059323  26.09642716463418 6.657686465522374  C 25.46347588780486 6.657686465522374  25.14700026707328 7.084966090936518  25.14700026707328 7.518404719060528  L 25.14700026707328 7.541500909364686  L 25.606123810975532 7.541500909364686  Z M 21.51142796341469 2.6959188702197707  L 21.53481289146339 2.6959188702197707  L 21.53481289146339 5.047111692863609  L 22.007967342682832 5.047111692863609  L 22.007967342682832 2.2016602649804327  L 21.53481289146339 2.2016602649804327  L 20.85119433536579 2.6912996181872586  L 20.85119433536579 3.1601524071062386  L 21.51142796341469 2.6959188702197707  Z " fill-rule="nonzero" fill="#1c1c1d" stroke="none" transform="matrix(1 0 0 1 19 1073 )" />
  </g>
</svg>