<?xml version="1.0" encoding="utf-8"?>
<svg version="1.1" xmlns:xlink="http://www.w3.org/1999/xlink" width="4px" height="3px" xmlns="http://www.w3.org/2000/svg">
  <g transform="matrix(1 0 0 1 -20 -1080 )">
    <path d="M 1.1377744065041497 2.781774113821143  L 0.703406634146404 2.781057333333365  L 0.703406634146404 0.5920157398373931  L 0.6819032845528454 0.5920157398373931  L 0.07479186991872666 1.02208286178859  L 0.07479186991872666 0.5855647479675099  L 0.703406634146404 0.12969359349597198  L 1.1377744065041497 0.12969359349597198  L 1.1377744065041497 2.781774113821143  Z M 1.8889583089430744 1.5116425691056747  L 1.8889583089430744 1.4012586991869966  C 1.8889583089430744 0.6056345365853986  2.2537985691055837 0.07951912195119348  2.8709448780487037 0.07951908943084618  C 3.4880911869918236 0.07951905691061256  3.842896552845559 0.5977499512194981  3.842896520325212 1.4012586991869966  L 3.842896520325212 1.5116425691056747  C 3.842896520325212 2.3094170406503736  3.4780562601627025 2.833382146341478  2.8630602926830306 2.833382146341478  C 2.2480643252033587 2.833382146341478  1.888958276422727 2.313000943089378  1.8889583089430744 1.5116425691056747  Z M 2.327626764227716 1.4034090081300974  L 2.327626764227716 1.5102090081301185  C 2.327626764227716 2.0979673821137794  2.535492520325306 2.4491888780487443  2.8673609756096994 2.4491888780487443  C 3.19922943089432 2.4491888780487443  3.404944845528462 2.0958170731706787  3.404944845528462 1.5102090081301185  L 3.404944845528462 1.4034090081300974  C 3.404944845528462 0.8170841951219927  3.199229398373973 0.4644291382113579  2.8673609756096994 0.4644291707317052  C 2.535492552845426 0.4644292032520525  2.327626764227716 0.8178009756097708  2.327626764227716 1.4034090081300974  Z " fill-rule="nonzero" fill="#000000" stroke="none" transform="matrix(1 0 0 1 20 1080 )" />
  </g>
</svg>