<?xml version="1.0" encoding="utf-8"?>
<svg version="1.1" xmlns:xlink="http://www.w3.org/1999/xlink" width="2px" height="2px" xmlns="http://www.w3.org/2000/svg">
  <g transform="matrix(1 0 0 1 -32 -1087 )">
    <path d="M 1.8824617649668198 0.8711667937915308  C 1.8927519392016166 0.9141580414501504  1.895398740162591 0.958624379250864  1.8902811529933388 1.0025327538802458  C 1.8913920930244785 1.1091990014404018  1.873110483521259 1.2151793366309676  1.8363272727272033 1.315308842572108  C 1.797422312218714 1.4160693300080993  1.7427904761823356 1.5100255353947887  1.6744656674056841 1.5936795388026894  L 1.5821967184035657 1.6851665454545355  C 1.5656178708418338 1.7072848664446383  1.5445709318801164 1.7256676403546862  1.5204234501109113 1.739120425720671  C 1.4991659856341357 1.7594770551364718  1.4758420913631198 1.7775596233826718  1.4508307583148508 1.7930743059866927  C 1.4139247313923988 1.8166513759505278  1.3752309982755833 1.837305460898051  1.335103609756061 1.854847574279347  C 1.2155983195261797 1.9046776077666436  1.087673560713256 1.931218014359274  0.9582084257206134 1.9330415964523127  C 0.4399840536252668 1.9330415964523127  0.019880195121913857 1.5129377379489597  0.019880195121913857 0.9947133658536131  C 0.019526776987959238 0.8976929513121377  0.03511242388526625 0.8012733125906379  0.06601468736153038 0.7093051884700117  C 0.12068068066241722 0.5364669368823343  0.2251300048185385 0.38360098504119833  0.3662796984478973 0.26985479379152366  C 0.5305090322940487 0.13353196591890537  0.737743951054199 0.059836125791434824  0.9511709800442532 0.06185869623061535  C 1.3063804007522322 0.059796871291155185  1.6318282025006283 0.2599791162854217  1.790192815964474 0.5779392283814104  C 1.8357954882840204 0.6703752485442465  1.8669153400674077 0.7692730735774376  1.8824617649668198 0.8711667937915308  Z " fill-rule="nonzero" fill="#1c1c1d" stroke="none" transform="matrix(1 0 0 1 32 1087 )" />
  </g>
</svg>