<?xml version="1.0" encoding="utf-8"?>
<svg version="1.1" xmlns:xlink="http://www.w3.org/1999/xlink" width="8px" height="8px" xmlns="http://www.w3.org/2000/svg">
  <g transform="matrix(1 0 0 1 -13 -3 )">
    <path d="M 7.183147689618759 0  C 7.183147689618759 0  2.0655187571097926 0  2.0655187571097926 0  C 1.6128054284647688 0  1.2388248526275751 0.36661956499066967  1.2388248526275751 0.8224168620060968  C 1.2388248526275751 1.278214159021524  1.6128054284647688 1.6448337240121935  2.0655187571097926 1.6448337240121935  C 2.0655187571097926 1.6448337240121935  5.195145681221046 1.6448337240121935  5.195145681221046 1.6448337240121935  C 5.195145681221046 1.6448337240121935  0.2448238484287184 6.589243532940415  0.2448238484287184 6.589243532940415  C -0.07994875690358143 6.906319913472886  -0.07994875690358143 7.431477668729791  0.2349822543277396 7.758462686153902  C 0.5499132655590606 8.075539066686376  1.071517752910936 8.085447703578016  1.396290358243236 7.758462686153902  C 1.396290358243236 7.758462686153902  6.356453785136542 2.8041442403340406  6.356453785136542 2.8041442403340406  C 6.356453785136542 2.8041442403340406  6.356453785136542 6.02445123011695  6.356453785136542 6.02445123011695  C 6.356453785136542 6.480248527132378  6.730434360973735 6.846868092123048  7.183147689618759 6.846868092123048  C 7.635861018263784 6.846868092123048  8 6.480248527132378  8 6.02445123011695  C 8 6.02445123011695  8 0.8224168620060968  8 0.8224168620060968  C 8 0.36661956499066967  7.635861018263784 0  7.183147689618759 0  Z " fill-rule="nonzero" fill="#999999" stroke="none" transform="matrix(1 0 0 1 13 3 )" />
  </g>
</svg>