<?xml version="1.0" encoding="utf-8"?>
<svg version="1.1" xmlns:xlink="http://www.w3.org/1999/xlink" width="18px" height="16px" xmlns="http://www.w3.org/2000/svg">
  <g transform="matrix(1 0 0 1 0 -7 )">
    <path d="M 0.75 7.5  C 0.75 7.085786437626905  1.0857864376269049 6.75  1.5 6.75  L 3.75 6.75  L 3.75 15.75  L 1.5 15.75  C 1.0857864376269049 15.75  0.75 15.414213562373096  0.75 15  L 0.75 7.5  Z M 5.25 6.310499999999999  C 5.250042478054121 6.111603889890889  5.329087968891786 5.920869548518093  5.46975 5.78025  L 10.269750000000002 0.9802499999999996  C 10.40164904477209 0.8479716883531973  10.610791586717134 0.8329415668372693  10.760250000000001 0.9449999999999996  L 11.399999999999999 1.4249999999999994  C 11.763323177885045 1.6977509093844796  11.926937050097866 2.1622604561731302  11.814750000000004 2.6025  L 10.95 6  L 15.75 6  C 16.57842712474619 6  17.25 6.67157287525381  17.25 7.5  L 17.25 9.078  C 17.250202215356346 9.274020832235069  17.211981761464575 9.46818073800527  17.137500000000003 9.6495  L 14.816250000000002 15.28575  C 14.700441234859701 15.56678391877901  14.426460058075431 15.750129160324377  14.122500000000002 15.75  L 6 15.75  C 5.585786437626905 15.75  5.25 15.414213562373096  5.25 15  L 5.25 6.310499999999999  Z " fill-rule="nonzero" fill="#ff0000" stroke="none" transform="matrix(1 0 0 1 0 7 )" />
  </g>
</svg>