<?xml version="1.0" encoding="utf-8"?>
<svg version="1.1" xmlns:xlink="http://www.w3.org/1999/xlink" width="50px" height="50px" xmlns="http://www.w3.org/2000/svg">
  <g transform="matrix(1 0 0 1 -41 -640 )">
    <path d="M 49.907421874999955 25  C 49.907421874999955 11.203710937499977  38.79628906250002 0.09257812499998863  25 0.09257812499998863  C 11.203710937499977 0.09257812499998863  0 11.203710937499977  0 25  C 0 38.79628906250002  11.203710937499977 49.90742187500001  25 49.90742187500001  C 38.79628906250002 49.90742187500001  49.907421874999955 38.79628906250002  49.907421874999955 25  Z M 20.555566406250023 30.83330078124999  C 19.25927734375 30.83330078124999  18.148144531249955 30.555566406250023  16.851855468750045 30.277783203125015  L 13.148144531249956 32.129638671875  L 14.259277343749998 28.888916015625  C 11.574072265624977 27.037060546875015  10 24.629638671875  10 21.666650390625023  C 10 16.574072265624977  14.814794921874977 12.59257812499999  20.648144531249955 12.59257812499999  C 25.92592773437502 12.59257812499999  30.462939453125042 15.74072265625  31.38886718749995 20.09257812499999  C 31.018505859374955 20.09257812499999  30.740722656250004 20  30.370361328125 20  C 25.277783203124955 20  21.296289062500023 23.796289062500023  21.296289062500023 28.425927734375023  C 21.296289062500023 29.16665039062502  21.388867187499955 29.907373046875023  21.666650390625023 30.64814453125001  C 21.296289062500023 30.833349609374977  20.925927734375023 30.833349609374977  20.555566406250023 30.833349609374977  Z M 36.29628906250002 34.629638671875  L 37.129638671875 37.31479492187498  L 34.25927734375 35.64814453125001  C 33.148144531249955 35.92592773437502  32.129638671875 36.20371093749998  31.0185546875 36.20371093749998  C 25.92592773437502 36.20371093749998  21.944433593749977 32.77778320312501  21.944433593749977 28.51850585937501  C 21.944433593749977 24.25922851562501  25.92592773437502 20.74072265625  31.0185546875 20.74072265625  C 35.83339843750002 20.74072265625  40.09262695312498 24.166650390625023  40.09262695312498 28.518554687499996  C 40.09262695312498 30.833349609374977  38.5185546875 32.96293945312499  36.296337890624955 34.629638671875  Z " fill-rule="nonzero" fill="#46bb36" stroke="none" transform="matrix(1 0 0 1 41 640 )" />
  </g>
</svg>