<svg t="1592383819700" class="icon" viewBox="0 0 1024 1024" version="1.1" xmlns="http://www.w3.org/2000/svg" p-id="10528" width="200" height="200"><path d="M529.408 409.6a51.2 51.2 0 0 0 0 72.192 74.752 74.752 0 0 1 0 105.472L378.88 739.328a74.752 74.752 0 1 1-105.472-105.472l33.792-36.352a51.2 51.2 0 0 0-72.704-72.192l-33.792 37.888a177.152 177.152 0 0 0 250.368 250.368l151.04-151.04a177.152 177.152 0 0 0 0-250.368A51.2 51.2 0 0 0 529.408 409.6z" p-id="10529"></path><path d="M809.984 204.8a181.248 181.248 0 0 0-250.368 0L409.6 353.792a177.152 177.152 0 0 0 0 250.368 51.2 51.2 0 0 0 72.704-72.192 74.752 74.752 0 0 1 0-105.472l151.04-151.04a76.288 76.288 0 0 1 105.472 0 74.752 74.752 0 0 1 0 105.472l-36.352 36.352a51.2 51.2 0 0 0 72.192 72.704l36.352-36.352A177.152 177.152 0 0 0 809.984 204.8z" p-id="10530"></path></svg>