<?xml version="1.0" encoding="utf-8"?>
<svg version="1.1" xmlns:xlink="http://www.w3.org/1999/xlink" width="50px" height="50px" xmlns="http://www.w3.org/2000/svg">
  <g transform="matrix(1 0 0 1 -122 -639 )">
    <path d="M 49.75619463657324 25.002439024390245  C 49.75619463657324 11.208536585365835  38.61793471666056 0.02439024390241684  24.878097318286564 0.02439024390241684  C 11.138259919912684 0.02439024390241684  0 11.203658536585351  0 25  C 0 38.79634146341465  11.138259919912684 49.97560975609758  24.878097318286564 49.97560975609758  C 38.61793471666056 49.97560975609758  49.75619463657324 38.79634146341465  49.75619463657324 25.002439024390245  Z M 33.00623710714717 25  C 34.3332119888363 25.166780487804886  37.98150709865308 26.997609756097575  35.99203980099503 30.996487804878033  C 33.83472879504916 35.32585365853657  27.20009707559757 37.32346341463415  22.22482708409177 36.990536585365874  C 17.416138818104628 36.65760975609754  11.443999514621964 35.15785365853657  10.780245115883986 29.499804878048792  C 10.780245115883986 29.499804878048792  10.448926101201323 27.001902439024377  12.936294139060806 23.671902439024393  C 12.936294139060806 23.671902439024393  16.583375803907302 18.84590243902437  20.731367552481515 17.34556097560977  C 25.04705739594715 16.011414634146377  25.54126926343895 18.34434146341465  25.54126926343895 19.67673170731706  C 25.20936779517047 21.00843902439027  24.878097318286564 21.67429268292682  26.370974396311116 21.17458536585366  C 26.370974396311116 21.17458536585366  30.517121708530563 19.34190243902441  32.17594952068919 21.00843902439027  C 33.50229341099384 22.340780487804864  32.3412692634389 24.171609756097553  32.3412692634389 24.171609756097553  C 32.3412692634389 24.171609756097553  31.844048052420813 24.83385365853661  33.00623710714717 25  Z M 36.48804756704283 21.33468292682926  L 36.48926101201312 21.33648780487806  C 36.32331027787893 22.002975609756106  35.99140880961045 22.33590243902438  35.32765441087247 22.33590243902438  C 34.83043319985438 22.33590243902438  34.33262953525059 21.83619512195122  34.33262953525059 21.33648780487806  L 34.33262953525059 20.8367804878049  C 34.33262953525059 19.338878048780487  33.17039194272536 18.006536585365836  31.512777575536916 18.006536585365836  C 31.014342919548653 18.006536585365836  30.517121708530563 17.506829268292677  30.517121708530563 17.007707317073198  C 30.517121708530563 16.508585365853662  31.014342919548653 16.008926829268262  31.512777575536916 16.008926829268262  C 34.33199854386601 16.008926829268262  36.48804756704283 18.173902439024403  36.48804756704283 20.8349756097561  L 36.48804756704283 21.33468292682926  Z M 40.30350685596409 22.16917073170731  L 40.30350685596409 22.505121951219508  C 40.13818711321437 23.004829268292667  39.640334910811816 23.337804878048757  38.977162965659545 23.170390243902432  C 38.96774211314289 23.170626536817053  38.95831869388405 23.17074469706739  38.94889490789865 23.17074469706739  C 38.323146434883256 23.17074469706739  37.81587707025767 22.6609389856186  37.81587707025767 22.0320617702381  C 37.81587707025767 22.02317847924644  37.815980505887865 22.014295492380484  37.81618735590337 22.005414634146348  L 37.81618735590337 21.83619512195122  C 37.98150709865308 21.50141463414633  37.98150709865308 21.004195121951227  37.98150709865308 20.671219512195137  C 37.98150709865308 17.173902439024403  34.996966387574275 14.343658536585338  31.51462201189179 14.343658536585394  C 31.50520121644991 14.34389469498285  31.49577785717133 14.344012787951216  31.486354131581496 14.344012787951216  C 30.86025717164705 14.344012787951216  30.352705302555933 13.83392315951454  30.352705302555933 13.204695714780485  C 30.352705302555933 13.195812492091418  30.35280867902395 13.186929573182624  30.353015410751137 13.178048780487813  C 30.353015410751137 12.512829268292705  30.850236621769227 12.017365853658532  31.515835456862078 12.012487804878049  C 36.491056910569114 12.012487804878049  40.471302026453145 16.008926829268262  40.471302026453145 20.8367804878049  C 40.46945759009827 21.338341463414622  40.30350685596409 21.670048780487832  40.30350685596409 22.169121951219495  Z " fill-rule="nonzero" fill="#fb5555" stroke="none" transform="matrix(1 0 0 1 122 639 )" />
  </g>
</svg>