<?xml version="1.0" encoding="utf-8"?>
<svg version="1.1" xmlns:xlink="http://www.w3.org/1999/xlink" width="5px" height="4px" xmlns="http://www.w3.org/2000/svg">
  <g transform="matrix(1 0 0 1 -141 -668 )">
    <path d="M 3.9213170731707123 0.4138048780487793  C 3.5878048780488143 0.7467804878048696  3.5878048780488143 1.0796585365853844  3.7545853658537 1.4132195121950986  C 3.9188780487804706 1.5787804878048632  4.251804878048802 1.5787804878048632  4.585365853658573 1.4132195121950986  C 4.918926829268344 1.0797073170731437  5.085707317073229 0.7467804878048696  4.918926829268344 0.4138048780487793  C 4.7545853658537 0.24643902439021304  4.254292682926803 0.07965853658538435  3.9213658536585854 0.4138048780487793  Z M 3.5859512195122534 2.2440487804877876  C 3.587170731707374 1.4119999999999777  2.7532682926829466 0.7461463414634295  1.7532682926829466 0.9123414634146343  C 0.7538536585366273 1.0784878048780229  0.0867804878048446 1.7467804878048696  0.0867804878048446 2.5769756097561185  C 0.0867804878048446 3.2434634146341637  0.7538536585366273 3.9086829268292718  1.7532682926829466 3.7431707317073233  C 2.5865365853658204 3.7431707317073233  3.4203902439024887 3.0748780487804765  3.5859512195122534 2.2440487804877876  Z " fill-rule="nonzero" fill="#fb5555" stroke="none" transform="matrix(1 0 0 1 141 668 )" />
  </g>
</svg>