<?xml version="1.0" encoding="utf-8"?>
<svg version="1.1" xmlns:xlink="http://www.w3.org/1999/xlink" width="40px" height="31px" xmlns="http://www.w3.org/2000/svg">
  <g transform="matrix(1 0 0 1 -196 -382 )">
    <path d="M 39.277419354838685 4.196632996633014  C 39.75913978494623 4.6742985409651965  40 5.254320987654296  40 5.936700336700312  C 40 6.619079685746328  39.75913978494623 7.199102132435485  39.277419354838685 7.676767676767668  L 20.593548387096803 26.203367003366964  L 17.083870967741916 29.683501683501675  C 16.60215053763443 30.161167227833857  16.017204301075253 30.399999999999977  15.329032258064501 30.399999999999977  C 14.640860215053749 30.399999999999977  14.05591397849463 30.161167227833857  13.574193548387086 29.683501683501675  L 10.064516129032256 26.203367003366964  L 0.7225806451613153 16.940067340067344  C 0.24086021505377175 16.462401795735104  0 15.882379349046003  0 15.199999999999989  C 0 14.517620650953972  0.24086021505377175 13.937598204264873  0.7225806451613153 13.459932659932633  L 4.232258064516145 9.97979797979798  C 4.713978494623632 9.50213243546574  5.298924731182808 9.263299663299676  5.98709677419356 9.263299663299676  C 6.675268817204312 9.263299663299676  7.260215053763432 9.50213243546574  7.741935483870975 9.97979797979798  L 15.329032258064501 17.528619528619515  L 32.258064516129025 0.7164983164983028  C 32.73978494623657 0.23883277216611987  33.32473118279569 0  34.01290322580644 0  C 34.70107526881719 0  35.28602150537637 0.23883277216611987  35.767741935483855 0.7164983164983028  L 39.277419354838685 4.196632996633014  Z " fill-rule="nonzero" fill="#ffffff" stroke="none" transform="matrix(1 0 0 1 196 382 )" />
  </g>
</svg>