<?xml version="1.0" encoding="utf-8"?>
<svg version="1.1" xmlns:xlink="http://www.w3.org/1999/xlink" width="24px" height="30px" xmlns="http://www.w3.org/2000/svg">
  <g transform="matrix(1 0 0 1 -571 -274 )">
    <path d="M 24 7.608  C 24 7.416  23.951999999999998 7.2719999999999985  23.807999999999993 7.128  L 17.471999999999994 0.7919999999999998  C 17.327999999999996 0.6479999999999997  17.183999999999994 0.6000000000000014  16.991999999999994 0.6000000000000014  C 16.607999999999997 0.6000000000000014  16.319999999999997 0.8880000000000017  16.319999999999997 1.2720000000000002  L 16.319999999999997 6.359999999999999  C 16.319999999999997 7.416  17.183999999999994 8.280000000000001  18.239999999999995 8.280000000000001  L 23.327999999999996 8.280000000000001  C 23.711999999999996 8.280000000000001  24 7.991999999999997  24 7.608  Z M 24 12.119999999999997  C 24 11.591999999999999  23.567999999999998 11.16  23.04 11.16  L 16.32 11.16  C 14.736 11.16  13.439999999999998 9.863999999999997  13.439999999999998 8.280000000000001  L 13.439999999999998 1.5599999999999987  C 13.439999999999998 1.0319999999999983  13.008 0.5999999999999996  12.48 0.5999999999999996  L 2.879999999999999 0.5999999999999996  C 1.2959999999999994 0.5999999999999996  0 1.895999999999999  0 3.4800000000000004  L 0 26.519999999999996  C 0 28.104  1.2959999999999994 29.4  2.879999999999999 29  L 21.119999999999997 29  C 22.704 29.4  24 28.104  24 26.519999999999996  L 24 12.119999999999997  Z M 3.167999999999994 6.984000000000002  C 3.119999999999992 6.888  3.215999999999994 6.6960000000000015  3.3599999999999994 6.648  L 5.712 6.312000000000001  C 5.759999999999998 6.312000000000001  5.855999999999998 6.263999999999999  5.855999999999998 6.216000000000001  L 6.911999999999999 4.056000000000001  C 7.007999999999999 3.9120000000000004  7.199999999999999 3.9120000000000004  7.295999999999996 4.056000000000001  L 8.352 6.216000000000001  C 8.399999999999999 6.264000000000001  8.448 6.312000000000001  8.495999999999999 6.312000000000001  L 10.847999999999995 6.648  C 10.991999999999994 6.6960000000000015  11.087999999999997 6.888  10.943999999999999 6.984000000000002  L 9.215999999999998 8.664000000000001  C 9.167999999999996 8.712000000000003  9.167999999999996 8.760000000000002  9.167999999999996 8.856000000000002  L 9.551999999999996 11.207999999999998  C 9.599999999999994 11.352  9.407999999999998 11.496000000000002  9.263999999999996 11.399999999999999  L 7.151999999999994 10.296  C 7.103999999999996 10.248000000000001  7.007999999999996 10.248000000000001  6.959999999999997 10.296  L 4.847999999999995 11.399999999999999  C 4.703999999999997 11.496000000000002  4.511999999999997 11.352  4.559999999999995 11.207999999999998  L 4.9439999999999955 8.856000000000002  C 4.9439999999999955 8.808  4.9439999999999955 8.712000000000003  4.895999999999994 8.664000000000001  L 3.167999999999994 6.984000000000002  Z M 18.24 21.72  L 18.24 22.68  C 18.24 23.208  17.808 23.64  17.279999999999998 23.64  L 4.800000000000001 23.64  C 4.2719999999999985 23.64  3.84 23.208  3.84 22.68  L 3.84 21.72  C 3.84 21.191999999999997  4.2719999999999985 20.759999999999998  4.800000000000001 20.759999999999998  L 17.279999999999998 20.759999999999998  C 17.808 20.759999999999998  18.24 21.191999999999997  18.24 21.72  Z M 20.159999999999997 15.96  L 20.159999999999997 16.919999999999998  C 20.159999999999997 17.448  19.727999999999994 17.88  19.2 17.88  L 4.800000000000001 17.88  C 4.2719999999999985 17.88  3.84 17.448  3.84 16.919999999999998  L 3.84 15.96  C 3.84 15.431999999999999  4.2719999999999985 15  4.800000000000001 15  L 19.2 15  C 19.727999999999994 15  20.159999999999997 15.431999999999999  20.159999999999997 15.96  Z " fill-rule="nonzero" fill="#ffffff" stroke="none" transform="matrix(1 0 0 1 571 274 )" />
  </g>
</svg>