<?xml version="1.0" encoding="utf-8"?>
<svg version="1.1" xmlns:xlink="http://www.w3.org/1999/xlink" width="14px" height="13px" xmlns="http://www.w3.org/2000/svg">
  <g transform="matrix(1 0 0 1 -86 -494 )">
    <path d="M 12.055555555555557 1.6228214022667913  C 12.365485830891448 1.6228214022667913  12.662678941865167 1.7516483545738877  12.881555555555554 1.980874999999999  C 13.10098619049337 2.209522891087281  13.224307717488198 2.5199835516580373  13.224307717488198 2.84375  C 13.224307717488198 3.1675164483419627  13.10098619049337 3.477977108912719  12.881555555555554 3.7066250000000007  L 5.881555555555554 11.019124999999999  C 5.662678941865163 11.248351645426109  5.3654858308914495 11.377178597733206  5.055555555555554 11.377178597733206  C 4.745625280219656 11.377178597733206  4.448432169245944 11.248351645426109  4.229555555555551 11.019124999999999  L 0.729555555555552 7.362874999999998  C 0.5104867349480895 7.134026321329703  0.38741515303537666 6.823640905106692  0.38741515303537666 6.499999999999997  C 0.38741515303537666 5.826052703510243  0.9104094255824546 5.279710472367313  1.5555555555555527 5.279710472367313  C 1.8653656527517082 5.279710472367313  2.1624867349480885 5.4082763213297005  2.381555555555554 5.637124999999996  L 5.055555555555555 8.432937499999998  L 11.229555555555557 1.9808749999999962  C 11.448432169245947 1.7516483545738906  11.745625280219663 1.6228214022667913  12.055555555555557 1.6228214022667913  Z " fill-rule="nonzero" fill="#ffffff" stroke="none" transform="matrix(1 0 0 1 86 494 )" />
  </g>
</svg>