<?xml version="1.0" encoding="utf-8"?>
<svg version="1.1" xmlns:xlink="http://www.w3.org/1999/xlink" width="35px" height="38px" xmlns="http://www.w3.org/2000/svg">
  <g transform="matrix(1 0 0 1 -75 -181 )">
    <path d="M 10.0983606557377 10.83934426229506  C 10.0983606557377 5.2625801853171845  13.426229508196705 0.6283677833214345  17.557377049180324 0.6283677833214345  C 21.688524590163937 0.6283677833214345  25.01639344262294 5.184034212402011  25.01639344262294 10.83934426229506  L 25.01639344262294 13.431361368496066  C 22.549180327868868 13.038631503920152  20.024590163934434 12.881539558089806  17.557377049180324 12.881539558089806  C 15.090163934426243 12.881539558089806  12.56557377049181 13.038631503920152  10.0983606557377 13.431361368496066  L 10.0983606557377 10.83934426229506  Z M 34.77049180327868 25.920171062010006  C 34.77049180327868 28.433642195295793  33.10655737704918 30.475837491090534  31.098360655737707 30.475837491090534  L 31.84426229508196 21.521596578759823  C 33.5081967213115 21.914326443335735  34.77049180327868 23.79942979330009  34.77049180327868 25.920171062010006  Z M 3.2131147540983633 21.521596578759823  L 3.9590163934426155 30.475837491090534  C 1.9508196721311468 30.475837491090534  0.2868852459016433 28.433642195295793  0.2868852459016433 25.920171062010006  C 0.2868852459016433 23.720883820384916  1.5491803278688598 21.914326443335735  3.2131147540983633 21.521596578759823  Z M 30.639344262295097 19.00812544547399  C 30.639344262295097 17.28011404133999  29.778688524590166 15.787740555951553  28.51639344262295 15.630648610121158  C 24.729508196721298 15.080826799714897  21.11475409836065 14.845188880969376  17.614754098360642 14.845188880969376  C 14.11475409836067 14.845188880969376  10.442622950819665 15.080826799714897  6.71311475409837 15.630648610121158  C 5.4508196721311535 15.787740555951553  4.532786885245901 17.35866001425516  4.704918032786901 19.00812544547399  L 5.852459016393441 34.24604419101924  C 5.967213114754085 35.6598717034925  6.770491803278691 36.838061297220236  7.86065573770491 36.99515324305063  C 11.073770491803273 37.544975053456895  14.344262295081958 37.78061297220241  17.672131147541002 37.78061297220241  C 21.000000000000007 37.78061297220241  24.270491803278695 37.544975053456895  27.48360655737706 36.99515324305063  C 28.51639344262295 36.838061297220236  29.37704918032788 35.6598717034925  29.491803278688522 34.24604419101924  L 30.639344262295097 19.00812544547399  Z M 12.852459016393453 26.54853884533144  C 12.852459016393453 28.19800427655027  12.163934426229524 29.45473984319314  11.245901639344272 29.45473984319314  C 10.32786885245902 29.45473984319314  9.63934426229509 28.19800427655027  9.63934426229509 26.54853884533144  C 9.63934426229509 24.89907341411261  10.385245901639344 23.642337847469694  11.245901639344272 23.642337847469694  C 12.106557377049167 23.642337847469694  12.852459016393453 24.89907341411261  12.852459016393453 26.54853884533144  Z M 20.827868852459005 31.261297220242362  L 20.827868852459005 32.67512473271563  C 20.827868852459005 32.83221667854597  20.770491803278688 32.98930862437632  20.713114754098363 33.067854597291536  C 20.65573770491804 33.14640057020671  20.54098360655736 33.22494654312189  20.42622950819672 33.22494654312189  L 14.745901639344247 33.22494654312189  C 14.631147540983601 33.22494654312189  14.51639344262296 33.14640057020671  14.459016393442603 33.067854597291536  C 14.401639344262279 32.98930862437632  14.344262295081958 32.83221667854597  14.344262295081958 32.67512473271563  L 14.344262295081958 31.261297220242362  C 14.344262295081958 30.947113328581622  14.51639344262296 30.711475409836055  14.745901639344247 30.711475409836055  L 14.860655737704924 30.711475409836055  C 15.090163934426212 30.711475409836055  15.26229508196721 30.947113328581622  15.26229508196721 31.261297220242362  L 15.26229508196721 31.96821097647897  L 19.909836065573792 31.96821097647897  L 19.909836065573792 31.261297220242362  C 19.909836065573792 30.947113328581622  20.08196721311476 30.711475409836055  20.311475409836078 30.711475409836055  L 20.42622950819672 30.711475409836055  C 20.65573770491804 30.711475409836055  20.827868852459005 30.947113328581622  20.827868852459005 31.261297220242362  Z M 25.475409836065552 26.54853884533144  C 25.475409836065552 28.19800427655027  24.786885245901622 29.45473984319314  23.868852459016402 29.45473984319314  C 22.950819672131153 29.45473984319314  22.262295081967224 28.19800427655027  22.262295081967224 26.54853884533144  C 22.262295081967224 24.89907341411261  23.008196721311478 23.642337847469694  23.868852459016402 23.642337847469694  C 24.729508196721298 23.642337847469694  25.475409836065552 24.89907341411261  25.475409836065552 26.54853884533144  Z " fill-rule="nonzero" fill="#ffffff" stroke="none" transform="matrix(1 0 0 1 75 181 )" />
  </g>
</svg>