<?xml version="1.0" encoding="utf-8"?>
<svg version="1.1" xmlns:xlink="http://www.w3.org/1999/xlink" width="30px" height="38px" xmlns="http://www.w3.org/2000/svg">
  <g transform="matrix(1 0 0 1 -570 -497 )">
    <path d="M 29.44186046511628 27.435999999999996  C 30 27.739999999999995  30 28.499999999999996  29.44186046511628 28.804000000000002  L 16.325581395348838 36.93599999999999  C 15.627906976744189 37.391999999999996  14.72093023255814 37.391999999999996  14.02325581395349 36.93599999999999  L 0.976744186046513 28.80399999999999  C 0.41860465116279233 28.499999999999996  0.41860465116279233 27.739999999999995  0.976744186046513 27.435999999999996  L 4.046511627906979 25.535999999999998  C 4.255813953488374 25.383999999999993  4.5348837209302335 25.383999999999993  4.744186046511629 25.535999999999998  L 12.697674418604652 30.476  C 13.46511627906977 30.932  14.302325581395351 31.159999999999993  15.2093023255814 31.159999999999993  C 16.116279069767444 31.159999999999993  16.953488372093027 30.932  17.720930232558143 30.476  L 25.674418604651166 25.535999999999998  C 25.88372093023256 25.383999999999993  26.162790697674424 25.383999999999993  26.372093023255818 25.535999999999998  L 29.44186046511628 27.435999999999996  Z M 29.44186046511628 18.315999999999995  C 30 18.619999999999994  30 19.379999999999995  29.44186046511628 19.684  L 16.325581395348838 27.815999999999995  C 15.627906976744189 28.271999999999995  14.72093023255814 28.271999999999995  14.02325581395349 27.815999999999995  L 0.976744186046513 19.683999999999997  C 0.41860465116279233 19.379999999999995  0.41860465116279233 18.619999999999997  0.976744186046513 18.315999999999995  L 4.046511627906979 16.415999999999997  C 4.255813953488374 16.263999999999996  4.5348837209302335 16.263999999999996  4.744186046511629 16.415999999999997  L 12.697674418604652 21.355999999999995  C 13.46511627906977 21.811999999999998  14.302325581395351 22.039999999999996  15.2093023255814 22.039999999999996  C 16.116279069767444 22.039999999999996  16.953488372093027 21.811999999999994  17.720930232558143 21.355999999999995  L 25.674418604651166 16.415999999999997  C 25.88372093023256 16.263999999999996  26.162790697674424 16.263999999999996  26.372093023255818 16.415999999999997  L 29.44186046511628 18.315999999999995  Z M 16.465116279069772 18.695999999999998  C 15.76744186046512 19.076  14.860465116279073 19.076  14.16279069767442 18.695999999999998  L 1.0465116279069793 10.563999999999998  C 0.4883720930232584 10.259999999999998  0.4883720930232584 9.499999999999998  1.0465116279069793 9.195999999999998  L 14.16279069767442 1.063999999999999  C 14.860465116279073 0.6079999999999989  15.76744186046512 0.6079999999999989  16.465116279069772 1.063999999999999  L 29.581395348837212 9.195999999999998  C 30.139534883720934 9.499999999999998  30.139534883720934 10.259999999999998  29.581395348837212 10.563999999999998  L 16.465116279069772 18.695999999999998  Z " fill-rule="nonzero" fill="#ffffff" stroke="none" transform="matrix(1 0 0 1 570 497 )" />
  </g>
</svg>