<?xml version="1.0" encoding="utf-8"?>
<svg version="1.1" xmlns:xlink="http://www.w3.org/1999/xlink" width="30px" height="38px" xmlns="http://www.w3.org/2000/svg">
  <g transform="matrix(1 0 0 1 -236 -483 )">
    <path d="M 6.2469951923076925 34.490513392857146  C 6.697716346153846 33.960379464285715  6.923076923076923 33.32068452380952  6.923076923076923 32.57142857142858  C 6.923076923076923 31.822172619047624  6.697716346153846 31.182477678571427  6.2469951923076925 30.65234375  C 5.796274038461538 30.122209821428573  5.252403846153847 29.857142857142858  4.615384615384616 29.857142857142858  C 3.9783653846153846 29.857142857142858  3.434495192307692 30.122209821428573  2.9837740384615383 30.65234375  C 2.5330528846153846 31.182477678571427  2.307692307692308 31.822172619047624  2.307692307692308 32.57142857142858  C 2.307692307692308 33.32068452380952  2.5330528846153846 33.960379464285715  2.9837740384615383 34.490513392857146  C 3.434495192307692 35.02064732142857  3.9783653846153846 35.285714285714285  4.615384615384616 35.285714285714285  C 5.252403846153847 35.285714285714285  5.796274038461538 35.02064732142857  6.2469951923076925 34.490513392857146  Z M 13.170072115384615 34.490513392857146  C 13.620793269230768 33.960379464285715  13.846153846153847 33.32068452380952  13.846153846153847 32.57142857142858  C 13.846153846153847 31.822172619047624  13.620793269230768 31.182477678571427  13.170072115384615 30.65234375  C 12.719350961538462 30.122209821428573  12.17548076923077 29.857142857142858  11.538461538461538 29.857142857142858  C 10.901442307692308 29.857142857142858  10.357572115384615 30.122209821428573  9.906850961538462 30.65234375  C 9.456129807692308 31.182477678571427  9.230769230769232 31.822172619047624  9.230769230769232 32.57142857142858  C 9.230769230769232 33.32068452380952  9.456129807692308 33.960379464285715  9.906850961538462 34.490513392857146  C 10.357572115384615 35.02064732142857  10.901442307692308 35.285714285714285  11.538461538461538 35.285714285714285  C 12.17548076923077 35.285714285714285  12.719350961538462 35.02064732142857  13.170072115384615 34.490513392857146  Z M 6.2469951923076925 26.34765625  C 6.697716346153846 25.817522321428573  6.923076923076923 25.177827380952376  6.923076923076923 24.428571428571427  C 6.923076923076923 23.679315476190474  6.697716346153846 23.03962053571429  6.2469951923076925 22.509486607142858  C 5.796274038461538 21.979352678571427  5.252403846153847 21.71428571428571  4.615384615384616 21.71428571428571  C 3.9783653846153846 21.71428571428571  3.434495192307692 21.979352678571427  2.9837740384615383 22.509486607142858  C 2.5330528846153846 23.03962053571429  2.307692307692308 23.679315476190474  2.307692307692308 24.428571428571427  C 2.307692307692308 25.177827380952376  2.5330528846153846 25.817522321428573  2.9837740384615383 26.34765625  C 3.434495192307692 26.877790178571427  3.9783653846153846 27.142857142857142  4.615384615384616 27.142857142857142  C 5.252403846153847 27.142857142857142  5.796274038461538 26.877790178571427  6.2469951923076925 26.34765625  Z M 20.093149038461537 34.490513392857146  C 20.543870192307693 33.960379464285715  20.76923076923077 33.32068452380952  20.76923076923077 32.57142857142858  C 20.76923076923077 31.822172619047624  20.543870192307693 31.182477678571427  20.093149038461537 30.65234375  C 19.642427884615383 30.122209821428573  19.098557692307697 29.857142857142858  18.461538461538463 29.857142857142858  C 17.824519230769234 29.857142857142858  17.280649038461537 30.122209821428573  16.829927884615383 30.65234375  C 16.37920673076923 31.182477678571427  16.153846153846153 31.822172619047624  16.153846153846153 32.57142857142858  C 16.153846153846153 33.32068452380952  16.37920673076923 33.960379464285715  16.829927884615383 34.490513392857146  C 17.280649038461537 35.02064732142857  17.824519230769234 35.285714285714285  18.461538461538463 35.285714285714285  C 19.098557692307697 35.285714285714285  19.642427884615383 35.02064732142857  20.093149038461537 34.490513392857146  Z M 13.170072115384615 26.34765625  C 13.620793269230768 25.817522321428573  13.846153846153847 25.177827380952376  13.846153846153847 24.428571428571427  C 13.846153846153847 23.679315476190474  13.620793269230768 23.03962053571429  13.170072115384615 22.509486607142858  C 12.719350961538462 21.979352678571427  12.17548076923077 21.71428571428571  11.538461538461538 21.71428571428571  C 10.901442307692308 21.71428571428571  10.357572115384615 21.979352678571427  9.906850961538462 22.509486607142858  C 9.456129807692308 23.03962053571429  9.230769230769232 23.679315476190474  9.230769230769232 24.428571428571427  C 9.230769230769232 25.177827380952376  9.456129807692308 25.817522321428573  9.906850961538462 26.34765625  C 10.357572115384615 26.877790178571427  10.901442307692308 27.142857142857142  11.538461538461538 27.142857142857142  C 12.17548076923077 27.142857142857142  12.719350961538462 26.877790178571427  13.170072115384615 26.34765625  Z M 6.2469951923076925 18.204799107142858  C 6.697716346153846 17.67466517857143  6.923076923076923 17.034970238095237  6.923076923076923 16.28571428571429  C 6.923076923076923 15.536458333333332  6.697716346153846 14.896763392857144  6.2469951923076925 14.366629464285714  C 5.796274038461538 13.836495535714286  5.252403846153847 13.57142857142857  4.615384615384616 13.57142857142857  C 3.9783653846153846 13.57142857142857  3.434495192307692 13.836495535714286  2.9837740384615383 14.366629464285714  C 2.5330528846153846 14.896763392857144  2.307692307692308 15.536458333333332  2.307692307692308 16.28571428571429  C 2.307692307692308 17.034970238095237  2.5330528846153846 17.67466517857143  2.9837740384615383 18.204799107142858  C 3.434495192307692 18.73493303571429  3.9783653846153846 19  4.615384615384616 19  C 5.252403846153847 19  5.796274038461538 18.73493303571429  6.2469951923076925 18.204799107142858  Z M 20.093149038461537 26.34765625  C 20.543870192307693 25.817522321428573  20.76923076923077 25.177827380952376  20.76923076923077 24.428571428571427  C 20.76923076923077 23.679315476190474  20.543870192307693 23.03962053571429  20.093149038461537 22.509486607142858  C 19.642427884615383 21.979352678571427  19.098557692307697 21.71428571428571  18.461538461538463 21.71428571428571  C 17.824519230769234 21.71428571428571  17.280649038461537 21.979352678571427  16.829927884615383 22.509486607142858  C 16.37920673076923 23.03962053571429  16.153846153846153 23.679315476190474  16.153846153846153 24.428571428571427  C 16.153846153846153 25.177827380952376  16.37920673076923 25.817522321428573  16.829927884615383 26.34765625  C 17.280649038461537 26.877790178571427  17.824519230769234 27.142857142857142  18.461538461538463 27.142857142857142  C 19.098557692307697 27.142857142857142  19.642427884615383 26.877790178571427  20.093149038461537 26.34765625  Z M 13.170072115384615 18.204799107142858  C 13.620793269230768 17.67466517857143  13.846153846153847 17.034970238095237  13.846153846153847 16.28571428571429  C 13.846153846153847 15.536458333333332  13.620793269230768 14.896763392857144  13.170072115384615 14.366629464285714  C 12.719350961538462 13.836495535714286  12.17548076923077 13.57142857142857  11.538461538461538 13.57142857142857  C 10.901442307692308 13.57142857142857  10.357572115384615 13.836495535714286  9.906850961538462 14.366629464285714  C 9.456129807692308 14.896763392857144  9.230769230769232 15.536458333333332  9.230769230769232 16.28571428571429  C 9.230769230769232 17.034970238095237  9.456129807692308 17.67466517857143  9.906850961538462 18.204799107142858  C 10.357572115384615 18.73493303571429  10.901442307692308 19  11.538461538461538 19  C 12.17548076923077 19  12.719350961538462 18.73493303571429  13.170072115384615 18.204799107142858  Z M 27.007211538461537 34.479910714285715  C 27.463942307692307 33.942708333333336  27.692307692307693 33.30654761904762  27.692307692307693 32.57142857142858  L 27.692307692307693 24.428571428571427  C 27.692307692307693 23.693452380952376  27.463942307692307 23.057291666666664  27.007211538461537 22.52008928571429  C 26.55048076923077 21.9828869047619  26.009615384615387 21.71428571428571  25.384615384615383 21.71428571428571  C 24.759615384615387 21.71428571428571  24.218750000000004 21.9828869047619  23.76201923076923 22.52008928571429  C 23.305288461538463 23.057291666666664  23.076923076923077 23.693452380952376  23.076923076923077 24.428571428571427  L 23.076923076923077 32.57142857142858  C 23.076923076923077 33.30654761904762  23.305288461538463 33.942708333333336  23.76201923076923 34.479910714285715  C 24.218750000000004 35.017113095238095  24.759615384615387 35.285714285714285  25.384615384615383 35.285714285714285  C 26.009615384615387 35.285714285714285  26.55048076923077 35.017113095238095  27.007211538461537 34.479910714285715  Z M 20.093149038461537 18.204799107142858  C 20.543870192307693 17.67466517857143  20.76923076923077 17.034970238095237  20.76923076923077 16.28571428571429  C 20.76923076923077 15.536458333333332  20.543870192307693 14.896763392857144  20.093149038461537 14.366629464285714  C 19.642427884615383 13.836495535714286  19.098557692307697 13.57142857142857  18.461538461538463 13.57142857142857  C 17.824519230769234 13.57142857142857  17.280649038461537 13.836495535714286  16.829927884615383 14.366629464285714  C 16.37920673076923 14.896763392857144  16.153846153846153 15.536458333333332  16.153846153846153 16.28571428571429  C 16.153846153846153 17.034970238095237  16.37920673076923 17.67466517857143  16.829927884615383 18.204799107142858  C 17.280649038461537 18.73493303571429  17.824519230769234 19  18.461538461538463 19  C 19.098557692307697 19  19.642427884615383 18.73493303571429  20.093149038461537 18.204799107142858  Z M 27.349759615384617 10.45424107142857  C 27.578124999999996 10.185639880952381  27.692307692307693 9.86755952380952  27.692307692307693 9.5  L 27.692307692307693 4.071428571428569  C 27.692307692307693 3.703869047619045  27.578124999999996 3.3857886904761885  27.349759615384617 3.1171875  C 27.121394230769234 2.8485863095238075  26.85096153846154 2.714285714285713  26.538461538461537 3  L 3.4615384615384617 3  C 3.149038461538462 2.714285714285713  2.8786057692307696 2.8485863095238075  2.6502403846153846 3.1171875  C 2.421875 3.3857886904761885  2.307692307692308 3.703869047619045  2.307692307692308 4.071428571428569  L 2.307692307692308 9.5  C 2.307692307692308 9.86755952380952  2.421875 10.185639880952381  2.6502403846153846 10.45424107142857  C 2.8786057692307696 10.722842261904757  3.149038461538462 10.857142857142856  3.4615384615384617 11  L 26.538461538461537 11  C 26.85096153846154 10.857142857142856  27.121394230769234 10.722842261904757  27.349759615384617 10.45424107142857  Z M 27.016225961538463 18.204799107142858  C 27.466947115384617 17.67466517857143  27.692307692307693 17.034970238095237  27.692307692307693 16.28571428571429  C 27.692307692307693 15.536458333333332  27.466947115384617 14.896763392857144  27.016225961538463 14.366629464285714  C 26.565504807692307 13.836495535714286  26.021634615384617 13.57142857142857  25.384615384615383 13.57142857142857  C 24.747596153846153 13.57142857142857  24.203725961538463 13.836495535714286  23.753004807692307 14.366629464285714  C 23.302283653846153 14.896763392857144  23.076923076923077 15.536458333333332  23.076923076923077 16.28571428571429  C 23.076923076923077 17.034970238095237  23.302283653846153 17.67466517857143  23.753004807692307 18.204799107142858  C 24.203725961538463 18.73493303571429  24.747596153846153 19  25.384615384615383 19  C 26.021634615384617 19  26.565504807692307 18.73493303571429  27.016225961538463 18.204799107142858  Z M 29.314903846153847 0.8058035714285696  C 29.771634615384617 1.3430059523809508  30 1.9791666666666639  30 2.714285714285713  L 30 35.285714285714285  C 30 36.020833333333336  29.771634615384617 36.65699404761905  29.314903846153847 37.19419642857143  C 28.85817307692308 37.73139880952381  28.317307692307693 38  27.692307692307693 38  L 2.307692307692308 38  C 1.682692307692308 38  1.1418269230769231 37.73139880952381  0.6850961538461539 37.19419642857143  C 0.2283653846153846 36.65699404761905  0 36.020833333333336  0 35.285714285714285  L 0 2.714285714285713  C 0 1.9791666666666639  0.2283653846153846 1.3430059523809508  0.6850961538461539 0.8058035714285696  C 1.1418269230769231 0.2686011904761927  1.682692307692308 0  2.307692307692308 0  L 27.692307692307693 0  C 28.317307692307693 0  28.85817307692308 0.2686011904761927  29.314903846153847 0.8058035714285696  Z " fill-rule="nonzero" fill="#ffffff" stroke="none" transform="matrix(1 0 0 1 236 483 )" />
  </g>
</svg>