<?xml version="1.0" encoding="utf-8"?>
<svg version="1.1" xmlns:xlink="http://www.w3.org/1999/xlink" width="35px" height="38px" xmlns="http://www.w3.org/2000/svg">
  <g transform="matrix(1 0 0 1 -595 -642 )">
    <path d="M 35 9.6368  C 35 9.3936  34.92999999999999 9.211199999999998  34.719999999999985 9.0288  L 25.47999999999999 1.0031999999999996  C 25.269999999999996 0.8207999999999996  25.05999999999999 0.7600000000000019  24.77999999999999 0.7600000000000019  C 24.219999999999995 0.7600000000000019  23.799999999999994 1.1248000000000022  23.799999999999994 1.6112000000000002  L 23.799999999999994 8.056  C 23.799999999999994 9.3936  25.05999999999999 10.488000000000001  26.599999999999994 10.488000000000001  L 34.019999999999996 10.488000000000001  C 34.58 10.488000000000001  35 10.123199999999997  35 9.6368  Z M 35 15.351999999999997  C 35 14.6832  34.37 14.136  33.6 14.136  L 23.8 14.136  C 21.49 14.136  19.599999999999998 12.494399999999997  19.599999999999998 10.488000000000001  L 19.599999999999998 1.9759999999999984  C 19.599999999999998 1.307199999999998  18.97 0.7599999999999995  18.2 1  L 4.199999999999998 1  C 1.889999999999999 0.7599999999999995  0 2.401599999999999  0 4.408  L 0 33.592  C 0 35.5984  1.889999999999999 37.24  4.199999999999998 37  L 30.799999999999997 37  C 33.11 37.24  35 35.5984  35 33.592  L 35 15.351999999999997  Z M 4.619999999999991 8.846400000000003  C 4.549999999999988 8.7248  4.6899999999999915 8.481600000000002  4.8999999999999995 8.4208  L 8.33 7.995200000000001  C 8.399999999999997 7.995200000000001  8.539999999999997 7.934399999999999  8.539999999999997 7.873600000000001  L 10.08 5.137600000000002  C 10.219999999999999 4.9552000000000005  10.5 4.9552000000000005  10.639999999999993 5.137600000000002  L 12.180000000000001 7.873600000000001  C 12.249999999999996 7.934400000000002  12.320000000000002 7.995200000000001  12.389999999999997 7.995200000000001  L 15.819999999999993 8.4208  C 16.02999999999999 8.481600000000002  16.169999999999998 8.7248  15.959999999999999 8.846400000000003  L 13.439999999999996 10.974400000000003  C 13.369999999999994 11.035200000000003  13.369999999999994 11.096000000000002  13.369999999999994 11.217600000000003  L 13.929999999999994 14.196799999999998  C 13.999999999999991 14.3792  13.719999999999997 14.561600000000004  13.509999999999994 14.439999999999998  L 10.429999999999993 13.0416  C 10.359999999999994 12.9808  10.219999999999994 12.9808  10.149999999999995 13.0416  L 7.069999999999994 14.439999999999998  C 6.859999999999995 14.561600000000004  6.579999999999995 14.3792  6.649999999999993 14.196799999999998  L 7.209999999999994 11.217600000000003  C 7.209999999999994 11.156799999999999  7.209999999999994 11.035200000000003  7.139999999999991 10.974400000000003  L 4.619999999999991 8.846400000000003  Z M 26.599999999999998 27.512  L 26.599999999999998 28.728  C 26.599999999999998 29.3968  25.97 29.944000000000003  25.199999999999996 30  L 7.000000000000002 30  C 6.229999999999998 29.944000000000003  5.6000000000000005 29.3968  5.6000000000000005 28.728  L 5.6000000000000005 27.512  C 5.6000000000000005 26.843199999999996  6.229999999999998 26.296  7.000000000000002 26  L 25.199999999999996 26  C 25.97 26.296  26.599999999999998 26.843199999999996  26.599999999999998 27.512  Z M 29.399999999999995 20.216  L 29.399999999999995 21.432  C 29.399999999999995 22.1008  28.76999999999999 22.648  27.999999999999996 22  L 7.000000000000002 22  C 6.229999999999998 22.648  5.6000000000000005 22.1008  5.6000000000000005 21.432  L 5.6000000000000005 20.216  C 5.6000000000000005 19.5472  6.229999999999998 19  7.000000000000002 19  L 27.999999999999996 19  C 28.76999999999999 19  29.399999999999995 19.5472  29.399999999999995 20.216  Z " fill-rule="nonzero" fill="#ffffff" stroke="none" transform="matrix(1 0 0 1 595 642 )" />
  </g>
</svg>