<?xml version="1.0" encoding="utf-8"?>
<svg version="1.1" xmlns:xlink="http://www.w3.org/1999/xlink" width="20px" height="20px" xmlns="http://www.w3.org/2000/svg">
  <g transform="matrix(1 0 0 1 -300 -83 )">
    <path d="M 19.591836734693878 12.448979591836736  C 19.591836734693878 12.122448979591836  19.30612244897959 11.83673469387755  18.979591836734695 11.83673469387755  L 17.755102040816325 11.83673469387755  C 17.42857142857143 11.83673469387755  17.142857142857142 12.122448979591836  17.142857142857142 12.448979591836736  L 17.142857142857142 16.93877551020408  C 17.142857142857142 17.265306122448976  16.857142857142854 17.551020408163264  16.53061224489796 17.551020408163264  L 3.0612244897959187 17.551020408163264  C 2.73469387755102 17.551020408163264  2.4489795918367347 17.265306122448976  2.4489795918367347 16.93877551020408  L 2.4489795918367347 8.36734693877551  C 2.4489795918367347 8.040816326530612  2.73469387755102 7.755102040816326  3.0612244897959187 7.755102040816326  L 4.6938775510204085 7.755102040816326  C 5.020408163265307 7.755102040816326  5.306122448979592 7.469387755102042  5.306122448979592 7.142857142857143  L 5.306122448979592 5.918367346938775  C 5.306122448979592 5.591836734693877  5.020408163265307 5.306122448979592  4.6938775510204085 5.306122448979592  L 1.6326530612244896 5.306122448979592  C 0.7346938775510203 5.306122448979592  0 6.040816326530613  0 6.938775510204081  L 0 18.367346938775512  C 0 19.26530612244898  0.7346938775510203 20  1.6326530612244896 20  L 17.959183673469386 20  C 18.857142857142858 20  19.591836734693878 19.26530612244898  19.591836734693878 18.367346938775512  L 19.591836734693878 12.448979591836736  Z M 14.163265306122451 5.265306122448981  L 13.061224489795917 5.306122448979592  C 8.979591836734693 5.306122448979592  5.26530612244898 8.938775510204081  4.938775510204082 13.224489795918366  C 4.89795918367347 13.551020408163264  5.183673469387755 13.877551020408163  5.551020408163266 13.877551020408163  L 6.775510204081633 13.877551020408163  C 7.102040816326531 13.877551020408163  7.346938775510204 13.632653061224488  7.387755102040817 13.346938775510203  C 7.673469387755102 10.285714285714286  10.285714285714286 7.755102040816329  13.46938775510204 7.755102040816329  L 14.122448979591837 7.755102040816329  C 14.489795918367347 7.755102040816329  14.653061224489797 8.204081632653063  14.408163265306124 8.448979591836736  L 12.163265306122451 10.734693877551022  C 11.918367346938776 10.979591836734697  11.918367346938776 11.346938775510207  12.163265306122451 11.591836734693878  L 13.020408163265309 12.448979591836737  C 13.265306122448983 12.693877551020412  13.632653061224492 12.693877551020412  13.877551020408166 12.448979591836737  L 19.428571428571434 6.938775510204085  C 19.673469387755105 6.69387755102041  19.673469387755105 6.3265306122449  19.428571428571434 6.081632653061227  L 13.918367346938778 0.5714285714285745  C 13.673469387755103 0.326530612244901  13.306122448979597 0.326530612244901  13.061224489795922 0.5714285714285745  L 12.204081632653063 1.4285714285714315  C 11.95918367346939 1.6734693877551048  11.918367346938778 2.040816326530615  12.163265306122451 2.2857142857142883  L 14.448979591836737 4.571428571428574  C 14.69387755102041 4.816326530612248  14.530612244897963 5.265306122448981  14.163265306122451 5.265306122448981  Z " fill-rule="nonzero" fill="#706e6b" stroke="none" transform="matrix(1 0 0 1 300 83 )" />
  </g>
</svg>