<?xml version="1.0" encoding="utf-8"?>
<svg version="1.1" xmlns:xlink="http://www.w3.org/1999/xlink" width="18px" height="18px" xmlns="http://www.w3.org/2000/svg">
  <g transform="matrix(1 0 0 1 -9 -9 )">
    <path d="M 14.697916666666668 4.958333333333334  L 6.729166666666667 12.927083333333334  L 2.3020833333333335 8.5  L 3.5505208333333336 7.242708333333333  L 6.729166666666667 10.421354166666667  L 13.449479166666666 3.701041666666667  L 14.697916666666668 4.958333333333334  Z M 16.46875 2.3020833333333335  C 16.46875 1.3192708333333334  15.671875000000004 0.53125  14.697916666666668 0.53125  L 2.3020833333333335 0.53125  C 1.3192708333333334 0.53125  0.53125 1.3192708333333334  0.53125 2.3020833333333335  L 0.53125 14.697916666666668  C 0.53125 15.675920911158697  1.3240790888413032 16.46875  2.3020833333333335 16.46875  L 14.697916666666668 16.46875  C 15.675920911158697 16.46875  16.46875 15.675920911158697  16.46875 14.697916666666668  L 16.46875 2.3020833333333335  Z " fill-rule="nonzero" fill="#8a1410" stroke="none" transform="matrix(1 0 0 1 9 9 )" />
  </g>
</svg>