<?xml version="1.0" encoding="utf-8"?>
<svg version="1.1" xmlns:xlink="http://www.w3.org/1999/xlink" width="8px" height="4px" xmlns="http://www.w3.org/2000/svg">
  <g transform="matrix(1 0 0 1 -195 -423 )">
    <path d="M 7.851562500000028 0.13194444444442865  C 7.950520833333314 0.219907407407419  8 0.3240740740740762  8 0.44444444444442865  C 8 0.5648148148148096  7.950520833333314 0.6689814814814952  7.851562500000028 0.7569444444444287  L 4.3515625 3.8680555555555713  C 4.252604166666629 3.956018518518505  4.135416666666629 4  4 4  C 3.8645833333333712 4  3.7473958333333712 3.956018518518505  3.6484375 3.8680555555555713  L 0.14843749999997158 0.7569444444444287  C 0.049479166666685614 0.6689814814814952  0 0.5648148148148096  0 0.44444444444442865  C 0 0.3240740740740762  0.049479166666685614 0.219907407407419  0.14843749999997158 0.13194444444442865  C 0.2473958333333428 0.043981481481495166  0.3645833333333428 0  0.4999999999999716 0  L 7.500000000000028 0  C 7.635416666666657 0  7.752604166666657 0.043981481481495166  7.851562500000028 0.13194444444442865  Z " fill-rule="nonzero" fill="#7ca7ec" stroke="none" transform="matrix(1 0 0 1 195 423 )" />
  </g>
</svg>