<?xml version="1.0" encoding="utf-8"?>
<svg version="1.1" xmlns:xlink="http://www.w3.org/1999/xlink" width="37px" height="37px" xmlns="http://www.w3.org/2000/svg">
  <g transform="matrix(1 0 0 1 -186 -461 )">
    <path d="M 204.5 461  C 214.86 461  223 469.14  223 479.5  C 223 489.86  214.86 498  204.5 498  C 194.14 498  186 489.86  186 479.5  C 186 469.14  194.14 461  204.5 461  Z " fill-rule="nonzero" fill="#669df6" stroke="none" />
    <path d="M 204.5 461.5  C 214.58 461.5  222.5 469.42  222.5 479.5  C 222.5 489.58  214.58 497.5  204.5 497.5  C 194.42 497.5  186.5 489.58  186.5 479.5  C 186.5 469.42  194.42 461.5  204.5 461.5  Z " stroke-width="1" stroke="#1093cd" fill="none" />
  </g>
</svg>