<?xml version="1.0" encoding="utf-8"?>
<svg version="1.1" xmlns:xlink="http://www.w3.org/1999/xlink" width="20px" height="10px" xmlns="http://www.w3.org/2000/svg">
  <g transform="matrix(1 0 0 1 -45 -230 )">
    <path d="M 45 230  L 65 230  L 65 240  L 45 240  L 45 230  " fill-rule="nonzero" fill="#cccccc" stroke="none" />
    <path d="M 46 231  L 64 231  L 64 239  L 46 239  L 46 231  " fill-rule="nonzero" fill="#ffffff" stroke="none" />
    <path d="M 56.15 233  C 55.73 233  55.4 232.67  55.4 232.25  C 55.4 231.83  55.73 231.5  56.15 231.5  C 56.57 231.5  56.9 231.83  56.9 232.25  C 56.9 232.67  56.57 233  56.15 233  " fill-rule="nonzero" fill="#cccccc" stroke="none" />
    <path d="M 47 239  L 47 235.15  L 51.25 233.4  L 57.2 236.9  L 60.6 234.45  L 64 236.9  L 64 239  L 47 239  " fill-rule="nonzero" fill="#169bd5" stroke="none" />
  </g>
</svg>