<?xml version="1.0" encoding="utf-8"?>
<svg version="1.1" xmlns:xlink="http://www.w3.org/1999/xlink" width="30px" height="30px" xmlns="http://www.w3.org/2000/svg">
  <g transform="matrix(1 0 0 1 -7 -3 )">
    <path d="M 7 3  L 37 3  L 37 33  L 7 33  L 7 3  " fill-rule="nonzero" fill="#cccccc" stroke="none" />
    <path d="M 9 5  L 35 5  L 35 31  L 9 31  L 9 5  " fill-rule="nonzero" fill="#ffffff" stroke="none" />
    <path d="M 24.85 12  C 23.59 12  22.6 11.01  22.6 9.75  C 22.6 8.49  23.59 7.5  24.85 7.5  C 26.110000000000003 7.5  27.1 8.49  27.1 9.75  C 27.1 11.01  26.110000000000003 12  24.85 12  " fill-rule="nonzero" fill="#cccccc" stroke="none" />
    <path d="M 10 30  L 10 16.799999999999997  L 16 10.799999999999997  L 24.4 15.600000000000001  L 29.200000000000003 14.399999999999999  L 34 15.600000000000001  L 34 30  L 10 30  " fill-rule="nonzero" fill="#169bd5" stroke="none" />
  </g>
</svg>