<?xml version="1.0" encoding="utf-8"?>
<svg version="1.1" xmlns:xlink="http://www.w3.org/1999/xlink" width="40px" height="40px" xmlns="http://www.w3.org/2000/svg">
  <g transform="matrix(1 0 0 1 -3 -8 )">
    <path d="M 3 8  L 43 8  L 43 48  L 3 48  L 3 8  " fill-rule="nonzero" fill="#cccccc" stroke="none" />
    <path d="M 6 11  L 40 11  L 40 45  L 6 45  L 6 11  " fill-rule="nonzero" fill="#ffffff" stroke="none" />
    <path d="M 26.8 20  C 25.12 20  23.8 18.68  23.8 17  C 23.8 15.32  25.12 14  26.8 14  C 28.48 14  29.8 15.32  29.8 17  C 29.8 18.68  28.48 20  26.8 20  " fill-rule="nonzero" fill="#cccccc" stroke="none" />
    <path d="M 7 44  L 7 26.4  L 15 18.4  L 26.2 24.8  L 32.6 23.2  L 39 24.8  L 39 44  L 7 44  " fill-rule="nonzero" fill="#169bd5" stroke="none" />
  </g>
</svg>