<?xml version="1.0" encoding="utf-8"?>
<svg version="1.1" xmlns:xlink="http://www.w3.org/1999/xlink" width="20px" height="20px" xmlns="http://www.w3.org/2000/svg">
  <g transform="matrix(1 0 0 1 -110 -474 )">
    <path d="M 18.685655381944343 5.639388020833394  C 18.594444444444434 5.4554036458332575  18.495941840277737 5.2722656250000455  18.392296006944434 5.09253472222224  C 17.978862847222217 4.376714409722126  17.470247395833326 3.699826388888937  16.857942708333326 3.0884548611110176  C 16.59613715277783 2.826649305555634  16.32185329861113 2.5846571180555884  16.03858506944448 2.360243055555543  C 15.345963541666606 1.8100694444444798  14.595355902777783 1.3677300347221717  13.810720486111109 1.0346137152778283  C 13.810720486111109 1.0346137152778283  13.858789062500023 10.220052083333371  13.810720486111109 10.513368055555588  L 18.685655381944343 5.639388020833394  Z M 19.63580729166665 8.916883680555657  C 19.536414930555566 8.03784722222224  19.317751736111063 7.1953125  18.997851562500045 6.4041015625000455  C 18.997851562500045 6.4041015625000455  12.536566840277715 12.934266493055475  12.294618055555475 13.108181423611086  L 19.18765190972215 13.108181423611086  C 19.25390625 12.913541666666674  19.31362847222215 12.714670138888891  19.36825086805561 12.514192708333326  C 19.583615451388937 11.714670138888891  19.701367187500068 10.8779296875  19.701367187500068 10.011328124999977  C 19.701367187500068 9.640950520833258  19.67814670138887 9.275585937499955  19.63580729166665 8.916883680555657  Z M 9.412261284722149 13.833940972222194  L 14.28708767361104 18.707964409722194  C 14.472699652777806 18.616015625000045  14.654188368055657 18.51907552083344  14.834743923611086 18.41471354166663  C 15.550585937500045 18.002886284722194  16.226649305555497 17.493446180555566  16.839756944444503 16.88036024305552  C 17.100629340277692 16.619357638888914  17.341818576388846 16.344270833333326  17.56714409722224 16.06100260416656  C 18.116384548611222 15.368272569444457  18.559722222222263 14.618554687499909  18.892708333333303 13.833094618055497  C 18.892751736111222 13.833094618055497  9.706467013888869 13.881228298611063  9.412261284722149 13.833940972222194  Z M 6.911089409722194 19.195920138888823  C 7.10668402777776 19.262196180555634  7.305403645833394 19.32267795138887  7.5050998263888005 19.376605902777783  C 8.303797743055611 19.592013888888914  9.141449652777737 19.709613715277783  10.008072916666606 19.709613715277783  C 10.377495659722285 19.709613715277783  10.742860243055588 19.686393229166697  11.100802951388914 19.64498697916656  C 11.979839409722217 19.544726562500045  12.822417534722263 19.326085069444503  13.614431423611222 19.006184895833258  C 13.615234375 19.006206597222217  7.0850477430554974 12.544856770833348  6.911089409722194 12.302907986111109  L 6.911089409722194 19.195920138888823  Z M 1.645247395833394 14.84963107638896  C 2.0570529513888687 15.567122395833394  2.566493055555611 16.243142361111154  3.179600694444389 16.85544704861104  C 3.440581597222149 17.11727430555561  3.7156684027777374 17.358333333333235  3.998958333333235 17.582877604166697  C 4.69236111111104 18.13387586805561  5.440559895833303 18.575412326388914  6.227647569444457 18.908398437499955  C 6.227625868055611 18.908420138888914  6.177907986111222 9.72215711805552  6.225065104166674 9.428016493055566  L 1.3518880208333712 14.3019748263888  C 1.4430989583332803 14.488433159722263  1.5417100694444343 14.670724826388891  1.645247395833394 14.84963107638896  Z M 1.0462239583332575 13.589583333333394  C 1.0462239583332575 13.589583333333394  7.506857638888846 7.059396701388778  7.748763020833394 6.88624131944448  L 0.8548611111110631 6.88624131944448  C 0.7885850694444798 7.08005642361104  0.7289279513888687 7.279730902777828  0.6741970486110631 7.4802517361111995  C 0.45961371527778283 8.278949652777783  0.34201388888880047 9.116579861111063  0.34201388888880047 9.983203125000045  C 0.34201388888880047 10.352647569444457  0.3652126736110404 10.718815104166652  0.40744357638891415 11.076801215277783  C 0.5069010416666515 11.956618923611131  0.724761284722149 12.799218750000023  1.0462239583332575 13.589583333333394  Z M 13.132964409722149 0.7943576388888687  C 12.938324652777737 0.7281032986111313  12.73949652777776 0.6684461805556339  12.539019097222194 0.6128906249999773  C 11.741254340277806 0.39828559027785104  10.901931423611131 0.28068576388898236  10.036154513888846 0.28068576388898236  C 9.664973958333348 0.28068576388898236  9.300390624999977 0.30308159722221717  8.941731770833258 0.3452907986111313  C 8.062717013888914 0.4447482638888687  7.220160590277715 0.6643446180555657  6.428103298611177 0.983246527777851  C 6.428103298611177 0.983246527777851  12.959071180555497 7.446354166666765  13.132964409722149 7.6866102430554974  L 13.132964409722149 0.7943576388888687  Z M 10.583810763888891 6.19361979166672  L 5.709743923611086 1.3196397569445253  C 5.524240451388891 1.4123697916667197  5.341102430555566 1.5093532986111313  5.1621744791666515 1.6128689236111313  C 4.444704861111063 2.025477430555611  3.768641493055611 2.5350477430556566  3.1571614583333485 3.146397569444389  C 2.8937282986111086 3.4090711805556566  2.653472222222149 3.6841362847222854  2.42894965277776 3.9657552083333485  C 1.878776041666697 4.658485243055566  1.4364149305556566 5.409027777777737  1.1025824652778056 6.195269097222308  C 1.1025824652778056 6.195269097222308  10.290451388888982 6.146375868055543  10.583810763888891 6.19361979166672  Z " fill-rule="nonzero" fill="#ffcc00" stroke="none" transform="matrix(1 0 0 1 110 474 )" />
  </g>
</svg>