<?xml version="1.0" encoding="utf-8"?>
<svg version="1.1" xmlns:xlink="http://www.w3.org/1999/xlink" width="18px" height="18px" xmlns="http://www.w3.org/2000/svg">
  <g transform="matrix(1 0 0 1 -248 -589 )">
    <path d="M 7.263693479003905 16.60697496826174  L 11.039243664550781 12.830300551757887  C 12.66689260986334 11.200493056640653  12.804904050292976 8.629473713378957  11.177277583007708 7.000700515136828  L 11.107934560546937 6.931424992675716  C 10.972149125976557 6.795684514160143  10.827414755859422 6.673322482910066  10.678273374023433 6.559864409179681  C 10.524769958496108 6.412229516601428  10.316066440429722 6.321548474121073  10.086272248535124 6.321548474121073  C 9.614632016601604 6.321548474121073  9.232323728027268 6.703879262695409  9.232323728027268 7.175496994628929  C 9.232323728027268 7.384178012695315  9.30728790527337 7.575320917968725  9.431651074218735 7.723652849121095  C 9.491393078613214 7.794907031249977  9.562557326660112 7.856425327148372  9.642355729980409 7.9050598461914205  C 9.72287362792963 7.971457324218818  9.801907558593712 8.03684300537111  9.875814938964822 8.110750385742222  L 9.946214714355506 8.181172639160081  C 10.831259663085916 9.065115834961034  10.567041284179709 10.588053273925766  9.681996357421895 11.47312070068358  L 5.905321940918043 15.248670908203167  C 5.020299492187519 16.132614104003892  3.5814550122071296 16.132614104003892  2.6963876074219115 15.248670908203167  L 2.625425727538982 15.177664050292947  C 1.7403358227538774 14.292641601562536  1.7403358227538774 12.852740346679639  2.625425727538982 11.96985394775379  L 4.293929487304695 10.301912314453148  C 4.508006835937408 10.131995017089821  4.6454336718750255 9.869732841796804  4.6454336718750255 9.575227507324257  C 4.6454336718750255 9.062979807128954  4.230185207519526 8.647731342773454  3.7179375073242227 8.647731342773454  C 3.5246360742187335 8.647731342773454  3.3452077148438093 8.706911220703091  3.196628459472663 8.808070144042858  C 3.1309504980469 8.855288129882751  3.052321303710869 8.924361306152264  3.0010335644532233 8.98677898681649  L 1.26709916748041 10.609278925781155  C -0.36279826171880813 12.240300585937462  -0.36279826171880813 14.907846994628926  1.26709916748041 16.536597692871055  L 1.3374989428710933 16.60697496826174  C 2.9673963720703114 18.23574816650398  5.633796049804687 18.23574816650398  7.263693479003905 16.60697496826174  Z M 14.558085329589744 9.148331975097676  C 14.63754645263657 9.09513305419921  14.737018996582037 9.011287397461047  14.796356264648466 8.936615522461011  L 16.549042939453102 7.319354523925767  C 18.180132121582005 5.689479528808647  18.180132121582005 3.0230348730468677  16.550234692382787 1.3931599438476496  L 16.479834916992104 1.3227601684569663  C 14.84995996582029 -0.3071372607422518  12.183560288085914 -0.3071372607422518  10.553662858886696 1.3227601684569663  L 6.7781126953125295 5.0994121069336416  C 5.148215266113311 6.72930953613286  5.058456130371042 9.082968749999964  6.68835355957026 10.713922976074286  L 6.757629082031144 10.782141723632776  C 6.831648896484353 10.856139060058581  6.908479299316468 10.925909252929728  6.986906125488304 10.992823879394564  C 7.043680129394488 11.056230878906263  7.110369909667952 11.11050909667972  7.184502158203145 11.153432482910148  C 7.30265954589845 11.221381406250089  7.441525393066399 11.261606660156303  7.587631318359399 11.261606660156303  C 8.032874436035172 11.261606660156303  8.393799726562406 10.900636391601552  8.393799726562406 10.455438251953069  C 8.393799726562406 10.32977096191405  8.365019238281207 10.210826601562417  8.313709020996157 10.10478849609376  C 8.207131289062545 9.865483242187565  8.0076240527344 9.71980450927731  7.86963511230465 9.58179309082027  L 7.800337089843765 9.51361932128907  C 6.915314641113241 8.628596872558546  7.251394262695385 7.34280613769522  8.136416733398505 6.4577836669922135  L 11.914192902832042 2.682211003418047  C 12.797034345703082 1.797143576660119  14.236373474121137 1.797143576660119  15.121440878906242 2.682211003418047  L 15.191885610351505 2.7514865258789314  C 16.07693055908203 3.636576430664036  16.07693055908203 5.077039790039066  15.191885610351505 5.960982985839792  L 13.528845659179638 7.625147189941458  C 13.302604050292985 7.792771047363317  13.155891020507852 8.061643740234445  13.155891020507852 8.364805708007793  C 13.155891020507852 8.872893720703132  13.567789248046893 9.284814448242287  14.075899760742118 9.284814448242287  C 14.252742355957025 9.284814448242287  14.417870405273447 9.234808352050777  14.558085329589744 9.148331975097676  Z " fill-rule="nonzero" fill="#000000" stroke="none" transform="matrix(1 0 0 1 248 589 )" />
  </g>
</svg>