<?xml version="1.0" encoding="utf-8"?>
<svg version="1.1" xmlns:xlink="http://www.w3.org/1999/xlink" width="14px" height="18px" xmlns="http://www.w3.org/2000/svg">
  <g transform="matrix(1 0 0 1 -252 -475 )">
    <path d="M 0.359375 14  L 13.640625 14  L 13.640625 16.578125  C 13.640625 17.225332031249998  13.115957031249998 17.75  12.46875 17.75  L 1.53125 17.75  C 0.8840429687500002 17.75  0.359375 17.225332031249998  0.359375 16.578125  L 0.359375 14  Z M 7.859375 15.8359375  C 7.859375 15.361328125  7.474609374999999 14.9765625  7 14.9765625  C 6.525390625 14.9765625  6.140625 15.361328125  6.140625 15.8359375  C 6.140625 16.310546875  6.525390625 16.6953125  7 16.6953125  C 7.474609374999999 16.6953125  7.859375 16.310546875  7.859375 15.8359375  Z M 1.53125 0.25  L 12.46875 0.25  C 13.115957031249998 0.25  13.640625 0.77466796875  13.640625 1.421875  L 13.640625 13.43359375  L 0.359375 13.43359375  L 0.359375 1.421875  C 0.359375 0.77466796875  0.8840429687500002 0.25  1.53125 0.25  Z M 8.953125 2.0078125  C 8.953125 1.7920703125  8.778242187500002 1.6171875  8.5625 1.6171875  L 5.4375 1.6171875  C 5.2217578125 1.6171875  5.046875 1.7920703125  5.046875 2.0078125  C 5.046875 2.2235546875  5.2217578125 2.3984375  5.4375 2.3984375  L 8.5625 2.3984375  C 8.778242187500002 2.3984375  8.953125 2.2235546875  8.953125 2.0078125  Z " fill-rule="nonzero" fill="#66cc00" stroke="none" transform="matrix(1 0 0 1 252 475 )" />
  </g>
</svg>