<?xml version="1.0" encoding="utf-8"?>
<svg version="1.1" xmlns:xlink="http://www.w3.org/1999/xlink" width="4px" height="4px" xmlns="http://www.w3.org/2000/svg">
  <g transform="matrix(1 0 0 1 -59 -48 )">
    <path d="M 3.6222118053385373 3.409150576822867  C 3.622189160807295 3.242244421875057  3.486032132161455 3.1060760820312225  3.318140630208333 3.105090746093765  L 1.0376747890625069 3.105090746093765  L 1.0379919121093764 0.5822219160156692  C 1.0379919121093764 0.4148287376301596  0.9011666816406319 0.2783206302083272  0.7336149472656217 0.2783206302083272  C 0.5660632128906258 0.2783206302083272  0.4298835397135434 0.4148287486979143  0.4298835397135434 0.5822219160156692  L 0.4298835397135434 3.1844156236978733  C 0.4298835397135434 3.193657359375038  0.41867114322916166 3.411155226562528  0.5637414511718788 3.5658070377604645  C 0.6559549296874962 3.6633095970051954  0.7855204186197966 3.7128819843750307  0.952755029947923 3.7128819843750307  L 3.3181519524739542 3.713233074218806  C 3.4857263424479186 3.713233074218806  3.6222118053385373 3.577053401041667  3.6222118053385373 3.409150576822867  Z " fill-rule="nonzero" fill="#8a8a8a" stroke="none" transform="matrix(1 0 0 1 59 48 )" />
  </g>
</svg>