<?xml version="1.0" encoding="utf-8"?>
<svg version="1.1" xmlns:xlink="http://www.w3.org/1999/xlink" width="17px" height="20px" xmlns="http://www.w3.org/2000/svg">
  <g transform="matrix(1 0 0 1 -87 -764 )">
    <path d="M 16.68549999999999 2.148400000000038  C 16.69642857142857 2.008000000000038  16.58714285714285 1.8999999999999773  16.445071428571424 1.8999999999999773  L 11.483500000000006 1.8999999999999773  C 11.341428571428565 1.8999999999999773  11.232142857142861 2.008000000000038  11.232142857142861 2.148400000000038  L 11.232142857142861 4.470400000000041  C 11.232142857142861 4.535200000000032  11.177500000000009 4.600000000000023  11.100999999999999 4.600000000000023  L 7.2650714285714315 4.600000000000023  C 7.1995000000000005 4.600000000000023  7.133928571428569 4.546000000000049  7.133928571428569 4.470400000000041  L 7.133928571428569 0.7984000000000151  C 7.133928571428569 0.6580000000000155  7.013714285714286 0.5499999999999545  6.882571428571424 0.5499999999999545  L 0.5549285714285759 0.5499999999999545  C 0.41285714285714903 0.5499999999999545  0.3035714285714306 0.6688000000000329  0.3035714285714306 0.7984000000000151  L 0.3035714285714306 19.190799999999967  C 0.3035714285714306 19.331199999999967  0.42378571428571377 19.439200000000028  0.5549285714285759 19.439200000000028  L 16.43414285714286 19.439200000000028  C 16.576214285714286 19.439200000000028  16.68549999999999 19.32039999999995  16.68549999999999 19.190799999999967  L 16.68549999999999 2.148400000000038  Z M 6 2.0188000000000557  L 6 17.97040000000004  C 5.767857142857139 18.03520000000003  5.713214285714287 18.100000000000023  5.636714285714291 18.100000000000023  L 1.800785714285709 18.100000000000023  C 1.7352142857142923 18.100000000000023  1.6696428571428612 18.04600000000005  2 17.97040000000004  L 2 2.0188000000000557  C 1.6696428571428612 1.9539999999999509  1.7242857142857133 1.8891999999999598  1.800785714285709 1.8891999999999598  L 5.647642857142856 1.8891999999999598  C 5.713214285714287 1.8891999999999598  5.778785714285718 1.9432000000000471  6 2.0188000000000557  Z M 11.232142857142861 6.06880000000001  L 11.232142857142861 7.170399999999972  C 11.232142857142861 7.245999999999981  11.177500000000009 7.2999999999999545  11.100999999999999 7.2999999999999545  L 8.631142857142862 7.2999999999999545  C 8.565571428571431 7.2999999999999545  8.5 7.354000000000042  8.5 7.42960000000005  L 8.5 8.531200000000013  C 8.5 8.596000000000004  8.554642857142852 8.660799999999995  8.631142857142862 8.660799999999995  L 11.100999999999999 8.660799999999995  C 11.16657142857143 8.660799999999995  11.232142857142861 8.714799999999968  11.232142857142861 8.790399999999977  L 11.232142857142861 9.892000000000053  C 11.232142857142861 9.956800000000044  11.177500000000009 10.021600000000035  11.100999999999999 10.021600000000035  L 8.631142857142862 10.021600000000035  C 8.565571428571431 10.021600000000035  8.5 10.075600000000009  8.5 10.151200000000017  L 8.5 11.25279999999998  C 8.5 11.31759999999997  8.554642857142852 11.382399999999961  8.631142857142862 11.382399999999961  L 11.100999999999999 11.382399999999961  C 11.16657142857143 11.382399999999961  11.232142857142861 11.436400000000049  11.232142857142861 11.512000000000057  L 11.232142857142861 12.602800000000002  C 11.232142857142861 12.667599999999993  11.177500000000009 12.732399999999984  11.100999999999999 12.732399999999984  L 8.631142857142862 12.732399999999984  C 8.565571428571431 12.732399999999984  8.5 12.786399999999958  8.5 12.861999999999966  L 8.5 13.963600000000042  C 8.5 14.028400000000033  8.554642857142852 14.093200000000024  8.631142857142862 14.093200000000024  L 11.100999999999999 14.093200000000024  C 11.16657142857143 14.093200000000024  11.232142857142861 14.147199999999998  11.232142857142861 14.222800000000007  L 11.232142857142861 18.024400000000014  C 11.232142857142861 18.089200000000005  11.177500000000009 18.153999999999996  11.100999999999999 18.153999999999996  L 7.2650714285714315 18.153999999999996  C 7.1995000000000005 18.153999999999996  7.133928571428569 18.100000000000023  7.133928571428569 18.024400000000014  L 7.133928571428569 6.06880000000001  C 7.133928571428569 6.004000000000019  7.188571428571436 5.939200000000028  7.2650714285714315 5.939200000000028  L 11.100999999999999 5.939200000000028  C 11.16657142857143 5.939200000000028  11.232142857142861 5.993200000000002  11.232142857142861 6.06880000000001  Z M 15.319428571428574 3.7899999999999636  L 15 3.7899999999999636  L 15 17.959600000000023  C 15.330357142857139 18.024400000000014  15.275714285714287 18.089200000000005  15.199214285714291 18.089200000000005  L 12.718428571428575 18.089200000000005  C 12.652857142857144 18.089200000000005  12.587285714285713 18.03520000000003  12.587285714285713 17.959600000000023  L 12.587285714285713 4.589200000000005  L 12.576357142857148 4.589200000000005  L 12.576357142857148 3.3687999999999647  C 12.576357142857148 3.3039999999999736  12.631 3.2391999999999825  12.707499999999996 3.2391999999999825  L 15.188285714285712 3.2391999999999825  C 15.253857142857143 3.2391999999999825  15.319428571428574 3.293199999999956  15.319428571428574 3.3687999999999647  L 15.319428571428574 3.7899999999999636  Z " fill-rule="nonzero" fill="#000000" stroke="none" transform="matrix(1 0 0 1 87 764 )" />
  </g>
</svg>