<?xml version="1.0" encoding="utf-8"?>
<svg version="1.1" xmlns:xlink="http://www.w3.org/1999/xlink" width="22px" height="18px" xmlns="http://www.w3.org/2000/svg">
  <g transform="matrix(1 0 0 1 -206 -763 )">
    <path d="M 19.909999999999997 0.8249999922655888  L 14.113550007734375 0.8249999922655888  C 13.564598903101995 0.8257839733565788  13.021223210323996 0.9351320250864319  12.514700000000005 1.1467499999999973  C 12.270890763761741 1.2522033503191778  12.037262996806021 1.379787310749066  11.816750000000013 1.5279000077342744  C 11.598298030004372 1.6707889630023374  11.395835447142048 1.8367418950562069  11.212849992265632 2.022899999999936  C 11.138599992265625 2.097150000000056  11.069299984531254 2.1714000000000624  11 2.25059999226562  C 10.93069999226563 2.1714000000000624  10.861400007734375 2.097150000000056  10.787150007734368 2.022899999999936  C 10.604164552857952 1.8367418950562069  10.401701969995656 1.6707889630023374  10.183249999999987 1.5279000077342744  C 9.962737003193979 1.379787310749066  9.729109236238287 1.2522033503191778  9.485299999999995 1.1467499999999973  C 8.978776789676004 0.9351320250864319  8.435401096898005 0.8257839733565788  7.886449992265625 0.8249999922655888  L 2.0900000000000034 0.8249999922655888  C 0.9964761996066045 0.8249999922655888  0.11000000773435659 1.7114761841378368  0.11000000773435659 2.804999984531264  L 0.11000000773435659 5.799749992265674  C 0.11008370415254376 6.346452704689  0.5532972850371607 6.789598437822292  1.1000000038671942 6.789598437822292  C 1.6467027226971993 6.789598437822292  2.0899163035818162 6.346452704689  2.0900000000000034 5.799749992265674  L 2.0900000000000034 2.8050000077344066  L 7.886449992265625 2.8050000077344066  C 8.031144669405109 2.805104922677401  8.175447960994887 2.820032849393442  8.31709999226564 2.849550007734365  C 8.453162146452911 2.876454930983641  8.585928661695078 2.9179444635934715  8.713099999999997 2.9732999999999947  C 8.839503633647894 3.0258255114146095  8.960519293042438 3.090477714392705  9.074449992265613 3.1663500000000795  C 9.300458132064023 3.319693490785653  9.495306509214402 3.514541867936032  9.648650000000004 3.7405500077344414  C 9.724522285607236 3.8544807069574745  9.789174488585445 3.975496366352104  9.841700000000003 4.1019000000000005  C 9.897055536406583 4.229071338304948  9.9385450690163 4.361837853547058  9.965449992265604 4.497900007734415  C 9.994967150606442 4.639552039005139  10.009895077322653 4.783855330594861  10.00999999226562 4.928550007734316  L 10.00999999226562 8.249999992265543  C 10.00999999226562 8.79676189886959  10.453238093395953 9.240000000000009  11 9.240000000000009  C 11.546761906604047 9.240000000000009  11.99000000773438 8.79676189886959  11.99000000773438 8.249999992265543  L 11.99000000773438 4.928550007734316  C 11.990104922677347 4.783855330594861  12.005032849393503 4.639552039005139  12.034550007734396 4.497900007734415  C 12.061454930983645 4.361837853547058  12.102944463593417 4.229071338304948  12.158299999999997 4.1019000000000005  C 12.210825511414555 3.975496366352104  12.275477714392764 3.8544807069574745  12.351349999999996 3.7405500077344414  C 12.508306549946695 3.517554720476028  12.702554720476087 3.3233065499466647  12.925550007734387 3.1663500000000795  C 13.039480706957562 3.090477714392705  13.160496366352106 3.0258255114146095  13.286900000000003 2.9732999999999947  C 13.414071338304922 2.9179444635934715  13.546837853547089 2.876454930983641  13.68290000773436 2.849550007734365  C 13.824552039005114 2.820032849393442  13.968855330594891 2.805104922677401  14.113550007734375 2.8050000077344066  L 20 2.8050000077344066  L 20 14.655300007734354  L 12.979999992265647 14.655300007734354  C 12.669258687420268 14.654128776146194  12.375997620947288 14.798926426267485  12.187999999999988 15.046350000000075  C 12.154429448560222 15.09305611443699  12.11806297169008 15.137687702856624  12.079100007734356 15.17999999999995  C 12.040253430943949 15.220482152808131  11.998923431971576 15.258505749692858  11.95534999226561 15.293850007734363  C 11.912520019901166 15.332779420659335  11.86611462705122 15.367583467238887  11.816750000000013 15.397800007734418  C 11.771815527154445 15.430550999306092  11.723727702124108 15.458740407278242  11.673199992265609 15.48194999226564  C 11.624450618463982 15.510034593019213  11.57305224881651 15.533246763717443  11.519749999999988 15.551249999999982  L 11.356400000000008 15.605700007734413  L 11.188100007734363 15.63540000773446  C 11.069764474916381 15.65025648123526  10.950035540552363 15.65025648123526  10.831700007734383 15.63540000773446  L 10.663399992265624 15.605700007734413  L 10.505000007734395 15.58095000000003  L 10.351549992265603 15.516600007734382  C 10.253534689099467 15.460061993269278  10.159287119611662 15.397230277693893  10.06939999226563 15.328499999999963  L 9.945649999999972 15.209699999999998  C 9.906687036044275 15.167387702856558  9.870320559174132 15.122756114437038  9.836750007734366 15.076049999999896  C 9.643561412605749 14.82153052940123  9.339404539916274 14.675903908387681  9.020000007734382 14.685000007734402  L 2.0900000000000034 14.685000007734402  L 2.0900000000000034 10.230000007734361  C 2.0899163035818162 9.683297295311036  1.6467027226971993 9.240151562177743  1.1000000038671942 9.240151562177743  C 0.5532972850371607 9.240151562177743  0.11008370415254376 9.683297295311036  0.11000000773435659 10.230000007734361  L 0.11000000773435659 14.685000007734402  C 0.11000000773435659 15.77852380812783  0.9964761996066045 16.664999999999964  2.0900000000000034 16.664999999999964  L 8.589350007734367 16.664999999999964  L 8.777449992265645 16.83825000773436  C 8.875952294471688 16.922846568527007  8.98014736802071 17.000579396006287  9.089299992265637 17.070899992265595  C 9.19849253016804 17.14609756480604  9.312597761708929 17.213899226711305  9.430849992265621 17.27385000000004  C 9.544699999999978 17.33325000000002  9.668449992265636 17.387700007734338  9.79220000773438 17.43719999999996  C 9.915950023203123 17.4866999922657  10.04465000773439 17.521350007734327  10.178300007734379 17.555999999999926  C 10.31000662787855 17.590287568478516  10.443999206579548 17.615101008978854  10.579250007734373 17.630249999999933  C 10.718954749716147 17.646038539242454  10.859407668906442 17.654300478399136  11 17.65500000773443  C 11.138493455545301 17.66268559461446  11.277306544454717 17.66268559461446  11.41579999999999 17.65500000773443  C 11.552746320542667 17.640296427091812  11.688416794113408 17.61547865706325  11.821699992265621 17.58075000773431  C 11.95369998710936 17.544450002578174  12.08239998710937 17.50485000257811  12.20779999226562 17.461950007734345  C 12.33154998453125 17.41245001546872  12.455300000000022 17.35800000773429  12.574099999999987 17.298600007734308  C 12.690146309231949 17.237544582231976  12.802536750888068 17.169779756090406  12.910700007734363 17.095649999999978  C 13.019852632691993 17.025329396277016  13.124047706258496 16.947596561032015  13.222550007734355 16.8629999922656  L 13.410649992265633 16.689750007734347  L 19.909999999999997 16.689750007734347  C 21.003523800393396 16.689750007734347  21.889999992265615 15.803273815862099  21.889999992265615 14.709750015468671  L 21.889999992265615 2.8050000077344066  C 21.889999992265615 1.7114761841378368  21.003523800393396 0.8249999922655888  19.909999999999997 0.8249999922655888  Z " fill-rule="nonzero" fill="#ffffff" stroke="none" transform="matrix(1 0 0 1 206 763 )" />
  </g>
</svg>