<?xml version="1.0" encoding="utf-8"?>
<svg version="1.1" xmlns:xlink="http://www.w3.org/1999/xlink" width="28px" height="26px" xmlns="http://www.w3.org/2000/svg">
  <g transform="matrix(1 0 0 1 -33 -499 )">
    <path d="M 1.8266652591576058 0  C 0.8069249445793307 0.10126002290950761  0.005911538055526107 0.9679266895761741  0.005911538055526317 2.022222222222222  C 0.005911538055526317 2.022222222222222  0.005911538055526317 2.037113402061856  0.005911538055526317 2.037113402061856  L 0.0029557690277631572 2.037113402061856  L 0.0029557690277631572 3.6483390607101955  L 0 3.6483390607101955  L 0 22.372508591065294  L 0.011823076111052424 22.372508591065294  C 0.011823076111052424 22.372508591065294  0.011823076111052424 23.995647193585338  0.011823076111052424 23.995647193585338  C 0.011823076111052424 25.01122565864834  0.7537211020795946 25.854066437571593  1.7202575741581339 26  C 1.7202575741581339 26  26.365459727646996 26  26.365459727646996 26  C 27.207853900559485 25.84810996563574  27.86699039375066 25.17205040091638  28 24.31729667812142  C 28 24.31729667812142  28 1.72737686139748  28 1.72737686139748  C 27.852211548611844 0.7564719358533795  27.018684682782645 0.011912943871706928  26.010767444315423 0.011912943871706928  C 26.010767444315423 0.011912943871706928  25.99598859917661 0.011912943871706928  25.99598859917661 0.011912943871706928  L 25.99598859917661 0.008934707903780406  L 24.39691755515676 0.008934707903780406  L 24.39691755515676 0.0029782359679269444  C 24.39691755515676 0.0029782359679269444  23.89148105140927 0.0029782359679269444  23.89148105140927 0.0029782359679269444  C 23.223477251134803 0.0029782359679269444  22.67961575002639 0.547995418098511  22.67961575002639 1.2240549828178693  C 22.67961575002639 1.9001145475372274  23.22052148210704 2.4451317296678123  23.89148105140927 2.4451317296678123  C 23.89148105140927 2.4451317296678123  25.57922516626201 2.4451317296678123  25.57922516626201 2.4451317296678123  L 25.57922516626201 23.563802978235966  L 2.420774833737992 23.563802978235966  L 2.420774833737992 2.4421534936998857  C 2.420774833737992 2.4421534936998857  4.1085189485907305 2.4421534936998857  4.1085189485907305 2.4421534936998857  C 4.7765227488651965 2.4421534936998857  5.32038424997361 1.897136311569301  5.32038424997361 1.2210767468499428  C 5.32038424997361 0.5450171821305845  4.779478517892961 0  4.1085189485907305 0  C 4.1085189485907305 0  1.8266652591576058 0  1.8266652591576058 0  Z " fill-rule="nonzero" fill="#8ea7c7" stroke="none" transform="matrix(1 0 0 1 33 499 )" />
  </g>
</svg>