<?xml version="1.0" encoding="utf-8"?>
<svg version="1.1" xmlns:xlink="http://www.w3.org/1999/xlink" width="13px" height="18px" xmlns="http://www.w3.org/2000/svg">
  <g transform="matrix(1 0 0 1 -150 -327 )">
    <path d="M 12.913269088213491 9.02012813577191  C 12.961452928094886 9.000219518341536  12.990363232023721 8.950447974765611  13 8.900676431189682  C 13 8.850904887613755  12.980726464047443 8.801133344037828  12.93254262416605 8.771270417892271  C 12.93254262416605 8.771270417892271  10.118606375092662 7.059129318880364  10.118606375092662 7.059129318880364  C 8.971830985915492 6.362327708817378  8.114158636026687 5.2474451327166  7.709414381022982 3.9334763823121155  C 7.709414381022982 3.9334763823121155  6.543365455893254 0.09111321825050728  6.543365455893254 0.09111321825050728  C 6.524091919940698 0.031387365959394224  6.466271312083025 -0.008429868901347799  6.408450704225353 0.0015244398138376642  C 6.340993328391402 0.0015244398138376642  6.292809488510008 0.051295983389765244  6.28317272053373 0.11102183568087831  C 6.28317272053373 0.11102183568087831  5.579688658265383 3.455669563983209  5.579688658265383 3.455669563983209  C 5.252038547071906 5.058313267128076  4.2594514455151975 6.422053561108492  2.862120088954781 7.19848964089296  C 2.862120088954781 7.19848964089296  0.06745737583395112 8.751361800461899  0.06745737583395112 8.751361800461899  C 0.019273535952557472 8.781224726607457  0 8.830996270183384  0 8.880767813759311  C 0.009636767976278734 8.930539357335238  0.038547071905114916 8.980310900911167  0.08673091178650853 9.000219518341536  C 0.08673091178650853 9.000219518341536  2.4284655300222395 9.876198685277862  2.4284655300222395 9.876198685277862  C 4.0570793180133435 10.483411516904178  5.242401779095628 11.936740589321262  5.550778354336547 13.698653231909097  C 5.550778354336547 13.698653231909097  6.273535952557451 17.85955427485664  6.273535952557451 17.85955427485664  C 6.273535952557451 17.939188744578125  6.331356560415123 17.998914596869238  6.408450704225353 17.998914596869238  C 6.475908080059304 18.008868905584414  6.543365455893254 17.949143053293312  6.543365455893254 17.869508583571825  C 6.543365455893254 17.869508583571825  7.670867309117866 13.44979551402946  7.670867309117866 13.44979551402946  C 8.085248332097851 11.817288884739035  9.232023721275016 10.493365825619364  10.754633061527057 9.886152993993047  C 10.754633061527057 9.886152993993047  12.913269088213491 9.02012813577191  12.913269088213491 9.02012813577191  Z " fill-rule="nonzero" fill="#f7db5f" stroke="none" transform="matrix(1 0 0 1 150 327 )" />
  </g>
</svg>