<?xml version="1.0" encoding="utf-8"?>
<svg version="1.1" xmlns:xlink="http://www.w3.org/1999/xlink" width="16px" height="16px" xmlns="http://www.w3.org/2000/svg">
  <defs>
    <mask fill="white" id="clip828">
      <path d="M 15.200252286345002 16  C 15.412172816146326 16  15.614001892147588 15.909105254852454  15.765373699148531 15.767713429067381  C 16.078208766950496 15.454631529114724  16.078208766950496 14.949660722739468  15.765373699148531 14.636578822786808  C 15.765373699148531 14.636578822786808  9.135288552507095 7.970964178633422  9.135288552507095 7.970964178633422  C 9.135288552507095 7.970964178633422  15.765373699148531 1.3760454473725738  15.765373699148531 1.3760454473725738  C 16.078208766950496 1.0629635474199148  16.078208766950496 0.5478933249171533  15.765373699148531 0.23481142496449425  C 15.452538631346577 -0.07827047498816476  14.947965941343424 -0.07827047498816476  14.635130873541469 0.23481142496449425  C 14.635130873541469 0.23481142496449425  8.00504572690003 6.839829572352848  8.00504572690003 6.839829572352848  C 8.00504572690003 6.839829572352848  1.4254178492589087 0.23481142496449425  1.4254178492589087 0.23481142496449425  C 1.1125827814569536 -0.07827047498816476  0.6080100914537998 -0.07827047498816476  0.2951750236518448 0.23481142496449425  C -0.017660044150110386 0.5478933249171533  -0.017660044150110386 1.0528641312924096  0.2951750236518448 1.3659460312450686  C 0.2951750236518448 1.3659460312450686  6.864711447492904 7.970964178633422  6.864711447492904 7.970964178633422  C 6.864711447492904 7.970964178633422  0.2346263008514664 14.565882909894272  0.2346263008514664 14.565882909894272  C -0.07820876695048881 14.87896480984693  -0.07820876695048881 15.383935616222187  0.2346263008514664 15.697017516174846  C 0.38599810785241245 15.848508758087423  0.5878271838536737 15.939403503234969  0.7997477136549984 15.929304087107464  C 1.011668243456323 15.929304087107464  1.2134973194575842 15.858608174214927  1.3648691264585304 15.697017516174846  C 1.3648691264585304 15.697017516174846  7.994954273099968 9.102098784913997  7.994954273099968 9.102098784913997  C 7.994954273099968 9.102098784913997  14.635130873541469 15.757614012939877  14.635130873541469 15.757614012939877  C 14.786502680542416 15.919204670979958  14.988331756543676 16  15.200252286345002 16  Z " fill-rule="evenodd" />
    </mask>
  </defs>
  <g transform="matrix(1 0 0 1 -210 -547 )">
    <path d="M 15.200252286345002 16  C 15.412172816146326 16  15.614001892147588 15.909105254852454  15.765373699148531 15.767713429067381  C 16.078208766950496 15.454631529114724  16.078208766950496 14.949660722739468  15.765373699148531 14.636578822786808  C 15.765373699148531 14.636578822786808  9.135288552507095 7.970964178633422  9.135288552507095 7.970964178633422  C 9.135288552507095 7.970964178633422  15.765373699148531 1.3760454473725738  15.765373699148531 1.3760454473725738  C 16.078208766950496 1.0629635474199148  16.078208766950496 0.5478933249171533  15.765373699148531 0.23481142496449425  C 15.452538631346577 -0.07827047498816476  14.947965941343424 -0.07827047498816476  14.635130873541469 0.23481142496449425  C 14.635130873541469 0.23481142496449425  8.00504572690003 6.839829572352848  8.00504572690003 6.839829572352848  C 8.00504572690003 6.839829572352848  1.4254178492589087 0.23481142496449425  1.4254178492589087 0.23481142496449425  C 1.1125827814569536 -0.07827047498816476  0.6080100914537998 -0.07827047498816476  0.2951750236518448 0.23481142496449425  C -0.017660044150110386 0.5478933249171533  -0.017660044150110386 1.0528641312924096  0.2951750236518448 1.3659460312450686  C 0.2951750236518448 1.3659460312450686  6.864711447492904 7.970964178633422  6.864711447492904 7.970964178633422  C 6.864711447492904 7.970964178633422  0.2346263008514664 14.565882909894272  0.2346263008514664 14.565882909894272  C -0.07820876695048881 14.87896480984693  -0.07820876695048881 15.383935616222187  0.2346263008514664 15.697017516174846  C 0.38599810785241245 15.848508758087423  0.5878271838536737 15.939403503234969  0.7997477136549984 15.929304087107464  C 1.011668243456323 15.929304087107464  1.2134973194575842 15.858608174214927  1.3648691264585304 15.697017516174846  C 1.3648691264585304 15.697017516174846  7.994954273099968 9.102098784913997  7.994954273099968 9.102098784913997  C 7.994954273099968 9.102098784913997  14.635130873541469 15.757614012939877  14.635130873541469 15.757614012939877  C 14.786502680542416 15.919204670979958  14.988331756543676 16  15.200252286345002 16  Z " fill-rule="nonzero" fill="#ffffff" stroke="none" transform="matrix(1 0 0 1 210 547 )" />
    <path d="M 15.200252286345002 16  C 15.412172816146326 16  15.614001892147588 15.909105254852454  15.765373699148531 15.767713429067381  C 16.078208766950496 15.454631529114724  16.078208766950496 14.949660722739468  15.765373699148531 14.636578822786808  C 15.765373699148531 14.636578822786808  9.135288552507095 7.970964178633422  9.135288552507095 7.970964178633422  C 9.135288552507095 7.970964178633422  15.765373699148531 1.3760454473725738  15.765373699148531 1.3760454473725738  C 16.078208766950496 1.0629635474199148  16.078208766950496 0.5478933249171533  15.765373699148531 0.23481142496449425  C 15.452538631346577 -0.07827047498816476  14.947965941343424 -0.07827047498816476  14.635130873541469 0.23481142496449425  C 14.635130873541469 0.23481142496449425  8.00504572690003 6.839829572352848  8.00504572690003 6.839829572352848  C 8.00504572690003 6.839829572352848  1.4254178492589087 0.23481142496449425  1.4254178492589087 0.23481142496449425  C 1.1125827814569536 -0.07827047498816476  0.6080100914537998 -0.07827047498816476  0.2951750236518448 0.23481142496449425  C -0.017660044150110386 0.5478933249171533  -0.017660044150110386 1.0528641312924096  0.2951750236518448 1.3659460312450686  C 0.2951750236518448 1.3659460312450686  6.864711447492904 7.970964178633422  6.864711447492904 7.970964178633422  C 6.864711447492904 7.970964178633422  0.2346263008514664 14.565882909894272  0.2346263008514664 14.565882909894272  C -0.07820876695048881 14.87896480984693  -0.07820876695048881 15.383935616222187  0.2346263008514664 15.697017516174846  C 0.38599810785241245 15.848508758087423  0.5878271838536737 15.939403503234969  0.7997477136549984 15.929304087107464  C 1.011668243456323 15.929304087107464  1.2134973194575842 15.858608174214927  1.3648691264585304 15.697017516174846  C 1.3648691264585304 15.697017516174846  7.994954273099968 9.102098784913997  7.994954273099968 9.102098784913997  C 7.994954273099968 9.102098784913997  14.635130873541469 15.757614012939877  14.635130873541469 15.757614012939877  C 14.786502680542416 15.919204670979958  14.988331756543676 16  15.200252286345002 16  Z " stroke-width="2" stroke="#ffffff" fill="none" transform="matrix(1 0 0 1 210 547 )" mask="url(#clip828)" />
  </g>
</svg>