<?xml version="1.0" encoding="utf-8"?>
<svg version="1.1" xmlns:xlink="http://www.w3.org/1999/xlink" width="19px" height="26px" xmlns="http://www.w3.org/2000/svg">
  <g transform="matrix(1 0 0 1 -275 -289 )">
    <path d="M 9.559119305155177 0.13100775193798453  C 9.52955965257759 0.050387596899224854  9.450733912370689 0  9.36205495463792 0  C 9.283229214431021 0.01007751937984497  9.204403474224119 0.07054263565891479  9.184697039172391 0.15116279069767444  C 9.184697039172391 0.15116279069767444  8.159962416482669 4.9984496124031015  8.159962416482669 4.9984496124031015  C 7.677154757715398 7.3062015503875966  6.218878563887713 9.28139534883721  4.1891157535599906 10.4  C 4.1891157535599906 10.4  0.10003048032696024 12.647286821705427  0.10003048032696024 12.647286821705427  C 0.031057957645921175 12.687596899224806  -0.008354912457529708 12.75813953488372  0.0014983050683329724 12.838759689922481  C 0.011351522594195706 12.91937984496124  0.060617610223509324 12.97984496124031  0.1295901329045484 13.010077519379847  C 0.1295901329045484 13.010077519379847  3.558509831904777 14.27984496124031  3.558509831904777 14.27984496124031  C 5.933135255637692 15.156589147286821  7.667301540189532 17.26279069767442  8.120549546379218 19.802325581395348  C 8.120549546379218 19.802325581395348  9.184697039172391 25.828682170542635  9.184697039172391 25.828682170542635  C 9.204403474224119 25.919379844961238  9.273375996905157 25.989922480620155  9.371908172163787 26  C 9.460587129896549 26  9.549266087629315 25.939534883720928  9.56897252268104 25.84883720930232  C 9.56897252268104 25.84883720930232  11.214459849500114 19.439534883720928  11.214459849500114 19.439534883720928  C 11.825359336103602 17.08139534883721  13.500406315500268 15.166666666666668  15.717380258819379 14.289922480620156  C 15.717380258819379 14.289922480620156  18.870409867095454 13.04031007751938  18.870409867095454 13.04031007751938  C 18.93938238977649 13.010077519379847  18.988648477405803 12.949612403100776  18.998501694931665 12.868992248062014  C 19.008354912457534 12.788372093023254  18.96894204235408 12.71782945736434  18.89996951967304 12.677519379844961  C 18.89996951967304 12.677519379844961  14.791177811388284 10.208527131782946  14.791177811388284 10.208527131782946  C 13.116130831991619 9.200775193798451  11.854918988681193 7.588372093023257  11.273579154655291 5.683720930232559  C 11.273579154655291 5.683720930232559  9.559119305155177 0.13100775193798453  9.559119305155177 0.13100775193798453  Z " fill-rule="nonzero" fill="#f7db5f" stroke="none" transform="matrix(1 0 0 1 275 289 )" />
  </g>
</svg>