<?xml version="1.0" encoding="utf-8"?>
<svg version="1.1" xmlns:xlink="http://www.w3.org/1999/xlink" width="12px" height="16px" xmlns="http://www.w3.org/2000/svg">
  <g transform="matrix(1 0 0 1 -143 -284 )">
    <path d="M 6.044444444444444 15.891966749088342  C 6.044444444444444 15.891966749088342  7.0814814814814815 11.963484897755263  7.0814814814814815 11.963484897755263  C 7.466666666666667 10.519767817390358  8.523456790123458 9.341223261990434  9.925925925925926 8.801057007432137  C 9.925925925925926 8.801057007432137  11.920987654320987 8.025181841793854  11.920987654320987 8.025181841793854  C 11.960493827160494 8.005539432537189  11.990123456790124 7.9662546140238595  12 7.9269697955105265  C 12 7.877863772368863  11.980246913580247 7.838578953855532  11.94074074074074 7.809115339970536  C 11.94074074074074 7.809115339970536  9.343209876543211 6.286828622578968  9.343209876543211 6.286828622578968  C 8.28641975308642 5.668092730994008  7.48641975308642 4.676151063532407  7.120987654320988 3.507427712760816  C 7.120987654320988 3.507427712760816  6.044444444444444 0.09946970672937198  6.044444444444444 0.09946970672937198  C 6.034567901234568 0.04054247895937584  5.975308641975309 -0.008563544182287606  5.91604938271605 0.0012576604460450395  C 5.8469135802469125 0.0012576604460450395  5.7975308641975305 0.060184888216041184  5.7975308641975305 0.11911211598603734  C 5.7975308641975305 0.11911211598603734  5.155555555555557 3.0851159137425106  5.155555555555557 3.0851159137425106  C 4.849382716049384 4.499369380222418  3.9308641975308634 5.71719875413567  2.6469135802469137 6.40468307811896  C 2.6469135802469137 6.40468307811896  0.06913580246913581 7.789472930713869  0.06913580246913581 7.789472930713869  C 0.029629629629629634 7.809115339970536  0 7.858221363112197  0 7.907327386253862  C 0.009876543209876552 7.956433409395525  0.03950617283950618 7.995718227908856  0.0888888888888889 8.015360637165521  C 0.0888888888888889 8.015360637165521  2.2518518518518515 8.791235802803804  2.2518518518518515 8.791235802803804  C 3.7432098765432094 9.331402057362101  4.8395061728395055 10.617979863673684  5.125925925925926 12.179551399578582  C 5.125925925925926 12.179551399578582  5.7975308641975305 15.882145544460007  5.7975308641975305 15.882145544460007  C 5.807407407407407 15.941072772230001  5.856790123456791 15.990178795371666  5.91604938271605 16  C 5.975308641975309 16  6.034567901234568 15.950893976858335  6.044444444444444 15.891966749088342  Z " fill-rule="nonzero" fill="#f7db5f" stroke="none" transform="matrix(1 0 0 1 143 284 )" />
  </g>
</svg>