<?xml version="1.0" encoding="utf-8"?>
<svg version="1.1" xmlns:xlink="http://www.w3.org/1999/xlink" width="28px" height="24px" xmlns="http://www.w3.org/2000/svg">
  <g transform="matrix(1 0 0 1 -33 -498 )">
    <path d="M 24.3960880195591 24  C 24.73349633251746 23.96946564885502  25 23.534351145038272  25 23  C 25 23  25 24  25 24  L 24.3960880195591 24  Z M 24.396088019386298 24  L 24 24  C 24 24  24.36209130160023 24  24.396088019386298 24  Z M 2 23.39608801956001  C 2.0305343511445244 23.73349633251837  2.4656488549626374 24  3 24  C 3 24  2 24  2 24  L 2 23.39608801956001  Z M 2 23.39608801938857  L 2 23  C 2 23  2 23.36209130161842  2 23.39608801938857  Z M 2.6039119806137023 3  C 2.6379086983997695 3  3 3  3 3  L 2.6039119806137023 3  Z M 2.6039119804408983 3  C 2.2665036674825387 3.030534351144979  2 3.465648854961728  2 4  C 2 4  2 3  2 3  L 2.6039119804408983 3  Z M 25 3  L 25 3.603911980439989  C 24.969465648855476 3.2665036674816292  24.534351145037363 3  24 3  C 24 3  25 3  25 3  Z M 25 3.6039119806114286  L 25 4  C 25 4  25 3.6379086983815796  25 3.6039119806114286  Z M 0 8  C 0 7.448780487804925  0.5407915567284363 7  1.211609498681355 7  C 1.211609498681355 7  26.788390501318645 7  26.788390501318645 7  C 27.45625329815266 7  28 7.446341463414683  28 8  C 28 8.551219512195075  27.459208443271564 9  26.788390501318645 9  C 26.788390501318645 9  1.211609498681355 9  1.211609498681355 9  C 0.5437467018473399 8.997560975609758  0 8.551219512195075  0 8  Z M 10.229590136621482 1  C 10.229590136621482 1  16.770409863378518 1  16.770409863378518 1  C 17.44818393868627 1  18 1.446341463414683  18 2  C 18 2.5512195121950754  17.451182939021237 3  16.770409863378518 3  C 16.770409863378518 3  10.229590136621482 3  10.229590136621482 3  C 9.548817060980582 2.9975609756097583  9 2.5512195121950754  9 2  C 9 1.4487804878049246  9.548817060980582 1  10.229590136621482 1  Z M 8 3.8617434758466516  C 8 4.489172681843229  7.553658536586227 5  7 5  C 6.44878048780447 5  6 4.491948917268019  6 3.8617434758466516  C 6 3.8617434758466516  6 1.1354802887285587  6 1.1354802887285587  C 6.002439024390696 0.5080510827319813  6.44878048780447 0  7 0  C 7.55121951219553 0  8 0.5080510827319813  8 1.1382565241533484  C 8 1.1382565241533484  8 3.8617434758466516  8 3.8617434758466516  Z M 20 5  C 19.44878048780447 5  19 4.491948917268019  19 3.8617434758466516  C 19 3.8617434758466516  19 1.1354802887285587  19 1.1354802887285587  C 19 0.5080510827319813  19.44878048780447 0  20 0  C 20.55121951219553 0  21 0.5080510827319813  21 1.1382565241533484  C 21 1.1382565241533484  21 3.8617434758466516  21 3.8617434758466516  C 21 4.489172681843229  20.553658536586227 5  20 5  Z M 11.894578313253078 21.638554216867306  C 11.894578313253078 21.638554216867306  7.361445783131785 17.105421686746922  7.361445783131785 17.105421686746922  C 6.879518072290011 16.623493975903784  6.879518072290011 15.843373493975832  7.361445783131785 15.361445783132694  C 7.843373493975378 14.879518072289102  8.62349397590333 14.879518072289102  9.105421686746922 15.361445783132694  C 9.105421686746922 15.361445783132694  13.638554216868215 19.894578313253078  13.638554216868215 19.894578313253078  C 14.120481927709989 20.376506024096216  14.120481927709989 21.156626506024168  13.638554216868215 21.638554216867306  C 13.156626506024622 22.120481927710898  12.37650602409667 22.120481927710898  11.894578313253078 21.638554216867306  Z " fill-rule="nonzero" fill="#8ea7c7" stroke="none" transform="matrix(1 0 0 1 33 498 )" />
  </g>
</svg>