<?xml version="1.0" encoding="utf-8"?>
<svg version="1.1" xmlns:xlink="http://www.w3.org/1999/xlink" width="11px" height="8px" xmlns="http://www.w3.org/2000/svg">
  <g transform="matrix(1 0 0 1 -279 -630 )">
    <path d="M 10.782291666666666 7.479411764705881  L 5.683333333333333 0.24411764705882386  C 5.640532033232703 0.1831289406041676  5.571782227431211 0.1469876475132022  5.498567708333329 0.1469876475132022  C 5.425353189235452 0.1469876475132022  5.356603383433962 0.18312894060416926  5.313802083333334 0.24411764705882386  L 0.21484375 7.479411764705881  C 0.10598958333333301 7.635294117647057  0.21484375 7.852941176470588  0.4010416666666667 7.852941176470588  L 1.7445312499999994 7.852941176470588  C 2.0395833333333333 7.852941176470588  2.3145833333333323 7.708823529411766  2.4864583333333323 7.4647058823529395  L 5.5 3.1882352941176464  L 8.513541666666667 7.4647058823529395  C 8.685416666666667 7.708823529411762  8.963281250000001 7.852941176470588  9.25546875 7.852941176470588  L 10.598958333333332 7.852941176470588  C 10.78515625 7.852941176470588  10.894010416666665 7.635294117647059  10.782291666666666 7.479411764705881  Z " fill-rule="nonzero" fill="#ffffff" stroke="none" transform="matrix(1 0 0 1 279 630 )" />
  </g>
</svg>