<?xml version="1.0" encoding="utf-8"?>
<svg version="1.1" xmlns:xlink="http://www.w3.org/1999/xlink" width="16px" height="16px" xmlns="http://www.w3.org/2000/svg">
  <g transform="matrix(1 0 0 1 -722 -15 )">
    <path d="M 0.5915885560975767 14.992682926829268  L 0.5928359707316986 14.992682926829268  C 0.5922265109522868 14.992684868832306  0.5916170484645136 14.992685839835673  0.5910075855910009 14.992685839835673  C 0.27410332014653704 14.992685839835673  0.017201653883603285 14.73578417357276  0.017201653883603285 14.41887990812836  C 0.017201653883603285 14.266248346386597  0.07801209820797794 14.119906212250385  0.18618219512200085 14.012223234146347  L 14.032368658536598 0.1660367853658542  C 14.137030568178261 0.07568916705939088  14.270685934648782 0.02598073231982667  14.408949478157183 0.02598073231982667  C 14.727231583595426 0.02598073231982667  14.985250209864489 0.28399935858886494  14.985250209864489 0.6022814640271434  C 14.985250209864489 0.7396319856600897  14.936194881567872 0.8724665556615712  14.846923580487783 0.9768495073170733  L 0.9994897317072856 14.823035956097563  C 0.8916125229582121 14.931756797424242  0.7447475890826354 14.99283823731335  0.5915885560975767 14.992682926829268  Z " fill-rule="nonzero" fill="#999999" stroke="none" transform="matrix(1 0 0 1 722 15 )" />
  </g>
</svg>