<?xml version="1.0" encoding="utf-8"?>
<svg version="1.1" xmlns:xlink="http://www.w3.org/1999/xlink" width="14px" height="13px" xmlns="http://www.w3.org/2000/svg">
  <g transform="matrix(1 0 0 1 -186 -312 )">
    <path d="M 0.10795454545448896 5.244311999036381  C 0.10795454545448896 2.4031876204846716  2.588068181818092 0.10024350649355256  5.647720614346554 0.10024350649355256  C 8.707393022017095 0.10024350649355256  11.187506658380698 2.403206168831184  11.187506658380698 5.244311999036381  C 11.187506658380698 6.5066011503145385  10.69743652343756 7.663220373376711  9.884807794744333 8.55867888215283  L 13.178409090909113 11.715959821428685  L 12.212790749289782 12.64109568410125  L 8.86505681818183 9.432380180854276  C 7.926728774342686 10.055748683390204  6.801465187598266 10.390116353474241  5.647720614346554 10.388399039924934  C 2.588068181818092 10.388399039924934  0.10795454545448896 8.085436377587301  0.10795454545448896 5.244311999036381  Z M 9.909097567471584 5.244311999036381  C 9.909097567471584 3.0588716581270394  8.001271750710247 1.2873376623376316  5.647720614346554 1.2873376623376316  C 3.2941894531250457 1.2873376623376316  1.3863636363636032 3.058890206473158  1.3863636363636032 5.244311999036381  C 1.3863636363636032 7.4297337915988155  3.2941894531250457 9.201304884080855  5.647720614346554 9.201304884080855  C 8.001251775568168 9.201304884080855  9.909097567471584 7.429752339945329  9.909097567471584 5.244311999036381  Z " fill-rule="nonzero" fill="#7ca7ec" stroke="none" transform="matrix(1 0 0 1 186 312 )" />
  </g>
</svg>