<?xml version="1.0" encoding="utf-8"?>
<svg version="1.1" xmlns:xlink="http://www.w3.org/1999/xlink" width="67px" height="67px" xmlns="http://www.w3.org/2000/svg">
  <g>
    <path d="M 0 0  L 67 0  L 67 67  L 0 67  L 0 0  " fill-rule="nonzero" fill="#cccccc" stroke="none" />
    <path d="M 5 5  L 62 5  L 62 62  L 5 62  L 5 5  " fill-rule="nonzero" fill="#ffffff" stroke="none" />
    <path d="M 39.865 20.099999999999998  C 37.051 20.099999999999998  34.84 17.889  34.84 15.075  C 34.84 12.261  37.051 10.049999999999999  39.865 10.049999999999999  C 42.679 10.049999999999999  44.89 12.261  44.89 15.075  C 44.89 17.889  42.679 20.099999999999998  39.865 20.099999999999998  " fill-rule="nonzero" fill="#cccccc" stroke="none" />
    <path d="M 7 61  L 7 31.299999999999997  L 20.5 17.799999999999997  L 39.4 28.6  L 50.2 25.9  L 61 28.6  L 61 61  L 7 61  " fill-rule="nonzero" fill="#169bd5" stroke="none" />
  </g>
</svg>