<?xml version="1.0" encoding="utf-8"?>
<svg version="1.1" xmlns:xlink="http://www.w3.org/1999/xlink" width="24px" height="24px" xmlns="http://www.w3.org/2000/svg">
  <g transform="matrix(1 0 0 1 -116 -246 )">
    <path d="M 12.329192052131248 23.953573368230764  C 11.487184823777511 23.953573368230764  10.80441126988812 23.299780470012706  10.803726708074507 22.49285714285702  C 10.803725360941414 22.492063657791277  10.803724687374483 22.491270171804786  10.803724687374483 22.490476685688463  C 10.803724687374483 21.682431503275097  11.487255170554903 21.027381456893863  12.330432752203677 21.027381456893863  C 13.173610333852537 21.027381456893863  13.8571408170329 21.682431503275097  13.8571408170329 22.490476685688463  C 13.8571408170329 23.298056237586252  13.174368445093307 23.952913251576774  12.331677018633513 23.953571428571422  C 12.330848697151367 23.95357272167746  12.330020374712433 23.953573368230764  12.329192052131248 23.953573368230764  Z M 3.9503105590062546 20.99285714285702  L 3.9490683132763422 20.99285714285702  C 3.591627089033608 20.649790208874265  3.3908641722143074 20.184803043471675  3.3908641722143074 19.700000048625043  C 3.3908641722143074 18.689450447667127  4.245694411975663 17.87023813456267  5.300180952105663 17.87023813456267  C 6.354667492235663 17.87023813456267  7.209497731996947 18.689450447667127  7.209497731996947 19.700000048625043  C 7.209497731996947 20.710384916714588  6.354935744662413 21.52952897902412  5.300621127717378 21.529761914062533  C 4.79426011871324 21.528387925750167  4.308955052306416 21.335422979994974  3.9503105590062546 20.99285714285702  Z M 20.219875766692553 20.52976191406242  C 19.743166519681097 20.985839001323484  18.971119175194616 20.985839001323484  18.494409928183188 20.52976191406242  C 18.27958582791456 20.31222000288085  18.159871982305617 20.024083489179134  18.159871982305617 19.724570192621968  C 18.159871982305617 19.077608057105863  18.707141306736077 18.55314162119339  19.382232230752805 18.55314162119339  C 19.693553239598828 18.55314162119339  19.993143282376764 18.666979545018194  20.219875766692553 18.871428571428623  C 20.693647850229127 19.330975092467952  20.693647850229127 20.07021539302309  20.219875766692553 20.52976191406242  Z M 0.006211170419277323 12.966666657365977  L 0.006211170419277323 12.965476199776731  C 0.006211170419277323 11.703111057306387  1.0740537546737556 10.67976191406251  2.391304338121188 10.67976191406251  C 3.7085549215685063 10.67976191406251  4.776397505822985 11.703111057306387  4.776397505822985 12.965476199776731  C 4.776397505822985 14.227841342247189  3.7085549215685063 15.251190485491179  2.391304338121188 15.251190485491179  C 2.3904760761150783 15.251191313282561  2.38964781371547 15.251191727178593  2.388819551259161 15.251191727178593  C 1.0729410984762495 15.251191727178593  0.006210845902032247 14.22890856846152  0.006210845902032247 12.96785838454457  C 0.006210845902032247 12.967461142131242  0.006210954074447272 12.967063899725304  0.006211170419277323 12.966666657365977  Z M 21.290683229813595 12.966666657365977  L 21.289440984083768 12.965476199776731  C 21.290126859347822 12.44916102475338  21.72707361093336 12.03095312796438  22.26583770840523 12.03095312796438  C 22.805087166004057 12.03095312796438  23.242235223933193 12.449886683479917  23.242235223933193 12.966667413678692  C 23.242235223933193 13.483448143877467  22.805087166004057 13.90238169939289  22.26583770840523 13.90238169939289  C 22.265423899810514 13.90238169939289  22.265010091257125 13.902381447288803  22.264596282996877 13.902380943080288  C 21.72660106606679 13.900415982936806  21.291362935486973 13.48224873983429  21.290683229813595 12.966666657365977  Z M 3.190062111801211 8.251190485490952  L 3.190062111801211 8.25  C 2.628712531815367 7.713900098922295  2.3131859422866228 6.985675264405472  2.3131859422866228 6.2261990759944865  C 2.3131859422866228 4.6482426479065  3.6479891726046674 3.3690562188517106  5.294552401913876 3.3690562188517106  C 6.94111563122307 3.3690562188517106  8.275918861541243 4.6482426479065  8.275918861541243 6.2261990759944865  C 8.275918861541243 7.801420057538962  6.9455672525392345 9.079470566940927  5.301863344332361 9.083333342633978  C 4.510886247877977 9.084075383706818  3.751718072988922 8.784929628712234  3.190062111801211 8.251190485490952  Z M 18.806211189829156 6.758333342633932  L 18.8049689440993 6.757142857142981  C 18.66159769442706 6.617902575444305  18.58121227204839 6.43015486203808  18.58121227204839 6.234538107501976  C 18.58121227204839 5.823611949217593  18.928817284288783 5.490490479153891  19.3576097972813 5.490490479153891  C 19.786402310273814 5.490490479153891  20.134007322514265 5.823611949217593  20.134007322514265 6.234538107501976  C 20.134007322514265 6.645464265786586  19.786402310273814 6.978585735850288  19.3576097972813 6.978585735850288  C 19.356004863633217 6.978585735850288  19.354399933842785 6.978580966734398  19.352795031055848 6.978571428571399  C 19.147175985512348 6.978268977084099  18.950277538564904 6.898931583972626  18.806211189829156 6.758333342633932  Z M 8.785093177406765 3.4404761997768674  L 8.785093177406765 3.4392857142856883  C 8.785093032978736 3.438889999401681  8.785092960764715 3.4384942844851594  8.785092960764715 3.438098569576937  C 8.785092960764715 1.5636178242407368  10.370727969125213 0.04405094122864739  12.326707877301999 0.04405094122864739  C 14.2826877854788 0.04405094122864739  15.868322793839297 1.5636178242407368  15.868322793839297 3.438098569576937  C 15.868322793839297 5.310719871091351  14.285714714231801 6.829515434307041  12.331677018633513 6.832142857142799  C 10.375293945618381 6.833459007134934  8.787835614915025 5.315341931311764  8.785093177406765 3.4404761997768674  Z " fill-rule="nonzero" fill="#99cc33" stroke="none" transform="matrix(1 0 0 1 116 246 )" />
  </g>
</svg>