<?xml version="1.0" encoding="utf-8"?>
<svg version="1.1" xmlns:xlink="http://www.w3.org/1999/xlink" width="18px" height="18px" xmlns="http://www.w3.org/2000/svg">
  <g transform="matrix(1 0 0 1 -58 -7 )">
    <path d="M 67 8  C 71.48 8  75 11.52  75 16  C 75 20.48  71.48 24  67 24  C 62.519999999999996 24  59 20.48  59 16  C 59 11.52  62.519999999999996 8  67 8  Z " fill-rule="nonzero" fill="#ffffff" stroke="none" fill-opacity="0" />
    <path d="M 67 8  C 71.48 8  75 11.52  75 16  C 75 20.48  71.48 24  67 24  C 62.519999999999996 24  59 20.48  59 16  C 59 11.52  62.519999999999996 8  67 8  Z " stroke-width="2" stroke="#ffffff" fill="none" />
  </g>
</svg>