<?xml version="1.0" encoding="utf-8"?>
<svg version="1.1" xmlns:xlink="http://www.w3.org/1999/xlink" width="16px" height="16px" xmlns="http://www.w3.org/2000/svg">
  <defs>
    <mask fill="white" id="clip803">
      <path d="M 15.360007350000046 7.669484370001669  C 15.354265572758663 3.432062348823706  11.917542536277097 0  7.680116624999982 0  C 3.438637124330171 0  0.00023292039884381666 3.438404203930588  0.00023292039884381666 7.679890739998427  C 0.00023292039884381666 11.921377276066266  3.438637124330171 15.359781479996798  7.680123660398863 15.359781479996798  C 11.921610196467554 15.359781479996798  15.360014400398882 11.921377276066266  15.360014400398882 7.679890739998427  C 15.360014400398882 7.676421948805  15.360012050265368 7.672953158010614  15.360007350000046 7.669484370001669  Z M 8.679126795000002 7.711109805001627  L 10.968525119999981 9.96928905000118  C 11.1213239222119 10.105528911955162  11.208704997507539 10.300511581064086  11.208704997507539 10.505227906604148  C 11.208704997507539 10.901789658605367  10.887228179508838 11.22326647660401  10.490666427507563 11.22326647660401  C 10.298748287905255 11.22326647660401  10.114817207619353 11.14643717371223  9.979921304999948 11.00992465500093  L 7.680116624999982 8.668494555001416  L 5.380311945000017 10.95789288000094  C 5.2423150838199035 11.095889741180997  5.055151175145738 11.173415570540556  4.8599941425 11.173415570540556  C 4.453600659886206 11.173415570540556  4.124153649460368 10.843968560114774  4.124153649460368 10.437575077501037  C 4.124153649460368 10.242418044855356  4.2016794788198695 10.055254136181247  4.339676339999983 9.917257275001191  L 6.629074664999962 7.61745259500168  L 4.339676339999983 5.328054270002156  C 4.201679482108489 5.19005741012154  4.1241536547636315 5.002893504403801  4.1241536547636315 4.807736475002287  C 4.1241536547636315 4.4013429953175205  4.45360066281512 4.071895987266089  4.8599941425 4.071895987266089  C 5.0551511755769525 4.071895987266089  5.242315084509642 4.149421817522864  5.380311945000017 4.287418680002361  L 7.680116624999982 6.680880555001863  L 9.979921304999948 4.381075875002352  C 10.1114626459713 4.263789784563585  10.28154393025602 4.198976161605515  10.45777999749248 4.198976161605515  C 10.854341749493756 4.198976161605515  11.175818567492456 4.520452979604158  11.175818567492456 4.917014731605377  C 11.175818567492456 5.105968808159048  11.10133763456031 5.287307317036721  10.968525119999981 5.421711480002159  L 8.679126795000002 7.711109805001627  Z " fill-rule="evenodd" />
    </mask>
  </defs>
  <g transform="matrix(1 0 0 1 -266 -138 )">
    <path d="M 15.360007350000046 7.669484370001669  C 15.354265572758663 3.432062348823706  11.917542536277097 0  7.680116624999982 0  C 3.438637124330171 0  0.00023292039884381666 3.438404203930588  0.00023292039884381666 7.679890739998427  C 0.00023292039884381666 11.921377276066266  3.438637124330171 15.359781479996798  7.680123660398863 15.359781479996798  C 11.921610196467554 15.359781479996798  15.360014400398882 11.921377276066266  15.360014400398882 7.679890739998427  C 15.360014400398882 7.676421948805  15.360012050265368 7.672953158010614  15.360007350000046 7.669484370001669  Z M 8.679126795000002 7.711109805001627  L 10.968525119999981 9.96928905000118  C 11.1213239222119 10.105528911955162  11.208704997507539 10.300511581064086  11.208704997507539 10.505227906604148  C 11.208704997507539 10.901789658605367  10.887228179508838 11.22326647660401  10.490666427507563 11.22326647660401  C 10.298748287905255 11.22326647660401  10.114817207619353 11.14643717371223  9.979921304999948 11.00992465500093  L 7.680116624999982 8.668494555001416  L 5.380311945000017 10.95789288000094  C 5.2423150838199035 11.095889741180997  5.055151175145738 11.173415570540556  4.8599941425 11.173415570540556  C 4.453600659886206 11.173415570540556  4.124153649460368 10.843968560114774  4.124153649460368 10.437575077501037  C 4.124153649460368 10.242418044855356  4.2016794788198695 10.055254136181247  4.339676339999983 9.917257275001191  L 6.629074664999962 7.61745259500168  L 4.339676339999983 5.328054270002156  C 4.201679482108489 5.19005741012154  4.1241536547636315 5.002893504403801  4.1241536547636315 4.807736475002287  C 4.1241536547636315 4.4013429953175205  4.45360066281512 4.071895987266089  4.8599941425 4.071895987266089  C 5.0551511755769525 4.071895987266089  5.242315084509642 4.149421817522864  5.380311945000017 4.287418680002361  L 7.680116624999982 6.680880555001863  L 9.979921304999948 4.381075875002352  C 10.1114626459713 4.263789784563585  10.28154393025602 4.198976161605515  10.45777999749248 4.198976161605515  C 10.854341749493756 4.198976161605515  11.175818567492456 4.520452979604158  11.175818567492456 4.917014731605377  C 11.175818567492456 5.105968808159048  11.10133763456031 5.287307317036721  10.968525119999981 5.421711480002159  L 8.679126795000002 7.711109805001627  Z " fill-rule="nonzero" fill="#cdcdcd" stroke="none" transform="matrix(1 0 0 1 266 138 )" />
    <path d="M 15.360007350000046 7.669484370001669  C 15.354265572758663 3.432062348823706  11.917542536277097 0  7.680116624999982 0  C 3.438637124330171 0  0.00023292039884381666 3.438404203930588  0.00023292039884381666 7.679890739998427  C 0.00023292039884381666 11.921377276066266  3.438637124330171 15.359781479996798  7.680123660398863 15.359781479996798  C 11.921610196467554 15.359781479996798  15.360014400398882 11.921377276066266  15.360014400398882 7.679890739998427  C 15.360014400398882 7.676421948805  15.360012050265368 7.672953158010614  15.360007350000046 7.669484370001669  Z " stroke-width="2" stroke="#cecece" fill="none" transform="matrix(1 0 0 1 266 138 )" mask="url(#clip803)" />
    <path d="M 8.679126795000002 7.711109805001627  L 10.968525119999981 9.96928905000118  C 11.1213239222119 10.105528911955162  11.208704997507539 10.300511581064086  11.208704997507539 10.505227906604148  C 11.208704997507539 10.901789658605367  10.887228179508838 11.22326647660401  10.490666427507563 11.22326647660401  C 10.298748287905255 11.22326647660401  10.114817207619353 11.14643717371223  9.979921304999948 11.00992465500093  L 7.680116624999982 8.668494555001416  L 5.380311945000017 10.95789288000094  C 5.2423150838199035 11.095889741180997  5.055151175145738 11.173415570540556  4.8599941425 11.173415570540556  C 4.453600659886206 11.173415570540556  4.124153649460368 10.843968560114774  4.124153649460368 10.437575077501037  C 4.124153649460368 10.242418044855356  4.2016794788198695 10.055254136181247  4.339676339999983 9.917257275001191  L 6.629074664999962 7.61745259500168  L 4.339676339999983 5.328054270002156  C 4.201679482108489 5.19005741012154  4.1241536547636315 5.002893504403801  4.1241536547636315 4.807736475002287  C 4.1241536547636315 4.4013429953175205  4.45360066281512 4.071895987266089  4.8599941425 4.071895987266089  C 5.0551511755769525 4.071895987266089  5.242315084509642 4.149421817522864  5.380311945000017 4.287418680002361  L 7.680116624999982 6.680880555001863  L 9.979921304999948 4.381075875002352  C 10.1114626459713 4.263789784563585  10.28154393025602 4.198976161605515  10.45777999749248 4.198976161605515  C 10.854341749493756 4.198976161605515  11.175818567492456 4.520452979604158  11.175818567492456 4.917014731605377  C 11.175818567492456 5.105968808159048  11.10133763456031 5.287307317036721  10.968525119999981 5.421711480002159  L 8.679126795000002 7.711109805001627  Z " stroke-width="2" stroke="#cecece" fill="none" transform="matrix(1 0 0 1 266 138 )" mask="url(#clip803)" />
  </g>
</svg>