<?xml version="1.0" encoding="utf-8"?>
<svg version="1.1" xmlns:xlink="http://www.w3.org/1999/xlink" width="14px" height="14px" xmlns="http://www.w3.org/2000/svg">
  <g transform="matrix(1 0 0 1 -291 -138 )">
    <path d="M 13.846349994591264 13.047098490642128  L 11.684399995435797 10.894507582392052  C 12.702724989569276 9.706348491947097  13.280399994812342 8.199151517393801  13.280399994812342 6.611628790741193  C 13.280575000281033 2.9598560648949217  10.307849995973498 0  6.6403750028748405 0  C 2.9729000097762395 0  0 2.960030312764175  0 6.611454542871954  C 0 10.263053037184164  2.9729000097762395 13.223257581482386  6.640199997406185 13.223257581482386  C 7.297333980278367 13.223797716607947  7.950907995631823 13.127201882246638  8.579549996648595 12.936628788270482  C 8.798907117097173 12.868549142122703  8.948316737796716 12.666355978328085  8.948316737796716 12.437583855649379  C 8.948316737796716 12.148889554714259  8.713266231549738 11.914856583126308  8.423316738001816 11.914856583126308  C 8.372515463652348 11.914856583126308  8.321983140494254 11.922198088208233  8.273300007705728 11.936651515933832  C 7.743923175248852 12.097079854379558  7.1935543770403 12.178349998086603  6.640199997406185 12.177803036436217  C 3.5528500040809305 12.177628788566977  1.0499999995898008 9.6856136325802  1.0499999995898008 6.611454542871954  C 1.0499999995898008 3.537469701032947  3.5528500040809305 1.0454545450461694  6.640199997406185 1.0454545450461694  C 9.727724996200095 1.0454545450461694  12.230750006159838 3.537469701032947  12.230750006159838 6.611454542871954  C 12.230750006159838 8.069863633211341  11.650275011855356 9.44881817812724  10.63702499584494 10.488174243772363  C 10.405980073130436 10.725122285321788  10.408785725882609 11.10286651660445  10.643324995842462 11.336386359208092  L 13.10382500581882 13.786234853989782  C 13.20202833655577 13.882455995828565  13.334285531465085 13.936383473211734  13.472064652125866 13.936383473211734  C 13.762014145673817 13.936383473211734  13.997064651920823 13.702350501623783  13.997064651920823 13.413656200688635  C 13.997064651920823 13.27651618509131  13.942936296417898 13.144868962496616  13.846349994591264 13.047098490642128  Z " fill-rule="nonzero" fill="#999999" stroke="none" transform="matrix(1 0 0 1 291 138 )" />
  </g>
</svg>