<?xml version="1.0" encoding="utf-8"?>
<svg version="1.1" xmlns:xlink="http://www.w3.org/1999/xlink" width="324px" height="1px" xmlns="http://www.w3.org/2000/svg">
  <defs>
    <mask fill="white" id="clip936">
      <path d="M 0 1  L 0 0  L 324 0  L 324 1  L 154.13888542646325 1  L 94.04519730497984 1  L 0 1  Z " fill-rule="evenodd" />
    </mask>
  </defs>
  <g transform="matrix(1 0 0 1 -12 -365 )">
    <path d="M 0 1  L 0 0  L 324 0  L 324 1  L 154.13888542646325 1  L 94.04519730497984 1  L 0 1  Z " fill-rule="nonzero" fill="#ffffff" stroke="none" fill-opacity="0" transform="matrix(1 0 0 1 12 365 )" />
    <path d="M 0 1  L 0 0  L 324 0  L 324 1  L 154.13888542646325 1  L 94.04519730497984 1  L 0 1  Z " stroke-width="1" stroke="#eeeeee" fill="none" transform="matrix(1 0 0 1 12 365 )" mask="url(#clip936)" />
  </g>
</svg>