<?xml version="1.0" encoding="utf-8"?>
<svg version="1.1" xmlns:xlink="http://www.w3.org/1999/xlink" width="336px" height="1px" xmlns="http://www.w3.org/2000/svg">
  <defs>
    <mask fill="white" id="clip932">
      <path d="M 0 1  L 0 0  L 336 0  L 336 1  L 159.84773303485076 1  L 97.52835276071984 1  L 0 1  Z " fill-rule="evenodd" />
    </mask>
  </defs>
  <g transform="matrix(1 0 0 1 -6 -170 )">
    <path d="M 0 1  L 0 0  L 336 0  L 336 1  L 159.84773303485076 1  L 97.52835276071984 1  L 0 1  Z " fill-rule="nonzero" fill="#ffffff" stroke="none" fill-opacity="0" transform="matrix(1 0 0 1 6 170 )" />
    <path d="M 0 1  L 0 0  L 336 0  L 336 1  L 159.84773303485076 1  L 97.52835276071984 1  L 0 1  Z " stroke-width="1" stroke="#eeeeee" fill="none" transform="matrix(1 0 0 1 6 170 )" mask="url(#clip932)" />
  </g>
</svg>