<?xml version="1.0" encoding="utf-8"?>
<svg version="1.1" xmlns:xlink="http://www.w3.org/1999/xlink" width="375px" height="250px" xmlns="http://www.w3.org/2000/svg">
  <g>
    <path d="M 0 0  L 375 0  L 375 250  L 0 250  L 0 0  " fill-rule="nonzero" fill="#cccccc" stroke="none" />
    <path d="M 18 18  L 357 18  L 357 232  L 18 232  L 18 18  " fill-rule="nonzero" fill="#ffffff" stroke="none" />
    <path d="M 213.75 75  C 203.25 75  195 66.75  195 56.25  C 195 45.75  203.25 37.5  213.75 37.5  C 224.25 37.5  232.5 45.75  232.5 56.25  C 232.5 66.75  224.25 75  213.75 75  " fill-rule="nonzero" fill="#cccccc" stroke="none" />
    <path d="M 25 226  L 25 115.44999999999999  L 106.5 65.19999999999999  L 220.6 145.60000000000002  L 285.8 95.35  L 351 145.60000000000002  L 351 226  L 25 226  " fill-rule="nonzero" fill="#169bd5" stroke="none" />
  </g>
</svg>