<?xml version="1.0" encoding="utf-8"?>
<svg version="1.1" xmlns:xlink="http://www.w3.org/1999/xlink" width="234px" height="45px" viewBox="106 571  234 45" xmlns="http://www.w3.org/2000/svg">
  <path d="M 107 575  A 3 3 0 0 1 110 572 L 336 572  A 3 3 0 0 1 339 575 L 339 612  A 3 3 0 0 1 336 615 L 110 615  A 3 3 0 0 1 107 612 L 107 575  Z " fill-rule="nonzero" fill="#ffffff" stroke="none" />
  <path d="M 106.5 575  A 3.5 3.5 0 0 1 110 571.5 L 336 571.5  A 3.5 3.5 0 0 1 339.5 575 L 339.5 612  A 3.5 3.5 0 0 1 336 615.5 L 110 615.5  A 3.5 3.5 0 0 1 106.5 612 L 106.5 575  Z " stroke-width="1" stroke="#aaaaaa" fill="none" stroke-opacity="0.8196078431372549" />
</svg>