<?xml version="1.0" encoding="utf-8"?>
<svg version="1.1" xmlns:xlink="http://www.w3.org/1999/xlink" width="14px" height="14px" xmlns="http://www.w3.org/2000/svg">
  <g transform="matrix(1 0 0 1 -46 -334 )">
    <path d="M 13.832007297702837 12.79901625103477  C 14.014402822330311 12.616416879656466  14.014402822330311 12.320725967508288  13.831970211610072 12.138182189052158  L 11.848893553394024 10.15529081643211  C 11.666516535596013 9.972691445053806  11.370603269867571 9.972691445053806  11.188078016349346 10.15529081643211  L 11.13467317363408 10.208658609271534  C 11.13467317363408 10.208658609271534  10.154948023592693 9.234585249379135  10.128968292115058 9.218259907905626  C 10.905061964507428 8.252099068708617  11.369769412251678 7.0251772739031555  11.369769412251678 5.689574213576149  C 11.369769412251678 2.5750447977028257  8.845028205194527 0.05035918356787382  5.730665568087746 0.05035918356787382  C 2.6163029309809644 0.05035918356787382  0.0915802669701975 2.5750818656870895  0.0915802669701975 5.689574213576149  C 0.0915802669701975 8.80375154697848  2.616302949089413 11.328659514693724  5.730665568087746 11.328659514693724  C 7.066491000103467 11.328659514693724  8.293561030629114 10.863840881105133  9.25970334488824 10.087561905008284  C 9.276047229408134 10.113486043563746  10.250046453331978 11.093025889900659  10.250046453331978 11.093025889900659  L 10.196567474648184 11.146467800600162  C 10.014190456850171 11.329085715024847  10.014190456850171 11.62520282750415  10.196567474648184 11.807542777317872  L 12.179532965128335 13.790489724751668  C 12.362095286630773 13.973089096129971  12.65799002742136 13.973089096129971  12.840552348923849 13.790489724751668  L 13.832007297702837 12.79901625103477  Z M 9.197904170115892 5.689574213576149  C 9.197904170115892 7.6042733883485045  7.6456241644246585 9.156405158319528  5.730665549979298 9.156405158319528  C 3.815947832160585 9.156405158319528  2.263853130173853 7.604291931394861  2.263853130173853 5.689574213576149  C 2.263853130173853 3.7744117704884053  3.815947832160585 2.2222985435637383  5.730665549979298 2.2222985435637383  C 7.6456056394867495 2.2222985435637383  9.197904170115892 3.7744117704884053  9.197904170115892 5.689574213576149  Z " fill-rule="nonzero" fill="#fafafa" stroke="none" transform="matrix(1 0 0 1 46 334 )" />
  </g>
</svg>