<?xml version="1.0" encoding="utf-8"?>
<svg version="1.1" xmlns:xlink="http://www.w3.org/1999/xlink" width="13px" height="12px" xmlns="http://www.w3.org/2000/svg">
  <defs>
    <linearGradient gradientUnits="userSpaceOnUse" x1="3.0519811568036657" y1="-1.1252396435326442" x2="7.948018843196335" y2="11.125239643532645" id="LinearGradient821">
      <stop id="Stop822" stop-color="#f9f9f9" offset="0" />
      <stop id="Stop823" stop-color="#f9f9f9" offset="0.13" />
      <stop id="Stop824" stop-color="#e5e5e5" offset="0.85" />
      <stop id="Stop825" stop-color="#e5e5e5" offset="1" />
    </linearGradient>
    <filter x="40px" y="182px" width="13px" height="12px" filterUnits="userSpaceOnUse" id="filter826">
      <feOffset dx="0" dy="0" in="SourceAlpha" result="shadowOffsetInner" />
      <feGaussianBlur stdDeviation="0.5" in="shadowOffsetInner" result="shadowGaussian" />
      <feComposite in2="shadowGaussian" operator="atop" in="SourceAlpha" result="shadowComposite" />
      <feColorMatrix type="matrix" values="0 0 0 0 0.7058823529411764  0 0 0 0 0.7019607843137254  0 0 0 0 0.7019607843137254  0 0 0 1 0  " in="shadowComposite" />
    </filter>
    <g id="widget827">
      <path d="M 3.493067213106297 9.863636370641787  C 3.3006216089907268 9.954545465166582  3.094429876200336 10.00000001242898  2.895111214325087 10  C 2.62706197485304 10  2.365885793140673 9.922077918978747  2.1459479448309233 9.766233769365222  C 1.7473106079249623 9.49350649821982  1.554865003809393 9.03896103802483  1.6373416837700867 8.584415590258818  C 1.6373416837700867 8.584415590258818  1.953502340715354 6.831168829425545  1.953502340715354 6.831168829425545  C 1.9947406872734308 6.603896105542538  1.912263994157275 6.376623369230555  1.7404375501652833 6.22077921961703  C 1.7404375501652833 6.22077921961703  0.38644522413022886 4.974025972992916  0.38644522413022886 4.974025972992916  C 0.0359192915420259 4.649350647833346  -0.0877957481322087 4.175324679812021  0.0634115225807446 3.7337662331205728  C 0.21461879329369785 3.292207786429125  0.6132561170441969 2.974025968021325  1.101243204825994 2.909090912932593  C 1.101243204825994 2.909090912932593  2.963841791921885 2.6558441496135248  2.963841791921885 2.6558441496135248  C 3.204398800355212 2.623376615854671  3.4105905331456023 2.480519479744687  3.513686386385337 2.279220782868765  C 3.513686386385337 2.279220782868765  4.345326335840195 0.6818181840779962  4.345326335840195 0.6818181840779962  C 4.565264184149947 0.25974025764186104  5.005139854458523 0  5.5 0  C 5.994860145541477 0  6.434735815850054 0.25974025764186104  6.647800606400125 0.6753246773262249  C 6.647800606400125 0.6753246773262249  7.486313613614663 2.272727276116994  7.486313613614663 2.272727276116994  C 7.596282537769538 2.4740259729929157  7.802474257404467 2.616883121531877  8.036158208078115 2.649350642861755  C 8.036158208078115 2.649350642861755  9.898756795174005 2.902597406180822  9.898756795174005 2.902597406180822  C 10.386743882955804 2.9675324736985322  10.785381206706303 3.2857142921063307  10.936588477419257 3.727272726368802  C 11.087795748132214 4.16883117306025  10.964080708457974 4.642857141081575  10.613554775869773 4.9675324662411455  C 10.613554775869773 4.9675324662411455  9.266435507594398 6.207792206113489  9.266435507594398 6.207792206113489  C 9.094609076757866 6.3636363681559915  9.01213238364171 6.597402598790769  9.053370717044327 6.818181815922005  C 9.053370717044327 6.818181815922005  9.369531373989592 8.571428576755277  9.369531373989592 8.571428576755277  C 9.45200806710575 9.032467543702037  9.259562449834718 9.480519484716279  8.860925112928754 9.753246755861682  C 8.462287776022794 10.02597402700709  7.946808470357741 10.05844156076594  7.5138058446533815 9.844155850386475  C 7.5138058446533815 9.844155850386475  5.843652874828522 9.03246753127306  5.843652874828522 9.03246753127306  C 5.630588097433913 8.928571423244724  5.376284960325766 8.928571423244724  5.163220182931156 9.03246753127306  C 5.163220182931156 9.03246753127306  3.493067213106297 9.863636370641787  3.493067213106297 9.863636370641787  Z " fill-rule="nonzero" fill="url(#LinearGradient821)" stroke="none" transform="matrix(1 0 0 1 41 183 )" />
    </g>
  </defs>
  <g transform="matrix(1 0 0 1 -40 -182 )">
    <use xlink:href="#widget827" filter="url(#filter826)" />
    <use xlink:href="#widget827" />
  </g>
</svg>