<?xml version="1.0" encoding="utf-8"?>
<svg version="1.1" xmlns:xlink="http://www.w3.org/1999/xlink" width="27px" height="27px" xmlns="http://www.w3.org/2000/svg">
  <g transform="matrix(1 0 0 1 -34 -415 )">
    <path d="M 0 4.248800864225814  C 0 4.248800864225814  0 22.751199135774186  0 22.751199135774186  C 0 25.08117407054442  1.853021677070501 27  4.1028230223637365 27  C 4.1028230223637365 27  22.897176977636263 27  22.897176977636263 27  C 25.14724319587185 27  27 25.081204202387653  27 22.751199135774186  C 27 22.751199135774186  27 4.248800864225814  27 4.248800864225814  C 27 1.9188259294555792  25.279679667241 0  22.897206407962585 0  C 22.897206407962585 0  4.102852452690058 0  4.102852452690058 0  C 1.8530511073986418 0  0 1.918795797612347  0 4.248800864225814  Z M 21.885093282795424 25  C 21.885093282795424 25  3.114906717204576 25  3.114906717204576 25  C 1.9253047553211218 25  1 24.0416503630845  1 22.809641338642905  C 1 22.809641338642905  1 4.190358661357095  1 4.190358661357095  C 1 2.958379735836388  1.9253047553211218 2  3.114906717204576 2  C 3.114906717204576 2  21.885093282795424 2  21.885093282795424 2  C 23.074930384542313 2  24 2.9583496369155  24 4.190358661357095  C 24 4.190358661357095  24 22.809641338642905  24 22.809641338642905  C 24 24.041620264163612  23.074930384542313 25  21.885093282795424 25  Z M 7 14  C 5.304371785452531 14  4 15.304405178964771  4 17.00012904397545  C 4 18.695623497474116  5.304371785452531 20  7 20  C 8.695918248966336 20  10 18.69559482103523  10 17.00012904397545  C 10 15.174013411014585  8.565402761127189 14  7 14  Z M 11.697300367724893 6.346809389155624  C 12.100899877425036 6.636843256236716  12.100899877425036 7.361497701194821  11.697300367724893 7.796405094235069  C 11.697300367724893 7.796405094235069  8.067117103650162 11.710252948082143  8.067117103650162 11.710252948082143  C 7.6640856228877965 11.855126474041299  7.6640856228877965 12  7.260486113187652 12  C 6.857215462345265 12  6.588388292624586 11.855126474041299  6.453855122723326 11.710252948082143  C 6.453855122723326 11.710252948082143  4.302699632275107 9.3908424569222  4.302699632275107 9.3908424569222  C 3.899100122574964 9.101127273355814  3.899100122574964 8.376186013234474  4.302699632275107 7.941565435357462  C 4.5715268019976065 7.506658042317213  5.243624622558855 7.506658042317213  5.647224132260817 7.941565435357462  C 5.647224132260817 7.941565435357462  6.991748632246526 9.3908424569222  6.991748632246526 9.3908424569222  L 9.94956500941771 6.201935863196468  C 10.352775867739183 5.912188811279066  10.890669377260565 5.912188811279066  11.697300367724893 6.346809389155624  Z M 12.92772256007629 8  C 12.26522356471105 8  12 8.42832914572864  12 9  C 12 9.71416457286432  12.397835347068394 10  12.92772256007629 10  C 12.92772256007629 10  22.072513194201747 10  22.072513194201747 10  C 22.735012189566987 10  23 9.571388190954622  23 9  C 23 8.42832914572864  22.602164652931606 8  22.07227743992371 8  C 22.07227743992371 8  12.92772256007629 8  12.92772256007629 8  Z M 6 17.000123658647226  C 6 16.37504293703023  6.375017372209186 16  6.999888817856118 16  C 7.625066014397816 16  8 16.375015457330846  8 17.000123658647226  C 8 17.624984542669154  7.4999027156245575 18  6.999888817856118 18  C 6.375017372209186 18  6 17.624984542669154  6 17.000123658647226  Z M 23 17.000141311686548  C 23 16.428551241187506  22.602164652931606 16.000282623373096  22.07227743992371 16  C 22.07227743992371 16  12.92772256007629 16  12.92772256007629 16  C 12.26522356471105 16  12 16.428551241187506  12 17.000141311686548  C 12 17.571166135439398  12.397835347068394 18  12.92772256007629 18  C 12.92772256007629 18  22.072513194201747 18  22.072513194201747 18  C 22.735012189566987 18  23 17.571448758812494  23 17.000141311686548  Z " fill-rule="nonzero" fill="#ffaf7a" stroke="none" transform="matrix(1 0 0 1 34 415 )" />
  </g>
</svg>