<?xml version="1.0" encoding="utf-8"?>
<svg version="1.1" xmlns:xlink="http://www.w3.org/1999/xlink" width="28px" height="22px" xmlns="http://www.w3.org/2000/svg">
  <g transform="matrix(1 0 0 1 -97 -697 )">
    <path d="M 15.62873634890397 7.820703198296087  C 15.62873634890397 7.820703198296087  15.627949036569618 1.5408067892308281  15.627949036569618 1.5408067892308281  C 15.627949036569618 0.053937369986897465  14.64698066959309 -0.25073584150277384  13.856593083509068 0.17811823561191886  C 13.856593083509068 0.17811823561191886  13.739610745096655 0.24789171822874323  13.739610745096655 0.24789171822874323  C 13.739610745096655 0.24789171822874323  0.460254868811262 9.841736943282399  0.460254868811262 9.841736943282399  C -0.10958449257412896 10.422887062004634  -0.1502873041016528 11.339098822687674  0.3381464342286904 11.968114890261518  C 0.3381464342286904 11.968114890261518  0.460254868811262 12.107891065452009  0.460254868811262 12.107891065452009  C 0.460254868811262 12.107891065452009  13.739610745096655 21.701783818905824  13.739610745096655 21.701783818905824  C 14.581096409705767 22.15567590803846  15.5404880109661 22.27920985708124  15.62232265745638 20.68524486386002  C 15.62232265745638 20.68524486386002  15.627949036569618 20.457110074120237  15.627949036569618 20.457110074120237  L 15.62873634890397 14.12677133859529  C 15.62873634890397 14.12677133859529  26.111661708527038 21.701783818905824  26.111661708527038 21.701783818905824  C 26.953147373136147 22.15567590803846  27.912538974396483 22.27920985708124  27.994373620886762 20.68524486386002  C 27.994373620886762 20.68524486386002  28 20.457110074120237  28 20.457110074120237  C 28 20.457110074120237  28 1.5408067892308281  28 1.5408067892308281  C 28 0.053937369986897465  27.019031633023474 -0.25073584150277384  26.22864404693945 0.17811823561191886  C 26.22864404693945 0.17811823561191886  26.111661708527038 0.24789171822874323  26.111661708527038 0.24789171822874323  L 15.62873634890397 7.820703198296087  Z " fill-rule="nonzero" fill="#2b3133" stroke="none" transform="matrix(1 0 0 1 97 697 )" />
  </g>
</svg>