<?xml version="1.0" encoding="utf-8"?>
<svg version="1.1" xmlns:xlink="http://www.w3.org/1999/xlink" width="18px" height="20px" xmlns="http://www.w3.org/2000/svg">
  <g transform="matrix(1 0 0 1 -47 -142 )">
    <path d="M 17.614285714285714 14.75  C 17.87142857142857 14.625000000000002  18 14.375  18 14  L 18 1  C 18 0.37500000000000006  17.614285714285714 0  16.97142857142857 0  L 3.8571428571428568 0  C 1.6714285714285715 0  0 1.625  0 3.75  L 0 16.25  C 0 18.375  1.6714285714285715 20  3.8571428571428568 20  L 16.97142857142857 20  C 17.485714285714284 20  18 19.625  18 19  L 18 18.375  C 18 18.125  17.871428571428574 17.875  17.614285714285714 17.625  C 17.485714285714284 17  17.485714285714284 15.25  17.614285714285714 14.75  Z M 5.14325892857143 6.8753906250000005  C 5.142857142857143 6.443359375000001  5.227232142857144 6.034375000000001  5.346964285714287 5.6402343749999995  L 6.201160714285714 6.470703124999999  C 6.263839285714286 6.531640625  6.346205357142858 6.5621093749999995  6.428571428571429 6.5621093749999995  C 6.5109375 6.5621093749999995  6.592901785714285 6.531640625  6.655982142857142 6.470703124999999  C 6.781339285714286 6.348828124999999  6.781339285714286 6.15078125  6.655982142857142 6.028906249999999  L 5.594464285714286 4.996874999999999  C 5.99625 4.180468749999999  6.6487500000000015 3.513671874999999  7.457544642857144 3.0726562499999988  C 7.216875 3.453125  7.071428571428571 3.89609375  7.071428571428571 4.375  C 7.071428571428571 5.1546875000000005  7.446294642857143 5.842578124999999  8.022053571428572 6.301171875  C 7.634330357142856 6.694140625  7.392857142857142 7.2250000000000005  7.392857142857142 7.8125  C 7.392857142857142 8.86484375  8.157857142857143 9.7421875  9.175982142857144 9.9515625  L 9.230625 8.673828125  L 8.813973214285715 8.948828124999999  C 8.78625 8.966406249999999  8.754910714285714 8.975781249999999  8.723571428571429 8.975781249999999  C 8.683392857142858 8.975781249999999  8.644017857142858 8.9609375  8.613080357142858 8.933203124999999  C 8.558547975561202 8.882943120761276  8.547041088032152 8.802686749408311  8.585357142857143 8.739843749999999  L 8.928482142857142 8.180859374999999  L 8.208883928571428 8.035546875  C 8.134151785714286 8.0203125  8.080714285714286 7.956249999999999  8.080714285714286 7.8824218749999995  C 8.080714285714286 7.80859375  8.134151785714286 7.74453125  8.208883928571428 7.729296875  L 8.928482142857142 7.583984375  L 8.585357142857143 7.025  C 8.547187500000001 6.962109375  8.5584375 6.881640625000001  8.613080357142858 6.831640625  C 8.667723214285715 6.780859375  8.751294642857143 6.775390625000001  8.813973214285715 6.815625000000001  L 9.296517857142856 7.134375  L 9.482142857142858 2.805859375  C 9.485758928571428 2.722265625  9.556875000000002 2.65625  9.642857142857142 2.65625  C 9.728839285714287 2.65625  9.799955357142856 2.722265625  9.803571428571427 2.805859375  L 9.991607142857143 7.1921875  L 10.562142857142854 6.815234375  C 10.624921584569945 6.775000520813707  10.707837142649407 6.781610733360597  10.763035714285714 6.83125  C 10.817568095867369 6.881510004238722  10.829074983396417 6.961766375591689  10.79075892857143 7.024609374999999  L 10.447633928571427 7.5835937499999995  L 11.167232142857143 7.72890625  C 11.241964285714287 7.744140624999999  11.295401785714287 7.8082031249999995  11.295401785714287 7.882031249999999  C 11.295401785714287 7.955859374999998  11.241964285714287 8.019921875  11.167232142857143 8.035156249999998  L 10.447633928571427 8.18046875  L 10.79075892857143 8.739453124999999  C 10.82892857142857 8.802343749999999  10.817678571428573 8.882812499999998  10.763035714285714 8.932812499999997  C 10.732098214285713 8.960937499999998  10.691919642857144 8.975390624999998  10.652544642857144 8.975390624999998  C 10.621205357142859 8.975390624999998  10.589866071428572 8.966406249999999  10.562142857142856 8.948437499999999  L 10.05267857142857 8.611718749999998  L 10.110133928571429 9.950781249999999  C 11.127857142857144 9.7421875  11.892857142857142 8.86484375  11.892857142857142 7.8125  C 11.892857142857142 7.2250000000000005  11.65138392857143 6.694140625  11.263660714285715 6.301171875  C 11.839419642857143 5.842578124999999  12.214285714285715 5.1546875000000005  12.214285714285715 4.375  C 12.214285714285715 3.89609375  12.068839285714287 3.453125  11.82857142857143 3.073046875  C 12.63736607142857 3.513671875  13.28986607142857 4.180859375  13.691651785714285 4.997265625000001  L 12.630133928571427 6.029296875000001  C 12.504776785714283 6.151171875000001  12.504776785714283 6.34921875  12.630133928571427 6.471093750000001  C 12.692812499999999 6.532031250000001  12.77517857142857 6.562500000000001  12.857544642857142 6.562500000000001  C 12.939910714285714 6.562500000000001  13.021875 6.532031250000001  13.084955357142858 6.471093750000001  L 13.939151785714285 5.640625000000002  C 14.058482142857143 6.034375000000002  14.142857142857142 6.443359375000002  14.142857142857142 6.875000000000001  C 14.142857142857142 6.895312500000001  14.137232142857144 6.913671875000001  14.136830357142859 6.9339843750000005  L 12.645803571428573 8.202343749999999  C 12.575950388179784 8.261506492474133  12.535853881439774 8.34716703803695  12.535853881439774 8.437235794086865  C 12.535853881439774 8.512965789689297  12.564227917364242 8.586102651109456  12.615669642857144 8.642968750000001  C 12.676617319833849 8.710877561416297  12.76484360910257 8.74977578003768  12.857544642857142 8.749609375  C 12.933080357142856 8.749609375  13.008214285714285 8.723828125  13.069285714285712 8.672265625000001  L 14.017098214285712 7.866015625  C 13.553035714285715 9.803125  11.7759375 11.25  9.642857142857142 11.25  C 7.509776785714287 11.25  5.732678571428572 9.803125  5.269017857142856 7.86640625  L 6.216830357142856 8.67265625  C 6.275358230897626 8.72266185825717  6.350654971925106 8.75016588605184  6.428571428571429 8.75  C 6.517767857142856 8.75  6.606964285714286 8.7140625  6.670446428571428 8.643359375000001  C 6.787767857142857 8.51328125  6.774107142857144 8.316015625  6.640312500000001 8.202734375  L 5.149285714285716 6.934375  C 5.148883928571429 6.9140625  5.14325892857143 6.895703125  5.14325892857143 6.8753906250000005  Z M 15.299999999999999 15  L 15.299999999999999 17.5  L 3.8571428571428568 17.5  C 3.085714285714286 17.5  2.571428571428571 17  2.571428571428571 16.25  C 2.571428571428571 15.5  3.2142857142857144 15  3.8571428571428568 15  L 15.299999999999999 15  Z " fill-rule="nonzero" fill="#ecd9c7" stroke="none" transform="matrix(1 0 0 1 47 142 )" />
  </g>
</svg>