<?xml version="1.0" encoding="utf-8"?>
<svg version="1.1" xmlns:xlink="http://www.w3.org/1999/xlink" width="18px" height="20px" xmlns="http://www.w3.org/2000/svg">
  <g transform="matrix(1 0 0 1 -125 -142 )">
    <path d="M 17.61525129982669 16.233391103408433  C 17.871750433275565 16.533795493934143  18 16.8842672828808  18 17.284806470248412  C 18 17.693048334296165  17.871750433275565 18.039668784902755  17.61525129982669 18.324667822068168  L 16.50259965337955 19.572501444251877  C 16.23223570190641 19.857500481417294  15.91681109185442 20  15.55632582322357 20  C 15.188908145580589 20  14.876949740034663 19.857500481417294  14.620450606585788 19.572501444251877  L 10.84575389948007 15.36683997689197  C 10.582322357019065 15.089543616406702  10.450606585788561 14.742923165800118  10.450606585788561 14.326978625072213  C 10.450606585788561 13.918736761024455  10.599653379549395 13.54900828037743  10.897746967071056 13.217793183131139  L 8.235701906412478 10.25996533795494  L 6.925476603119583 11.715771230502598  C 6.828422876949741 11.823608704024648  6.710571923743501 11.877527440785673  6.571923743500867 11.877527440785673  C 6.433275563258233 11.877527440785673  6.315424610051994 11.823608704024648  6.218370883882149 11.715771230502598  C 6.232235701906413 11.73117658386289  6.275563258232236 11.77739264394377  6.348353552859619 11.854419410745233  C 6.421143847487002 11.931446177546697  6.464471403812826 11.981513575967648  6.478336221837088 12.004621606008088  C 6.492201039861352 12.027729636048527  6.526863084922011 12.072020026959368  6.5823223570190645 12.137492778740613  C 6.637781629116118 12.202965530521855  6.672443674176777 12.254958598112843  6.686308492201039 12.293471981513576  C 6.7001733102253045 12.331985364914306  6.720970537261699 12.383978432505295  6.748700173310226 12.44945118428654  C 6.776429809358753 12.514923936067781  6.795493934142114 12.57847101867899  6.805892547660312 12.64009243212016  C 6.81629116117851 12.701713845561331  6.8214904679376085 12.771037935682648  6.8214904679376085 12.848064702484114  C 6.8214904679376085 13.140766416329672  6.724436741767765 13.402657423454652  6.530329289428076 13.63373772385904  C 6.509532062391681 13.65684575389948  6.452339688041595 13.726169844020797  6.3587521663778155 13.841709994222992  C 6.265164644714039 13.957250144425188  6.199306759098788 14.036202580396688  6.161178509532062 14.078567302137493  C 6.123050259965339 14.120932023878296  6.05892547660312 14.184479106489505  5.9688041594454075 14.269208549971115  C 5.878682842287695 14.353937993452725  5.802426343154246 14.41363373772386  5.74003466204506 14.448295782784516  C 5.677642980935875 14.482957827845176  5.601386481802427 14.517619872905833  5.511265164644714 14.552281917966493  C 5.421143847487002 14.586943963027153  5.331022530329291 14.604274985557481  5.240901213171577 14.604274985557481  C 4.963604852686309 14.604274985557481  4.727902946273831 14.496437512035435  4.533795493934142 14.280762564991335  L 0.29116117850953205 9.566724436741767  C 0.09705372616984403 9.351049489697669  0 9.089158482572694  0 8.781051415366841  C 0 8.680916618524936  0.015597920277296359 8.580781821683034  0.04679376083188908 8.480647024841133  C 0.0779896013864818 8.380512227999228  0.10918544194107452 8.29578278451762  0.14038128249566725 8.226458694396303  C 0.17157712305025996 8.157134604274985  0.22530329289428083 8.072405160793375  0.30155979202772965 7.9722703639514725  C 0.3778162911611786 7.87213556710957  0.43500866551126527 7.800885807818214  0.4731369150779896 7.758521086077412  C 0.511265164644714 7.716156364336606  0.5823223570190641 7.642980935875217  0.6863084922010398 7.538994800693242  C 0.7902946273830156 7.435008665511265  0.8526863084922011 7.371461582900059  0.8734835355285961 7.348353552859619  C 1.0814558058925476 7.132678605815519  1.3171577123050262 7.024841132293471  1.5805892547660312 7.024841132293471  C 1.6499133448873486 7.024841132293471  1.712305025996534 7.030618139803582  1.7677642980935875 7.042172154823801  C 1.8232235701906414 7.053726169844021  1.880415944540728 7.074908530714423  1.9393414211438476 7.105719237435009  C 1.9982668977469673 7.136529944155592  2.045060658578856 7.159637974196031  2.079722703639515 7.175043327556326  C 2.1143847487001732 7.190448680916617  2.1611785095320624 7.228962064317348  2.220103986135182 7.290583477758521  C 2.279029462738302 7.352204891199692  2.318890814558059 7.390718274600423  2.3396880415944543 7.406123627960717  C 2.3604852686308493 7.421528981321009  2.405545927209706 7.469670710571923  2.4748700173310225 7.55054881571346  C 2.54419410745234 7.631426920854998  2.5857885615251304 7.67956865010591  2.5996533795493932 7.6949740034662035  C 2.5025996533795496 7.5871365299441536  2.454072790294627 7.456191026381667  2.454072790294627 7.30213749277874  C 2.454072790294627 7.148083959175812  2.5025996533795496 7.017138455613326  2.5996533795493932 6.909300982091278  L 6.218370883882149 2.888503755054881  C 6.315424610051994 2.780666281532831  6.433275563258233 2.726747544771808  6.571923743500867 2.726747544771808  C 6.710571923743501 2.726747544771808  6.828422876949741 2.780666281532831  6.925476603119583 2.888503755054881  C 6.911611785095321 2.873098401694587  6.868284228769497 2.82688234161371  6.795493934142114 2.7498555748122477  C 6.722703639514732 2.672828808010783  6.679376083188909 2.6227614095898333  6.665511265164645 2.5996533795493937  C 6.651646447140382 2.576545349508954  6.616984402079723 2.5322549585981102  6.561525129982669 2.4667822068168688  C 6.506065857885616 2.401309455035625  6.471403812824957 2.3493163874446354  6.457538994800694 2.3108030040439043  C 6.4436741767764305 2.272289620643171  6.4228769497400355 2.2202965530521834  6.395147313691508 2.154823801270942  C 6.367417677642981 2.089351049489696  6.348353552859619 2.02580396687849  6.337954939341421 1.9641825534373192  C 6.327556325823224 1.9025611399961462  6.322357019064125 1.8332370498748296  6.322357019064125 1.7562102830733672  C 6.322357019064125 1.463508569227805  6.419410745233969 1.2016175621028302  6.613518197573657 0.9705372616984409  C 6.634315424610052 0.9474292316580013  6.6915077989601395 0.8781051415366847  6.785095320623917 0.762564991334489  C 6.878682842287695 0.6470248411322932  6.944540727902947 0.568072405160791  6.982668977469671 0.5257076834199892  C 7.020797227036396 0.4833429616791829  7.084922010398613 0.41979587906797455  7.175043327556327 0.3350664355863664  C 7.265164644714039 0.2503369921047538  7.341421143847487 0.1906412478336228  7.403812824956672 0.1559792027729645  C 7.466204506065858 0.121317157712304  7.542461005199307 0.08665511265164572  7.6325823223570195 0.05199306759098743  C 7.722703639514732 0.017331022530329143  7.8128249566724435 0  7.902946273830156 0  C 8.180242634315425 0  8.415944540727905 0.10783747352204776  8.610051993067591 0.3235124205661477  L 12.852686308492201 5.037550548815712  C 13.046793760831891 5.253225495859811  13.143847487001734 5.515116502984787  13.143847487001734 5.823223570190641  C 13.143847487001734 5.923358367032543  13.128249566724437 6.023493163874445  13.097053726169845 6.123627960716349  C 13.065857885615252 6.223762757558249  13.034662045060658 6.308492201039861  13.003466204506065 6.377816291161178  C 12.972270363951473 6.447140381282495  12.918544194107453 6.5318698247641045  12.842287694974004 6.63200462160601  C 12.766031195840556 6.732139418447909  12.708838821490469 6.8033891777392625  12.670710571923744 6.845753899480069  C 12.632582322357022 6.888118621220873  12.56152512998267 6.961294049682265  12.457538994800693 7.06528018486424  C 12.353552859618716 7.1692663200462174  12.291161178509533 7.232813402657423  12.270363951473136 7.255921432697862  C 12.062391681109187 7.471596379741959  11.826689774696709 7.579433853264009  11.5632582322357 7.579433853264009  C 11.493934142114387 7.579433853264009  11.4315424610052 7.5736568457539  11.376083188908146 7.562102830733679  C 11.320623916811092 7.55054881571346  11.263431542461007 7.529366454843056  11.204506065857885 7.498555748122473  C 11.145580589254768 7.467745041401885  11.098786828422877 7.444637011361448  11.064124783362217 7.429231658001156  C 11.02946273830156 7.41382630464086  10.982668977469672 7.375312921240129  10.923743500866552 7.313691507798961  C 10.864818024263432 7.252070094357787  10.824956672443674 7.213556710957056  10.80415944540728 7.198151357596765  C 10.783362218370883 7.182746004236471  10.738301559792028 7.1346042749855565  10.668977469670711 7.053726169844021  C 10.599653379549395 6.972848064702484  10.558058925476605 6.924706335451569  10.544194107452341 6.909300982091278  C 10.641247833622186 7.017138455613326  10.689774696707106 7.148083959175812  10.689774696707106 7.30213749277874  C 10.689774696707106 7.456191026381667  10.641247833622186 7.5871365299441536  10.544194107452341 7.6949740034662035  L 9.233968804159446 9.150779896013866  L 11.896013864818025 12.108607741190065  C 12.19410745233969 11.77739264394377  12.526863084922011 11.611785095320624  12.894280762564993 11.611785095320624  C 13.25476603119584 11.611785095320624  13.570190641247834 11.754284613903332  13.84055459272097 12.039283651068747  L 17.61525129982669 16.233391103408433  Z " fill-rule="nonzero" fill="#ecd9c7" stroke="none" transform="matrix(1 0 0 1 125 142 )" />
  </g>
</svg>