<?xml version="1.0" encoding="utf-8"?>
<svg version="1.1" xmlns:xlink="http://www.w3.org/1999/xlink" width="26px" height="21px" xmlns="http://www.w3.org/2000/svg">
  <g transform="matrix(1 0 0 1 -194 -140 )">
    <path d="M 7.5016393442622915 5.990163934426218  C 7.5016393442622915 2.9082679971489704  9.973770491803267 0.3472558802565822  13.042622950819668 0.3472558802565822  C 16.111475409836068 0.3472558802565822  18.583606557377042 2.8648610121169007  18.583606557377042 5.990163934426218  L 18.583606557377042 7.422594440484668  C 16.750819672131158 7.205559515324294  14.875409836065579 7.118745545260156  13.042622950819668 7.118745545260156  C 11.209836065573782 7.118745545260156  9.334426229508201 7.205559515324294  7.5016393442622915 7.422594440484668  L 7.5016393442622915 5.990163934426218  Z M 25.829508196721306 14.324305060584475  C 25.829508196721306 15.713328581610833  24.593442622950818 16.841910192444768  23.101639344262296 16.841910192444768  L 23.655737704918028 11.893513898788322  C 24.891803278688542 12.110548823948696  25.829508196721306 13.15231646471847  25.829508196721306 14.324305060584475  Z M 2.3868852459016416 11.893513898788322  L 2.9409836065573716 16.841910192444768  C 1.449180327868852 16.841910192444768  0.2131147540983636 15.713328581610833  0.2131147540983636 14.324305060584475  C 0.2131147540983636 13.1089094796864  1.150819672131153 12.110548823948696  2.3868852459016416 11.893513898788322  Z M 22.76065573770493 10.504490377761943  C 22.76065573770493 9.549536707056308  22.12131147540984 8.72480399144691  21.183606557377047 8.637990021382745  C 18.37049180327868 8.334141126158233  15.68524590163934 8.203920171062023  13.085245901639334 8.203920171062023  C 10.485245901639356 8.203920171062023  7.757377049180322 8.334141126158233  4.986885245901647 8.637990021382745  C 4.049180327868857 8.72480399144691  3.3672131147540982 9.59294369208838  3.495081967213127 10.504490377761943  L 4.347540983606556 18.925445473984315  C 4.432786885245891 19.706771204561644  5.029508196721314 20.357875980042763  5.839344262295076 20.444689950106927  C 8.226229508196717 20.748538845331442  10.655737704918026 20.878759800427652  13.127868852459029 20.878759800427652  C 15.600000000000005 20.878759800427652  18.029508196721316 20.748538845331442  20.416393442622958 20.444689950106927  C 21.183606557377047 20.357875980042763  21.82295081967214 19.706771204561644  21.908196721311473 18.925445473984315  L 22.76065573770493 10.504490377761943  Z M 9.547540983606567 14.671560940841058  C 9.547540983606567 15.583107626514623  9.036065573770504 16.277619387027787  8.354098360655746 16.277619387027787  C 7.672131147540986 16.277619387027787  7.160655737704924 15.583107626514623  7.160655737704924 14.671560940841058  C 7.160655737704924 13.760014255167496  7.714754098360655 13.065502494654305  8.354098360655746 13.065502494654305  C 8.99344262295081 13.065502494654305  9.547540983606567 13.760014255167496  9.547540983606567 14.671560940841058  Z M 15.472131147540976 17.275980042765518  L 15.472131147540976 18.057305773342847  C 15.472131147540976 18.144119743406982  15.42950819672131 18.230933713471124  15.386885245901642 18.274340698503217  C 15.344262295081972 18.317747683535288  15.259016393442613 18.36115466856736  15.173770491803278 18.36115466856736  L 10.954098360655726 18.36115466856736  C 10.86885245901639 18.36115466856736  10.783606557377055 18.317747683535288  10.740983606557363 18.274340698503217  C 10.698360655737693 18.230933713471124  10.655737704918026 18.144119743406982  10.655737704918026 18.057305773342847  L 10.655737704918026 17.275980042765518  C 10.655737704918026 17.102352102637212  10.783606557377055 16.972131147540978  10.954098360655726 16.972131147540978  L 11.039344262295087 16.972131147540978  C 11.209836065573757 16.972131147540978  11.337704918032784 17.102352102637212  11.337704918032784 17.275980042765518  L 11.337704918032784 17.66664290805417  L 14.790163934426245 17.66664290805417  L 14.790163934426245 17.275980042765518  C 14.790163934426245 17.102352102637212  14.918032786885249 16.972131147540978  15.088524590163942 16.972131147540978  L 15.173770491803278 16.972131147540978  C 15.344262295081972 16.972131147540978  15.472131147540976 17.102352102637212  15.472131147540976 17.275980042765518  Z M 18.92459016393441 14.671560940841058  C 18.92459016393441 15.583107626514623  18.41311475409835 16.277619387027787  17.731147540983613 16.277619387027787  C 17.049180327868857 16.277619387027787  16.537704918032794 15.583107626514623  16.537704918032794 14.671560940841058  C 16.537704918032794 13.760014255167496  17.091803278688527 13.065502494654305  17.731147540983613 13.065502494654305  C 18.37049180327868 13.065502494654305  18.92459016393441 13.760014255167496  18.92459016393441 14.671560940841058  Z " fill-rule="nonzero" fill="#ecd9c7" stroke="none" transform="matrix(1 0 0 1 194 140 )" />
  </g>
</svg>