<?xml version="1.0" encoding="utf-8"?>
<svg version="1.1" xmlns:xlink="http://www.w3.org/1999/xlink" width="14px" height="16px" xmlns="http://www.w3.org/2000/svg">
  <g transform="matrix(1 0 0 1 -45 -46 )">
    <path d="M 11.3203125 12.9375  C 11.55121527777778 12.673611111111109  11.666666666666668 12.361111111111109  11.666666666666668 12  C 11.666666666666668 11.63888888888889  11.55121527777778 11.32638888888889  11.3203125 11.0625  C 11.089409722222223 10.79861111111111  10.815972222222223 10.666666666666668  10.5 10.666666666666668  C 10.18402777777778 10.666666666666668  9.91059027777778 10.79861111111111  9.6796875 11.0625  C 9.448784722222223 11.32638888888889  9.333333333333332 11.63888888888889  9.333333333333332 12  C 9.333333333333332 12.361111111111109  9.448784722222223 12.673611111111109  9.6796875 12.9375  C 9.91059027777778 13.201388888888888  10.18402777777778 13.333333333333334  10.5 13.333333333333334  C 10.815972222222223 13.333333333333334  11.089409722222223 13.201388888888888  11.3203125 12.9375  Z M 4.3203125 4.9375  C 4.551215277777779 4.673611111111109  4.666666666666666 4.361111111111109  4.666666666666666 4  C 4.666666666666666 3.6388888888888875  4.551215277777779 3.3263888888888875  4.3203125 3.0625  C 4.089409722222222 2.798611111111109  3.8159722222222228 2.666666666666666  3.5 2.666666666666666  C 3.184027777777778 2.666666666666666  2.910590277777778 2.798611111111109  2.6796875 3.0625  C 2.4487847222222223 3.3263888888888875  2.333333333333333 3.6388888888888875  2.333333333333333 4  C 2.333333333333333 4.361111111111109  2.4487847222222223 4.673611111111109  2.6796875 4.9375  C 2.910590277777778 5.2013888888888875  3.184027777777778 5.333333333333334  3.5 5.333333333333334  C 3.8159722222222228 5.333333333333334  4.089409722222222 5.2013888888888875  4.3203125 4.9375  Z M 12.974609375 9.171875  C 13.658203125 9.953125  14 10.895833333333332  14 12  C 14 13.104166666666666  13.658203125 14.046875  12.974609375 14.828125  C 12.291015625 15.609375  11.466145833333332 16  10.5 16  C 9.533854166666668 16  8.708984375000002 15.609375  8.025390625 14.828125  C 7.341796875 14.046875  7 13.104166666666666  7 12  C 7 10.895833333333332  7.341796875 9.953125  8.025390625 9.171875  C 8.708984375000002 8.390625  9.533854166666668 8  10.5 8  C 11.466145833333332 8  12.291015625 8.390625  12.974609375 9.171875  Z M 12.951822916666668 0.19791666666666607  C 13.067274305555557 0.32986111111110894  13.125 0.48611111111110894  13.125 0.6666666666666661  C 13.125 0.8055555555555554  13.085503472222223 0.9375  13.006510416666668 1.0625  L 3.381510416666667 15.729166666666666  C 3.266059027777778 15.909722222222221  3.111111111111111 16  2.916666666666667 16  L 1.4583333333333335 16  C 1.3003472222222225 16  1.1636284722222223 15.934027777777779  1.0481770833333335 15.802083333333334  C 0.9327256944444443 15.670138888888888  0.875 15.513888888888888  0.875 15.333333333333334  C 0.875 15.194444444444445  0.9144965277777777 15.0625  0.9934895833333334 14.9375  L 10.618489583333332 0.2708333333333339  C 10.733940972222223 0.09027777777777679  10.88888888888889 0  11.083333333333332 0  L 12.541666666666668 0  C 12.69965277777778 0  12.83637152777778 0.06597222222222143  12.951822916666668 0.19791666666666607  Z M 5.974609375 1.171875  C 6.658203125 1.953125  7 2.895833333333334  7 4  C 7 5.104166666666666  6.658203125 6.046875  5.974609375 6.828125  C 5.291015625 7.609375  4.466145833333334 8  3.5 8  C 2.533854166666667 8  1.7089843750000002 7.609375  1.025390625 6.828125  C 0.341796875 6.046875  0 5.104166666666666  0 4  C 0 2.895833333333334  0.341796875 1.953125  1.025390625 1.171875  C 1.7089843750000002 0.390625  2.533854166666667 0  3.5 0  C 4.466145833333334 0  5.291015625 0.390625  5.974609375 1.171875  Z " fill-rule="nonzero" fill="#ecd9c7" stroke="none" transform="matrix(1 0 0 1 45 46 )" />
  </g>
</svg>