<?xml version="1.0" encoding="utf-8"?>
<svg version="1.1" xmlns:xlink="http://www.w3.org/1999/xlink" width="15px" height="20px" xmlns="http://www.w3.org/2000/svg">
  <g transform="matrix(1 0 0 1 -197 -44 )">
    <path d="M 3.1234975961538463 18.152901785714285  C 3.348858173076923 17.873883928571427  3.4615384615384617 17.53720238095238  3.4615384615384617 17.142857142857146  C 3.4615384615384617 16.748511904761905  3.348858173076923 16.411830357142854  3.1234975961538463 16.1328125  C 2.898137019230769 15.853794642857144  2.6262019230769234 15.714285714285714  2.307692307692308 15.714285714285714  C 1.9891826923076923 15.714285714285714  1.717247596153846 15.853794642857144  1.4918870192307692 16.1328125  C 1.2665264423076923 16.411830357142854  1.153846153846154 16.748511904761905  1.153846153846154 17.142857142857146  C 1.153846153846154 17.53720238095238  1.2665264423076923 17.873883928571427  1.4918870192307692 18.152901785714285  C 1.717247596153846 18.431919642857142  1.9891826923076923 18.571428571428573  2.307692307692308 18.571428571428573  C 2.6262019230769234 18.571428571428573  2.898137019230769 18.431919642857142  3.1234975961538463 18.152901785714285  Z M 6.5850360576923075 18.152901785714285  C 6.810396634615384 17.873883928571427  6.923076923076923 17.53720238095238  6.923076923076923 17.142857142857146  C 6.923076923076923 16.748511904761905  6.810396634615384 16.411830357142854  6.5850360576923075 16.1328125  C 6.359675480769231 15.853794642857144  6.087740384615385 15.714285714285714  5.769230769230769 15.714285714285714  C 5.450721153846154 15.714285714285714  5.1787860576923075 15.853794642857144  4.953425480769231 16.1328125  C 4.728064903846154 16.411830357142854  4.615384615384616 16.748511904761905  4.615384615384616 17.142857142857146  C 4.615384615384616 17.53720238095238  4.728064903846154 17.873883928571427  4.953425480769231 18.152901785714285  C 5.1787860576923075 18.431919642857142  5.450721153846154 18.571428571428573  5.769230769230769 18.571428571428573  C 6.087740384615385 18.571428571428573  6.359675480769231 18.431919642857142  6.5850360576923075 18.152901785714285  Z M 3.1234975961538463 13.8671875  C 3.348858173076923 13.588169642857144  3.4615384615384617 13.251488095238093  3.4615384615384617 12.857142857142856  C 3.4615384615384617 12.462797619047619  3.348858173076923 12.126116071428573  3.1234975961538463 11.847098214285714  C 2.898137019230769 11.568080357142856  2.6262019230769234 11.428571428571427  2.307692307692308 11.428571428571427  C 1.9891826923076923 11.428571428571427  1.717247596153846 11.568080357142856  1.4918870192307692 11.847098214285714  C 1.2665264423076923 12.126116071428573  1.153846153846154 12.462797619047619  1.153846153846154 12.857142857142856  C 1.153846153846154 13.251488095238093  1.2665264423076923 13.588169642857144  1.4918870192307692 13.8671875  C 1.717247596153846 14.146205357142856  1.9891826923076923 14.285714285714286  2.307692307692308 14.285714285714286  C 2.6262019230769234 14.285714285714286  2.898137019230769 14.146205357142856  3.1234975961538463 13.8671875  Z M 10.046574519230768 18.152901785714285  C 10.271935096153847 17.873883928571427  10.384615384615385 17.53720238095238  10.384615384615385 17.142857142857146  C 10.384615384615385 16.748511904761905  10.271935096153847 16.411830357142854  10.046574519230768 16.1328125  C 9.821213942307692 15.853794642857144  9.549278846153848 15.714285714285714  9.230769230769232 15.714285714285714  C 8.912259615384617 15.714285714285714  8.640324519230768 15.853794642857144  8.414963942307692 16.1328125  C 8.189603365384615 16.411830357142854  8.076923076923077 16.748511904761905  8.076923076923077 17.142857142857146  C 8.076923076923077 17.53720238095238  8.189603365384615 17.873883928571427  8.414963942307692 18.152901785714285  C 8.640324519230768 18.431919642857142  8.912259615384617 18.571428571428573  9.230769230769232 18.571428571428573  C 9.549278846153848 18.571428571428573  9.821213942307692 18.431919642857142  10.046574519230768 18.152901785714285  Z M 6.5850360576923075 13.8671875  C 6.810396634615384 13.588169642857144  6.923076923076923 13.251488095238093  6.923076923076923 12.857142857142856  C 6.923076923076923 12.462797619047619  6.810396634615384 12.126116071428573  6.5850360576923075 11.847098214285714  C 6.359675480769231 11.568080357142856  6.087740384615385 11.428571428571427  5.769230769230769 11.428571428571427  C 5.450721153846154 11.428571428571427  5.1787860576923075 11.568080357142856  4.953425480769231 11.847098214285714  C 4.728064903846154 12.126116071428573  4.615384615384616 12.462797619047619  4.615384615384616 12.857142857142856  C 4.615384615384616 13.251488095238093  4.728064903846154 13.588169642857144  4.953425480769231 13.8671875  C 5.1787860576923075 14.146205357142856  5.450721153846154 14.285714285714286  5.769230769230769 14.285714285714286  C 6.087740384615385 14.285714285714286  6.359675480769231 14.146205357142856  6.5850360576923075 13.8671875  Z M 3.1234975961538463 9.581473214285714  C 3.348858173076923 9.302455357142858  3.4615384615384617 8.96577380952381  3.4615384615384617 8.571428571428573  C 3.4615384615384617 8.177083333333332  3.348858173076923 7.8404017857142865  3.1234975961538463 7.561383928571428  C 2.898137019230769 7.282366071428572  2.6262019230769234 7.142857142857142  2.307692307692308 7.142857142857142  C 1.9891826923076923 7.142857142857142  1.717247596153846 7.282366071428572  1.4918870192307692 7.561383928571428  C 1.2665264423076923 7.8404017857142865  1.153846153846154 8.177083333333332  1.153846153846154 8.571428571428573  C 1.153846153846154 8.96577380952381  1.2665264423076923 9.302455357142858  1.4918870192307692 9.581473214285714  C 1.717247596153846 9.860491071428573  1.9891826923076923 10  2.307692307692308 10  C 2.6262019230769234 10  2.898137019230769 9.860491071428573  3.1234975961538463 9.581473214285714  Z M 10.046574519230768 13.8671875  C 10.271935096153847 13.588169642857144  10.384615384615385 13.251488095238093  10.384615384615385 12.857142857142856  C 10.384615384615385 12.462797619047619  10.271935096153847 12.126116071428573  10.046574519230768 11.847098214285714  C 9.821213942307692 11.568080357142856  9.549278846153848 11.428571428571427  9.230769230769232 11.428571428571427  C 8.912259615384617 11.428571428571427  8.640324519230768 11.568080357142856  8.414963942307692 11.847098214285714  C 8.189603365384615 12.126116071428573  8.076923076923077 12.462797619047619  8.076923076923077 12.857142857142856  C 8.076923076923077 13.251488095238093  8.189603365384615 13.588169642857144  8.414963942307692 13.8671875  C 8.640324519230768 14.146205357142856  8.912259615384617 14.285714285714286  9.230769230769232 14.285714285714286  C 9.549278846153848 14.285714285714286  9.821213942307692 14.146205357142856  10.046574519230768 13.8671875  Z M 6.5850360576923075 9.581473214285714  C 6.810396634615384 9.302455357142858  6.923076923076923 8.96577380952381  6.923076923076923 8.571428571428573  C 6.923076923076923 8.177083333333332  6.810396634615384 7.8404017857142865  6.5850360576923075 7.561383928571428  C 6.359675480769231 7.282366071428572  6.087740384615385 7.142857142857142  5.769230769230769 7.142857142857142  C 5.450721153846154 7.142857142857142  5.1787860576923075 7.282366071428572  4.953425480769231 7.561383928571428  C 4.728064903846154 7.8404017857142865  4.615384615384616 8.177083333333332  4.615384615384616 8.571428571428573  C 4.615384615384616 8.96577380952381  4.728064903846154 9.302455357142858  4.953425480769231 9.581473214285714  C 5.1787860576923075 9.860491071428573  5.450721153846154 10  5.769230769230769 10  C 6.087740384615385 10  6.359675480769231 9.860491071428573  6.5850360576923075 9.581473214285714  Z M 13.503605769230768 18.147321428571427  C 13.731971153846153 17.864583333333336  13.846153846153847 17.529761904761905  13.846153846153847 17.142857142857146  L 13.846153846153847 12.857142857142856  C 13.846153846153847 12.470238095238093  13.731971153846153 12.135416666666664  13.503605769230768 11.852678571428573  C 13.275240384615385 11.569940476190474  13.004807692307693 11.428571428571427  12.692307692307692 11.428571428571427  C 12.379807692307693 11.428571428571427  12.109375000000002 11.569940476190474  11.881009615384615 11.852678571428573  C 11.652644230769232 12.135416666666664  11.538461538461538 12.470238095238093  11.538461538461538 12.857142857142856  L 11.538461538461538 17.142857142857146  C 11.538461538461538 17.529761904761905  11.652644230769232 17.864583333333336  11.881009615384615 18.147321428571427  C 12.109375000000002 18.430059523809522  12.379807692307693 18.571428571428573  12.692307692307692 18.571428571428573  C 13.004807692307693 18.571428571428573  13.275240384615385 18.430059523809522  13.503605769230768 18.147321428571427  Z M 10.046574519230768 9.581473214285714  C 10.271935096153847 9.302455357142858  10.384615384615385 8.96577380952381  10.384615384615385 8.571428571428573  C 10.384615384615385 8.177083333333332  10.271935096153847 7.8404017857142865  10.046574519230768 7.561383928571428  C 9.821213942307692 7.282366071428572  9.549278846153848 7.142857142857142  9.230769230769232 7.142857142857142  C 8.912259615384617 7.142857142857142  8.640324519230768 7.282366071428572  8.414963942307692 7.561383928571428  C 8.189603365384615 7.8404017857142865  8.076923076923077 8.177083333333332  8.076923076923077 8.571428571428573  C 8.076923076923077 8.96577380952381  8.189603365384615 9.302455357142858  8.414963942307692 9.581473214285714  C 8.640324519230768 9.860491071428573  8.912259615384617 10  9.230769230769232 10  C 9.549278846153848 10  9.821213942307692 9.860491071428573  10.046574519230768 9.581473214285714  Z M 13.674879807692308 5.502232142857142  C 13.789062499999998 5.360863095238095  13.846153846153847 5.19345238095238  13.846153846153847 5  L 13.846153846153847 2.142857142857142  C 13.846153846153847 1.9494047619047605  13.789062499999998 1.7819940476190466  13.674879807692308 1.640625  C 13.560697115384617 1.4992559523809512  13.42548076923077 1.428571428571428  13.269230769230768 1.428571428571428  L 1.7307692307692308 1.428571428571428  C 1.574519230769231 1.428571428571428  1.4393028846153848 1.4992559523809512  1.3251201923076923 1.640625  C 1.2109375 1.7819940476190466  1.153846153846154 1.9494047619047605  1.153846153846154 2.142857142857142  L 1.153846153846154 5  C 1.153846153846154 5.19345238095238  1.2109375 5.360863095238095  1.3251201923076923 5.502232142857142  C 1.4393028846153848 5.643601190476188  1.574519230769231 5.7142857142857135  1.7307692307692308 6  L 13.269230769230768 6  C 13.42548076923077 5.7142857142857135  13.560697115384617 5.643601190476188  13.674879807692308 5.502232142857142  Z M 13.508112980769232 9.581473214285714  C 13.733473557692308 9.302455357142858  13.846153846153847 8.96577380952381  13.846153846153847 8.571428571428573  C 13.846153846153847 8.177083333333332  13.733473557692308 7.8404017857142865  13.508112980769232 7.561383928571428  C 13.282752403846153 7.282366071428572  13.010817307692308 7.142857142857142  12.692307692307692 7.142857142857142  C 12.373798076923077 7.142857142857142  12.101862980769232 7.282366071428572  11.876502403846153 7.561383928571428  C 11.651141826923077 7.8404017857142865  11.538461538461538 8.177083333333332  11.538461538461538 8.571428571428573  C 11.538461538461538 8.96577380952381  11.651141826923077 9.302455357142858  11.876502403846153 9.581473214285714  C 12.101862980769232 9.860491071428573  12.373798076923077 10  12.692307692307692 10  C 13.010817307692308 10  13.282752403846153 9.860491071428573  13.508112980769232 9.581473214285714  Z M 14.657451923076923 0.4241071428571419  C 14.885817307692308 0.7068452380952372  15 1.0416666666666652  15 1.428571428571428  L 15 18.571428571428573  C 15 18.958333333333336  14.885817307692308 19.293154761904763  14.657451923076923 19.575892857142858  C 14.42908653846154 19.858630952380953  14.158653846153847 20  13.846153846153847 20  L 1.153846153846154 20  C 0.841346153846154 20  0.5709134615384616 19.858630952380953  0.3425480769230769 19.575892857142858  C 0.1141826923076923 19.293154761904763  0 18.958333333333336  0 18.571428571428573  L 0 1.428571428571428  C 0 1.0416666666666652  0.1141826923076923 0.7068452380952372  0.3425480769230769 0.4241071428571419  C 0.5709134615384616 0.14136904761904878  0.841346153846154 0  1.153846153846154 0  L 13.846153846153847 0  C 14.158653846153847 0  14.42908653846154 0.14136904761904878  14.657451923076923 0.4241071428571419  Z " fill-rule="nonzero" fill="#ecd9c7" stroke="none" transform="matrix(1 0 0 1 197 44 )" />
  </g>
</svg>