<?xml version="1.0" encoding="utf-8"?>
<svg version="1.1" xmlns:xlink="http://www.w3.org/1999/xlink" width="23px" height="22px" xmlns="http://www.w3.org/2000/svg">
  <g transform="matrix(1 0 0 1 -121 -43 )">
    <path d="M 22.578402903811256 10.884210526315808  C 22.540834845735038 4.90175438596491  17.469147005444658 0.0771929824561518  11.270417422867519 0.07719298245612864  C 5.03411978221416 0.07719298245612864  0 4.90175438596491  0 10.884210526315783  C 0 12.8140350877193  0.525952813067161 14.589473684210537  1.4275862068965608 16.171929824561406  C 1.5402903811252187 16.364912280701752  1.5778584392014605 16.59649122807018  1.5027223230489994 16.78947368421053  L 0.45081669691469983 20.224561403508766  C 0.2629764065335805 20.842105263157883  0.826497277676961 21.38245614035088  1.4275862068965608 21.18947368421051  L 4.73357531760436 19.992982456140375  C 4.958983666061698 19.915789473684203  5.18439201451906 19.954385964912266  5.372232304900178 20.070175438596504  C 7.100362976406539 21.11228070175438  9.129038112522677 21.69122807017544  11.307985480943737 21.69122807017544  C 17.544283121597097 21.69122807017544  22.578402903811256 16.86666666666668  22.578402903811256 10.884210526315808  Z M 6.7622504537204975 12.736842105263149  C 6.7622504537204975 11.578947368421057  7.96442831215972 10.884210526315783  9.204174228675138 10.30526315789475  C 10.105807622504537 9.919298245614037  10.21851179673322 9.571929824561412  10.21851179673322 9.1859649122807  C 10.21851179673322 8.761403508771922  9.993103448275857 8.414035087719297  9.692558983666057 8.143859649122799  C 9.16660617059892 7.680701754385958  8.86606170598912 6.985964912280708  8.86606170598912 6.214035087719306  C 8.86606170598912 4.74736842105263  9.76769509981852 3.5122807017543867  11.270417422867519 3.5122807017543867  C 12.773139745916518 3.5122807017543867  13.637205081669698 4.74736842105263  13.637205081669698 6.214035087719306  C 13.637205081669698 6.985964912280708  13.374228675136118 7.680701754385958  12.848275862068956 8.143859649122799  C 12.547731397459156 8.414035087719297  12.322323049001819 8.761403508771922  12.322323049001819 9.1859649122807  C 12.322323049001819 9.571929824561412  12.435027223230499 9.919298245614037  13.299092558983656 10.266666666666662  C 14.576406533575318 10.807017543859654  15.703448275862078 11.578947368421057  15.778584392014517 12.736842105263149  C 15.853720508166978 13.508771929824553  15.290199637023598 14.319298245614041  14.576406533575318 14.319298245614041  L 8.039564428312158 14.319298245614041  C 7.325771324863878 14.319298245614041  6.7622504537204975 13.508771929824553  6.7622504537204975 12.736842105263149  Z M 8.941197822141557 17.02105263157896  C 8.941197822141557 17.67719298245615  8.41524500907442 18.21754385964914  7.776588021778577 18.21754385964914  C 7.137931034482759 18.21754385964914  6.6119782214155975 17.67719298245615  6.6119782214155975 17.02105263157896  C 6.6119782214155975 16.364912280701752  7.137931034482759 15.824561403508781  7.776588021778577 15.824561403508781  C 8.41524500907442 15.824561403508781  8.941197822141557 16.364912280701752  8.941197822141557 17.02105263157896  Z M 12.435027223230499 17.02105263157896  C 12.435027223230499 17.67719298245615  11.909074410163338 18.21754385964914  11.270417422867519 18.21754385964914  C 10.631760435571676 18.21754385964914  10.105807622504537 17.67719298245615  10.105807622504537 17.02105263157896  C 10.105807622504537 16.364912280701752  10.631760435571676 15.824561403508781  11.270417422867519 15.824561403508781  C 11.909074410163338 15.824561403508781  12.435027223230499 16.364912280701752  12.435027223230499 17.02105263157896  Z M 15.928856624319417 17.02105263157896  C 15.928856624319417 17.67719298245615  15.365335753176037 18.21754385964914  14.764246823956437 18.21754385964914  C 14.125589836660618 18.21754385964914  13.599637023593456 17.67719298245615  13.599637023593456 17.02105263157896  C 13.599637023593456 16.364912280701752  14.125589836660618 15.824561403508781  14.764246823956437 15.824561403508781  C 15.402903811252278 15.824561403508781  15.928856624319417 16.364912280701752  15.928856624319417 17.02105263157896  Z " fill-rule="nonzero" fill="#ecd9c7" stroke="none" transform="matrix(1 0 0 1 121 43 )" />
  </g>
</svg>