<?xml version="1.0" encoding="utf-8"?>
<svg version="1.1" xmlns:xlink="http://www.w3.org/1999/xlink" width="16px" height="20px" xmlns="http://www.w3.org/2000/svg">
  <g transform="matrix(1 0 0 1 -280 -44 )">
    <path d="M 10.333333333333334 6.25  C 9.783333333333333 6.25  9.333333333333334 5.828125  9.333333333333334 5.3125  L 9.333333333333334 0  L 1 0  C 0.4458333333333333 0  0 0.41796875  0 0.9375  L 0 19.0625  C 0 19.58203125  0.4458333333333333 20  1 20  L 15 20  C 15.554166666666667 20  16 19.58203125  16 19.0625  L 16 6.25  L 10.333333333333334 6.25  Z M 2.6666666666666665 3.4375  L 2.6666666666666665 2.8125  C 2.6666666666666665 2.63984375  2.8158333333333334 2.5  3 2.5  L 6.333333333333333 2.5  C 6.517499999999999 2.5  6.666666666666667 2.63984375  6.666666666666667 2.8125  L 6.666666666666667 3.4375  C 6.666666666666667 3.61015625  6.517499999999999 3.75  6.333333333333333 3.75  L 3 3.75  C 2.8158333333333334 3.75  2.6666666666666665 3.61015625  2.6666666666666665 3.4375  Z M 2.6666666666666665 5.9375  L 2.6666666666666665 5.3125  C 2.6666666666666665 5.139843750000001  2.8158333333333334 5  3 5  L 6.333333333333333 5  C 6.517499999999999 5  6.666666666666667 5.139843750000001  6.666666666666667 5.3125  L 6.666666666666667 5.9375  C 6.666666666666667 6.110156249999999  6.517499999999999 6.25  6.333333333333333 6.25  L 3 6.25  C 2.8158333333333334 6.25  2.6666666666666665 6.110156249999999  2.6666666666666665 5.9375  Z M 10.277083333333334 14.74609375  C 10.36125 14.9046875  10.525416666666667 15  10.700416666666667 15  L 12.666666666666666 15  C 13.034999999999998 15  13.333333333333334 15.279687500000001  13.333333333333334 15.625  C 13.333333333333334 15.970312499999999  13.034999999999998 16.25  12.666666666666666 16.25  L 10.700416666666667 16.25  C 10.015 16.25  9.397499999999999 15.892968750000001  9.090416666666668 15.317968749999999  C 8.967500000000001 15.08671875  8.753333333333334 15.06328125  8.666666666666668 15.06328125  C 8.580000000000002 15.06328125  8.365833333333335 15.086328125  8.249166666666667 15.305078125  L 7.929583333333333 15.904296875  C 7.816712479067569 16.11604669195014  7.585831783158458 16.249759044664792  7.333333333333335 16.249609375  C 7.317500000000002 16.249609375  7.302083333333335 16.248828125  7.285833333333335 16.24765625  C 7.017083333333336 16.230078125  6.785833333333335 16.062109375  6.701250000000002 15.822265624999998  L 6 13.851171874999999  L 5.557916666666666 15.096484375  C 5.312499999999999 15.786328125  4.625416666666666 16.25  3.849583333333333 16.25  L 3.3333333333333335 16.25  C 2.965 16.25  2.6666666666666665 15.970312499999999  2.6666666666666665 15.625  C 2.6666666666666665 15.279687500000001  2.965 15  3.3333333333333335 15  L 3.8495833333333334 15  C 4.050833333333333 15  4.229166666666667 14.879687500000001  4.292916666666667 14.700781249999999  L 5.050833333333333 12.56640625  C 5.1883333333333335 12.183203124999999  5.569166666666667 11.925390624999999  6 11.925390624999999  C 6.430833333333333 11.925390624999999  6.8116666666666665 12.182812499999997  6.94875 12.56640625  L 7.527083333333334 14.192968749999999  C 8.350833333333334 13.560546875  9.779166666666667 13.814062499999999  10.277083333333334 14.74609375  Z M 16 4.76171875  C 16 4.515625  15.895833333333334 4.27734375  15.708333333333334 4.1015625  L 11.629166666666668 0.2734375  C 11.441666666666668 0.09765625  11.1875 0  10.920833333333334 0  L 10.666666666666666 0  L 10.666666666666666 5  L 16 5  L 16 4.76171875  Z " fill-rule="nonzero" fill="#ecd9c7" stroke="none" transform="matrix(1 0 0 1 280 44 )" />
  </g>
</svg>