<?xml version="1.0" encoding="utf-8"?>
<svg version="1.1" xmlns:xlink="http://www.w3.org/1999/xlink" width="21px" height="21px" xmlns="http://www.w3.org/2000/svg">
  <g transform="matrix(1 0 0 1 -285 -141 )">
    <path d="M 21 0  L 21 8.311922783140062  L 13.086379572776996 8.311922783140062  L 16.287984299781733 5.022151239497258  C 13.10387468057484 1.8665370460384696  7.948649582811292 1.7498784806610657  4.7645399636043955 4.905492674119854  C 1.5804303443974979 8.061106867578642  1.5804303443974979 13.170752031108952  4.7645399636043955 16.32636622456774  C 7.948649582811292 19.481980418026524  13.10387468057484 19.481980418026524  16.287984299781733 16.32636622456774  C 17.874207406785903 14.751475591972781  18.667318960287986 12.9257690438164  18.661487257688712 10.615929449343794  L 21 10.615929449343794  C 21 12.9257690438164  19.973620342526715 15.923894174015695  17.920861027580145 17.9595861398514  C 13.82700580288556 22.013471286716197  7.178864839706326 22.013471286716197  3.085009615011745 17.9595861398514  C -1.0088456096828362 13.905700992986596  -1.038004122679237 7.3319908339698605  3.0558511020153443 3.278105687105057  C 7.143874624110644 -0.7757794597597447  13.722035156098519 -0.7757794597597447  17.810058678193826 3.278105687105057  L 21 0  Z M 9.33659480143994 5.832928268870218  L 11.086105581223949 5.832928268870218  L 11.086105581223949 10.790917297409905  L 15.16829740071997 13.217415457259914  L 14.328532226423645 14.628984098326507  L 9.33659480143994 11.665856537740437  L 9.33659480143994 5.832928268870218  Z " fill-rule="nonzero" fill="#ecd9c7" stroke="none" transform="matrix(1 0 0 1 285 141 )" />
  </g>
</svg>