<?xml version="1.0" encoding="utf-8"?>
<svg version="1.1" xmlns:xlink="http://www.w3.org/1999/xlink" width="14px" height="14px" xmlns="http://www.w3.org/2000/svg">
  <g transform="matrix(1 0 0 1 -130 -12 )">
    <path d="M 14 7  C 14 3.133064516129032  10.866935483870968 0  7 0  C 3.133064516129032 0  0 3.133064516129032  0 7  C 0 10.866935483870968  3.133064516129032 14  7 14  C 10.866935483870968 14  14 10.866935483870968  14 7  Z M 12.64516129032258 7  C 12.64516129032258 10.118951612903226  10.118951612903226 12.64516129032258  7 12.64516129032258  C 3.881048387096774 12.64516129032258  1.3548387096774193 10.118951612903226  1.3548387096774193 7  C 1.3548387096774193 3.881048387096774  3.881048387096774 1.3548387096774193  7 1.3548387096774193  C 10.118951612903226 1.3548387096774193  12.64516129032258 3.881048387096774  12.64516129032258 7  Z M 9.873387096774197 4.764516129032259  C 10.006048387096776 4.89717741935484  10.006048387096776 5.111693548387098  9.873387096774195 5.244354838709678  L 8.11774193548387 7  L 9.873387096774195 8.755645161290323  C 10.006048387096774 8.888306451612904  10.006048387096774 9.10282258064516  9.873387096774195 9.235483870967741  L 9.235483870967741 9.873387096774195  C 9.10282258064516 10.006048387096774  8.888306451612904 10.006048387096774  8.755645161290323 9.873387096774195  L 7 8.11774193548387  L 5.244354838709678 9.873387096774195  C 5.111693548387097 10.006048387096774  4.897177419354839 10.006048387096774  4.764516129032258 9.873387096774195  L 4.126612903225807 9.235483870967741  C 3.9939516129032264 9.10282258064516  3.9939516129032264 8.888306451612904  4.126612903225807 8.755645161290323  L 5.8822580645161295 7  L 4.126612903225808 5.244354838709678  C 3.9939516129032273 5.111693548387097  3.9939516129032273 4.897177419354839  4.126612903225808 4.764516129032258  L 4.764516129032259 4.126612903225807  C 4.89717741935484 3.9939516129032264  5.111693548387098 3.9939516129032264  5.244354838709679 4.126612903225807  L 7.000000000000002 5.8822580645161295  L 8.755645161290325 4.126612903225808  C 8.888306451612905 3.9939516129032273  9.102822580645162 3.9939516129032273  9.235483870967743 4.126612903225808  L 9.873387096774197 4.764516129032259  Z " fill-rule="nonzero" fill="#464444" stroke="none" transform="matrix(1 0 0 1 130 12 )" />
  </g>
</svg>