<svg t="1608222919930" class="icon" viewBox="0 0 1024 1024" version="1.1" xmlns="http://www.w3.org/2000/svg" p-id="4454" width="200" height="200"><path d="M916.6 927.1c-31.2 31.2-81.7 31.2-112.9 0L662.9 786.2c-57.9 37.1-126.4 59.3-200.3 59.3C256.8 845.5 90 678.7 90 473s166.8-372.5 372.5-372.5C668.3 100.5 835 267.3 835 473c0 73.9-22.2 142.4-59.3 200.3l140.9 140.9c31.2 31.2 31.2 81.7 0 112.9z m-454-720.2c-147 0-266.1 119.1-266.1 266.1s119.1 266 266.1 266c147 0 266.1-119.1 266.1-266.1s-119.2-266-266.1-266z m0 0" p-id="4455" fill="#A7B6C4"></path></svg>