<?xml version="1.0" encoding="utf-8"?>
<svg version="1.1" xmlns:xlink="http://www.w3.org/1999/xlink" width="10px" height="10px" xmlns="http://www.w3.org/2000/svg">
  <g transform="matrix(1 0 0 1 -559 -38 )">
    <path d="M 9.625 0.022222222222222223  C 9.83125 0.022222222222222223  10 0.1422222222222222  10 0.28888888888888886  L 10 9.711111111111112  C 10 9.857777777777779  9.83125 9.977777777777778  9.625 9.977777777777778  L 8.125 9.977777777777778  C 7.918749999999999 9.977777777777778  7.75 9.857777777777779  7.75 9.711111111111112  L 7.75 5.791111111111111  L 1.640625 9.813333333333334  C 0.9968750000000002 10.193333333333332  0 9.875555555555556  0 9.266666666666666  L 0 0.7333333333333334  C 0 0.12444444444444447  0.9968750000000002 -0.1933333333333334  1.640625 0.18666666666666665  L 7.75 4.184444444444445  L 7.75 0.28888888888888886  C 7.75 0.1422222222222222  7.918749999999999 0.022222222222222223  8.125 0.022222222222222223  L 9.625 0.022222222222222223  Z " fill-rule="nonzero" fill="#000000" stroke="none" fill-opacity="0.6431372549019608" transform="matrix(1 0 0 1 559 38 )" />
  </g>
</svg>