<?xml version="1.0" encoding="utf-8"?>
<svg version="1.1" xmlns:xlink="http://www.w3.org/1999/xlink" width="136px" height="101px" xmlns="http://www.w3.org/2000/svg">
  <defs>
    <filter x="66px" y="27px" width="136px" height="101px" filterUnits="userSpaceOnUse" id="filter772">
      <feOffset dx="-1" dy="1" in="SourceAlpha" result="shadowOffsetInner" />
      <feGaussianBlur stdDeviation="2.5" in="shadowOffsetInner" result="shadowGaussian" />
      <feComposite in2="shadowGaussian" operator="atop" in="SourceAlpha" result="shadowComposite" />
      <feColorMatrix type="matrix" values="0 0 0 0 0  0 0 0 0 0  0 0 0 0 0  0 0 0 0.34901960784313724 0  " in="shadowComposite" />
    </filter>
    <g id="widget773">
      <path d="M 62 6  L 67.5 0  L 73 6  L 62 6  Z M 0 87.39603960396039  L 0 9.00990099009901  C 0 6.99168316831683  1.759999999999991 5.405940594059405  4 6  L 122 6  C 124.24000000000001 5.405940594059405  126 6.99168316831683  126 9.00990099009901  L 126 87.39603960396039  C 126 89.41425742574258  124.24000000000001 91  122 91  L 4 91  C 1.759999999999991 91  0 89.41425742574258  0 87.39603960396039  Z " fill-rule="nonzero" fill="#ffffff" stroke="none" transform="matrix(1 0 0 1 72 31 )" />
    </g>
  </defs>
  <g transform="matrix(1 0 0 1 -66 -27 )">
    <use xlink:href="#widget773" filter="url(#filter772)" />
    <use xlink:href="#widget773" />
  </g>
</svg>