<?xml version="1.0" encoding="utf-8"?>
<svg version="1.1" xmlns:xlink="http://www.w3.org/1999/xlink" width="70px" height="127px" xmlns="http://www.w3.org/2000/svg">
  <defs>
    <filter x="50px" y="27px" width="70px" height="127px" filterUnits="userSpaceOnUse" id="filter782">
      <feOffset dx="-1" dy="1" in="SourceAlpha" result="shadowOffsetInner" />
      <feGaussianBlur stdDeviation="2.5" in="shadowOffsetInner" result="shadowGaussian" />
      <feComposite in2="shadowGaussian" operator="atop" in="SourceAlpha" result="shadowComposite" />
      <feColorMatrix type="matrix" values="0 0 0 0 0  0 0 0 0 0  0 0 0 0 0  0 0 0 0.34901960784313724 0  " in="shadowComposite" />
    </filter>
    <g id="widget783">
      <path d="M 0 115.18604651162791  L 0 5.441860465116279  C 0 4.426046511627902  0.9263157894736764 3.627906976744186  2.10526315789474 4  L 57.89473684210526 4  C 59.073684210526295 3.627906976744186  60 4.426046511627902  60 5.441860465116279  L 60 115.18604651162791  C 60 116.20186046511628  59.073684210526295 117  57.89473684210526 117  L 2.10526315789474 117  C 0.9263157894736764 117  0 116.20186046511628  0 115.18604651162791  Z M 25.26315789473685 4.534883720930233  L 30 0  L 34.73684210526315 4.534883720930233  L 25.26315789473685 4.534883720930233  Z " fill-rule="nonzero" fill="#ffffff" stroke="none" transform="matrix(1 0 0 1 56 31 )" />
    </g>
  </defs>
  <g transform="matrix(1 0 0 1 -50 -27 )">
    <use xlink:href="#widget783" filter="url(#filter782)" />
    <use xlink:href="#widget783" />
  </g>
</svg>