<?xml version="1.0" encoding="utf-8"?>
<svg version="1.1" xmlns:xlink="http://www.w3.org/1999/xlink" width="20px" height="20px" xmlns="http://www.w3.org/2000/svg">
  <g transform="matrix(1 0 0 1 -194 -49 )">
    <path d="M 19.6 10  C 19.6 4.719999999999999  15.279999999999998 0.39999999999999974  10 0.39999999999999974  C 4.719999999999999 0.39999999999999974  0.39999999999999974 4.719999999999999  0.39999999999999974 10  C 0.39999999999999974 15.279999999999998  4.719999999999999 19.6  10 19.6  C 15.279999999999998 19.6  19.6 15.279999999999998  19.6 10  Z M 17.68 10  C 17.68 14.223999999999998  14.223999999999998 17.68  10 17.68  C 5.775999999999999 17.68  2.3200000000000003 14.223999999999998  2.3200000000000003 10  C 2.3200000000000003 5.775999999999999  5.775999999999999 2.3200000000000003  10 2.3200000000000003  C 14.223999999999998 2.3200000000000003  17.68 5.775999999999999  17.68 10  Z M 13.743999999999998 12.4  L 10.959999999999999 9.616  L 10.959999999999999 5.5200000000000005  C 10.959999999999999 5.167999999999999  10.671999999999999 4.880000000000001  10.32 4.880000000000001  L 9.68 4.880000000000001  C 9.328 4.880000000000001  9.04 5.167999999999999  9.04 5.5200000000000005  L 9.04 10  C 9.04 10.255999999999998  9.136 10.512  9.328 10.671999999999999  L 12.399999999999999 13.744  C 12.655999999999999 14  13.04 14  13.296 13.744  L 13.743999999999998 13.296000000000001  C 13.999999999999996 13.040000000000001  13.999999999999996 12.656  13.743999999999998 12.4  Z " fill-rule="nonzero" fill="#ffffff" stroke="none" transform="matrix(1 0 0 1 194 49 )" />
  </g>
</svg>