<?xml version="1.0" encoding="utf-8"?>
<svg version="1.1" xmlns:xlink="http://www.w3.org/1999/xlink" width="15px" height="14px" xmlns="http://www.w3.org/2000/svg">
  <g transform="matrix(1 0 0 1 -186 -50 )">
    <path d="M 13.26787109375 13.719145507812499  L 1.0639257812499991 13.719145507812499  C 0.4849414062499995 13.719145507812499  0.01556640624999961 13.30842529296875  0 12.801728515625001  L 0 2.4715332031249995  C 0.01556640624999961 1.9648876953124996  0.48496093750000036 1.5541503906249994  1.0639257812499991 1.5541503906249994  L 2.257578125 1.5753247070312495  L 2.257578125 2.01350830078125  C 2.257578125 2.77345947265625  2.9616796875 3.510390625  3.83013671875 3.510390625  C 4.69869140625 3.510390625  5.4028125 2.70998779296875  5.4028125 1.9500878906249999  L 5.4028125 1.5541674804687498  L 9.20130859375 1.5541674804687498  L 9.20130859375 1.9500878906249999  C 9.20130859375 2.7100048828124996  9.905390624999999 3.510390625  10.773867187499999 3.510390625  C 11.6423828125 3.510390625  12.34642578125 2.70998779296875  12.34642578125 1.9500878906249999  L 12.34642578125 1.5541674804687498  L 13.267851562499999 1.5541674804687498  C 13.846914062500002 1.5541674804687498  14.3162109375 1.902099609375  14.3162109375 2.4086938476562496  L 14.3162109375 12.801745605468751  C 14.316191406250002 13.308459472656251  13.846894531250001 13.71916259765625  13.267832031250002 13.71916259765625  Z M 13.049199218750001 12.621379394531253  L 13.049199218750001 4.5034130859375  L 1.2728710937500018 4.5034130859375  L 1.2728710937500018 12.621379394531253  L 13.049199218750001 12.621379394531253  Z M 4.21287109375 5.6085449218750005  L 4.21287109375 7.0754687500000015  L 2.52884765625 7.0754687500000015  L 2.52884765625 5.6085449218750005  L 4.21287109375 5.6085449218750005  Z M 4.21287109375 7.831506347656249  L 4.21287109375 9.2849462890625  L 2.52884765625 9.2849462890625  L 2.52884765625 7.831506347656249  L 4.21287109375 7.831506347656249  Z M 4.21287109375 10.03168701171875  L 4.21287109375 11.49683349609375  L 2.52884765625 11.49683349609375  L 2.52884765625 10.03168701171875  L 4.21287109375 10.03168701171875  Z M 6.734433593750001 5.6085449218750005  L 6.734433593750001 7.0754687500000015  L 5.062070312500001 7.0754687500000015  L 5.062070312500001 5.6085449218750005  L 6.734433593750001 5.6085449218750005  Z M 6.734433593750001 7.831506347656249  L 6.734433593750001 9.2849462890625  L 5.062070312500001 9.2849462890625  L 5.062070312500001 7.831506347656249  L 6.734433593750001 7.831506347656249  Z M 6.734433593750001 10.03168701171875  L 6.734433593750001 11.49683349609375  L 5.062070312500001 11.49683349609375  L 5.062070312500001 10.03168701171875  L 6.734433593750001 10.03168701171875  Z M 9.2755859375 5.6085449218750005  L 9.2755859375 7.0754687500000015  L 7.577636718749999 7.0754687500000015  L 7.577636718749999 5.6085449218750005  L 9.2755859375 5.6085449218750005  Z M 9.2755859375 7.831506347656249  L 9.2755859375 9.2849462890625  L 7.577636718749999 9.2849462890625  L 7.577636718749999 7.831506347656249  L 9.2755859375 7.831506347656249  Z M 9.2755859375 10.03168701171875  L 9.2755859375 11.49683349609375  L 7.577636718749999 11.49683349609375  L 7.577636718749999 10.03168701171875  L 9.2755859375 10.03168701171875  Z M 11.800214843749998 5.6085449218750005  L 11.800214843749998 7.0754687500000015  L 10.112656249999999 7.0754687500000015  L 10.112656249999999 5.6085449218750005  L 11.800214843749998 5.6085449218750005  Z M 11.800214843749998 7.831506347656249  L 11.800214843749998 9.2849462890625  L 10.112656249999999 9.2849462890625  L 10.112656249999999 7.831506347656249  L 11.800214843749998 7.831506347656249  Z M 11.800214843749998 10.03168701171875  L 11.800214843749998 11.49683349609375  L 10.112656249999999 11.49683349609375  L 10.112656249999999 10.03168701171875  L 11.800214843749998 10.03168701171875  Z M 11.78951171875 1.9673144531250006  C 11.78953125 2.4660473632812505  11.327460937499998 2.8703588867187504  10.75751953125 2.8703588867187504  C 10.18755859375 2.8703588867187504  9.72546875 2.46601318359375  9.72546875 1.9673144531250006  L 9.72546875 1.2026464843750004  C 9.72546875 0.7039135742187506  10.187578124999998 0.2996191406250003  10.75751953125 0.2996191406250003  C 11.32744140625 0.2996191406250003  11.78951171875 0.7039306640625005  11.78951171875 1.2026464843750004  L 11.78951171875 1.9673144531250006  Z M 4.845820312500001 1.9673144531250006  C 4.845820312500001 2.4660473632812505  4.3837890625 2.8703588867187504  3.8137890625 2.8703588867187504  C 3.2438671874999994 2.8703588867187504  2.7817968749999995 2.46601318359375  2.7817968749999995 1.9673144531250006  L 2.7817968749999995 1.2026464843750004  C 2.7817968749999995 0.7039135742187506  3.2438671874999994 0.2996191406250003  3.8137890625 0.2996191406250003  C 4.3837890625 0.2996191406250003  4.845820312500001 0.7039306640625005  4.845820312500001 1.2026464843750004  L 4.845820312500001 1.9673144531250006  Z " fill-rule="nonzero" fill="#8a1410" stroke="none" transform="matrix(1 0 0 1 186 50 )" />
  </g>
</svg>