<?xml version="1.0" encoding="utf-8"?>
<svg version="1.1" xmlns:xlink="http://www.w3.org/1999/xlink" width="19px" height="19px" xmlns="http://www.w3.org/2000/svg">
  <g transform="matrix(1 0 0 1 -206 -11 )">
    <path d="M 9.833333333333332 4.833333333333334  L 9.833333333333332 9.833333333333332  L 8.166666666666668 9.833333333333332  L 8.166666666666668 4.833333333333334  L 9.833333333333332 4.833333333333334  Z M 9.833333333333332 11.5  L 9.833333333333332 13.166666666666668  L 8.166666666666668 13.166666666666668  L 8.166666666666668 11.5  L 9.833333333333332 11.5  Z M 8.999999999999998 0.6666666666666661  C 4.397627084743387 0.6666666666666661  0.6666666666666661 4.397627084743387  0.6666666666666661 8.999999999999998  C 0.6666666666666665 13.60237291525661  4.397627084743387 17.333333333333332  8.999999999999998 17.333333333333332  C 13.60237291525661 17.333333333333332  17.333333333333332 13.60237291525661  17.333333333333332 9  C 17.333333333333332 4.397627084743387  13.60237291525661 0.6666666666666661  9 0.6666666666666661  Z " fill-rule="nonzero" fill="#ffffff" stroke="none" fill-opacity="0.8588235294117647" transform="matrix(1 0 0 1 206 11 )" />
  </g>
</svg>