<?xml version="1.0" encoding="utf-8"?>
<svg version="1.1" xmlns:xlink="http://www.w3.org/1999/xlink" width="16px" height="16px" xmlns="http://www.w3.org/2000/svg">
  <g transform="matrix(1 0 0 1 -337 -55 )">
    <path d="M 0.8888888888889142 0  L 6.222222222222172 0  L 6.222222222222172 1.7777777777777715  L 2 1.7777777777777715  L 2 14  L 14.222222222222172 14  L 14.222222222222172 9.777777777777771  L 16 9.777777777777771  L 16 15.111111111111114  C 16 15.602030888738483  15.602030888738511 16  15.111111111111086 16  L 0.8888888888889142 16  C 0.3979691112614887 16  0 15.602030888738483  0 15.111111111111114  L 0 0.8888888888888857  C 0 0.39796911126151713  0.3979691112614887 0  0.8888888888889142 0  Z M 6.743111111111148 8  L 12.96533333333332 1.7777777777777715  L 8.888888888888914 1.7777777777777715  L 8.888888888888914 0  L 16 0  L 16 7.111111111111114  L 14.222222222222172 7.111111111111114  L 14.222222222222172 3.0346666666666664  L 8 9.256888888888895  L 6.743111111111148 8  Z " fill-rule="nonzero" fill="#333333" stroke="none" transform="matrix(1 0 0 1 337 55 )" />
  </g>
</svg>