<?xml version="1.0" encoding="utf-8"?>
<svg version="1.1" xmlns:xlink="http://www.w3.org/1999/xlink" width="11px" height="11px" xmlns="http://www.w3.org/2000/svg">
  <g transform="matrix(1 0 0 1 -55 -46 )">
    <path d="M 9.129671253971352 9.129689929622373  C 11.131395746223959 7.128339181705769  11.131395746223959 3.8716483516276408  9.129671253971352 1.8703100582031311  C 7.128332960546872 -0.13140197955726762  3.8716670516276044 -0.13140197955726762  1.8703038370442684 1.8703100582031311  C -0.13139574622395855 3.8716483516276408  -0.13139574622395855 7.128339181705769  1.8703038370442684 9.129689929622373  C 3.8716670516276044 11.131389512890678  7.128345415039064 11.131389512890678  9.129671253971352 9.129689929622373  Z M 8.60871832662761 2.3910885739583136  C 10.322844805338548 4.105053107747381  10.322844805338548 6.894934437760412  8.60871832662761 8.608699638802136  C 6.894579381249998 10.323224795182341  4.105046886588539 10.322838584179635  2.391294140039065 8.608699638802136  C 0.676781450325521 6.8945606934245225  0.676781450325521 4.105414397591176  2.391294140039065 2.3910885739583136  C 4.105059341080732 0.6771240401692467  6.89459183574219 0.6767627503255653  8.60871832662761 2.3910885739583136  Z " fill-rule="nonzero" fill="#8a8a8a" stroke="none" transform="matrix(1 0 0 1 55 46 )" />
  </g>
</svg>