<?xml version="1.0" encoding="utf-8"?>
<svg version="1.1" xmlns:xlink="http://www.w3.org/1999/xlink" width="60px" height="53px" xmlns="http://www.w3.org/2000/svg">
  <defs>
    <mask fill="white" id="clip714">
      <path d="M 0 53  L 0 8  C 0 3.5599999999999996  3.56 0  8 0  L 52 0  C 56.44 0  60 3.5599999999999996  60 8  L 60 53  " fill-rule="evenodd" />
    </mask>
  </defs>
  <g>
    <path d="M 0 0  L 60 0  L 60 53  L 0 53  L 0 0  " fill-rule="nonzero" fill="#cccccc" stroke="none" mask="url(#clip714)" />
    <path d="M 4 4  L 56 4  L 56 49  L 4 49  L 4 4  " fill-rule="nonzero" fill="#ffffff" stroke="none" mask="url(#clip714)" />
    <path d="M 35.175000000000004 15.899999999999999  C 32.949000000000005 15.899999999999999  31.200000000000003 14.151  31.200000000000003 11.924999999999999  C 31.200000000000003 9.698999999999998  32.949000000000005 7.949999999999999  35.175000000000004 7.949999999999999  C 37.401 7.949999999999999  39.150000000000006 9.698999999999998  39.150000000000006 11.924999999999999  C 39.150000000000006 14.151  37.401 15.899999999999999  35.175000000000004 15.899999999999999  " fill-rule="nonzero" fill="#cccccc" stroke="none" mask="url(#clip714)" />
    <path d="M 6 48  L 6 24.9  L 18.25 14.399999999999999  L 35.4 25.740000000000002  L 45.2 20.7  L 55 25.740000000000002  L 55 48  L 6 48  " fill-rule="nonzero" fill="#169bd5" stroke="none" mask="url(#clip714)" />
  </g>
</svg>