<?xml version="1.0" encoding="utf-8"?>
<svg version="1.1" xmlns:xlink="http://www.w3.org/1999/xlink" width="25px" height="25px" xmlns="http://www.w3.org/2000/svg">
  <g transform="matrix(1 0 0 1 -16 -398 )">
    <path d="M 23.4978857421875 23.752568359375005  C 24.459453124999996 22.791000976562508  24.459453124999996 21.232041015625  23.497929687499997 20.270517578125  L 14.7930224609375 11.56556640625  C 14.158540039062501 10.931083984375  13.2658349609375 10.724365234375  12.454384765625 10.9272607421875  L 7.473139648437499 6.007275390625001  L 5.6035742187499995 2.3765576171874976  L 1.9652539062499985 0.5030810546874989  L 0.20041015624999758 2.2679248046874996  L 2.0738867187499963 5.906245117187499  L 5.712207031249999 7.779721679687501  L 5.716997070312498 7.7749316406250015  L 10.681718749999995 12.678569335937503  C 10.465507812499997 13.498105468750005  10.668491210937496 14.405092773437502  11.311015624999996 15.0476171875  L 20.015922851562493 23.752568359375005  C 20.977446289062495 24.714091796875003  22.53640625 24.714091796875003  23.4978857421875 23.752568359375005  Z " fill-rule="nonzero" fill="#231f20" stroke="none" transform="matrix(1 0 0 1 16 398 )" />
  </g>
</svg>