<?xml version="1.0" encoding="utf-8"?>
<svg version="1.1" xmlns:xlink="http://www.w3.org/1999/xlink" width="21px" height="22px" xmlns="http://www.w3.org/2000/svg">
  <g transform="matrix(1 0 0 1 -16 -452 )">
    <path d="M 2.337075195312508 15.7126611328125  C 0.8142822265625096 16.885693359374997  0.3777294921875072 18.8713623046875  1.3600390625000003 20.148237304687505  C 2.343666992187501 21.425112304687502  4.375390625 21.507949218750007  5.898183593750002 20.3349609375  C 6.517548828125001 19.857626953125006  7.615874023437502 18.560229492187503  7.615874023437502 15.901933593750003  L 7.615874023437502 7.680512695312501  L 19.327827148437503 5.443652343749999  L 19.327827148437503 10.632714843749998  C 19.327827148437503 12.463212890624998  17.845156250000002 12.884033203125002  17.349365234375007 12.9774169921875  C 17.305991210937506 12.982690429687501  17.263891601562502 12.993193359375002  17.220473632812507 13.001103515625003  L 17.165234375000008 13.0076953125  L 17.173144531250006 13.010332031249995  C 16.586650390625007 13.116855468749996  15.996201171875004 13.362773437499996  15.466264648437505 13.770410156249998  C 13.943471679687505 14.943398437499997  13.505556640625008 16.929111328125  14.489184570312503 18.205986328124997  C 15.472812500000007 19.482861328124997  17.504536132812504 19.567016601562496  19.027329101562504 18.394028320312497  C 19.797910156250005 17.7996240234375  20.560625000000005 16.6532666015625  20.560625000000005 14.861791992187493  L 20.560625000000005 1.0975048828124994  C 20.560625000000005 0.3716162109375016  19.971494140625005 -0.03865722656249915  19.245605468750004 0.18357421874999957  L 7.410429687500006 2.4204345703124996  C 6.684541015625008 2.641347656249998  6.383032226562507 3.410654296875  6.383032226562507 4.13654296875  L 6.383032226562507 12.145664062500002  C 6.383032226562507 13.978798828125003  4.690961914062504 14.827690429687495  4.196533203125005 14.9197119140625  C 4.171528320312504 14.9236669921875  4.146567382812506 14.931533203125  4.120244140625006 14.935488281250002  C 4.084892525007213 14.9413957578655  4.049368004649063 14.946217361494966  4.013720703125006 14.949946289062499  L 4.028178710937507 14.956538085937499  C 3.4469580078125066 15.0656982421875  2.861738281250007 15.308979492187497  2.337075195312508 15.7126611328125  Z " fill-rule="nonzero" fill="#ffffff" stroke="none" transform="matrix(1 0 0 1 16 452 )" />
  </g>
</svg>