<?xml version="1.0" encoding="utf-8"?>
<svg version="1.1" xmlns:xlink="http://www.w3.org/1999/xlink" width="25px" height="31px" xmlns="http://www.w3.org/2000/svg">
  <g transform="matrix(1 0 0 1 -169 -505 )">
    <path d="M 24.422319335937495 25.493754882812496  C 23.381782226562493 24.9631591796875  20.97015136718749 24.447988281249998  19.6511328125 23.874853515625002  C 17.316186523437498 22.8602001953125  16.463076171874995 21.2824755859375  16.203007812499994 19.92197265625  C 17.884794921874995 18.568720703125  19.223676757812495 16.404677734375  19.96002441406249 14.072324218750001  C 20.716982421874995 13.107197265625  21.15801757812499 12.101201171875001  21.15801757812499 11.2489697265625  C 21.15801757812499 10.665419921875  20.945849609374992 10.243413085937501  20.574599609374992 9.930258789062503  C 20.450410156249994 4.977094726562502  16.943749999999994 1.0003955078125006  12.607006835937492 0.9389160156250007  C 12.573124999999994 0.9384326171875017  12.540253906249992 0.9331152343750002  12.506240234374994 0.9331152343750002  C 12.492924804687494 0.9331152343750002  12.480048828124993 0.935312500000002  12.46673339843749 0.9354003906250004  C 8.157456054687493 0.9593505859375  4.655498046874991 4.852465820312501  4.446230468749993 9.740239257812501  C 3.905878906249994 10.063017578125002  3.594658203124995 10.5374951171875  3.594658203124995 11.249013671875002  C 3.594658203124995 12.251713867187501  4.201059570312493 13.467109375000003  5.221953124999995 14.577958984375002  C 5.947402343749994 16.611044921875  7.127333984374997 18.476875  8.582934570312496 19.7343701171875  C 8.366503906249996 21.135039062500002  7.544594726562498 22.813310546874998  5.101542968749996 23.8748974609375  C 3.7825244140624963 24.448032226562503  1.3708935546874947 24.963203125  0.33026855468749616 25.493754882812496  C 2.9959033203124967 28.408076171875003  8.044824218749994 30.2414306640625  12.300576171874997 30.263095703124996  L 12.361044921874996 30.2646337890625  C 12.366142578124997 30.2646337890625  12.371196289062496 30.2649853515625  12.376293945312494 30.2649853515625  C 16.662543945312496 30.2649853515625  21.740820312499995 28.425478515624995  24.422319335937495 25.493754882812496  Z " fill-rule="nonzero" fill="#231f20" stroke="none" transform="matrix(1 0 0 1 169 505 )" />
  </g>
</svg>