<?xml version="1.0" encoding="utf-8"?>
<svg version="1.1" xmlns:xlink="http://www.w3.org/1999/xlink" width="21px" height="21px" xmlns="http://www.w3.org/2000/svg">
  <g transform="matrix(1 0 0 1 -18 -589 )">
    <path d="M 0.6464941406250002 11.8126904296875  L 0.6464941406250002 9.34669921875  L 3.1124853515625013 9.34669921875  L 3.1124853515625013 11.8126904296875  L 0.6464941406250002 11.8126904296875  Z M 0.6464941406250002 16.1281640625  L 0.6464941406250002 13.662172851562497  L 3.1124853515625013 13.662172851562497  L 3.1124853515625013 16.1281640625  L 0.6464941406250002 16.1281640625  Z M 0.6464941406250002 20.443637695312503  L 0.6464941406250002 17.977646484375  L 3.1124853515625013 17.977646484375  L 3.1124853515625013 20.443637695312503  L 0.6464941406250002 20.443637695312503  Z M 0.6464941406250002 7.497216796875001  L 0.6464941406250002 5.031225585937499  L 3.1124853515625013 5.031225585937499  L 3.1124853515625013 7.497216796875001  L 0.6464941406250002 7.497216796875001  Z M 0.6464941406250002 3.1817431640625  L 0.6464941406250002 0.7157519531249985  L 3.1124853515625013 0.7157519531249985  L 3.1124853515625013 3.1817431640625  L 0.6464941406250002 3.1817431640625  Z M 17.9083447265625 11.8126904296875  L 17.9083447265625 9.34669921875  L 20.3743359375 9.34669921875  L 20.3743359375 11.8126904296875  L 17.9083447265625 11.8126904296875  Z M 17.9083447265625 16.1281640625  L 17.9083447265625 13.662172851562497  L 20.3743359375 13.662172851562497  L 20.3743359375 16.1281640625  L 17.9083447265625 16.1281640625  Z M 17.9083447265625 20.443637695312503  L 17.9083447265625 17.977646484375  L 20.3743359375 17.977646484375  L 20.3743359375 20.443637695312503  L 17.9083447265625 20.443637695312503  Z M 17.9083447265625 7.497216796875001  L 17.9083447265625 5.031225585937499  L 20.3743359375 5.031225585937499  L 20.3743359375 7.497216796875001  L 17.9083447265625 7.497216796875001  Z M 17.9083447265625 3.1817431640625  L 17.9083447265625 0.7157519531249985  L 20.3743359375 0.7157519531249985  L 20.3743359375 3.1817431640625  L 17.9083447265625 3.1817431640625  Z M 5.578432617187499 9.34669921875  L 5.578432617187499 0.7157519531249985  L 15.442353515625001 0.7157519531249985  L 15.442353515625001 9.34669921875  L 5.578432617187499 9.34669921875  Z M 5.578432617187499 20.443637695312496  L 5.578432617187499 11.8126904296875  L 15.442353515625001 11.8126904296875  L 15.442353515625001 20.443637695312496  L 5.578432617187499 20.443637695312496  Z " fill-rule="nonzero" fill="#4f5d73" stroke="none" transform="matrix(1 0 0 1 18 589 )" />
  </g>
</svg>