<?xml version="1.0" encoding="utf-8"?>
<svg version="1.1" xmlns:xlink="http://www.w3.org/1999/xlink" width="22px" height="17px" xmlns="http://www.w3.org/2000/svg">
  <g transform="matrix(1 0 0 1 -257 -429 )">
    <path d="M 17.181770833333303 16.076041666666697  C 16.823697916666674 16.434114583333326  16.351041666666674 16.62890625  15.849739583333301 16.62890625  C 15.348437500000045 16.62890625  14.875781250000045 16.434114583333326  14.520572916666652 16.078906250000045  L 11.025781250000023 12.564062499999977  C 11.005729166666699 12.544010416666765  10.985677083333258 12.521093749999977  10.96848958333328 12.498177083333303  C 10.954166666666652 12.480989583333326  10.627604166666742 12.07421875  10.303906249999955 11.532812499999977  C 9.82838541666672 10.73072916666672  9.596354166666742 10.026041666666742  9.619270833333303 9.435937500000023  C 9.693750000000023 7.439322916666697  11.315104166666742 5.817968749999977  13.311718749999955 5.7434895833332575  C 14.242708333333326 5.709114583333303  15.145052083333326 6.012760416666765  15.85546875 6.5828125000000455  C 16.064583333333303 6.419531249999977  16.28515625 6.2763020833333485  16.51145833333328 6.1588541666667425  C 17.110156250000045 5.8466145833333485  17.720312499999977 5.7062499999999545  18.330468750000023 5.7434895833332575  C 20.221093750000023 5.860937499999977  21.79661458333328 7.473697916666765  21.919791666666697 9.413020833333348  C 21.95416666666665 9.977343750000045  21.767968750000023 10.647656250000068  21.35260416666665 11.464062500000068  C 21.074739583333326 12.011197916666674  20.78541666666672 12.426562500000045  20.773958333333326 12.443750000000023  C 20.745312499999955 12.486718750000023  20.71380208333335 12.523958333333326  20.676562500000045 12.561197916666742  L 17.181770833333303 16.076041666666697  Z M 11.332291666666718 9.498958333333348  C 11.317968749999977 9.945833333333326  11.862239583333348 10.865364583333303  12.274739583333258 11.383854166666765  L 15.735156250000045 14.864322916666765  C 15.772395833333348 14.901562500000068  15.818229166666699 14.91015625  15.849739583333301 14.91015625  C 15.881250000000023 14.91015625  15.924218750000023 14.901562500000068  15.964322916666674 14.861458333333303  L 19.398958333333326 11.406770833333326  C 19.751302083333258 10.876822916666697  20.229687499999955 9.954427083333258  20.201041666666697 9.521875000000023  C 20.135156250000023 8.450520833333258  19.24713541666665 7.525260416666697  18.22161458333335 7.4622395833332575  C 17.651562499999955 7.427864583333303  16.998437500000023 7.760156250000023  16.471354166666742 8.350260416666742  C 16.299479166666742 8.542187499999955  16.053125000000023 8.64817708333328  15.795312500000023 8.639583333333348  C 15.537500000000023 8.630989583333303  15.299739583333348 8.504947916666765  15.142187499999977 8.301562500000045  C 14.723958333333258 7.751562499999977  14.062239583333282 7.4364583333333485  13.369010416666699 7.4622395833332575  C 12.266145833333326 7.502343750000023  11.372395833333258 8.398958333333326  11.332291666666718 9.498958333333348  Z M 11.595833333333301 13.131250000000023  L 10.994270833333303 12.532552083333258  L 10.965625000000045 12.498177083333303  C 10.954166666666652 12.483854166666674  10.733593749999955 12.211718750000045  10.478645833333303 11.81640625  L 9.32421875 12.9765625  C 9.106510416666652 13.194270833333348  8.751302083333258 13.194270833333348  8.536458333333258 12.979427083333348  L 3.723958333333258 8.138281249999977  C 3.122395833333258 7.384895833333303  2.3088541666667197 6.02708333333328  2.3346354166667425 5.290885416666697  C 2.3976562499999545 3.5893229166666742  3.78125 2.2057291666667425  5.482812500000023 2.142708333333303  C 6.551302083333326 2.102604166666765  7.57395833333328 2.5867187500000455  8.21848958333328 3.4375  C 8.373177083333303 3.6408854166667197  8.613802083333326 3.7669270833332575  8.871614583333326 3.775520833333303  C 9.129427083333326 3.7841145833333485  9.375781250000045 3.6781250000000227  9.547656250000045 3.486197916666697  C 10.34401041666672 2.5867187500000455  11.352343750000045 2.0854166666666742  12.24609375 2.1398437499999545  C 13.830208333333301 2.2372395833333485  15.202343749999955 3.6609375000000455  15.305468750000045 5.310937500000023  C 15.348437500000045 6.0070312499999545  14.649479166666652 7.370572916666674  14.116666666666674 8.161197916666765  L 11.73046875 10.561718750000068  C 11.90234375 10.862500000000068  12.102864583333258 11.16041666666672  12.280468749999955 11.380989583333303  L 12.810416666666699 11.91380208333328  L 15.394270833333282 9.315624999999955  C 15.431510416666699 9.278385416666765  15.463020833333301 9.241145833333348  15.491666666666674 9.198177083333348  C 15.508854166666652 9.175260416666674  15.895572916666652 8.613802083333326  16.270833333333258 7.87473958333328  C 16.815104166666742 6.811979166666674  17.067187500000045 5.912500000000023  17.021354166666697 5.2020833333333485  C 16.863802083333326 2.6755208333332803  14.812760416666718 0.5757812499999773  12.354947916666674 0.423958333333303  C 11.572916666666742 0.3752604166667197  10.782291666666652 0.5557291666667652  10.008854166666652 0.9624999999999773  C 9.63645833333328 1.1572916666667652  9.275520833333303 1.4036458333332575  8.9375 1.6872395833332803  C 7.9835937499999545 0.8364583333333258  6.723177083333326 0.3752604166667197  5.4226562500000455 0.423958333333303  C 2.8273437499999545 0.521354166666697  0.7190104166667197 2.6296875000000455  0.6216145833333258 5.225000000000023  C 0.5929687499999545 5.978385416666697  0.896614583333303 6.895052083333326  1.5239583333333258 7.94921875  C 1.9593750000000227 8.682552083333348  2.400520833333303 9.22682291666672  2.4177083333332803 9.24973958333328  C 2.4348958333332575 9.272656249999955  2.454947916666697 9.29270833333328  2.4750000000000227 9.315624999999955  L 7.321874999999977 14.19114583333328  C 7.76588541666672 14.635156250000023  8.34739583333328 14.85572916666672  8.931770833333303 14.85572916666672  C 9.516145833333326 14.85572916666672  10.100520833333348 14.632291666666674  10.544531249999977 14.188281250000045  L 11.595833333333301 13.131250000000023  Z " fill-rule="nonzero" fill="#000000" stroke="none" transform="matrix(1 0 0 1 257 429 )" />
  </g>
</svg>