<?xml version="1.0" encoding="utf-8"?>
<svg version="1.1" xmlns:xlink="http://www.w3.org/1999/xlink" width="21px" height="22px" xmlns="http://www.w3.org/2000/svg">
  <g transform="matrix(1 0 0 1 -319 -479 )">
    <path d="M 20 1  L 1 1  L 1 20.049814453125002  C 0.6411328125000004 20.7006005859375  1.0418701171874982 21.288544921875  1.6545117187500011 21.538198242187498  C 1.8543972737610679 21.61897236456528  2.0679557627094773 21.66053824064536  2.283544921875002 21.6606298828125  C 2.7105615234375002 21.6606298828125  3.1310302734375024 21.496318359374996  3.444711914062502 21.188657226562498  L 10.49560546875 14.273378906249999  L 17.546455078125 21.188657226562498  C 17.860136718750002 21.496318359374996  18.28060546875 21.6606298828125  18.7076220703125 21.6606298828125  C 18.919482421875003 21.6606298828125  19.133012695312498 21.620375976562492  19.335029296875003 21.538198242187498  C 19.949296875 21.288500976562503  20.350034179687498 20.700556640624995  20 20.049814453125002  L 20 1  Z " fill-rule="nonzero" fill="#231f20" stroke="none" transform="matrix(1 0 0 1 319 479 )" />
  </g>
</svg>