<?xml version="1.0" encoding="utf-8"?>
<svg version="1.1" xmlns:xlink="http://www.w3.org/1999/xlink" width="7px" height="12px" xmlns="http://www.w3.org/2000/svg">
  <g transform="matrix(1 0 0 1 -176 -376 )">
    <path d="M 6.74753321854439 6.458422049753267  C 6.789468379934192 6.414471032072356  6.811669335937495 6.360679456208857  6.840289221833814 6.310362566817446  C 6.848193503289394 6.295057956414496  6.861004810855206 6.282246648848684  6.867927693256547 6.266438085937523  C 7.003626778371653 5.984191437088839  6.9591983141447145 5.638816591282875  6.718913348067417 5.411820363898016  L 1.2720382863898294 0.2600297800164526  C 0.9749909950658093 -0.02073150185032091  0.5067548930920793 -0.007416226356895095  0.22548964329769206 0.2891536184210395  C -0.05527163856902461 0.5862009097450596  -0.042433809621684304 1.0544370117187327  0.2546134817023358 1.3357022615131768  L 5.141955314555844 5.959046253083898  L 0.273843703741818 10.650982462993397  C -0.02023285361838134 10.934687957442407  -0.029118549547661136 11.402950580797722  0.2546134817023358 11.697531106085535  C 0.3996756938734052 11.848508264802604  0.5935959344161574 11.92402336554278  0.7875161749589097 11.92402336554278  C 0.9725507349917278 11.92402336554278  1.157585279605314 11.854953700657916  1.3011621247943594 11.716787849506602  L 6.698701711554236 6.514653870271388  C 6.709072774465426 6.504282807360198  6.712998386101958 6.489986132812476  6.723369449013148 6.4791376387746595  C 6.731273730468729 6.471737325246693  6.739655458470338 6.466299809827319  6.74753321854439 6.458422049753267  Z " fill-rule="nonzero" fill="#d7d7d7" stroke="none" transform="matrix(1 0 0 1 176 376 )" />
  </g>
</svg>