<?xml version="1.0" encoding="utf-8"?>
<svg version="1.1" xmlns:xlink="http://www.w3.org/1999/xlink" width="28px" height="23px" xmlns="http://www.w3.org/2000/svg">
  <g transform="matrix(1 0 0 1 -91 -10 )">
    <path d="M 19.68959999999999 19.749333333333333  C 19.82399999999999 19.46311111111111  19.599999999999994 19.21777777777778  19.3312 19  L 8.668799999999997 19  C 8.355199999999995 19.21777777777778  8.175999999999995 19.46311111111111  8.220799999999997 19.749333333333333  C 8.668799999999997 21.303111111111107  11.087999999999996 22.488888888888887  13.955199999999996 22.488888888888887  C 16.867199999999997 22.488888888888887  19.286399999999997 21.303111111111107  19.68959999999999 19.749333333333333  Z M 27 2.862222222222222  C 27.439999999999998 1.5128888888888887  26.2304 0.4088888888888893  24.751999999999995 0.4088888888888893  L 3.2480000000000007 0.4088888888888893  C 1.769599999999999 0.4088888888888893  0.5599999999999996 1.5128888888888887  1 2.862222222222222  L 1 14.311111111111108  C 0.5599999999999996 15.660444444444442  1.769599999999999 16.764444444444447  3.2480000000000007 16.764444444444447  L 24.751999999999995 16.764444444444447  C 26.2304 16.764444444444447  27.439999999999998 15.660444444444442  27 14.311111111111108  L 27 2.862222222222222  Z M 24.751999999999995 3.68  L 24.751999999999995 13.493333333333334  C 24.751999999999995 13.943111111111111  24.348799999999994 14.311111111111108  23.856 14  L 4.144 14  C 3.651199999999999 14.311111111111108  3.2480000000000007 13.943111111111111  3.2480000000000007 13.493333333333334  L 3.2480000000000007 3.68  C 3.2480000000000007 3.2302222222222206  3.651199999999999 2.862222222222222  4.144 3  L 23.856 3  C 24.348799999999994 2.862222222222222  24.751999999999995 3.2302222222222206  24.751999999999995 3.68  Z " fill-rule="nonzero" fill="#ffffff" stroke="none" transform="matrix(1 0 0 1 91 10 )" />
  </g>
</svg>