<?xml version="1.0" encoding="utf-8"?>
<svg version="1.1" xmlns:xlink="http://www.w3.org/1999/xlink" width="6px" height="13px" xmlns="http://www.w3.org/2000/svg">
  <g transform="matrix(1 0 0 1 -91 -13 )">
    <path d="M 0.8999999999999999 1.625  L 1.7999999999999998 1.625  L 1.7999999999999998 0.8125  C 1.7999999999999998 0.3637686407624805  2.202943725152286 0  2.7 0  C 3.1970562748477143 0  3.5999999999999996 0.3637686407624805  3.5999999999999996 0.8125  L 3.5999999999999996 1.625  L 4.5 1.625  C 4.997056274847713 1.625  5.4 1.9887686407624805  5.4 2.4375  C 5.4 2.8862313592375206  4.997056274847713 3.25  4.5 3.25  L 0.8999999999999999 3.25  C 0.40294372515228594 3.25  0 2.8862313592375206  0 2.4375  C 0 1.9887686407624805  0.40294372515228594 1.625  0.8999999999999999 1.625  Z M 0.8999999999999999 6.5  L 1.7999999999999998 6.5  L 1.7999999999999998 5.6875  C 1.7999999999999998 5.23876864076248  2.202943725152286 4.875  2.7 4.875  C 3.1970562748477143 4.875  3.5999999999999996 5.23876864076248  3.5999999999999996 5.6875  L 3.5999999999999996 6.5  L 4.5 6.5  C 4.997056274847713 6.5  5.4 6.863768640762479  5.4 7.3125  C 5.4 7.761231359237521  4.997056274847713 8.125  4.5 8.125  L 0.8999999999999999 8.125  C 0.40294372515228594 8.125  0 7.761231359237521  0 7.3125  C 0 6.863768640762479  0.40294372515228594 6.5  0.8999999999999999 6.5  Z M 0.8999999999999999 11.375  L 1.7999999999999998 11.375  L 1.7999999999999998 10.5625  C 1.7999999999999998 10.11376864076248  2.202943725152286 9.75  2.7 9.75  C 3.1970562748477143 9.75  3.5999999999999996 10.11376864076248  3.5999999999999996 10.5625  L 3.5999999999999996 11.375  L 4.5 11.375  C 4.997056274847713 11.375  5.4 11.73876864076248  5.4 12.1875  C 5.4 12.63623135923752  4.997056274847713 13  4.5 13  L 0.8999999999999999 13  C 0.40294372515228594 13  0 12.63623135923752  0 12.1875  C 0 11.73876864076248  0.40294372515228594 11.375  0.8999999999999999 11.375  Z " fill-rule="nonzero" fill="#ffffff" stroke="none" transform="matrix(1 0 0 1 91 13 )" />
  </g>
</svg>