<?xml version="1.0" encoding="utf-8"?>
<svg version="1.1" xmlns:xlink="http://www.w3.org/1999/xlink" width="26px" height="25px" xmlns="http://www.w3.org/2000/svg">
  <g transform="matrix(1 0 0 1 -235 -8 )">
    <path d="M 26 2.9000000000000004  C 25.92571428571429 1.5799999999999992  24.72228571428571 0.49999999999999967  23.25142857142857 0.49999999999999967  L 8.988571428571428 0.49999999999999967  C 7.517714285714286 0.49999999999999967  6.314285714285715 1.5799999999999992  6.314285714285715 2.9000000000000004  L 6.314285714285715 3.2999999999999994  C 6.314285714285715 3.5399999999999996  6.492571428571426 3.6999999999999997  6.760000000000002 4  L 19.685714285714283 4  C 21.15657142857143 3.6999999999999997  22.36 4.7799999999999985  22 6.1000000000000005  L 22 18.5  C 22.36 18.739999999999995  22.538285714285713 18.9  22.805714285714288 18.9  L 23.25142857142857 18.9  C 24.72228571428571 18.9  25.92571428571429 17.819999999999997  26 16.499999999999996  L 26 2.9000000000000004  Z M 19.685714285714283 8.5  C 19.685714285714283 7.180000000000001  18.482285714285712 6.1000000000000005  17.01142857142857 6.1000000000000005  L 2.7485714285714278 6.1000000000000005  C 1.2777142857142851 6.1000000000000005  0.07428571428571436 7.180000000000001  0 8.5  L 0 22.099999999999998  C 0.07428571428571436 23.419999999999998  1.2777142857142851 24.5  2.7485714285714278 24.5  L 17.01142857142857 24.5  C 18.482285714285712 24.5  19.685714285714283 23.419999999999998  19.685714285714283 22.099999999999998  L 19.685714285714283 8.5  Z M 3.6399999999999997 10.899999999999999  L 3.6399999999999997 10.099999999999998  C 3.6399999999999997 9.659999999999998  4.041142857142856 9.3  4.53142857142857 9.3  L 13.445714285714285 9.3  C 13.935999999999998 9.3  14.337142857142856 9.659999999999998  14.337142857142856 10.099999999999998  L 14.337142857142856 10.899999999999999  C 14.337142857142856 11.34  13.935999999999998 11.7  13.445714285714285 11.7  L 4.53142857142857 11.7  C 4.041142857142856 11.7  3.6399999999999997 11.34  3.6399999999999997 10.899999999999999  Z M 14.337142857142856 19.7  L 14.337142857142856 20.5  C 14.337142857142856 20.939999999999994  13.935999999999998 21.3  13.445714285714285 21.3  L 4.53142857142857 21.3  C 4.041142857142856 21.3  3.6399999999999997 20.939999999999994  3.6399999999999997 20.5  L 3.6399999999999997 19.7  C 3.6399999999999997 19.26  4.041142857142856 18.9  4.53142857142857 18.9  L 13.445714285714285 18.9  C 13.935999999999998 18.9  14.337142857142856 19.26  14.337142857142856 19.7  Z M 16.12 14.899999999999999  L 16.12 15.7  C 16.12 16.14  15.718857142857145 16.499999999999996  15.228571428571426 16  L 4.53142857142857 16  C 4.041142857142856 16.499999999999996  3.6399999999999997 16.14  3.6399999999999997 15.7  L 3.6399999999999997 14.899999999999999  C 3.6399999999999997 14.459999999999997  4.041142857142856 14.099999999999998  4.53142857142857 14  L 15.228571428571426 14  C 15.718857142857145 14.099999999999998  16.12 14.459999999999997  16.12 14.899999999999999  Z " fill-rule="nonzero" fill="#ffffff" stroke="none" transform="matrix(1 0 0 1 235 8 )" />
  </g>
</svg>