<?xml version="1.0" encoding="utf-8"?>
<svg version="1.1" xmlns:xlink="http://www.w3.org/1999/xlink" width="24px" height="28px" xmlns="http://www.w3.org/2000/svg">
  <g transform="matrix(1 0 0 1 -311 -5 )">
    <path d="M 15.5 8.75  C 14.675 8.75  14 8.159374999999999  14 7.4375  L 14 0  L 1.5 0  C 0.66875 0  0 0.5851562499999999  0 1.3125  L 0 26.6875  C 0 27.41484375  0.66875 28  1.5 28  L 22.5 28  C 23.33125 28  24 27.41484375  24 26.6875  L 24 8.75  L 15.5 8.75  Z M 4 4.8125  L 4 3.9375  C 4 3.69578125  4.22375 3.5  4.5 3.5  L 9.5 3.5  C 9.77625 3.5  10 3.69578125  10 3.9375  L 10 4.8125  C 10 5.05421875  9.77625 5.25  9.5 5.25  L 4.5 5.25  C 4.22375 5.25  4 5.05421875  4 4.8125  Z M 4 8.3125  L 4 7.4375  C 4 7.1957812500000005  4.22375 7  4.5 7  L 9.5 7  C 9.77625 7  10 7.1957812500000005  10 7.4375  L 10 8.3125  C 10 8.554218749999999  9.77625 8.75  9.5 8.75  L 4.5 8.75  C 4.22375 8.75  4 8.554218749999999  4 8.3125  Z M 15.415625 20.64453125  C 15.541875000000001 20.8665625  15.788125 21  16.050625 21  L 19 21  C 19.5525 21  20 21.391562500000003  20 21.875  C 20 22.358437499999997  19.5525 22.75  19 22.75  L 16.050625 22.75  C 15.0225 22.75  14.096249999999998 22.25015625  13.635625000000001 21.44515625  C 13.451250000000002 21.12140625  13.13 21.08859375  13.000000000000002 21.08859375  C 12.870000000000003 21.08859375  12.548750000000002 21.120859375  12.373750000000001 21.427109375  L 11.894375 22.266015624999998  C 11.725068718601353 22.562465368730194  11.378747674737687 22.74966266253071  11.000000000000002 22.749453125  C 10.976250000000002 22.749453125  10.953125000000002 22.748359375  10.928750000000003 22.746718749999996  C 10.525625000000003 22.722109375  10.178750000000003 22.486953124999996  10.051875000000003 22.151171874999996  L 9 19.391640624999997  L 8.336875 21.135078125  C 7.968749999999998 22.100859375  6.938124999999999 22.75  5.774374999999999 22.75  L 5 22.75  C 4.4475 22.75  4 22.358437499999997  4 21.875  C 4 21.391562500000003  4.4475 21  5 21  L 5.774375 21  C 6.07625 21  6.34375 20.8315625  6.439375 20.581093749999997  L 7.57625 17.59296875  C 7.782500000000001 17.056484375  8.35375 16.695546874999998  9 16.695546874999998  C 9.64625 16.695546874999998  10.2175 17.055937499999995  10.423125 17.59296875  L 11.290625 19.870156249999997  C 12.526250000000001 18.984765624999998  14.66875 19.3396875  15.415625 20.64453125  Z M 24 6.6664062500000005  C 24 6.321875  23.84375 5.98828125  23.5625 5.7421875  L 17.44375 0.3828125  C 17.1625 0.13671875  16.78125 0  16.38125 0  L 16 0  L 16 7  L 24 7  L 24 6.6664062500000005  Z " fill-rule="nonzero" fill="#ffffff" stroke="none" transform="matrix(1 0 0 1 311 5 )" />
  </g>
</svg>