<?xml version="1.0" encoding="utf-8"?>
<svg version="1.1" xmlns:xlink="http://www.w3.org/1999/xlink" width="26px" height="22px" xmlns="http://www.w3.org/2000/svg">
  <g transform="matrix(1 0 0 1 -24 -8 )">
    <path d="M 25.444251877527442 17.856730213749277  C 25.814750625842482 18.187175043327557  26 18.57269401116888  26 19.01328711727325  C 26 19.462353167725784  25.814750625842482 19.84363566339303  25.444251877527442 20.157134604274987  L 23.837088388214905 21.529751588677065  C 23.446562680531486 21.843250529559022  22.99094935490083 22  22.470248411322935 22  C 21.93953398806085 22  21.48892740227229 21.843250529559022  21.11842865395725 21.529751588677065  L 15.666088965915655 16.90352397458117  C 15.285576737916426 16.598497978047373  15.09532062391681 16.21721548238013  15.09532062391681 15.759676487579434  C 15.09532062391681 15.3106104371269  15.310610437126902 14.903909108415174  15.741190063547082 14.539572501444253  L 11.896013864818025 11.285961871750434  L 10.003466204506065 12.88734835355286  C 9.863277488927404 13.005969574427112  9.693048334296169 13.06528018486424  9.492778740612364 13.06528018486424  C 9.292509146928559 13.06528018486424  9.122279992297324 13.005969574427112  8.98209127671866 12.88734835355286  C 9.00211823608704 12.904294242249179  9.064702484113228 12.955131908338146  9.169844020797228 13.039861351819757  C 9.274985557481225 13.124590795301366  9.337569805507416 13.179664933564414  9.357596764875794 13.205083766608897  C 9.377623724244176 13.23050259965338  9.427691122665127 13.279222029655307  9.507798960138649 13.351242056614675  C 9.58790679761217 13.42326208357404  9.637974196033122 13.480454457924129  9.658001155401502 13.522819179664936  C 9.678028114769884 13.565183901405737  9.708068553822454 13.622376275755823  9.748122472559215 13.694396302715194  C 9.788176391295975 13.76641632967456  9.8157134604275 13.836318120546888  9.830733679953784 13.904101675332177  C 9.84575389948007 13.971885230117465  9.853264009243212 14.048141729250911  9.853264009243212 14.132871172732525  C 9.853264009243212 14.45484305796264  9.71307529366455 14.742923165800116  9.432697862507222 14.997111496244944  C 9.40265742345465 15.022530329289427  9.320046216060081 15.098786828422877  9.184864240323511 15.225880993645292  C 9.049682264586945 15.352975158867707  8.954554207587138 15.439822838436356  8.89948006932409 15.486424032351241  C 8.844405931061045 15.533025226266126  8.751781243982284 15.602927017138455  8.621606008087811 15.696129404968227  C 8.491430772193338 15.789331792797999  8.381282495667245 15.854997111496244  8.291161178509531 15.89312536106297  C 8.20103986135182 15.931253610629692  8.090891584825728 15.969381860196417  7.960716348931253 16.007510109763142  C 7.830541113036781 16.045638359329867  7.700365877142309 16.06470248411323  7.570190641247834 16.06470248411323  C 7.169651453880225 16.06470248411323  6.829193144617756 15.946081263238977  6.548815713460428 15.708838821490467  L 0.42056614673599074 10.523396880415945  C 0.1401887155786636 10.286154438667436  0 9.998074330829963  0 9.659156556903525  C 0 9.54900828037743  0.022530329289428074 9.438860003851339  0.06759098786828423 9.328711727325246  C 0.11265164644714037 9.21856345079915  0.15771230502599654 9.125361062969382  0.2027729636048527 9.049104563835934  C 0.24783362218370883 8.972848064702482  0.32543808973618343 8.879645676872713  0.43558636626227615 8.76949740034662  C 0.5457346427883691 8.659349123820528  0.6283458501829388 8.580974388600035  0.683419988445985 8.534373194685154  C 0.7384941267090315 8.487772000770267  0.8411322934719815 8.407279029462739  0.9913344887348353 8.292894280762566  C 1.1415366839976893 8.17850953206239  1.2316580011554015 8.108607741190065  1.2616984402079723 8.08318890814558  C 1.56210283073368 7.845946466397071  1.9025611399961488 7.7273252455228185  2.2830733679953785 7.7273252455228185  C 2.3832081648372814 7.7273252455228185  2.473329481994994 7.733679953783939  2.5534373194685154 7.74638937030618  C 2.633545156942038 7.759098786828424  2.716156364336607 7.782399383785865  2.8012709416522243 7.816291161178509  C 2.886385518967842 7.850182938571151  2.953976506836126 7.875601771615635  3.004043905257077 7.8925476603119575  C 3.0541113036780283 7.909493549008278  3.1217022915463124 7.951858270749083  3.2068168688619294 8.019641825534373  C 3.291931446177547 8.087425380319662  3.3495089543616405 8.129790102060465  3.379549393414212 8.146735990756788  C 3.4095898324667826 8.16368187945311  3.4746774504140197 8.216637781629116  3.574812247255921 8.305603697284806  C 3.6749470440978245 8.394569612940497  3.735027922202966 8.447525515116501  3.755054881571346 8.464471403812825  C 3.614866165992683 8.34585018293857  3.5447718082033504 8.201810129019833  3.5447718082033504 8.032351242056613  C 3.5447718082033504 7.862892355093394  3.614866165992683 7.718852301174658  3.755054881571346 7.600231080300405  L 8.98209127671866 3.177354130560369  C 9.122279992297324 3.058732909686114  9.292509146928559 2.999422299248989  9.492778740612364 2.999422299248989  C 9.693048334296169 2.999422299248989  9.863277488927404 3.058732909686114  10.003466204506065 3.177354130560369  C 9.983439245137687 3.1604082418640456  9.920854997111496 3.109570575775081  9.8157134604275 3.0248411322934725  C 9.710571923743501 2.9401116888118617  9.647987675717312 2.885037550548817  9.627960716348932 2.859618717504333  C 9.607933756980552 2.8341998844598493  9.557866358559599 2.7854804544579213  9.477758521086077 2.7134604274985556  C 9.397650683612557 2.641440400539188  9.347583285191604 2.584248026189099  9.327556325823224 2.5418833044482945  C 9.307529366454844 2.4995185827074877  9.277488927402274 2.442326208357402  9.23743500866551 2.3703061813980364  C 9.19738108992875 2.2982861544386655  9.169844020797228 2.228384363566339  9.154823801270942 2.160600808781051  C 9.139803581744657 2.0928172539957606  9.132293471981514 2.0165607548623123  9.132293471981514 1.931831311380704  C 9.132293471981514 1.6098594261505854  9.272482187560177 1.3217793183131132  9.552859618717505 1.067590987868285  C 9.582900057770075 1.0421721548238014  9.665511265164646 0.9659156556903532  9.800693240901213 0.8388214904679379  C 9.93587521663778 0.7117273252455225  10.03100327363759 0.6248796456768702  10.086077411900636 0.5782784517619881  C 10.141151550163682 0.5316772578471012  10.233776237242441 0.461775466974772  10.363951473136916 0.36857307914500304  C 10.49412670903139 0.2753706913152292  10.604274985557481 0.20970537261698508  10.694396302715193 0.17157712305026096  C 10.784517619872906 0.1334488734835344  10.894665896399 0.09532062391681029  11.024841132293473 0.05719237435008617  C 11.155016368187946 0.019064124783362058  11.285191604082419 0  11.415366839976892 0  C 11.815906027344504 0  12.156364336606973 0.11862122087425253  12.436741767764298 0.3558636626227625  L 18.564991334488735 5.541305603697284  C 18.845368765646064 5.778548045445791  18.985557481224728 6.066628153283266  18.985557481224728 6.405545927209705  C 18.985557481224728 6.515694203735797  18.963027151935297 6.625842480261889  18.91796649335644 6.735990756787984  C 18.872905834777587 6.846139033314074  18.82784517619873 6.9393414211438476  18.782784517619874 7.015597920277296  C 18.737723859041015 7.091854419410744  18.660119391488543 7.185056807240516  18.54997111496245 7.29520508376661  C 18.43982283843636 7.4053533602926995  18.35721163104179 7.4837280955131895  18.30213749277874 7.530329289428076  C 18.2470633545157 7.576930483342961  18.144425187752745 7.657423454650491  17.99422299248989 7.771808203350664  C 17.844020797227035 7.8861929520508385  17.753899480069325 7.956094742923165  17.723859041016752 7.981513575967649  C 17.423454650491045 8.218756017716155  17.08299634122858 8.33737723859041  16.702484113229346 8.33737723859041  C 16.602349316387446 8.33737723859041  16.512227999229733 8.33102253032929  16.43212016175621 8.318313113807047  C 16.35201232428269 8.305603697284806  16.269401116888123 8.282303100327361  16.1842865395725 8.24841132293472  C 16.09917196225689 8.214519545542075  16.0315809743886 8.189100712497593  15.981513575967648 8.172154823801272  C 15.9314461775467 8.155208935104946  15.863855189678414 8.112844213364141  15.778740612362796 8.045060658578857  C 15.69362603504718 7.977277103793567  15.636048526863085 7.934912382052762  15.606008087810514 7.917966493356442  C 15.575967648757942 7.901020604660118  15.510880030810707 7.848064702484113  15.410745233968804 7.759098786828424  C 15.310610437126902 7.670132871172732  15.250529559021762 7.617176968996726  15.23050259965338 7.600231080300405  C 15.370691315232046 7.718852301174658  15.440785673021376 7.862892355093394  15.440785673021376 8.032351242056613  C 15.440785673021376 8.201810129019833  15.370691315232046 8.34585018293857  15.23050259965338 8.464471403812825  L 13.33795493934142 10.065857885615252  L 17.18313113807048 13.319468515309072  C 17.613710764490662 12.955131908338146  18.094357789331795 12.772963604852686  18.625072212593878 12.772963604852686  C 19.14577315617177 12.772963604852686  19.601386481802425 12.929713075293666  19.991912189485845 13.24321201617562  L 25.444251877527442 17.856730213749277  Z " fill-rule="nonzero" fill="#ffffff" stroke="none" transform="matrix(1 0 0 1 24 8 )" />
  </g>
</svg>