<?xml version="1.0" encoding="utf-8"?>
<svg version="1.1" xmlns:xlink="http://www.w3.org/1999/xlink" width="23px" height="23px" xmlns="http://www.w3.org/2000/svg">
  <g transform="matrix(1 0 0 1 -16 -232 )">
    <path d="M 22.54308035714286 17.007421875000002  C 22.8203125 16.8142578125  23 16.5087890625  23 16.171875  L 23 1.078125  C 23 0.4806640625  22.450669642857143 0  21.767857142857142 0  L 4.928571428571428 0  C 2.207589285714286 0  0 1.931640625  0 4.3125  L 0 18.6875  C 0 21.068359375  2.207589285714286 23  4.928571428571428 23  L 21.767857142857142 23  C 22.450669642857143 23  23 22.5193359375  23 21.921875  L 23 21.203125  C 23 20.8662109375  22.8203125 20.5607421875  22.54308035714286 20.3630859375  C 22.32745535714286 19.6712890625  22.32745535714286 17.69921875  22.54308035714286 17.007421875000002  Z M 6.571428571428571 6.91796875  L 6.571428571428571 6.01953125  C 6.571428571428571 5.8712890625  6.7100446428571425 5.75  6.879464285714286 6  L 17.763392857142858 6  C 17.9328125 5.75  18.07142857142857 5.8712890625  18.07142857142857 6.01953125  L 18.07142857142857 6.91796875  C 18.07142857142857 7.0662109375  17.9328125 7.1875  17.763392857142858 7.1875  L 6.879464285714286 7.1875  C 6.7100446428571425 7.1875  6.571428571428571 7.0662109375  6.571428571428571 6.91796875  Z M 6.571428571428571 9.79296875  L 6.571428571428571 8.89453125  C 6.571428571428571 8.746289062499999  6.7100446428571425 8.625  6.879464285714286 9  L 17.763392857142858 9  C 17.9328125 8.625  18.07142857142857 8.746289062499999  18.07142857142857 8.89453125  L 18.07142857142857 9.79296875  C 18.07142857142857 9.941210937500001  17.9328125 10.0625  17.763392857142858 10  L 6.879464285714286 10  C 6.7100446428571425 10.0625  6.571428571428571 9.941210937500001  6.571428571428571 9.79296875  Z M 19.580803571428568 17  C 19.48325892857143 18.018164062500002  19.48325892857143 19.356835937499998  19.580803571428568 20  L 4.928571428571428 20  C 4.019866071428571 20.125  3.2857142857142856 19.4826171875  3.2857142857142856 18.6875  C 3.2857142857142856 17.896874999999998  4.025 17.25  4.928571428571428 17  L 19.580803571428568 17  Z " fill-rule="nonzero" fill="#ffffff" stroke="none" transform="matrix(1 0 0 1 16 232 )" />
  </g>
</svg>