<?xml version="1.0" encoding="utf-8"?>
<svg version="1.1" xmlns:xlink="http://www.w3.org/1999/xlink" width="25px" height="25px" xmlns="http://www.w3.org/2000/svg">
  <g transform="matrix(1 0 0 1 -16 -128 )">
    <path d="M 24.500000000000004 1.4999999999999978  C 24.58000000000001 2.1799999999999984  24.140000000000004 2.7799999999999976  23.46 2.9000000000000004  L 13.700000000000001 4.34  L 13.700000000000001 18.099999999999998  C 13.700000000000001 18.339999999999996  13.540000000000004 18.5  13.3 18.5  L 11.700000000000003 18.5  C 11.460000000000003 18.5  11.300000000000002 18.339999999999996  11.300000000000002 18.099999999999998  L 11.300000000000002 4.699999999999999  L 1.8600000000000023 6.1000000000000005  L 1.7000000000000022 6.1000000000000005  C 1.1000000000000032 6.1000000000000005  0.5800000000000027 5.659999999999998  0.5000000000000027 5.06  C 0.4200000000000026 4.419999999999999  0.8600000000000015 3.7799999999999994  1.500000000000002 3.6999999999999997  L 8.940000000000005 2.58  C 9.620000000000003 1.339999999999999  10.940000000000003 0.45999999999999963  12.46 0.45999999999999963  C 13.58 0.45999999999999963  14.540000000000003 0.9000000000000001  15.260000000000002 1.6199999999999992  L 23.14 0.49999999999999817  C 23.78 0.41999999999999815  24.42 0.8599999999999971  24.500000000000004 1.4999999999999978  Z M 4.82 20.06  C 6.300000000000002 20.06  7.739999999999999 19.259999999999998  9.020000000000001 17.659999999999997  C 9.300000000000002 17.299999999999997  9.38 16.86  9.180000000000001 16.419999999999998  L 5.980000000000001 8.82  C 5.820000000000001 8.379999999999997  5.380000000000001 8.1  4.900000000000001 8.1  C 4.420000000000002 8.1  3.9800000000000018 8.38  3.7800000000000016 8.82  L 0.5800000000000013 16.419999999999998  C 0.4200000000000011 16.779999999999998  0.46000000000000113 17.18  0.6599999999999998 17.539999999999996  C 0.74 17.659999999999997  2.3 20.06  4.82 20.06  Z M 3.180000000000001 16.499999999999996  L 4.900000000000001 12.38  L 6.620000000000002 16.499999999999996  L 3.180000000000001 16.499999999999996  Z M 24.380000000000006 14.02  L 21.22 6.420000000000001  C 21.019999999999996 5.980000000000001  20.58 5.700000000000003  20.099999999999998 5.700000000000003  C 19.619999999999997 5.700000000000003  19.18 5.980000000000005  18.98 6.420000000000001  L 15.78 14.020000000000001  C 15.620000000000001 14.38  15.660000000000002 14.780000000000001  15.86 15.14  C 15.940000000000005 15.259999999999998  17.5 17.659999999999997  20.020000000000003 17.659999999999997  C 21.500000000000004 17.659999999999997  22.900000000000002 16.86  24.220000000000006 15.259999999999998  C 24.500000000000004 14.899999999999999  24.58000000000001 14.459999999999997  24.380000000000006 14.02  Z M 18.380000000000003 14.099999999999998  L 20.099999999999998 9.979999999999999  L 21.819999999999997 14.099999999999998  L 18.380000000000003 14.099999999999998  Z M 18.619999999999997 23.060000000000002  C 17.019999999999996 21.7  14.739999999999995 20.9  12.5 20.9  C 10.259999999999998 20.9  7.980000000000001 21.7  6.380000000000003 23.060000000000002  C 6.2200000000000015 23.220000000000006  6.1000000000000005 23.420000000000005  6.1000000000000005 23.660000000000004  L 6.1000000000000005 23.7  C 6.1000000000000005 24.139999999999997  6.459999999999999 24.5  6.9 24.5  L 18.099999999999998 24.5  C 18.54 24.5  18.9 24.139999999999997  18.9 23.7  L 18.9 23.660000000000004  C 18.9 23.420000000000005  18.819999999999997 23.220000000000006  18.619999999999997 23.060000000000002  Z " fill-rule="nonzero" fill="#ffffff" stroke="none" transform="matrix(1 0 0 1 16 128 )" />
  </g>
</svg>