<?xml version="1.0" encoding="utf-8"?>
<svg version="1.1" xmlns:xlink="http://www.w3.org/1999/xlink" width="18px" height="18px" xmlns="http://www.w3.org/2000/svg">
  <defs>
    <mask fill="white" id="clip878">
      <path d="M 9 0  C 13.97056274847714 0  18 4.029437251522859  18 9  C 18 13.97056274847714  13.97056274847714 18  9 18  C 4.029437251522859 18  0 13.97056274847714  0 9  C 0 4.029437251522859  4.029437251522859 0  9 0  Z M 13.534875000000001 5.59125  L 13.53375 5.5912500000000005  C 13.375601822250905 5.433653787999943  13.16143788198147 5.3451634117031  12.938172541719878 5.3451634117031  C 12.702974692842597 5.3451634117031  12.47845133573394 5.443334104463867  12.318749999999998 5.616000000000001  L 8.411625 10.594125  L 6.057 8.238375  C 5.90081717295568 8.09284232427311  5.695274772874564 8.011921822800597  5.481796822800595 8.011921822800597  C 5.0158065651308625 8.011921822800597  4.638046822800595 8.389681565130864  4.638046822800595 8.855671822800597  C 4.638046822800595 9.069149772874566  4.71896732427311 9.27469217295568  4.8645 9.430875  L 7.84125 12.40875  C 7.9994393655517175 12.566651189263423  8.213817298105477 12.655334968417591  8.437327165772338 12.655334968417591  C 8.671693959423868 12.655334968417591  8.895501413777039 12.55785450077961  9.055125 12.38625  L 13.546125000000002 6.772499999999999  C 13.864610168490067 6.441358678710204  13.859609280328801 5.916265421777235  13.534875000000001 5.59125  Z " fill-rule="evenodd" />
    </mask>
  </defs>
  <g>
    <path d="M 9 0  C 13.97056274847714 0  18 4.029437251522859  18 9  C 18 13.97056274847714  13.97056274847714 18  9 18  C 4.029437251522859 18  0 13.97056274847714  0 9  C 0 4.029437251522859  4.029437251522859 0  9 0  Z M 13.534875000000001 5.59125  L 13.53375 5.5912500000000005  C 13.375601822250905 5.433653787999943  13.16143788198147 5.3451634117031  12.938172541719878 5.3451634117031  C 12.702974692842597 5.3451634117031  12.47845133573394 5.443334104463867  12.318749999999998 5.616000000000001  L 8.411625 10.594125  L 6.057 8.238375  C 5.90081717295568 8.09284232427311  5.695274772874564 8.011921822800597  5.481796822800595 8.011921822800597  C 5.0158065651308625 8.011921822800597  4.638046822800595 8.389681565130864  4.638046822800595 8.855671822800597  C 4.638046822800595 9.069149772874566  4.71896732427311 9.27469217295568  4.8645 9.430875  L 7.84125 12.40875  C 7.9994393655517175 12.566651189263423  8.213817298105477 12.655334968417591  8.437327165772338 12.655334968417591  C 8.671693959423868 12.655334968417591  8.895501413777039 12.55785450077961  9.055125 12.38625  L 13.546125000000002 6.772499999999999  C 13.864610168490067 6.441358678710204  13.859609280328801 5.916265421777235  13.534875000000001 5.59125  Z " fill-rule="nonzero" fill="#8a1410" stroke="none" />
    <path d="M 9 0  C 13.97056274847714 0  18 4.029437251522859  18 9  C 18 13.97056274847714  13.97056274847714 18  9 18  C 4.029437251522859 18  0 13.97056274847714  0 9  C 0 4.029437251522859  4.029437251522859 0  9 0  Z " stroke-width="2" stroke="#8a1410" fill="none" mask="url(#clip878)" />
    <path d="M 13.534875000000001 5.59125  L 13.53375 5.5912500000000005  C 13.375601822250905 5.433653787999943  13.16143788198147 5.3451634117031  12.938172541719878 5.3451634117031  C 12.702974692842597 5.3451634117031  12.47845133573394 5.443334104463867  12.318749999999998 5.616000000000001  L 8.411625 10.594125  L 6.057 8.238375  C 5.90081717295568 8.09284232427311  5.695274772874564 8.011921822800597  5.481796822800595 8.011921822800597  C 5.0158065651308625 8.011921822800597  4.638046822800595 8.389681565130864  4.638046822800595 8.855671822800597  C 4.638046822800595 9.069149772874566  4.71896732427311 9.27469217295568  4.8645 9.430875  L 7.84125 12.40875  C 7.9994393655517175 12.566651189263423  8.213817298105477 12.655334968417591  8.437327165772338 12.655334968417591  C 8.671693959423868 12.655334968417591  8.895501413777039 12.55785450077961  9.055125 12.38625  L 13.546125000000002 6.772499999999999  C 13.864610168490067 6.441358678710204  13.859609280328801 5.916265421777235  13.534875000000001 5.59125  Z " stroke-width="2" stroke="#8a1410" fill="none" mask="url(#clip878)" />
  </g>
</svg>