<?xml version="1.0" encoding="utf-8"?>
<svg version="1.1" xmlns:xlink="http://www.w3.org/1999/xlink" width="329px" height="1px" xmlns="http://www.w3.org/2000/svg">
  <defs>
    <mask fill="white" id="clip934">
      <path d="M 0 1  L 0 0  L 329 0  L 329 1  L 156.51757192995805 1  L 95.49651207820484 1  L 0 1  Z " fill-rule="evenodd" />
    </mask>
  </defs>
  <g transform="matrix(1 0 0 1 -12 -272 )">
    <path d="M 0 1  L 0 0  L 329 0  L 329 1  L 156.51757192995805 1  L 95.49651207820484 1  L 0 1  Z " fill-rule="nonzero" fill="#ffffff" stroke="none" fill-opacity="0" transform="matrix(1 0 0 1 12 272 )" />
    <path d="M 0 1  L 0 0  L 329 0  L 329 1  L 156.51757192995805 1  L 95.49651207820484 1  L 0 1  Z " stroke-width="1" stroke="#eeeeee" fill="none" transform="matrix(1 0 0 1 12 272 )" mask="url(#clip934)" />
  </g>
</svg>