<?xml version="1.0" encoding="utf-8"?>
<svg version="1.1" xmlns:xlink="http://www.w3.org/1999/xlink" width="10px" height="18px" xmlns="http://www.w3.org/2000/svg">
  <g transform="matrix(1 0 0 1 -14 -87 )">
    <path d="M 8.33592534992224 17.707303644990358  C 8.724727838258165 18.09494164072132  9.346811819595645 18.09494164072132  9.720062208398133 17.722809164819594  C 10.09331259720062 17.35067668891787  10.09331259720062 16.730455895748328  9.720062208398133 16.358323419846606  C 9.720062208398133 16.358323419846606  2.3483670295489887 8.993201500958325  2.3483670295489887 8.993201500958325  C 2.3483670295489887 8.993201500958325  9.720062208398133 1.64358510189928  9.720062208398133 1.64358510189928  C 10.09331259720062 1.2714526259975558  10.09331259720062 0.6512318328280164  9.720062208398133 0.2790993569262932  C 9.346811819595645 -0.09303311897543103  8.724727838258165 -0.09303311897543103  8.351477449455675 0.2790993569262932  C 8.351477449455675 0.2790993569262932  0.2799377916018665 8.31095862847183  0.2799377916018665 8.31095862847183  C -0.09331259720062215 8.683091104373556  -0.09331259720062215 9.303311897543095  0.2799377916018665 9.675444373444819  C 0.2799377916018665 9.675444373444819  8.33592534992224 17.707303644990358  8.33592534992224 17.707303644990358  Z " fill-rule="nonzero" fill="#4b5559" stroke="none" transform="matrix(1 0 0 1 14 87 )" />
  </g>
</svg>