<?xml version="1.0" encoding="utf-8"?>
<svg version="1.1" xmlns:xlink="http://www.w3.org/1999/xlink" width="120px" height="120px" xmlns="http://www.w3.org/2000/svg">
  <g transform="matrix(1 0 0 1 -167 -374 )">
    <path d="M 168 382  A 7 7 0 0 1 175 375 L 279 375  A 7 7 0 0 1 286 382 L 286 486  A 7 7 0 0 1 279 493 L 175 493  A 7 7 0 0 1 168 486 L 168 382  Z " fill-rule="nonzero" fill="#000000" stroke="none" fill-opacity="0.6980392156862745" />
    <path d="M 167.5 382  A 7.5 7.5 0 0 1 175 374.5 L 279 374.5  A 7.5 7.5 0 0 1 286.5 382 L 286.5 486  A 7.5 7.5 0 0 1 279 493.5 L 175 493.5  A 7.5 7.5 0 0 1 167.5 486 L 167.5 382  Z " stroke-width="1" stroke="#000000" fill="none" stroke-opacity="0.6980392156862745" />
  </g>
</svg>