<?xml version="1.0" encoding="utf-8"?>
<svg version="1.1" xmlns:xlink="http://www.w3.org/1999/xlink" width="28px" height="22px" xmlns="http://www.w3.org/2000/svg">
  <g transform="matrix(1 0 0 1 -308 -697 )">
    <path d="M 12.371263651096058 7.820703198296087  C 12.371263651096058 7.820703198296087  12.37205096343041 1.5408067892308281  12.37205096343041 1.5408067892308281  C 12.37205096343041 0.053937369986897465  13.353019330406937 -0.25073584150277384  14.143406916490903 0.17811823561191886  C 14.143406916490903 0.17811823561191886  14.260389254903373 0.24789171822874323  14.260389254903373 0.24789171822874323  C 14.260389254903373 0.24789171822874323  27.539745131188738 9.841736943282399  27.539745131188738 9.841736943282399  C 28.10958449257413 10.422887062004634  28.150287304101653 11.339098822687674  27.66185356577131 11.968114890261518  C 27.66185356577131 11.968114890261518  27.539745131188738 12.107891065452009  27.539745131188738 12.107891065452009  C 27.539745131188738 12.107891065452009  14.260389254903373 21.701783818905824  14.260389254903373 21.701783818905824  C 13.418903590294235 22.15567590803846  12.4595119890339 22.27920985708124  12.37767734254362 20.68524486386002  C 12.37767734254362 20.68524486386002  12.37205096343041 20.457110074120237  12.37205096343041 20.457110074120237  L 12.371263651096058 14.12677133859529  C 12.371263651096058 14.12677133859529  1.8883382914729623 21.701783818905824  1.8883382914729623 21.701783818905824  C 1.0468526268638811 22.15567590803846  0.0874610256035453 22.27920985708124  0.005626379113209623 20.68524486386002  C 0.005626379113209623 20.68524486386002  0 20.457110074120237  0 20.457110074120237  C 0 20.457110074120237  0 1.5408067892308281  0 1.5408067892308281  C 0 0.053937369986897465  0.9809683669765263 -0.25073584150277384  1.7713559530605496 0.17811823561191886  C 1.7713559530605496 0.17811823561191886  1.8883382914729623 0.24789171822874323  1.8883382914729623 0.24789171822874323  L 12.371263651096058 7.820703198296087  Z " fill-rule="nonzero" fill="#2b3133" stroke="none" transform="matrix(1 0 0 1 308 697 )" />
  </g>
</svg>