<?xml version="1.0" encoding="utf-8"?>
<svg version="1.1" xmlns:xlink="http://www.w3.org/1999/xlink" width="17px" height="18px" xmlns="http://www.w3.org/2000/svg">
  <g transform="matrix(1 0 0 1 -366 -78 )">
    <path d="M 15.046165063966328 15.874683251773575  C 15.046165063966328 15.874683251773575  15.05208332860866 5.988572237160781  15.05208332860866 5.988572237160781  C 15.05208332860866 5.4425988664707745  15.488139328529087 5  16.026041664304103 5  C 16.5255224046673 5  16.93718666156292 5.381628614456929  16.993447469995317 5.873283830299897  C 16.993447469995317 5.873283830299897  17 5.988572237160781  17 5.988572237160781  C 17 5.988572237160781  17 15.945823927765247  17 15.945823927765247  C 17 17.028746313284074  16.174409378561904 17.91594837573706  15.127229753725715 17.994365665742038  C 15.127229753725715 17.994365665742038  14.976190476190368 18  14.976190476190368 18  C 14.976190476190368 18  2.023809523809632 18  2.023809523809632 18  C 0.9568958025456595 18  0.08280910286794096 17.162021682343322  0.005551042817387497 16.099129496412132  C 0.005551042817387497 16.099129496412132  0 15.945823927765247  0 15.945823927765247  C 0 15.945823927765247  0 5.988572237160781  0 5.988572237160781  C 0 5.4425988664707745  0.436055999920427 5  0.9739583356958974 5  C 1.4734390760586393 5  1.8851033329547136 5.381628614456929  1.9413641413866571 5.873283830299897  C 1.9413641413866571 5.873283830299897  1.94791667139134 5.988572237160781  1.94791667139134 5.988572237160781  C 1.94791667139134 5.988572237160781  1.94791667139134 15.829179774329077  1.94791667139134 15.829179774329077  C 1.94791667139134 15.875681479762704  1.9661163225982818 15.920278596407542  1.9985119094867514 15.953160267656386  C 2.0201089674123978 15.975081381822264  2.0468359177316415 15.99059852234737  2.075828812497093 15.998507603345644  C 2.075828812497093 15.998507603345644  14.87934038051253 16.004514669462253  14.87934038051253 16.004514669462253  C 14.92515465885117 16.004514669462253  14.969092503624779 15.986041938905231  15.001488090513249 15.953160267656386  C 15.023085148438895 15.93123915349048  15.038372901617095 15.904111174704155  15.046165063966328 15.874683251773575  Z M 5.211437848178775 2.6519438606731853  C 5.211437848178775 2.6519438606731853  5.300775822891865 2.557589877729896  5.300775822891865 2.557589877729896  C 5.300775822891865 2.557589877729896  7.760954495265196 0.2862294506226135  7.760954495265196 0.2862294506226135  C 8.142483134697159 -0.06601693828605448  8.72655383532583 -0.09315065851450299  9.139286694560269 0.2048537966983872  C 9.139286694560269 0.2048537966983872  9.238684005322284 0.28612863725084026  9.238684005322284 0.28612863725084026  L 11.730550485007825 2.5874489666131524  C 12.070895155352446 2.931625832507166  12.087346014920968 3.4603229062523155  11.78827148543678 3.822245332371949  C 11.78827148543678 3.822245332371949  11.698889048457204 3.916552606943185  11.698889048457204 3.916552606943185  C 11.698889048457204 3.916552606943185  11.535288939227485 4.06744700539781  11.535288939227485 4.06744700539781  C 11.243717323659894 4.336374231330296  10.799932859050841 4.360751007764009  10.480767458654555 4.1406245393866925  C 10.480767458654555 4.1406245393866925  10.389033242375262 4.0672515487338785  10.389033242375262 4.0672515487338785  C 10.389033242375262 4.0672515487338785  9.887083773988252 3.6039576682414918  9.887083773988252 3.6039576682414918  C 9.843968201670577 3.564162465603374  9.780432717919211 3.5530370307943713  9.725595215760677 3.5756800771871724  C 9.68446708914189 3.5926623619817804  9.65417729789533 3.6261843597829397  9.641602910185611 3.6661831757205334  C 9.641602910185611 3.6661831757205334  9.635188363216457 8.991795561458162  9.635188363216457 8.991795561458162  C 9.635188363216457 9.54861149757653  9.167803796542557 10  8.591255715182797 10  C 8.055889639634643 10  7.61464924766733 9.610792566787921  7.554346365526726 9.109373497738659  C 7.554346365526726 9.109373497738659  7.5473230671491365 8.991795561458162  7.5473230671491365 8.991795561458162  C 7.5473230671491365 8.991795561458162  7.5473230671491365 3.53801045244046  7.5473230671491365 3.53801045244046  C 7.5473230671491365 3.4804123254201897  7.511753716763906 3.428365344793548  7.456916214604917 3.4057222984007183  C 7.4157880879861295 3.3887400136061103  7.369767346721346 3.390752499487519  7.331138101931174 3.409608736340857  C 7.331138101931174 3.409608736340857  6.701435088241396 3.9822485463559474  6.701435088241396 3.9822485463559474  C 6.360391680853809 4.297027888851403  5.8396065467227345 4.323175484765727  5.468702981871957 4.060747580229673  C 5.468702981871957 4.060747580229673  5.371511187012402 3.982021611322608  5.371511187012402 3.982021611322608  L 5.269793460603523 3.886765406196645  C 4.9292580539049595 3.5427363546136235  4.912535828388627 3.0140245540386275  5.211437848178775 2.6519438606731853  Z " fill-rule="nonzero" fill="#4b5559" stroke="none" transform="matrix(1 0 0 1 366 78 )" />
  </g>
</svg>