<?xml version="1.0" encoding="utf-8"?>
<svg version="1.1" xmlns:xlink="http://www.w3.org/1999/xlink" width="65px" height="65px" xmlns="http://www.w3.org/2000/svg">
  <g>
    <path d="M 65 32.5  C 65 50.44925436950086  50.44925436950081 65  32.5 65  C 14.550745630499222 65  0 50.44925436950086  0 32.5  C 0 14.550745630499136  14.550745630499222 0  32.5 0  C 50.44925436950081 0  65 14.55074563049925  65 32.5  Z M 29.53566031248934 40.515173343073  C 29.53566031248934 40.515173343073  29.545454545454533 40.30738497425307  29.545454545454533 40.30738497425307  C 29.545454545454533 40.30738497425307  29.545454545454533 23.215342298474184  29.545454545454533 23.215342298474184  C 29.545454545454533 21.816115565516498  28.22265948813643 20.68181818181813  26.590909090909093 20.68181818181813  C 25.040746213543116 20.68181818181813  23.76941553044523 21.705521570605924  23.646157869328846 23.00755392965425  C 23.646157869328846 23.00755392965425  23.636363636363626 23.215342298474184  23.636363636363626 23.215342298474184  C 23.636363636363626 23.215342298474184  23.636363636363626 40.30738497425307  23.636363636363626 40.30738497425307  C 23.636363636363626 41.706611707210755  24.959158693681758 42.84090909090912  26.590909090909093 42.84090909090912  C 28.14107196827507 42.84090909090912  29.412402651372958 41.81720570212133  29.53566031248934 40.515173343073  Z M 42.840909090909065 40.30738497425307  C 42.840909090909065 40.30738497425307  42.840909090909065 23.215342298474184  42.840909090909065 23.215342298474184  C 42.840909090909065 21.816115565516498  41.51811403359096 20.68181818181813  39.886363636363626 20.68181818181813  C 38.33620075899762 20.68181818181813  37.06487007589976 21.705521570605924  36.94161241478338 23.00755392965425  C 36.94161241478338 23.00755392965425  36.93181818181819 23.215342298474184  36.93181818181819 23.215342298474184  C 36.93181818181819 23.215342298474184  36.93181818181819 40.30738497425307  36.93181818181819 40.30738497425307  C 36.93181818181819 41.706611707210755  38.25461323913629 42.84090909090912  39.886363636363626 42.84090909090912  C 41.43652651372963 42.84090909090912  42.70785719682749 41.81720570212133  42.831114857943874 40.515173343073  C 42.831114857943874 40.515173343073  42.840909090909065 40.30738497425307  42.840909090909065 40.30738497425307  Z " fill-rule="nonzero" fill="#41c872" stroke="none" />
  </g>
</svg>