<?xml version="1.0" encoding="utf-8"?>
<svg version="1.1" xmlns:xlink="http://www.w3.org/1999/xlink" width="16px" height="16px" xmlns="http://www.w3.org/2000/svg">
  <g transform="matrix(1 0 0 1 -320 -40 )">
    <path d="M 6.4 14.4  C 6.4 13.516  5.684 12.8  4.8 12.8  C 3.9159999999999995 12.8  3.2079999999999997 13.516  3.2079999999999997 14.4  C 3.2079999999999997 15.284  3.9159999999999995 16  4.8 16  C 5.684 16  6.4 15.284  6.4 14.4  Z M 2.6119999999999997 0  L 0 0  L 0 1.6  L 1.6 1.6  L 4.476000000000001 7.668000000000001  L 3.396000000000001 9.628  C 3.2720000000000007 9.86  3.2000000000000006 10.120000000000001  3.2000000000000006 10.4  C 3.2000000000000006 11.284  3.9160000000000013 12  4.800000000000001 12  L 14.4 12  L 14.4 10.4  L 5.14 10.4  C 5.0280000000000005 10.4  4.9399999999999995 10.312000000000001  4.9399999999999995 10.2  C 4.9399999999999995 10.164  4.9479999999999995 10.132  4.964 10.104000000000001  L 5.68 8.8  L 11.64 8.8  C 12.24 8.8  12.764000000000001 8.468  13.040000000000001 7.976000000000001  L 15.9 2.7840000000000003  C 15.963999999999999 2.6720000000000006  16 2.5400000000000005  16 2.4  C 16 1.9560000000000002  15.64 1.6  15.2 1.6  L 3.372 1.6  L 2.6119999999999997 0  Z M 14.4 14.4  C 14.4 13.516  13.684000000000001 12.8  12.8 12.8  C 11.916 12.8  11.208 13.516  11.208 14.4  C 11.208 15.284  11.916 16  12.8 16  C 13.684000000000001 16  14.4 15.284  14.4 14.4  Z " fill-rule="nonzero" fill="#ffffff" stroke="none" transform="matrix(1 0 0 1 320 40 )" />
  </g>
</svg>