<?xml version="1.0" encoding="utf-8"?>
<svg version="1.1" xmlns:xlink="http://www.w3.org/1999/xlink" width="15px" height="16px" xmlns="http://www.w3.org/2000/svg">
  <g transform="matrix(1 0 0 1 -197 -71 )">
    <path d="M 14.950286322236195 3.6936312408822687  C 14.949873546378427 3.26970257698504  14.606095520548052 2.9262592999217105  14.182166645728671 2.9748743718593005  L 10.60558607097991 2.9748743718593005  C 10.561208002179768 1.296823671377524  9.22709492914447 -0.0008064763402160224  7.597055040829162 0  C 5.965081218592985 0  4.63676521670854 1.2950336527865858  4.580670791457294 2.9748743718593005  L 0.7722332600502568 2.9748743718593005  C 0.34830438523087537 2.9180321173261348  0.004526359400472302 3.261475394389464  0.004113583542704191 3.685404058286693  C 0.004526368061362973 4.109332716050076  0.34830439135626534 4.452775983552172  0.7722332600502568 4.502512562814076  L 1.6884422110552748 4.502512562814076  L 1.6884422110552748 13.055042719972093  C 1.6203809673367005 14.670188175100137  2.7168400125628125 15.989155072491087  4.068715672110557 15.91959798994975  L 10.965712280150768 15.91959798994975  C 12.317587939698512 15.989155072491087  13.414046969221118 14.67804139413667  13.346733668341727 13.055042719972093  L 13.346733668341727 4.502512562814076  L 14.182166645728671 4.502512562814076  C 14.60624142761344 4.461376979002111  14.950079858938153 4.117705962540654  14.950286322236195 3.6936312408822687  Z M 12.140703517587951 13.10590166978173  C 12.169498649497513 13.983966394746702  11.634357836055301 14.598387313094292  11.147832176507563 14.552763819095475  L 4.154353156407041 14.552763819095475  L 4.154353156407041 14.590534094057759  C 3.667827512562809 14.590534094057759  3.1323127198492386 13.975739196447606  3.1356783919598 13.09804845074521  L 3.1356783919598 4.5829145728643255  L 12.140703517587951 4.5829145728643255  L 12.140703517587951 13.10590166978173  Z M 5.91310039258795 2.814070351758801  C 5.968820854271371 1.999205652567369  6.645319629396994 1.3903941719020168  7.481126570351762 1.3903941719020168  C 8.31693351130653 1.3903941719020168  8.993806250000006 1.9988316890083269  9.041299513190978 2.814070351758801  L 5.91310039258795 2.814070351758801  Z M 4.5829145728643255 7.370807521984915  L 4.5829145728643255 11.746172722989954  C 4.522706548366841 12.172490358040207  4.826738332286425 12.512796545226138  5.218277434045234 12.512796545226138  C 5.600841410175889 12.512796545226138  5.91310039258795 12.172490358040207  5.949748743718601 11.746172722989954  L 5.949748743718601 7.370807521984915  C 5.91310039258795 6.944489886934676  5.60046746231157 6.604183699748745  5.217903470477381 6.604183715452265  C 4.835713457914579 6.604183715452265  4.522706548366841 6.944489902638196  4.5829145728643255 7.370807521984915  Z M 6.994974874371877 7.370807521984915  L 6.994974874371877 11.746172722989954  C 6.955708778266342 12.172490358040207  7.268715672110574 12.512796545226138  7.651279648241228 12.512796545226138  C 8.033843624371883 12.512796545226138  8.346476554648262 12.172490358040207  8.281407035175903 11.746172722989954  L 8.281407035175903 7.370807521984915  C 8.346476570351768 6.944489886934676  8.033469676507536 6.604183699748745  7.6509056846733765 6.604183715452265  C 7.268715672110574 6.604183715452265  6.9557087625628355 6.944489902638196  6.994974874371877 7.370807521984915  Z M 9.736496435301518 6.604183715452265  C 9.354306407035182 6.604183731155786  9.041299513190978 6.944489902638196  9.005025125628151 7.370807521984915  L 9.005025125628151 11.746172722989954  C 9.041299513190978 12.172490358040207  9.345331297110562 12.512796545226138  9.736496435301518 12.512796545226138  C 10.11868644786432 12.512796545226138  10.431693357412087 12.172490358040207  10.371859296482427 11.746172722989954  L 10.371859296482427 7.370807521984915  C 10.431693357412087 6.944489886934676  10.118686463567855 6.604183699748745  9.736496435301518 6.604183715452265  Z " fill-rule="nonzero" fill="#ffffff" stroke="none" transform="matrix(1 0 0 1 197 71 )" />
  </g>
</svg>