<?xml version="1.0" encoding="utf-8"?>
<svg version="1.1" xmlns:xlink="http://www.w3.org/1999/xlink" width="15px" height="15px" xmlns="http://www.w3.org/2000/svg">
  <g transform="matrix(1 0 0 1 -159 -71 )">
    <path d="M 14.820007818967326 13.713231697537253  C 15.015431595353904 13.517589513917642  15.015431595353904 13.20077782233031  14.819968083867934 13.005195202555882  L 12.69524309292217 10.880668731891546  C 12.499839145281442 10.685026548271935  12.182789217715253 10.685026548271935  11.987226446088584 10.880668731891546  L 11.9300069717508 10.937848509933787  C 11.9300069717508 10.937848509933787  10.880301453849313 9.894198481477645  10.852466027266132 9.876707044184599  C 11.683994961972246 8.841534716473518  12.181895798841083 7.526975650610524  12.181895798841083 6.095972371688731  C 12.181895798841083 2.758976568967313  9.476815934136994 0.053956268108436234  6.139998822951156 0.053956268108436234  C 2.803181711765319 0.053956268108436234  0.09812171461092589 2.759016284664739  0.09812171461092589 6.095972371688731  C 0.09812171461092589 9.43259094319123  2.8031817311672285 12.13784948002899  6.139998822951156 12.13784948002899  C 7.571240357253714 12.13784948002899  8.885958247102621 11.639829515469785  9.921110726665972 10.808102041080303  C 9.938622031508714 10.8358779038183  10.982192628569976 11.88538488203642  10.982192628569976 11.88538488203642  L 10.92489372283734 11.942644072071602  C 10.729489775196612 12.138306123240909  10.729489775196612 12.45557445804016  10.92489372283734 12.650938689983434  L 13.049499605494645 14.775524705091073  C 13.245102092818684 14.971166888710684  13.56213217223717 14.971166888710684  13.757734659561265 14.775524705091073  L 14.820007818967326 13.713231697537253  Z M 9.85489732512417 6.095972371688731  C 9.85489732512417 8.14743577323054  8.191740176169276 9.810434098199494  6.139998803549247 9.810434098199494  C 4.08851553445777 9.810434098199494  2.425556925186271 8.147455640780208  2.425556925186271 6.095972371688731  C 2.425556925186271 4.0440126112375765  4.08851553445777 2.381034153818291  6.139998803549247 2.381034153818291  C 8.191720328021518 2.381034153818291  9.85489732512417 4.0440126112375765  9.85489732512417 6.095972371688731  Z " fill-rule="nonzero" fill="#669df6" stroke="none" transform="matrix(1 0 0 1 159 71 )" />
  </g>
</svg>