<?xml version="1.0" encoding="utf-8"?>
<svg version="1.1" xmlns:xlink="http://www.w3.org/1999/xlink" width="220px" height="48px" xmlns="http://www.w3.org/2000/svg">
  <defs>
    <filter x="124px" y="286px" width="220px" height="48px" filterUnits="userSpaceOnUse" id="filter712">
      <feOffset dx="0" dy="0" in="SourceAlpha" result="shadowOffsetInner" />
      <feGaussianBlur stdDeviation="2" in="shadowOffsetInner" result="shadowGaussian" />
      <feComposite in2="shadowGaussian" operator="atop" in="SourceAlpha" result="shadowComposite" />
      <feColorMatrix type="matrix" values="0 0 0 0 1  0 0 0 0 0  0 0 0 0 0  0 0 0 0.6470588235294118 0  " in="shadowComposite" />
    </filter>
    <g id="widget713">
      <path d="M 128.5 293  A 2.5 2.5 0 0 1 131 290.5 L 337 290.5  A 2.5 2.5 0 0 1 339.5 293 L 339.5 327  A 2.5 2.5 0 0 1 337 329.5 L 131 329.5  A 2.5 2.5 0 0 1 128.5 327 L 128.5 293  Z " fill-rule="nonzero" fill="#ffffff" stroke="none" fill-opacity="0" />
      <path d="M 128.5 293  A 2.5 2.5 0 0 1 131 290.5 L 337 290.5  A 2.5 2.5 0 0 1 339.5 293 L 339.5 327  A 2.5 2.5 0 0 1 337 329.5 L 131 329.5  A 2.5 2.5 0 0 1 128.5 327 L 128.5 293  Z " stroke-width="1" stroke="#ff0000" fill="none" />
    </g>
  </defs>
  <g transform="matrix(1 0 0 1 -124 -286 )">
    <use xlink:href="#widget713" filter="url(#filter712)" />
    <use xlink:href="#widget713" />
  </g>
</svg>