<?xml version="1.0" encoding="utf-8"?>
<svg version="1.1" xmlns:xlink="http://www.w3.org/1999/xlink" width="12px" height="20px" xmlns="http://www.w3.org/2000/svg">
  <g transform="matrix(1 0 0 1 -33 -360 )">
    <path d="M 7.428571435546876 10.533333339843749  L 10.785714278738839 10.533333339843749  L 10.785714278738839 6.866666679687499  L 7.500000000000002 6.866666679687499  L 7.499999999999998 4.666666660156251  C 7.499999999999998 4.666666660156251  7.499999999999998 3.6666666601562503  8.71428572126116 3.6666666601562503  C 9.928571442522319 3.6666666601562503  11.928571435546875 3.6666666601562503  11.928571435546875 3.6666666601562503  L 11.928571435546875 0  L 6.785714292689731 0  C 3.2142857142857144 0  2.9285714355468753 3.9333333398437498  2.9285714355468753 3.9333333398437498  L 2.9285714355468753 6.800000000000001  L 0.07142858537946495 6.800000000000001  L 0.07142858537946495 10.46666666015625  L 2.9285714355468753 10.46666666015625  L 2.9285714355468753 20  L 7.428571435546876 20  L 7.428571435546876 10.533333339843749  Z " fill-rule="nonzero" fill="#ffffff" stroke="none" transform="matrix(1 0 0 1 33 360 )" />
  </g>
</svg>