<?xml version="1.0" encoding="utf-8"?>
<svg version="1.1" xmlns:xlink="http://www.w3.org/1999/xlink" width="8px" height="11px" xmlns="http://www.w3.org/2000/svg">
  <g transform="matrix(1 0 0 1 -28 -119 )">
    <path d="M 7.815142187499987 8.967339024697594  C 7.482170312499976 8.779063130040186  6.710448437499988 8.596260553175625  6.288362499999999 8.392890152469818  C 5.541179687499986 8.032851877520216  5.26818437500002 7.473014112903229  5.184962500000008 6.99025500882044  C 5.723134374999997 6.510068831905073  6.151576562499991 5.742182617187609  6.3872078124999865 4.914573305191425  C 6.629434374999998 4.572108902469608  6.770565624999993 4.215142546623156  6.770565624999993 3.9127378402217796  C 6.770565624999993 3.705671780493958  6.702671874999977 3.55592741935493  6.583871875000012 3.4448081527216345  C 6.544131250000015 1.687233807963594  5.422000000000001 0.276146988407163  4.034242187500013 0.25433168472773104  C 4.023399999999987 0.2541601562500091  4.012881250000015 0.2522733429939308  4.001996874999981 0.2522733429939308  C 3.9977359374999852 0.2522733429939308  3.993615624999999 0.2530530178930803  3.989354687500003 0.2530842048890918  C 2.6103859374999905 0.2615826612902765  1.4897593750000244 1.6430106476814217  1.4227937500000079 3.3773818674394533  C 1.2498812499999934 3.4919161101308873  1.1502906249999745 3.6602791078628343  1.1502906249999745 3.912753433719899  C 1.1502906249999745 4.268550277217628  1.3443390624999867 4.699819650957579  1.6710249999999987 5.093992092994085  C 1.9031687500000014 5.815409683719736  2.2807468750000024 6.4774784211188035  2.74653906249998 6.923686365927551  C 2.677281249999977 7.420697927167339  2.4142703124999922 8.01621361517141  1.6324937499999932 8.39290574596771  C 1.2104078124999786 8.596276146673517  0.43868593749999085 8.779078723538305  0.10568593749998298 8.967339024697594  C 0.9586890624999947 10.001453030493849  2.57434375 10.65199817288294  3.9361843749999883 10.659685767389192  L 3.955534374999969 10.660231539818597  C 3.9571656249999907 10.660231539818597  3.9587828125000013 10.660356287802415  3.960414062500023 10.660356287802415  C 5.332014062499992 10.660356287802415  6.957062500000019 10.007628055695704  7.815142187499987 8.967339024697594  Z " fill-rule="nonzero" fill="#ffffff" stroke="none" transform="matrix(1 0 0 1 28 119 )" />
  </g>
</svg>