<?xml version="1.0" encoding="utf-8"?>
<svg version="1.1" xmlns:xlink="http://www.w3.org/1999/xlink" width="14px" height="15px" xmlns="http://www.w3.org/2000/svg">
  <g transform="matrix(1 0 0 1 -84 -334 )">
    <path d="M 13.95360056742045 3.462779288327127  C 13.953215309953197 3.065346165923475  13.632355819178184 2.7433680936766036  13.23668886934676 2.788944723618094  L 9.89854699958125 2.788944723618094  C 9.857127468701117 1.2157721919164288  8.611955267201507 -0.000756071568952521  7.090584704773884 0  C 5.567409137353453 0  4.327647535594637 1.2140940494874242  4.275292738693474 2.788944723618094  L 0.720751042713573 2.788944723618094  C 0.32508409288215034 2.7356551099932513  0.004224602107107482 3.0576331822401226  0.003839344639857245 3.4550663046437746  C 0.004224610190605441 3.8524994212969466  0.32508409859918097 4.174477484580161  0.720751042713573 4.221105527638196  L 1.5758793969849232 4.221105527638196  L 1.5758793969849232 12.239102549973836  C 1.5123555695142539 13.753301414156379  2.5357173450586252 14.989832880460394  3.7974679606365194 14.92462311557789  L 10.234664794807385 14.92462311557789  C 11.496415410385278 14.989832880460394  12.519777171273045 13.760663807003128  12.456951423785611 12.239102549973836  L 12.456951423785611 4.221105527638196  L 13.23668886934676 4.221105527638196  C 13.632491999105879 4.182540917814479  13.953407868342277 3.8603493398818634  13.95360056742045 3.462779288327127  Z M 11.331323283082087 12.286782815420372  C 11.358198739531012 13.109968495075034  10.85873398031828 13.6859881060259  10.404643364740393 13.643216080402008  L 3.8773962793132384 13.643216080402008  L 3.8773962793132384 13.678625713179148  C 3.423305678391955 13.678625713179148  2.9234918718592895 13.102255496669631  2.9266331658291467 12.279420422573635  L 2.9266331658291467 4.296482412060305  L 11.331323283082087 4.296482412060305  L 11.331323283082087 12.286782815420372  Z M 5.5188936997487525 2.6381909547738758  C 5.570899463986613 1.8742552992819084  6.202298320770527 1.3034945361581407  6.982384798994978 1.3034945361581407  C 7.762471277219428 1.3034945361581407  8.394219166666673 1.8739047084453064  8.438546212311579 2.6381909547738758  L 5.5188936997487525 2.6381909547738758  Z M 4.277386934673371 6.910132051860858  L 4.277386934673371 11.01203692780308  C 4.221192778475718 11.411709710662695  4.504955776800664 11.730746761149504  4.870392271775551 11.730746761149504  C 5.2274519828308295 11.730746761149504  5.5188936997487525 11.411709710662695  5.553098827470694 11.01203692780308  L 5.553098827470694 6.910132051860858  C 5.5188936997487525 6.510459269001259  5.227102964824133 6.1914222185144485  4.870043239112222 6.191422233236499  C 4.513332560720274 6.191422233236499  4.221192778475718 6.510459283723309  4.277386934673371 6.910132051860858  Z M 6.528643216080418 6.910132051860858  L 6.528643216080418 11.01203692780308  C 6.491994859715252 11.411709710662695  6.784134627303202 11.730746761149504  7.14119433835848 11.730746761149504  C 7.498254049413758 11.730746761149504  7.790044784338377 11.411709710662695  7.729313232830843 11.01203692780308  L 7.729313232830843 6.910132051860858  C 7.790044798994984 6.510459269001259  7.497905031407034 6.1914222185144485  7.1408453056951515 6.191422233236499  C 6.784134627303202 6.191422233236499  6.491994845058647 6.510459283723309  6.528643216080418 6.910132051860858  Z M 9.087396672948085 6.191422233236499  C 8.730685979899503 6.191422247958549  8.438546212311579 6.510459283723309  8.40469011725294 6.910132051860858  L 8.40469011725294 11.01203692780308  C 8.438546212311579 11.411709710662695  8.722309210636524 11.730746761149504  9.087396672948085 11.730746761149504  C 9.444107351340033 11.730746761149504  9.736247133584614 11.411709710662695  9.680402010050265 11.01203692780308  L 9.680402010050265 6.910132051860858  C 9.736247133584614 6.510459269001259  9.444107365996665 6.1914222185144485  9.087396672948085 6.191422233236499  Z " fill-rule="nonzero" fill="#ffffff" stroke="none" transform="matrix(1 0 0 1 84 334 )" />
  </g>
</svg>