<?xml version="1.0" encoding="utf-8"?>
<svg version="1.1" xmlns:xlink="http://www.w3.org/1999/xlink" width="20px" height="20px" xmlns="http://www.w3.org/2000/svg">
  <g transform="matrix(1 0 0 1 -10 -10 )">
    <path d="M 16.427083333333336 5.541666666666667  L 7.520833333333334 14.447916666666668  L 2.572916666666667 9.5  L 3.9682291666666667 8.094791666666666  L 7.520833333333334 11.647395833333334  L 15.031770833333333 4.136458333333334  L 16.427083333333336 5.541666666666667  Z M 18.40625 2.572916666666667  C 18.40625 1.4744791666666668  17.515625000000004 0.59375  16.427083333333336 0.59375  L 2.572916666666667 0.59375  C 1.4744791666666668 0.59375  0.59375 1.4744791666666668  0.59375 2.572916666666667  L 0.59375 16.427083333333336  C 0.59375 17.520146900706777  1.4798530992932213 18.40625  2.572916666666667 18.40625  L 16.427083333333336 18.40625  C 17.520146900706777 18.40625  18.40625 17.520146900706777  18.40625 16.427083333333336  L 18.40625 2.572916666666667  Z " fill-rule="nonzero" fill="#88150e" stroke="none" transform="matrix(1 0 0 1 10 10 )" />
  </g>
</svg>