<?xml version="1.0" encoding="utf-8"?>
<svg version="1.1" xmlns:xlink="http://www.w3.org/1999/xlink" width="35px" height="38px" xmlns="http://www.w3.org/2000/svg">
  <g transform="matrix(1 0 0 1 -234 -184 )">
    <path d="M 4 34  L 4 7.6000000000000005  L 0 7.6000000000000005  L 0 34.2  C 0 36.2995  1.56625 38  3.5 38  L 28 38  L 28 34  L 4 34  Z M 35 3.8000000000000003  C 35 1.7005  33.43375 0  31.5 0  L 10.5 0  C 8.566249999999998 0  7 1.7005  7 3.8000000000000003  L 7 26.599999999999998  C 7 28.6995  8.566249999999998 30.400000000000002  10.5 30  L 31.5 30  C 33.43375 30.400000000000002  35 28.6995  35 26.599999999999998  L 35 3.8000000000000003  Z M 29.75 14  L 29.75 17.1  L 12.25 17.1  L 12.25 14  L 29.75 14  Z M 22.75 21  L 22.75 24  L 12.25 24  L 12.25 21  L 22.75 21  Z M 29.75 6  L 29.75 10  L 12.25 10  L 12.25 6  L 29.75 6  Z " fill-rule="nonzero" fill="#ffffff" stroke="none" transform="matrix(1 0 0 1 234 184 )" />
  </g>
</svg>