<?xml version="1.0" encoding="utf-8"?>
<svg version="1.1" xmlns:xlink="http://www.w3.org/1999/xlink" width="26px" height="26px" xmlns="http://www.w3.org/2000/svg">
  <g transform="matrix(1 0 0 1 -522 -196 )">
    <path d="M 13 26  C 20.17967974713008 26  26 20.179697286331418  26 12.999973521210507  C 26 5.820249756089595  20.17967974713008 0  13 0  C 5.820320252869919 0  0 5.820302713668582  0 12.999973521210507  C 0 20.179644328752488  5.820320252869919 26  13 26  Z M 18.134193153235913 8.35930112504559  C 18.531826494093536 7.911537070152406  19.209625213118784 7.877666124291579  19.64809367604289 8.283625005295221  C 20.086615728366098 8.689583886298863  20.11984115576928 9.381667445664561  19.722207814911656 9.829431500557746  C 19.722207814911656 9.829431500557746  11.01055433919214 19.640679005692505  11.01055433919214 19.640679005692505  C 10.813368726543445 19.862760272729417  10.535598180426916 19.99253074737794  10.24210512864397 19.99968761978164  C 9.948612076860968 20.006844492185337  9.665091280382796 19.89076119171642  9.457747912683999 19.678544424974632  C 9.457747912683999 19.678544424974632  5.3129830229331105 15.435921182136438  5.3129830229331105 15.435921182136438  C 4.8949321210421886 15.00802005672216  4.8957895514267875 14.315060996332647  5.314858651899385 13.888199528384234  C 5.733927752371983 13.461502216877761  6.412530312382785 13.462213561459635  6.83058121427365 13.890114686873915  C 6.83058121427365 13.890114686873915  10.17943634952087 17.318084227005272  10.17943634952087 17.318084227005272  C 10.17943634952087 17.318084227005272  18.134193153235913 8.35930112504559  18.134193153235913 8.35930112504559  Z " fill-rule="nonzero" fill="#00cc99" stroke="none" transform="matrix(1 0 0 1 522 196 )" />
  </g>
</svg>