<?xml version="1.0" encoding="utf-8"?>
<svg version="1.1" xmlns:xlink="http://www.w3.org/1999/xlink" width="26px" height="25px" xmlns="http://www.w3.org/2000/svg">
  <g transform="matrix(1 0 0 1 -596 -474 )">
    <path d="M 13 25  C 20.17967974713008 25  26 19.40355508301098  26 12.499974539625487  C 26 5.5963939962399945  20.17967974713008 0  13 0  C 5.820320252869919 0  0 5.596444916989022  0 12.499974539625487  C 0 19.40350416226201  5.820320252869919 25  13 25  Z M 18.134193153235913 8.037789543313067  C 18.531826494093536 7.607247182838852  19.209625213118784 7.57467896566498  19.64809367604289 7.965024043553097  C 20.086615728366098 8.355369121441214  20.11984115576928 9.02083408236977  19.722207814911656 9.451376442843987  C 19.722207814911656 9.451376442843987  11.01055433919214 18.88526827470433  11.01055433919214 18.88526827470433  C 10.813368726543445 19.098807954547517  10.535598180426916 19.223587257094174  10.24210512864397 19.23046886517465  C 9.948612076860968 19.237350473255134  9.665091280382796 19.125731915111942  9.457747912683999 18.921677331706377  C 9.457747912683999 18.921677331706377  5.3129830229331105 14.842231905900421  5.3129830229331105 14.842231905900421  C 4.8949321210421886 14.430788516079  4.8957895514267875 13.76448172724293  5.314858651899385 13.354038008061764  C 5.733927752371983 12.943752131613232  6.412530312382785 12.944436116788111  6.83058121427365 13.355879506609533  C 6.83058121427365 13.355879506609533  10.17943634952087 16.652004064428148  10.17943634952087 16.652004064428148  C 10.17943634952087 16.652004064428148  18.134193153235913 8.037789543313067  18.134193153235913 8.037789543313067  Z " fill-rule="nonzero" fill="#00cc99" stroke="none" transform="matrix(1 0 0 1 596 474 )" />
  </g>
</svg>