<?xml version="1.0" encoding="utf-8"?>
<svg version="1.1" xmlns:xlink="http://www.w3.org/1999/xlink" width="44px" height="50px" xmlns="http://www.w3.org/2000/svg">
  <g transform="matrix(1 0 0 1 -406 -250 )">
    <path d="M 43.12589285714286 36.97265625  C 43.65625 36.552734375  44 35.888671875  44 35.15625  L 44 2.34375  C 44 1.044921875  42.949107142857144 0  41.64285714285714 0  L 9.428571428571429 0  C 4.223214285714286 0  0 4.19921875  0 9.375  L 0 40.625  C 0 45.80078125  4.223214285714286 50  9.428571428571429 50  L 41.64285714285714 50  C 42.949107142857144 50  44 48.955078125  44 47.65625  L 44 46.09375  C 44 45.361328125  43.65625 44.697265625  43.12589285714286 44.267578125  C 42.713392857142864 42.763671875  42.713392857142864 38.4765625  43.12589285714286 36.97265625  Z M 12.571428571428571 15.0390625  L 12.571428571428571 13.0859375  C 12.571428571428571 12.763671874999998  12.836607142857142 12.5  13.160714285714285 13  L 33.98214285714286 13  C 34.30625 12.5  34.57142857142857 12.763671874999998  34.57142857142857 13.0859375  L 34.57142857142857 15.0390625  C 34.57142857142857 15.361328125000002  34.30625 15.625  33.98214285714286 16  L 13.160714285714285 16  C 12.836607142857142 15.625  12.571428571428571 15.361328125000002  12.571428571428571 15.0390625  Z M 12.571428571428571 21.2890625  L 12.571428571428571 19.3359375  C 12.571428571428571 19.013671875  12.836607142857142 18.75  13.160714285714285 19  L 33.98214285714286 19  C 34.30625 18.75  34.57142857142857 19.013671875  34.57142857142857 19.3359375  L 34.57142857142857 21.2890625  C 34.57142857142857 21.611328125  34.30625 21.875  33.98214285714286 22  L 13.160714285714285 22  C 12.836607142857142 21.875  12.571428571428571 21.611328125  12.571428571428571 21.2890625  Z M 37.458928571428565 37  C 37.27232142857143 39.169921875  37.27232142857143 42.080078125  37.458928571428565 43  L 9.428571428571429 43  C 7.690178571428571 43.75  6.285714285714286 42.353515625  6.285714285714286 40.625  C 6.285714285714286 38.90625  7.700000000000001 37.5  9.428571428571429 37  L 37.458928571428565 37  Z " fill-rule="nonzero" fill="#000000" stroke="none" transform="matrix(1 0 0 1 406 250 )" />
  </g>
</svg>