<?xml version="1.0" encoding="utf-8"?>
<svg version="1.1" xmlns:xlink="http://www.w3.org/1999/xlink" width="50px" height="39px" xmlns="http://www.w3.org/2000/svg">
  <g transform="matrix(1 0 0 1 -394 -151 )">
    <path d="M 50 2.7577951002227175  C 50 1.2195100222717148  48.666666666666664 0.0008685968819600468  47.067708333333336 0.0912026726057904  C 42.31076388888889 0.36133630289532265  32.85590277777778 1.3445879732739416  27.01909722222222 4.919732739420936  C 26.616319444444446 5.166414253897551  26.388020833333336 5.605055679287305  26 6.063674832962138  L 26 37.66930957683742  C 26.388020833333336 38.67253897550112  27.484375 39.306614699331845  28.408854166666664 38.84104677060134  C 34.4140625 35.816592427616925  43.09895833333333 34.991425389755015  47.393229166666664 34.76559020044544  C 48.859375 34.688285077951  49.99913194444445 33.51220489977728  50 32.10247216035634  L 50 2.7577951002227175  Z M 24 6.048040089086859  C 23.61111111111111 5.588552338530065  23.383680555555557 5.16728285077951  22.98003472222222 4.919732739420936  C 17.14409722222222 1.3445879732739416  7.689236111111112 0.362204899777283  2.9322916666666665 0.0912026726057904  C 1.3333333333333333 0.0008685968819600468  0 1.2195100222717148  0 2.7577951002227175  L 0 32.10334075723831  C 0 33.5139420935412  1.1397569444444444 34.69002227171492  2.6059027777777777 34.766458797327395  C 6.901909722222223 34.99229398663697  15.591145833333334 35.81832962138085  21.596354166666668 38.844521158129176  C 22.51822916666667 39.30922048997773  23.61111111111111 38.67601336302896  24 37.67538975501114  L 24 6.048040089086859  Z " fill-rule="nonzero" fill="#000000" stroke="none" transform="matrix(1 0 0 1 394 151 )" />
  </g>
</svg>