<?xml version="1.0" encoding="utf-8"?>
<svg version="1.1" xmlns:xlink="http://www.w3.org/1999/xlink" width="40px" height="40px" xmlns="http://www.w3.org/2000/svg">
  <g transform="matrix(1 0 0 1 -408 -435 )">
    <path d="M 4 36  L 4 8  L 0 8  L 0 36  C 0 38.2  1.7999999999999998 40  4 40  L 32 40  L 32 36  L 4 36  Z M 40 4  C 40 1.7999999999999998  38.2 0  36 0  L 12 0  C 9.8 0  8 1.7999999999999998  8 4  L 8 28  C 8 30.200000000000003  9.8 32  12 32  L 36 32  C 38.2 32  40 30.200000000000003  40 28  L 40 4  Z M 36 4  L 36 20  L 31 17  L 26 20  L 26 4  L 36 4  Z " fill-rule="nonzero" fill="#000000" stroke="none" transform="matrix(1 0 0 1 408 435 )" />
  </g>
</svg>