<?xml version="1.0" encoding="utf-8"?>
<svg version="1.1" xmlns:xlink="http://www.w3.org/1999/xlink" width="36px" height="38px" xmlns="http://www.w3.org/2000/svg">
  <g transform="matrix(1 0 0 1 -234 -331 )">
    <path d="M 35.23050259965338 30.843443096476026  C 35.74350086655113 31.414211438474872  36 32.08010783747352  36 32.84113229347198  C 36 33.616791835162715  35.74350086655113 34.27537069131523  35.23050259965338 34.81686886192952  L 33.0051993067591 37.187752744078566  C 32.46447140381282 37.729250914692855  31.83362218370884 38  31.11265164644714 38  C 30.377816291161178 38  29.753899480069325 37.729250914692855  29.240901213171576 37.187752744078566  L 21.69150779896014 29.196995956094746  C 21.16464471403813 28.670132871172733  20.901213171577123 28.011554015020224  20.901213171577123 27.221259387637204  C 20.901213171577123 26.445599845946465  21.19930675909879 25.74311573271712  21.79549393414211 25.113807047949166  L 16.471403812824956 19.493934142114384  L 13.850953206239167 22.259965337954938  C 13.656845753899482 22.46485653764683  13.421143847487002 22.56730213749278  13.143847487001734 22.56730213749278  C 12.866551126516466 22.56730213749278  12.630849220103988 22.46485653764683  12.436741767764298 22.259965337954938  C 12.464471403812826 22.28923550933949  12.551126516464471 22.37704602349316  12.696707105719238 22.523396880415945  C 12.842287694974004 22.669747737338724  12.928942807625653 22.764875794338533  12.956672443674176 22.808781051415366  C 12.984402079722704 22.852686308492203  13.053726169844023 22.9368380512228  13.164644714038129 23.061236279607165  C 13.275563258232236 23.185634507991523  13.344887348353554 23.284421336414404  13.372616984402079 23.357596764875797  C 13.400346620450609 23.430772193337184  13.441941074523397 23.529559021760058  13.497400346620452 23.653957250144426  C 13.552859618717505 23.778355478528784  13.590987868284229 23.89909493549008  13.611785095320624 24.016175621028303  C 13.63258232235702 24.13325630656653  13.642980935875217 24.26497207779703  13.642980935875217 24.411322934719816  C 13.642980935875217 24.96745619102638  13.44887348353553 25.46504910456384  13.060658578856152 25.90410167533218  C 13.019064124783363 25.94800693240901  12.90467937608319 26.079722703639515  12.717504332755631 26.299248989023685  C 12.530329289428078 26.518775274407858  12.398613518197577 26.668784902753707  12.322357019064125 26.749277874061235  C 12.246100519930678 26.829770845368763  12.11785095320624 26.95051030233006  11.937608318890815 27.11149624494512  C 11.75736568457539 27.27248218756018  11.604852686308492 27.385904101675333  11.48006932409012 27.45176198729058  C 11.35528596187175 27.517619872905833  11.202772963604854 27.583477758521084  11.022530329289427 27.649335644136336  C 10.842287694974004 27.71519352975159  10.662045060658581 27.748122472559213  10.481802426343155 27.748122472559213  C 9.927209705372618 27.748122472559213  9.455805892547662 27.543231272867324  9.067590987868284 27.133448873483534  L 0.5823223570190641 18.176776429809358  C 0.19410745233968807 17.766994030425572  0 17.26940111688812  0 16.683997689196996  C 0 16.49374157519738  0.031195840554592718 16.303485461197766  0.09358752166377816 16.113229347198153  C 0.1559792027729636 15.922973233198533  0.21837088388214904 15.761987290583479  0.2807625649913345 15.630271519352977  C 0.3431542461005199 15.49855574812247  0.45060658578856166 15.337569805507412  0.6031195840554593 15.147313691507797  C 0.7556325823223572 14.957057577508184  0.8700173310225305 14.821683034854606  0.9462738301559792 14.741190063547084  C 1.022530329289428 14.660697092239552  1.1646447140381282 14.521663778162912  1.3726169844020797 14.324090121317159  C 1.5805892547660312 14.126516464471402  1.7053726169844021 14.005777007510112  1.7469670710571923 13.961871750433275  C 2.1629116117850953 13.552089351049485  2.6343154246100524 13.347198151357595  3.1611785095320624 13.347198151357595  C 3.2998266897746973 13.347198151357595  3.424610051993068 13.358174465626805  3.535528596187175 13.380127094165221  C 3.646447140381283 13.40207972270364  3.760831889081456 13.442326208357404  3.878682842287695 13.500866551126517  C 3.9965337954939346 13.559406893895625  4.090121317157712 13.60331215097246  4.15944540727903 13.632582322357019  C 4.2287694974003465 13.661852493741572  4.322357019064125 13.735027922202962  4.440207972270364 13.85210860774119  C 4.558058925476604 13.969189293279415  4.637781629116118 14.042364721740803  4.679376083188909 14.071634893125362  C 4.720970537261699 14.100905064509917  4.811091854419412 14.192374350086654  4.949740034662045 14.346042749855574  C 5.08838821490468 14.499711149624495  5.171577123050261 14.59118043520123  5.1993067590987865 14.620450606585788  C 5.005199306759099 14.415559406893893  4.908145580589254 14.166762950125166  4.908145580589254 13.874061236279605  C 4.908145580589254 13.581359522434044  5.005199306759099 13.332563065665319  5.1993067590987865 13.127671865973428  L 12.436741767764298 5.488157134604274  C 12.630849220103988 5.283265934912379  12.866551126516466 5.180820335066436  13.143847487001734 5.180820335066436  C 13.421143847487002 5.180820335066436  13.656845753899482 5.283265934912379  13.850953206239167 5.488157134604274  C 13.823223570190642 5.458886963219715  13.736568457538993 5.371076449066049  13.590987868284229 5.224725592143271  C 13.445407279029464 5.078374735220488  13.358752166377817 4.9832466782206835  13.33102253032929 4.9393414211438476  C 13.303292894280764 4.8954361640670125  13.233968804159446 4.81128442133641  13.123050259965337 4.68688619295205  C 13.012131715771233 4.562487964567688  12.942807625649914 4.463701136144808  12.915077989601388 4.390525707683418  C 12.887348353552861 4.317350279222024  12.845753899480071 4.218563450799149  12.790294627383016 4.09416522241479  C 12.734835355285963 3.9697669940304223  12.696707105719238 3.849027537069131  12.675909878682843 3.7319468515309064  C 12.655112651646448 3.6148661659926775  12.64471403812825 3.483150394762176  12.64471403812825 3.336799537839398  C 12.64471403812825 2.780666281532829  12.838821490467938 2.283073367995377  13.227036395147314 1.8440207972270377  C 13.268630849220104 1.8001155401502025  13.383015597920279 1.668399768919701  13.570190641247834 1.448873483535529  C 13.75736568457539 1.229347198151357  13.889081455805893 1.079337569805503  13.965337954939342 0.9988445984979795  C 14.041594454072792 0.9183516271904475  14.169844020797226 0.7976121702291517  14.350086655112653 0.6366262276140962  C 14.530329289428078 0.4756402849990322  14.682842287694974 0.3622183708838833  14.807625649913344 0.29636048526863257  C 14.932409012131716 0.2305025996533776  15.084922010398614 0.16464471403812686  15.265164644714039 0.09878682842287612  C 15.445407279029464 0.03292894280762537  15.625649913344887 0  15.805892547660312 0  C 16.36048526863085 0  16.83188908145581 0.20489119969189074  17.220103986135182 0.6146735990756806  L 25.705372616984402 9.571346042749854  C 26.093587521663782 9.98112844213364  26.287694974003468 10.478721355671095  26.287694974003468 11.064124783362217  C 26.287694974003468 11.254380897361832  26.256499133448873 11.444637011361445  26.19410745233969 11.634893125361064  C 26.131715771230503 11.825149239360673  26.069324090121317 11.986135181975737  26.00693240901213 12.117850953206238  C 25.944540727902947 12.24956672443674  25.837088388214905 12.4105526670518  25.68457538994801 12.600808781051418  C 25.532062391681112 12.791064895051028  25.417677642980937 12.9264394377046  25.341421143847487 13.006932409012132  C 25.265164644714044 13.08742538031966  25.12305025996534 13.226458694396303  24.915077989601386 13.424032351242056  C 24.707105719237433 13.621606008087813  24.582322357019066 13.742345465049103  24.540727902946273 13.786250722125938  C 24.124783362218373 14.196033121509721  23.653379549393417 14.400924321201616  23.1265164644714 14.400924321201616  C 22.987868284228774 14.400924321201616  22.8630849220104 14.38994800693241  22.75216637781629 14.36799537839399  C 22.641247833622185 14.346042749855574  22.526863084922013 14.305796264201806  22.40901213171577 14.247255921432698  C 22.291161178509537 14.188715578663583  22.197573656845755 14.144810321586752  22.128249566724435 14.115540150202197  C 22.05892547660312 14.086269978817635  21.965337954939343 14.013094550356245  21.847487001733104 13.896013864818025  C 21.729636048526864 13.778933179279797  21.64991334488735 13.705757750818407  21.60831889081456 13.676487579433854  C 21.566724436741765 13.647217408049295  21.476603119584055 13.555748122472558  21.337954939341422 13.40207972270364  C 21.19930675909879 13.24841132293472  21.11611785095321 13.156942037357982  21.088388214904683 13.127671865973428  C 21.282495667244373 13.332563065665319  21.379549393414212 13.581359522434044  21.379549393414212 13.874061236279605  C 21.379549393414212 14.166762950125166  21.282495667244373 14.415559406893893  21.088388214904683 14.620450606585788  L 18.46793760831889 17.386481802426346  L 23.79202772963605 23.006354708261124  C 24.38821490467938 22.37704602349316  25.053726169844023 22.062391681109183  25.788561525129985 22.062391681109183  C 26.50953206239168 22.062391681109183  27.140381282495667 22.33314076641633  27.68110918544194 22.874638937030618  L 35.23050259965338 30.843443096476026  Z " fill-rule="nonzero" fill="#ffffff" stroke="none" transform="matrix(1 0 0 1 234 331 )" />
  </g>
</svg>