<?xml version="1.0" encoding="utf-8"?>
<svg version="1.1" xmlns:xlink="http://www.w3.org/1999/xlink" width="35px" height="38px" xmlns="http://www.w3.org/2000/svg">
  <g transform="matrix(1 0 0 1 -75 -332 )">
    <path d="M 22.604166666666668 12  C 21.401041666666668 11.875  20.416666666666668 11.073437499999999  20 10.09375  L 20 0  L 2.1875 0  C 0.9752604166666666 0  0 0.7941406249999999  0 1.78125  L 0 36.21875  C 0 37.205859375  0.9752604166666666 38  2.1875 38  L 32.8125 38  C 34.024739583333336 38  35 37.205859375  35 36.21875  L 35 12  L 22.604166666666668 12  Z M 5.833333333333333 6.53125  L 5.833333333333333 5.34375  C 5.833333333333333 5.015703125  6.159635416666667 4.75  6.5625 4.75  L 13.854166666666666 4.75  C 14.257031249999999 4.75  14.583333333333334 5.015703125  14.583333333333334 5.34375  L 14.583333333333334 6.53125  C 14.583333333333334 6.859296875  14.257031249999999 7.125  13.854166666666666 7.125  L 6.5625 7.125  C 6.159635416666667 7.125  5.833333333333333 6.859296875  5.833333333333333 6.53125  Z M 5.833333333333333 11.28125  L 5.833333333333333 10.09375  C 5.833333333333333 9.765703125000002  6.159635416666667 9.5  6.5625 9.5  L 13.854166666666666 9.5  C 14.257031249999999 9.5  14.583333333333334 9.765703125000002  14.583333333333334 10.09375  L 14.583333333333334 11.28125  C 14.583333333333334 11.609296874999998  14.257031249999999 11.875  13.854166666666666 11.875  L 6.5625 11.875  C 6.159635416666667 11.875  5.833333333333333 11.609296874999998  5.833333333333333 11.28125  Z M 22.481119791666668 28.017578125  C 22.665234375 28.31890625  23.024348958333334 28.5  23.407161458333334 28.5  L 27.708333333333332 28.5  C 28.514062499999998 28.5  29.166666666666668 29.031406250000003  29.166666666666668 29.6875  C 29.166666666666668 30.343593749999997  28.514062499999998 30.875  27.708333333333332 30.875  L 23.407161458333334 30.875  C 21.907812500000002 30.875  20.557031249999998 30.196640625  19.885286458333336 29.104140625  C 19.616406250000004 28.664765624999998  19.147916666666667 28.620234375  18.958333333333336 28.620234375  C 18.768750000000004 28.620234375  18.30026041666667 28.6640234375  18.045052083333335 29.0796484375  L 17.345963541666666 30.218164062499998  C 17.099058547960308 30.620488714705264  16.594007025659128 30.874542184863106  16.04166666666667 30.874257812499998  C 16.007031250000004 30.874257812499998  15.97330729166667 30.872773437499998  15.937760416666672 30.870546874999995  C 15.349869791666672 30.837148437499998  14.844010416666672 30.518007812499995  14.658984375000003 30.062304687499996  L 13.125 26.317226562499997  L 12.157942708333334 28.683320312499998  C 11.621093749999998 29.9940234375  10.118098958333333 30.875  8.420963541666666 30.875  L 7.291666666666667 30.875  C 6.4859374999999995 30.875  5.833333333333333 30.343593749999997  5.833333333333333 29.6875  C 5.833333333333333 29.031406250000003  6.4859374999999995 28.5  7.291666666666667 28.5  L 8.420963541666667 28.5  C 8.861197916666667 28.5  9.251302083333334 28.271406250000002  9.390755208333333 27.931484374999997  L 11.048697916666667 23.876171875  C 11.349479166666667 23.1480859375  12.182552083333334 22.658242187499997  13.125 22.658242187499997  C 14.067447916666666 22.658242187499997  14.900520833333333 23.147343749999994  15.200390625 23.876171875  L 16.465494791666668 26.966640624999997  C 18.26744791666667 25.765039062499998  21.391927083333332 26.24671875  22.481119791666668 28.017578125  Z M 35 9.047265625  C 35 8.5796875  34.77213541666667 8.126953125  34.36197916666667 7.79296875  L 25.438802083333336 0.51953125  C 25.028645833333336 0.185546875  24.47265625 0  23.889322916666668 0  L 23.333333333333332 0  L 23.333333333333332 10  L 35 10  L 35 9.047265625  Z " fill-rule="nonzero" fill="#ffffff" stroke="none" transform="matrix(1 0 0 1 75 332 )" />
  </g>
</svg>