<?xml version="1.0" encoding="utf-8"?>
<svg version="1.1" xmlns:xlink="http://www.w3.org/1999/xlink" width="35px" height="38px" xmlns="http://www.w3.org/2000/svg">
  <g transform="matrix(1 0 0 1 -601 -61 )">
    <path d="M 4 34  L 4 7.6000000000000005  L 0 7.6000000000000005  L 0 34.2  C 0 36.290000000000006  1.575 38  3.5 38  L 28 38  L 28 34  L 4 34  Z M 35 3.8000000000000003  C 35 1.71  33.425000000000004 0  31.5 0  L 10.5 0  C 8.575000000000001 0  7 1.71  7 3.8000000000000003  L 7 26.599999999999998  C 7 28.690000000000005  8.575000000000001 30.400000000000002  10.5 30  L 31.5 30  C 33.425000000000004 30.400000000000002  35 28.690000000000005  35 26.599999999999998  L 35 3.8000000000000003  Z M 31 3.8000000000000003  L 31 19  L 27.125 16.15  L 22.75 19  L 22.75 3.8000000000000003  L 31 3.8000000000000003  Z " fill-rule="nonzero" fill="#ffffff" stroke="none" transform="matrix(1 0 0 1 601 61 )" />
  </g>
</svg>