<?xml version="1.0" encoding="utf-8"?>
<svg version="1.1" xmlns:xlink="http://www.w3.org/1999/xlink" width="33px" height="38px" xmlns="http://www.w3.org/2000/svg">
  <g transform="matrix(1 0 0 1 -76 -481 )">
    <path d="M 0.75 4.75  C 0.75 2.1266474383037313  2.764718625761429 0  5.25 0  L 27.75 0  C 30.23528137423857 0  32.25 2.1266474383037313  32 4.75  L 32 33.25  C 32.25 35.873352561696265  30.23528137423857 38  27.75 38  L 5.25 38  C 2.764718625761429 38  0.75 35.873352561696265  0.75 33.25  L 0.75 30.875  L 3 30.875  L 3 33.25  C 3 34.56167628084814  4.007359312880715 35.625  5.25 35  L 27.75 35  C 28.992640687119287 35.625  30 34.56167628084814  30 33.25  L 30 4.75  C 30 3.4383237191518656  28.992640687119287 2.375  27.75 3  L 5.25 3  C 4.007359312880715 2.375  3 3.4383237191518656  3 4.75  L 3 7.125  L 0.75 7.125  L 0.75 4.75  Z " fill-rule="nonzero" fill="#ffffff" stroke="none" transform="matrix(1 0 0 1 76 481 )" />
  </g>
</svg>