<?xml version="1.0" encoding="utf-8"?>
<svg version="1.1" xmlns:xlink="http://www.w3.org/1999/xlink" width="8px" height="19px" xmlns="http://www.w3.org/2000/svg">
  <g transform="matrix(1 0 0 1 -74 -491 )">
    <path d="M 1.2 2.375  L 2.4 2.375  L 2.4 1.1875  C 2.4 0.531661859575933  2.937258300203048 0  3.6 0  C 4.262741699796952 0  4.8 0.531661859575933  4.8 1.1875  L 4.8 2.375  L 6 2.375  C 6.6627416997969515 2.375  7.2 2.906661859575933  7.2 3.5625  C 7.2 4.218338140424069  6.6627416997969515 4.75  6 4.75  L 1.2 4.75  C 0.5372583002030479 4.75  0 4.218338140424069  0 3.5625  C 0 2.906661859575933  0.5372583002030479 2.375  1.2 2.375  Z M 1.2 9.5  L 2.4 9.5  L 2.4 8.3125  C 2.4 7.656661859575932  2.937258300203048 7.125  3.6 7.125  C 4.262741699796952 7.125  4.8 7.656661859575932  4.8 8.3125  L 4.8 9.5  L 6 9.5  C 6.6627416997969515 9.5  7.2 10.03166185957593  7.2 10.6875  C 7.2 11.34333814042407  6.6627416997969515 11.875  6 11.875  L 1.2 11.875  C 0.5372583002030479 11.875  0 11.34333814042407  0 10.6875  C 0 10.03166185957593  0.5372583002030479 9.5  1.2 9.5  Z M 1.2 16.625  L 2.4 16.625  L 2.4 15.4375  C 2.4 14.78166185957593  2.937258300203048 14.25  3.6 14.25  C 4.262741699796952 14.25  4.8 14.78166185957593  4.8 15.4375  L 4.8 16.625  L 6 16.625  C 6.6627416997969515 16.625  7.2 17.15666185957593  7.2 17.8125  C 7.2 18.46833814042407  6.6627416997969515 19  6 19  L 1.2 19  C 0.5372583002030479 19  0 18.46833814042407  0 17.8125  C 0 17.15666185957593  0.5372583002030479 16.625  1.2 16.625  Z " fill-rule="nonzero" fill="#ffffff" stroke="none" transform="matrix(1 0 0 1 74 491 )" />
  </g>
</svg>