<?xml version="1.0" encoding="utf-8"?>
<svg version="1.1" xmlns:xlink="http://www.w3.org/1999/xlink" width="24px" height="24px" xmlns="http://www.w3.org/2000/svg">
  <g transform="matrix(1 0 0 1 -501 -634 )">
    <path d="M 24 2  C 23.998622582982062 0.8960015485000232  23.103998451499972 0.0013774170179363665  22 0  L 2 0  C 0.8960015485000232 0.0013774170179372547  0.0013774170179372547 0.8960015485000232  0 2  L 0 22  C 0.0013774170179363665 23.103998451499972  0.8960015485000232 23.998622582982062  2 24  L 22 24  C 23.103998451499976 23.998622582982062  23.998622582982062 23.103998451499976  24 22  L 24 2  Z M 10 2  L 14 2  L 14 6  L 10 6  L 10 2  Z M 22 22  L 2 22  L 2 2  L 8 2  L 8 8  L 16 8  L 16 2  L 22 2  L 22 22  Z " fill-rule="nonzero" fill="#000000" stroke="none" transform="matrix(1 0 0 1 501 634 )" />
  </g>
</svg>