<?xml version="1.0" encoding="utf-8"?>
<svg version="1.1" xmlns:xlink="http://www.w3.org/1999/xlink" width="26px" height="26px" xmlns="http://www.w3.org/2000/svg">
  <defs>
    <filter x="293px" y="142px" width="26px" height="26px" filterUnits="userSpaceOnUse" id="filter937">
      <feOffset dx="0" dy="2" in="SourceAlpha" result="shadowOffsetInner" />
      <feGaussianBlur stdDeviation="1.5" in="shadowOffsetInner" result="shadowGaussian" />
      <feComposite in2="shadowGaussian" operator="atop" in="SourceAlpha" result="shadowComposite" />
      <feColorMatrix type="matrix" values="0 0 0 0 0.6  0 0 0 0 0.6  0 0 0 0 0.6  0 0 0 0.34901960784313724 0  " in="shadowComposite" />
    </filter>
    <g id="widget938">
      <path d="M 306 143  C 311.6 143  316 147.4  316 153  C 316 158.6  311.6 163  306 163  C 300.4 163  296 158.6  296 153  C 296 147.4  300.4 143  306 143  Z " fill-rule="nonzero" fill="#ffffff" stroke="none" />
      <path d="M 306 143.5  C 311.32 143.5  315.5 147.68  315.5 153  C 315.5 158.32  311.32 162.5  306 162.5  C 300.68 162.5  296.5 158.32  296.5 153  C 296.5 147.68  300.68 143.5  306 143.5  Z " stroke-width="1" stroke="#ffffff" fill="none" />
    </g>
  </defs>
  <g transform="matrix(1 0 0 1 -293 -142 )">
    <use xlink:href="#widget938" filter="url(#filter937)" />
    <use xlink:href="#widget938" />
  </g>
</svg>