<?xml version="1.0" encoding="utf-8"?>
<svg version="1.1" xmlns:xlink="http://www.w3.org/1999/xlink" width="10px" height="10px" xmlns="http://www.w3.org/2000/svg">
  <g transform="matrix(1 0 0 1 -328 -10 )">
    <path d="M 6.280936454849499 5.307692307692307  C 6.200668896321071 5.205128205128204  6.200668896321071 5.051282051282051  6.280936454849499 4.948717948717949  L 9.785953177257525 1.5897435897435899  C 9.946488294314383 1.4358974358974363  9.946488294314383 1.2051282051282057  9.785953177257525 1.0512820512820515  L 9.22408026755853 0.5128205128205132  C 9.063545150501673 0.3589743589743596  8.822742474916389 0.3589743589743596  8.66220735785953 0.5128205128205132  L 5.157190635451505 3.871794871794872  C 5.050167224080269 3.9743589743589753  4.889632107023411 3.9743589743589753  4.782608695652174 3.871794871794872  L 1.2775919732441474 0.48717948717948767  C 1.1170568561872911 0.33333333333333404  0.876254180602007 0.33333333333333404  0.7157190635451506 0.48717948717948767  L 0.15384615384615408 1.025641025641026  C -0.006688963210701931 1.1794871794871802  -0.006688963210701931 1.4102564102564108  0.15384615384615408 1.5641025641025643  L 3.658862876254181 4.923076923076924  C 3.7658862876254187 5.025641025641026  3.7658862876254187 5.17948717948718  3.658862876254181 5.282051282051282  L 0.12709030100334479 8.666666666666668  C -0.033444816053511205 8.820512820512821  -0.033444816053511205 9.051282051282051  0.12709030100334479 9.205128205128204  L 0.6889632107023413 9.743589743589745  C 0.8494983277591978 9.897435897435898  1.090301003344482 9.897435897435898  1.2508361204013378 9.743589743589745  L 4.782608695652174 6.384615384615384  C 4.889632107023411 6.282051282051282  5.050167224080269 6.282051282051282  5.157190635451505 6.384615384615384  L 8.66220735785953 9.743589743589745  C 8.822742474916389 9.897435897435898  9.063545150501673 9.897435897435898  9.22408026755853 9.743589743589745  L 9.785953177257525 9.205128205128204  C 9.946488294314383 9.051282051282051  9.946488294314383 8.820512820512821  9.785953177257525 8.666666666666668  L 6.280936454849499 5.307692307692307  Z " fill-rule="nonzero" fill="#333333" stroke="none" fill-opacity="0.9921568627450981" transform="matrix(1 0 0 1 328 10 )" />
  </g>
</svg>