<?xml version="1.0" encoding="utf-8"?>
<svg version="1.1" xmlns:xlink="http://www.w3.org/1999/xlink" width="25px" height="25px" xmlns="http://www.w3.org/2000/svg">
  <g transform="matrix(1 0 0 1 -272 -622 )">
    <path d="M 25 12.5  C 25 5.597098214285715  19.402901785714285 0  12.5 0  C 5.597098214285715 0  0 5.597098214285715  0 12.5  C 0 19.402901785714285  5.597098214285715 25  12.5 25  C 19.402901785714285 25  25 19.402901785714285  25 12.5  Z M 22.879464285714285 12.5  C 22.879464285714285 18.231026785714285  18.231026785714285 22.879464285714285  12.5 22.879464285714285  C 6.768973214285714 22.879464285714285  2.1205357142857144 18.231026785714285  2.1205357142857144 12.5  C 2.1205357142857144 6.768973214285714  6.768973214285714 2.1205357142857144  12.5 2.1205357142857144  C 18.231026785714285 2.1205357142857144  22.879464285714285 6.768973214285714  22.879464285714285 12.5  Z " fill-rule="nonzero" fill="#8a1410" stroke="none" fill-opacity="0" transform="matrix(1 0 0 1 272 622 )" />
  </g>
</svg>