<?xml version="1.0" encoding="utf-8"?>
<svg version="1.1" xmlns:xlink="http://www.w3.org/1999/xlink" width="21px" height="21px" xmlns="http://www.w3.org/2000/svg">
  <g transform="matrix(1 0 0 1 -274 -624 )">
    <path d="M 20.671875 10.5  C 20.671875 4.88359375  16.11640625 0.328125  10.5 0.328125  C 4.88359375 0.328125  0.328125 4.88359375  0.328125 10.5  C 0.328125 16.11640625  4.88359375 20.671875  10.5 20.671875  C 16.11640625 20.671875  20.671875 16.11640625  20.671875 10.5  Z M 15.5421875 13.078515624999998  C 15.648828124999998 13.223437499999998  15.544921875 13.42578125  15.3671875 13.42578125  L 14.084765625000001 13.42578125  C 13.805859374999999 13.42578125  13.540625000000002 13.291796875  13.376562500000002 13.064843749999998  L 10.5 9.089062499999999  L 7.6234375000000005 13.064843749999998  C 7.4593750000000005 13.291796874999998  7.196875 13.42578125  6.915234375000001 13.42578125  L 5.6328125 13.42578125  C 5.455078125 13.42578125  5.351171875 13.223437500000001  5.455078125 13.078515624999998  L 10.322265625 6.351953124999999  C 10.409765624999999 6.231640624999999  10.587500000000002 6.231640624999999  10.674999999999999 6.351953124999999  L 15.5421875 13.078515624999998  Z " fill-rule="nonzero" fill="#8a1410" stroke="none" transform="matrix(1 0 0 1 274 624 )" />
  </g>
</svg>