<?xml version="1.0" encoding="utf-8"?>
<svg version="1.1" xmlns:xlink="http://www.w3.org/1999/xlink" width="98px" height="98px" xmlns="http://www.w3.org/2000/svg">
  <g transform="matrix(1 0 0 1 -136 -30 )">
    <path d="M 98 31.48077734375  C 97.9160571509009 26.602884765625003  95.07496762387387 22.103498046875  90.46942286036035 19.682400390625  L 56.730812218468465 1.959904296875  C 54.45887176238739 0.763615234375  51.92837767454955 0.17083007812499998  49.39778012387388 0.17083007812499998  C 46.867286036036035 0.17083007812499998  44.336688485360355 0.763615234375  42.06485149211712 1.95980859375  L 8.324378519144144 19.682400390625  C 3.720696086711712 22.103498046875  0.8775373029279273 26.602884765625003  1 31.48077734375  L 1 66.6901484375  C 0.8775373029279273 71.56450000000001  3.720696086711712 76.06733203124999  8.324378519144144 78.48479296875  L 42.06485149211712 96.21121289062499  C 44.33668848536036 97.40376953124999  46.867286036036035 98  49.39778012387388 98  C 51.92837767454954 98  54.45887176238739 97.40376953124999  56.730812218468465 96.21121289062499  L 90.46942286036035 78.48479296875  C 95.07496762387387 76.06733203124999  97.91616061373874 71.564404296875  98 66.6901484375  L 98 31.48077734375  Z M 79.02519144144145 76.94550390625  L 53.19269355292793 90.51888671875001  C 52.038565596846844 91.122486328125  50.725829110360365 91.44376171875  49.39778012387388 91.44376171875  C 48.0678688063063 91.44376171875  46.75523578265766 91.122486328125  45.60286669481982 90.51888671875001  L 20.826413992117114 77.50287890624999  C 22.440123873873876 76.68174609375  24.098219313063066 76.110302734375  25.50914203265766 75.999478515625  C 27.21938274211712 75.86377148437501  29.610926238738735 75.31405273437501  32.14348958333333 74.73179492187502  C 33.09317497184685 74.51043359375001  34.048654279279276 74.29270898437501  34.95198831644144 74.09977148437501  C 40.28518721846846 72.960712890625  42.06495495495495 71.925109375  42.93921593468468 71.24303320312501  C 43.75967623873874 70.603736328125  44.220913569819814 69.66115625  44.20166948198198 68.67196875  C 44.14952421171171 66.5186484375  43.35234304617117 64.42255859375  41.88151534346847 62.58343164062499  C 41.64789625563063 62.20492578125  41.33140343468469 61.872931640625  40.95107404279279 61.605058593750016  C 36.10621973536036 58.194677734375006  33.21277801238738 52.299269531250005  33.21277801238738 45.8395  C 33.21277801238738 35.63371875  40.507218468468466 27.331185546875  49.473204532657654 27.331185546875  C 58.43722480292793 27.331185546875  65.72959600225226 35.62290429687499  65.72959600225226 45.821412109375  C 65.72959600225226 52.26701757812499  62.836154279279285 58.14826171874999  57.99129997184685 61.55864257812499  C 57.759750140765775 61.71942382812499  57.54351280968469 61.91925195312499  57.3600731981982 62.129894531249995  C 55.67300816441441 64.0831953125  54.79481559684685 66.22216015625  54.74277378941442 68.482572265625  C 54.72332277590091 69.46467773437502  55.17897311373875 70.4003671875  55.985776323198195 71.03947265624998  C 56.77147311373874 71.657236328125  58.38332066441442 72.52133984375  63.917237471846846 73.71035546875  C 67.25256897522522 74.431861328125  71.10531813063064 75.053166015625  73.28269355292792 75.22457031249999  C 75.12598747184684 75.37444140625  77.18945030968469 76.024361328125  79.02519144144145 76.94550390625  Z M 90 66.6901484375  L 90.7859156813063 66.6901484375  C 90.7859156813063 69.204078125  89.30919059684683 71.54650781250001  86.93120073198199 72.796486328125  L 85.89853814752252 73.339314453125  C 85.86367117117118 73.31069921875  85.8503244650901 73.2714609375  85.81545748873874 73.24638671875  C 82.47236627252252 70.725375  78.01746340090091 69.02549609375  73.89819397522524 68.696947265625  C 72.07993806306307 68.5506171875  68.48967412725226 67.961373046875  65.54408713400902 67.325904296875  C 64.3048092623874 67.061572265625  63.34560529279278 66.82585546874999  62.61795115427928 66.63301367187499  C 62.65468046171173 66.579515625  62.693272100225215 66.52611328125  62.73569186373874 66.4688828125  C 69.08427505630631 61.794359374999985  72.86159980292794 54.12059570312499  72.86159980292794 45.82160351562499  C 72.86159980292794 32.00934570312499  62.36891610360361 20.775234374999993  49.47310106981982 20.775234374999993  C 36.5733544481982 20.775234374999993  26.082533079954956 32.01652343749999  26.082533079954956 45.83969140625  C 26.082533079954956 54.117054687499994  29.827163569819817 61.776654296874995  36.12742961711712 66.45471875  C 36.25282657657658 66.611767578125  36.36477336711712 66.76891210937501  36.46709811373874 66.933234375  C 35.71813063063064 67.154595703125  34.70088400900901 67.422373046875  33.338174971846854 67.71158789062501  C 32.39428350225226 67.9151484375  31.400316019144142 68.143783203125  30.4139013231982 68.372130859375  C 28.362026323198197 68.84356445312501  26.03814752252252 69.375482421875  24.89726280968469 69.46841015625002  C 21.330174549549554 69.75044726562501  17.31540259009009 71.41089648437502  13.950894566441441 73.889224609375  L 11.86239372184685 72.79648632812501  C 9.486369650900901 71.54650781250001  8.007782235360361 69.204078125  8 66.69014843750001  L 8 31.48077734375  C 8.007782235360361 28.9632109375  9.486369650900901 26.624322265625  11.86239372184685 25.374535156250005  L 45.60286669481982 7.6484023437500035  C 46.75523578265766 7.044898437500003  48.067765343468466 6.723527343750003  49.39778012387388 6.723527343750003  C 50.725829110360365 6.723527343750003  52.038462134009016 7.044802734375003  53.19269355292793 7.6484023437500035  L 86.9313041948198 25.374535156250005  C 89.30919059684683 26.624417968750002  90.78601914414413 28.963306640625007  90 31.48077734375  L 90 66.6901484375  Z " fill-rule="nonzero" fill="#c1ab96" stroke="none" transform="matrix(1 0 0 1 136 30 )" />
  </g>
</svg>