<?xml version="1.0" encoding="utf-8"?>
<svg version="1.1" xmlns:xlink="http://www.w3.org/1999/xlink" width="212px" height="40px" xmlns="http://www.w3.org/2000/svg">
  <g transform="matrix(1 0 0 1 -128 -290 )">
    <path d="M 128.5 293  A 2.5 2.5 0 0 1 131 290.5 L 337 290.5  A 2.5 2.5 0 0 1 339.5 293 L 339.5 327  A 2.5 2.5 0 0 1 337 329.5 L 131 329.5  A 2.5 2.5 0 0 1 128.5 327 L 128.5 293  Z " fill-rule="nonzero" fill="#ffffff" stroke="none" fill-opacity="0" />
    <path d="M 128.5 293  A 2.5 2.5 0 0 1 131 290.5 L 337 290.5  A 2.5 2.5 0 0 1 339.5 293 L 339.5 327  A 2.5 2.5 0 0 1 337 329.5 L 131 329.5  A 2.5 2.5 0 0 1 128.5 327 L 128.5 293  Z " stroke-width="1" stroke="#d8d8d8" fill="none" />
  </g>
</svg>