<?xml version="1.0" encoding="utf-8"?>
<svg version="1.1" xmlns:xlink="http://www.w3.org/1999/xlink" width="20px" height="18px" xmlns="http://www.w3.org/2000/svg">
  <g transform="matrix(1 0 0 1 -32 -406 )">
    <path d="M 5 6.117179506578947  L 5 17.740486124074835  L 1.1173519810267862 17.740486124074835  L 1.1173519810267862 6.117179506578947  L 5 6.117179506578947  Z M 5.077079938616077 2.6458230484169407  C 5.07712279575893 3.771852733347039  4.222004268973218 4.66313658305921  2.849572279575896 4.66313658305921  L 2.8232609235491086 4.66313658305921  C 1.5019517717633963 4.66313658305921  0.6451620256696462 3.774623452919409  0.6451620256696462 2.649020042146381  C 0.6451620256696462 1.5010801819490127  1.5277060267857174 0.6307261060855257  2.8753265345982166 0.6307261060855257  C 4.22196141183036 0.6307261060855257  5.050640053013394 1.4988636312705577  5.077079938616077 2.6458230484169407  Z M 19.377164034598213 11.277196828741776  L 19.377164034598213 17.740486124074835  L 15.236856333705358 17.740486124074835  L 15.236856333705358 11.725545567434207  C 15.236856333705358 10.151209775390624  14.58991449497768 9.076971671977795  13.165288364955355 9.076971713610197  C 12.07581040736607 9.076971713610197  11.47073530970982 9.801797898848681  11.188424051339286 10.501005377775492  C 11.083007282366069 10.751352622327301  11.099119768415179 11.100721908922695  11.099119768415179 11.451071596936677  L 11.099119768415179 17.740443492495885  L 6.997507714843749 17.740443492495885  C 6.997507714843749 17.740443492495885  7.0508160156249975 7.085831012541118  6.997507714843749 6.117136874999997  L 11.099119768415179 6.117136874999997  L 11.099119768415179 7.941265742701478  C 11.341621177455357 7.143675612150491  12.65174587053571 6.005284143194901  14.744225781249998 6.005284143194901  C 17.338506668526787 6.005284143194901  19.377164034598213 7.6775763127055905  19.377164034598213 11.277196828741776  Z " fill-rule="nonzero" fill="#ffffff" stroke="none" transform="matrix(1 0 0 1 32 406 )" />
  </g>
</svg>