<?xml version="1.0" encoding="utf-8"?>
<svg version="1.1" xmlns:xlink="http://www.w3.org/1999/xlink" width="12px" height="10px" xmlns="http://www.w3.org/2000/svg">
  <g transform="matrix(1 0 0 1 -26 -169 )">
    <path d="M 11.993181811523414 2.3765211152804113  C 11.993181811523414 1.0880458138533413  11.004545449218767 0.05010737573820734  9.777272724609361 0.05010737573820734  L 2.277272724609361 0.05010737573820734  C 1.0499999999999545 0.05010737573820734  0.06136363769530817 1.0880458138533413  0.06136363769530817 2.3765211152804113  L 0.06136363769530817 7.673586260457569  C 0.06136363769530817 8.962061561884866  1.0499999999999545 10  2.277272724609361 10  L 9.777272724609361 10  C 11.004545449218767 10  11.993181811523414 8.962061561884866  11.993181811523414 7.673586260457569  L 11.993181811523414 2.3765211152804113  Z M 7.595454550781255 3.9155332800196447  C 7.561363637695308 4.523979945866131  7.220454550781255 5.060844657357393  6.743181811523414 5.311381536048202  L 6.743181811523414 7.38725841227847  L 5.345454550781255 7.38725841227847  L 5.345454550781255 5.311381536048202  C 4.868181826171849 5.060844672736266  4.527272739257796 4.523979961245004  4.527272724609361 3.9155332800196447  C 4.527272724609361 3.02075876599406  5.209090913085902 2.3049391455463137  6.061363637695308 2.304939160925187  C 6.913636362304715 2.3049391763040603  7.595454550781255 3.0207587813729333  7.595454550781255 3.9155332800196447  Z " fill-rule="nonzero" fill="#4f5d73" stroke="none" transform="matrix(1 0 0 1 26 169 )" />
  </g>
</svg>