<?xml version="1.0" encoding="utf-8"?>
<svg version="1.1" xmlns:xlink="http://www.w3.org/1999/xlink" width="8px" height="11px" xmlns="http://www.w3.org/2000/svg">
  <g transform="matrix(1 0 0 1 -28 -120 )">
    <path d="M 7.815142187499987 9.046171087449693  C 7.482170312499976 8.857895192792284  6.710448437499988 8.67509261592727  6.288362499999999 8.471722215221689  C 5.541179687499986 8.111683940272314  5.26818437500002 7.5518461756551005  5.184962500000008 7.06908707157254  C 5.723134374999997 6.5889008946573995  6.151576562499991 5.821014679939481  6.3872078124999865 4.993405367943751  C 6.629434374999998 4.650940965221707  6.770565624999993 4.293974609375027  6.770565624999993 3.991569902973879  C 6.770565624999993 3.78450384324583  6.702671874999977 3.6347594821068014  6.583871875000012 3.5236402154739603  C 6.544131250000015 1.7660658707156927  5.422000000000001 0.35497905115926187  4.034242187500013 0.3331637474798299  C 4.023399999999987 0.33299221900210796  4.012881250000015 0.3311054057458023  4.001996874999981 0.3311054057458023  C 3.9977359374999852 0.3311054057458023  3.993615624999999 0.3318850806451792  3.989354687500003 0.33191626764119064  C 2.6103859374999905 0.3404147240423754  1.4897593750000244 1.7218427104335206  1.4227937500000079 3.456213930191325  C 1.2498812499999934 3.570748172882986  1.1502906249999745 3.739111170614933  1.1502906249999745 3.991585496471771  C 1.1502906249999745 4.347382339969727  1.3443390624999867 4.778651713709678  1.6710249999999987 5.172824155745957  C 1.9031687500000014 5.894241746471835  2.2807468750000024 6.556310483870902  2.74653906249998 7.002518428679423  C 2.677281249999977 7.4995299899192105  2.4142703124999922 8.095045677923281  1.6324937499999932 8.471737808719581  C 1.2104078124999786 8.675108209425389  0.43868593749999085 8.857910786290176  0.10568593749998298 9.046171087449693  C 0.9586890624999947 10.080285093246175  2.57434375 10.73083023563504  3.9361843749999883 10.738517830141063  L 3.955534374999969 10.739063602570468  C 3.9571656249999907 10.739063602570468  3.9587828125000013 10.739188350554514  3.960414062500023 10.739188350554514  C 5.332014062499992 10.739188350554514  6.957062500000019 10.086460118447576  7.815142187499987 9.046171087449693  Z " fill-rule="nonzero" fill="#231f20" stroke="none" transform="matrix(1 0 0 1 28 120 )" />
  </g>
</svg>