<?xml version="1.0" encoding="utf-8"?>
<svg version="1.1" xmlns:xlink="http://www.w3.org/1999/xlink" width="18px" height="8px" xmlns="http://www.w3.org/2000/svg">
  <g transform="matrix(1 0 0 1 -324 -19 )">
    <path d="M 0.9619606231579046 0.5114218099999999  C 1.1678085852631441 0.3952170800000001  1.3719893778947583 0.33333332999999987  1.9350538578947205 0.33333332999999987  L 15.74909346315789 0.33333332999999987  C 16.312158000000004 0.33333332999999987  16.516338821052635 0.3952170800000001  16.72218672631578 0.5114218099999999  C 16.928034726315786 0.6276265400000001  17.089585389473665 0.7981522600000002  17.199674052631586 1.0154362199999998  C 17.309762810526315 1.2327201799999998  17.368389473684218 1.44824434  17.368389473684218 2.0425901800000004  L 17.368389473684218 5.95740982  C 17.368389473684218 6.5517556599999995  17.309762810526315 6.767279820000001  17.199674052631586 6.98456378  C 17.089585389473665 7.20184774  16.928034726315786 7.37237346  16.72218672631578 7.48857819  C 16.516338821052635 7.60478292  16.312158000000004 7.66666667  15.74909346315789 7.66666667  L 1.9350538578947205 7.66666667  C 1.3719893778947583 7.66666667  1.1678085852631441 7.60478292  0.9619606231579046 7.48857819  C 0.7561126705263034 7.37237346  0.5945619884210397 7.20184774  0.48447328736840756 6.98456378  C 0.37438459578946715 6.767279820000001  0.31575789473685 6.5517556599999995  0.31575789473685 5.95740982  L 0.31575789473685 2.0425901800000004  C 0.31575789473685 1.44824434  0.37438459578946715 1.2327201799999998  0.48447328736840756 1.0154362199999998  C 0.5945619884210397 0.7981522600000002  0.7561126705263034 0.6276265400000001  0.9619606231579046 0.5114218099999999  Z " fill-rule="nonzero" fill="#ffffff" stroke="none" transform="matrix(1 0 0 1 324 19 )" />
  </g>
</svg>