<?xml version="1.0" encoding="utf-8"?>
<svg version="1.1" xmlns:xlink="http://www.w3.org/1999/xlink" width="16px" height="12px" xmlns="http://www.w3.org/2000/svg">
  <g transform="matrix(1 0 0 1 -282 -17 )">
    <path d="M 0.9411764705882353 7.333333700000001  L 1.8823529411764706 7.333333700000001  C 2.4021505882352785 7.333333700000001  2.823529411764706 7.7810489  2.823529411764706 8.3333337  L 2.823529411764706 10.3333337  C 2.823529411764706 10.8856184  2.4021505882352785 11.3333337  1.8823529411764706 11.3333337  L 0.9411764705882353 11.3333337  C 0.4213788235294273 11.3333337  0 10.8856184  0 10.3333337  L 0 8.3333337  C 0 7.7810489  0.4213788235294273 7.333333700000001  0.9411764705882353 7.333333700000001  Z M 4.392157176470605 6.33333367  C 4.392157176470605 5.78104892  4.813535999999979 5.33333367  5.333333647058841 5.33333367  L 6.2745101176470754 5.33333367  C 6.794306823529416 5.33333367  7.215686588235311 5.78104892  7.215686588235311 6.33333367  L 7.215686588235311 10.3333337  C 7.215686588235311 10.8856184  6.794306823529416 11.3333337  6.2745101176470754 11.3333337  L 5.333333647058841 11.3333337  C 4.813535999999979 11.3333337  4.392157176470605 10.8856184  4.392157176470605 10.3333337  L 4.392157176470605 6.33333367  Z M 8.784313411764689 4.00000033  C 8.784313411764689 3.4477155799999997  9.205693176470584 3.0000003299999998  9.725489882352925 3.0000003299999998  L 10.66666635294116 3.0000003299999998  C 11.18646400000002 3.0000003299999998  11.607842823529396 3.4477155799999997  11.607842823529396 4.00000033  L 11.607842823529396 10.3333337  C 11.607842823529396 10.8856184  11.18646400000002 11.3333337  10.66666635294116 11.3333337  L 9.725489882352925 11.3333337  C 9.205693176470584 11.3333337  8.784313411764689 10.8856184  8.784313411764689 10.3333337  L 8.784313411764689 4.00000033  Z M 14.117647058823529 0.6666669999999999  L 15.058823529411764 0.6666669999999999  C 15.578621176470573 0.6666669999999999  16 1.1143822500000002  16 1.6666670000000003  L 16 10.3333337  C 16 10.8856184  15.578621176470573 11.3333337  15.058823529411764 11.3333337  L 14.117647058823529 11.3333337  C 13.597849411764722 11.3333337  13.176470588235293 10.8856184  13.176470588235293 10.3333337  L 13.176470588235293 1.6666670000000003  C 13.176470588235293 1.1143822500000002  13.597849411764722 0.6666669999999999  14.117647058823529 0.6666669999999999  Z " fill-rule="nonzero" fill="#ffffff" stroke="none" transform="matrix(1 0 0 1 282 17 )" />
  </g>
</svg>