<?xml version="1.0" encoding="utf-8"?>
<svg version="1.1" xmlns:xlink="http://www.w3.org/1999/xlink" width="8px" height="8px" xmlns="http://www.w3.org/2000/svg">
  <defs>
    <mask fill="white" id="clip833">
      <path d="M 8 1.7739130434782613  C 8 1.9104669887278583  7.968569065343259 2.0276972624798706  7.905707196029777 2.125603864734299  L 4.223325062034739 7.8531400966183575  C 4.160463192721258 7.951046698872786  4.086021505376344 8  4 8  C 3.9139784946236564 8  3.8395368072787432 7.951046698872786  3.7766749379652604 7.8531400966183575  L 0.09429280397022333 2.125603864734299  C 0.031430934656741155 2.0276972624798706  0 1.9104669887278583  0 1.7739130434782613  C 0 1.6373590982286625  0.031430934656741155 1.5201288244766502  0.09429280397022333 1.4222222222222225  L 0.9181141439205955 0.14685990338164245  C 0.9809760132340778 0.048953301127213855  1.055417700578991 0  1.1414392059553349 0  C 1.2274607113316793 0  1.3019023986765925 0.048953301127213855  1.3647642679900744 0.14685990338164245  L 4 4.251207729468598  L 6.635235732009925 0.14685990338164245  C 6.698097601323409 0.048953301127213855  6.772539288668321 0  6.858560794044665 0  C 6.94458229942101 0  7.019023986765923 0.048953301127213855  7.0818858560794045 0.14685990338164245  L 7.905707196029777 1.4222222222222225  C 7.968569065343259 1.5201288244766502  8 1.6373590982286625  8 1.7739130434782613  Z " fill-rule="evenodd" />
    </mask>
  </defs>
  <g transform="matrix(1 0 0 1 -486 -88 )">
    <path d="M 8 1.7739130434782613  C 8 1.9104669887278583  7.968569065343259 2.0276972624798706  7.905707196029777 2.125603864734299  L 4.223325062034739 7.8531400966183575  C 4.160463192721258 7.951046698872786  4.086021505376344 8  4 8  C 3.9139784946236564 8  3.8395368072787432 7.951046698872786  3.7766749379652604 7.8531400966183575  L 0.09429280397022333 2.125603864734299  C 0.031430934656741155 2.0276972624798706  0 1.9104669887278583  0 1.7739130434782613  C 0 1.6373590982286625  0.031430934656741155 1.5201288244766502  0.09429280397022333 1.4222222222222225  L 0.9181141439205955 0.14685990338164245  C 0.9809760132340778 0.048953301127213855  1.055417700578991 0  1.1414392059553349 0  C 1.2274607113316793 0  1.3019023986765925 0.048953301127213855  1.3647642679900744 0.14685990338164245  L 4 4.251207729468598  L 6.635235732009925 0.14685990338164245  C 6.698097601323409 0.048953301127213855  6.772539288668321 0  6.858560794044665 0  C 6.94458229942101 0  7.019023986765923 0.048953301127213855  7.0818858560794045 0.14685990338164245  L 7.905707196029777 1.4222222222222225  C 7.968569065343259 1.5201288244766502  8 1.6373590982286625  8 1.7739130434782613  Z " fill-rule="nonzero" fill="#8a1410" stroke="none" transform="matrix(1 0 0 1 486 88 )" />
    <path d="M 8 1.7739130434782613  C 8 1.9104669887278583  7.968569065343259 2.0276972624798706  7.905707196029777 2.125603864734299  L 4.223325062034739 7.8531400966183575  C 4.160463192721258 7.951046698872786  4.086021505376344 8  4 8  C 3.9139784946236564 8  3.8395368072787432 7.951046698872786  3.7766749379652604 7.8531400966183575  L 0.09429280397022333 2.125603864734299  C 0.031430934656741155 2.0276972624798706  0 1.9104669887278583  0 1.7739130434782613  C 0 1.6373590982286625  0.031430934656741155 1.5201288244766502  0.09429280397022333 1.4222222222222225  L 0.9181141439205955 0.14685990338164245  C 0.9809760132340778 0.048953301127213855  1.055417700578991 0  1.1414392059553349 0  C 1.2274607113316793 0  1.3019023986765925 0.048953301127213855  1.3647642679900744 0.14685990338164245  L 4 4.251207729468598  L 6.635235732009925 0.14685990338164245  C 6.698097601323409 0.048953301127213855  6.772539288668321 0  6.858560794044665 0  C 6.94458229942101 0  7.019023986765923 0.048953301127213855  7.0818858560794045 0.14685990338164245  L 7.905707196029777 1.4222222222222225  C 7.968569065343259 1.5201288244766502  8 1.6373590982286625  8 1.7739130434782613  Z " stroke-width="2" stroke="#8a1410" fill="none" transform="matrix(1 0 0 1 486 88 )" mask="url(#clip833)" />
  </g>
</svg>