<?xml version="1.0" encoding="utf-8"?>
<svg version="1.1" xmlns:xlink="http://www.w3.org/1999/xlink" width="15px" height="16px" xmlns="http://www.w3.org/2000/svg">
  <defs>
    <mask fill="white" id="clip870">
      <path d="M 14.962928227709632 2.5817090716156477  C 14.962928227709632 2.5817090716156477  15.232996120628014 1.7103914788634234  14.31526541043313 0.7306037368093908  C 13.396701157358876 -0.2491840052446559  12.579829135568707 0.039773359698688324  12.579829135568707 0.039773359698688324  L 5.378852200624496 7.714480972593846  L 4.167714396888649 11.554502077794744  L 7.7661190071623105 10.261751282017459  L 14.962928227709632 2.5817090716156477  Z M 7.444371455722504 8.057673412188095  C 8.079531129808338 8.734278195947732  8.006179356423097 9.42510857305842  8.006179356423097 9.42510857305842  L 7.613580660236186 9.842985377745723  L 6.385771998912794 10.287535169966247  C 6.299083539457502 10.07415126970039  6.190722965138407 9.863434668187859  5.970667644982684 9.629601477479866  C 5.750612324826961 9.394879187187426  5.55389620529382 9.279296241210085  5.35384591424316 9.186829884428223  L 5.770617353932024 7.877186196546559  L 6.163216050118935 7.459309391859256  C 6.163216050118935 7.459309391859256  6.810045324516053 7.38017952884401  7.444371455722504 8.057673412188095  Z M 12.503143190665947 9.776302908912633  L 12.503143190665947 14  L 1.6670857587554544 14  L 1.6670857587554544 2.6635062333842345  L 5.834800155644117 2.6635062333842345  L 7.501885914399572 0.8853070645021238  L 1.6670857587554544 0.8853070645021238  C 0.7501885914399544 0.8853070645021238  0 1.6854966904990671  0 2.6635062333842345  L 0 14.221800831117903  C 0 15.199810374003057  0.7501885914399544 16  1.6670857587554544 16  L 12.503143190665947 16  C 13.42004035798146 16  14.170228949421414 15.199810374003057  14.170228949421414 14.221800831117903  L 14.170228949421414 7.998103740030538  L 12.503143190665947 9.776302908912633  Z " fill-rule="evenodd" />
    </mask>
  </defs>
  <g transform="matrix(1 0 0 1 -41 -150 )">
    <path d="M 14.962928227709632 2.5817090716156477  C 14.962928227709632 2.5817090716156477  15.232996120628014 1.7103914788634234  14.31526541043313 0.7306037368093908  C 13.396701157358876 -0.2491840052446559  12.579829135568707 0.039773359698688324  12.579829135568707 0.039773359698688324  L 5.378852200624496 7.714480972593846  L 4.167714396888649 11.554502077794744  L 7.7661190071623105 10.261751282017459  L 14.962928227709632 2.5817090716156477  Z M 7.444371455722504 8.057673412188095  C 8.079531129808338 8.734278195947732  8.006179356423097 9.42510857305842  8.006179356423097 9.42510857305842  L 7.613580660236186 9.842985377745723  L 6.385771998912794 10.287535169966247  C 6.299083539457502 10.07415126970039  6.190722965138407 9.863434668187859  5.970667644982684 9.629601477479866  C 5.750612324826961 9.394879187187426  5.55389620529382 9.279296241210085  5.35384591424316 9.186829884428223  L 5.770617353932024 7.877186196546559  L 6.163216050118935 7.459309391859256  C 6.163216050118935 7.459309391859256  6.810045324516053 7.38017952884401  7.444371455722504 8.057673412188095  Z M 12.503143190665947 9.776302908912633  L 12.503143190665947 14  L 1.6670857587554544 14  L 1.6670857587554544 2.6635062333842345  L 5.834800155644117 2.6635062333842345  L 7.501885914399572 0.8853070645021238  L 1.6670857587554544 0.8853070645021238  C 0.7501885914399544 0.8853070645021238  0 1.6854966904990671  0 2.6635062333842345  L 0 14.221800831117903  C 0 15.199810374003057  0.7501885914399544 16  1.6670857587554544 16  L 12.503143190665947 16  C 13.42004035798146 16  14.170228949421414 15.199810374003057  14.170228949421414 14.221800831117903  L 14.170228949421414 7.998103740030538  L 12.503143190665947 9.776302908912633  Z " fill-rule="nonzero" fill="#666666" stroke="none" transform="matrix(1 0 0 1 41 150 )" />
    <path d="M 14.962928227709632 2.5817090716156477  C 14.962928227709632 2.5817090716156477  15.232996120628014 1.7103914788634234  14.31526541043313 0.7306037368093908  C 13.396701157358876 -0.2491840052446559  12.579829135568707 0.039773359698688324  12.579829135568707 0.039773359698688324  L 5.378852200624496 7.714480972593846  L 4.167714396888649 11.554502077794744  L 7.7661190071623105 10.261751282017459  L 14.962928227709632 2.5817090716156477  Z " stroke-width="2" stroke="#cccccc" fill="none" transform="matrix(1 0 0 1 41 150 )" mask="url(#clip870)" />
    <path d="M 7.444371455722504 8.057673412188095  C 8.079531129808338 8.734278195947732  8.006179356423097 9.42510857305842  8.006179356423097 9.42510857305842  L 7.613580660236186 9.842985377745723  L 6.385771998912794 10.287535169966247  C 6.299083539457502 10.07415126970039  6.190722965138407 9.863434668187859  5.970667644982684 9.629601477479866  C 5.750612324826961 9.394879187187426  5.55389620529382 9.279296241210085  5.35384591424316 9.186829884428223  L 5.770617353932024 7.877186196546559  L 6.163216050118935 7.459309391859256  C 6.163216050118935 7.459309391859256  6.810045324516053 7.38017952884401  7.444371455722504 8.057673412188095  Z " stroke-width="2" stroke="#cccccc" fill="none" transform="matrix(1 0 0 1 41 150 )" mask="url(#clip870)" />
    <path d="M 12.503143190665947 9.776302908912633  L 12.503143190665947 14  L 1.6670857587554544 14  L 1.6670857587554544 2.6635062333842345  L 5.834800155644117 2.6635062333842345  L 7.501885914399572 0.8853070645021238  L 1.6670857587554544 0.8853070645021238  C 0.7501885914399544 0.8853070645021238  0 1.6854966904990671  0 2.6635062333842345  L 0 14.221800831117903  C 0 15.199810374003057  0.7501885914399544 16  1.6670857587554544 16  L 12.503143190665947 16  C 13.42004035798146 16  14.170228949421414 15.199810374003057  14.170228949421414 14.221800831117903  L 14.170228949421414 7.998103740030538  L 12.503143190665947 9.776302908912633  Z " stroke-width="2" stroke="#cccccc" fill="none" transform="matrix(1 0 0 1 41 150 )" mask="url(#clip870)" />
  </g>
</svg>