<?xml version="1.0" encoding="utf-8"?>
<svg version="1.1" xmlns:xlink="http://www.w3.org/1999/xlink" width="16px" height="16px" xmlns="http://www.w3.org/2000/svg">
  <g>
    <path d="M 15.415771484375 2.2686680405735977  C 15.415771484375 1.343815401017665  14.657243996977806 0.584228515625  13.731331959426402 0.584228515625  L 2.2686680405735977 0.584228515625  C 1.343815401017665 0.584228515625  0.584228515625 1.3427560030221937  0.584228515625 2.2686680405735977  L 0.584228515625 13.731331959426402  C 0.584228515625 14.656184598982335  1.3427560030221937 15.415771484375  2.2686680405735977 15.415771484375  L 13.731331959426402 15.415771484375  C 14.657243996977805 15.415771484375  15.415771484375 14.657243996977806  15.415771484375 13.731331959426402  L 15.415771484375 2.2686680405735977  Z M 14.405107766509056 13.730272561430931  L 14.405107766509053 13.7313319594264  C 14.398296700704883 14.100826917906627  14.099787111403407 14.398399269618375  13.73027256143093 14.404048368513584  L 2.2697274385690687 14.404048368513585  C 1.8999898511949818 14.398367832119991  1.6016321678800116 14.100010148805017  1.595951631486415 13.730272561430931  L 1.595951631486415 2.2697274385690687  C 1.595951631486415 1.9052952378392218  1.9052952378392214 1.595951631486415  2.2697274385690687 1.595951631486415  L 13.730272561430931 1.595951631486415  C 14.094704762160779 1.595951631486415  14.405107766509056 1.9052952378392214  14.405107766509056 2.2697274385690687  L 14.405107766509056 13.730272561430931  Z " fill-rule="nonzero" fill="#669df6" stroke="none" />
  </g>
</svg>