<?xml version="1.0" encoding="utf-8"?>
<svg version="1.1" xmlns:xlink="http://www.w3.org/1999/xlink" width="16px" height="16px" xmlns="http://www.w3.org/2000/svg">
  <g transform="matrix(1 0 0 1 -5 -6 )">
    <path d="M 13 8.307106781186548  C 11.4 6.5  9.8 6.5  9 6.5  C 7.6 6.5  5.5 7.927586206896551  5.5 10.64  C 5.5 16.847557197010506  13 21.389672219213317  13 21.389672219213317  C 13 21.389672219213317  20.5 16.847557197010506  20.5 10.64  C 20.5 7.927586206896551  18.4 6.5  17 6.5  C 16.2 6.5  14.6 6.5  13 8.307106781186548  Z " fill-rule="nonzero" fill="#ffffff" stroke="none" />
    <path d="M 13 7.6  C 11.4 6  9.8 6  9 6  C 7.4 6  5 7.6  5 10.64  C 5 17.2  13 22  13 22  C 13 22  21 17.2  21 10.64  C 21 7.6  18.6 6  17 6  C 16.2 6  14.6 6  13 7.6  Z M 13 9.014213562373095  C 14.6 7  16.2 7  17 7  C 18.2 7  20 8.255172413793103  20 10.64  C 20 16.495114394021012  13 20.77934443842663  13 20.77934443842663  C 13 20.77934443842663  6 16.495114394021012  6 10.64  C 6 8.255172413793103  7.8 7  9 7  C 9.8 7  11.4 7  13 9.014213562373095  Z " fill-rule="nonzero" fill="#797979" stroke="none" />
  </g>
</svg>