<?xml version="1.0" encoding="utf-8"?>
<svg version="1.1" xmlns:xlink="http://www.w3.org/1999/xlink" width="12px" height="13px" xmlns="http://www.w3.org/2000/svg">
  <g transform="matrix(1 0 0 1 -58 -60 )">
    <path d="M 11.09424 11.844689999999998  C 11.268180000000001 11.639094999999998  11.260860000000001 11.313315  11.07756 11.1176  L 9.214020000000001 9.13562  C 9.8076 8.284184999999999  10.163820000000001 7.227804999999999  10.163820000000001 6.0785399999999985  C 10.163820000000001 3.2713199999999985  8.063640000000001 0.9956049999999987  5.471940000000001 0.9956049999999987  C 2.8804800000000013 0.9956049999999987  0.779940000000001 3.2713199999999985  0.779940000000001 6.0785399999999985  C 0.779940000000001 8.88628  2.880420000000001 11.161734999999998  5.471940000000001 11.161734999999998  C 6.665940000000001 11.161734999999998  7.7526600000000006 10.67443  8.580660000000002 9.878764999999998  L 10.446840000000002 11.863409999999998  C 10.63014 12.058475  10.919880000000001 12.050219999999998  11.09424 11.844689999999998  Z M 9.33612 6.0788649999999995  C 9.33612 8.390785000000001  7.606140000000002 10.26506  5.472239999999999 10.26506  C 3.33816 10.26506  1.6083599999999998 8.390785000000001  1.6083599999999998 6.0788649999999995  C 1.6083599999999998 3.7672049999999997  3.33822 1.8928649999999998  5.472239999999999 1.8928649999999998  C 7.606140000000002 1.8928649999999998  9.33612 3.76714  9.33612 6.0788649999999995  Z " fill-rule="nonzero" fill="#d7d7d7" stroke="none" transform="matrix(1 0 0 1 58 60 )" />
  </g>
</svg>