<?xml version="1.0" encoding="utf-8"?>
<svg version="1.1" xmlns:xlink="http://www.w3.org/1999/xlink" width="18px" height="18px" xmlns="http://www.w3.org/2000/svg">
  <g transform="matrix(1 0 0 1 -106 -11 )">
    <path d="M 0.6666666666666667 9  C 0.6666666666666667 4.391666666666667  4.391666666666667 0.6666666666666667  9 0.6666666666666667  C 13.608333333333334 0.6666666666666667  17.333333333333336 4.391666666666667  17.333333333333336 9  C 17.333333333333336 13.608333333333334  13.608333333333334 17.333333333333336  9 17.333333333333336  C 4.391666666666667 17.333333333333336  0.6666666666666667 13.608333333333334  0.6666666666666667 9  Z M 13.166666666666668 6.008333333333334  L 11.991666666666667 4.833333333333334  L 9 7.825000000000001  L 6.008333333333334 4.833333333333334  L 4.833333333333334 6.008333333333334  L 7.825000000000001 9  L 4.833333333333334 11.991666666666667  L 6.008333333333334 13.166666666666668  L 9 10.175  L 11.991666666666667 13.166666666666668  L 13.166666666666668 11.991666666666667  L 10.175 9  L 13.166666666666668 6.008333333333334  Z " fill-rule="nonzero" fill="#555555" stroke="none" transform="matrix(1 0 0 1 106 11 )" />
  </g>
</svg>