<?xml version="1.0" encoding="utf-8"?>
<svg version="1.1" xmlns:xlink="http://www.w3.org/1999/xlink" width="19px" height="22px" xmlns="http://www.w3.org/2000/svg">
  <g transform="matrix(1 0 0 1 -20 -110 )">
    <path d="M 2.572916666666667 5.907407407407408  L 0.59375 5.907407407407408  L 0.59375 3.8703703703703702  L 2.572916666666667 3.8703703703703702  L 2.572916666666667 2.851851851851852  C 2.572916666666667 1.7212962962962968  3.463541666666667 0.8148148148148149  4.552083333333334 0.8148148148148149  L 10.489583333333334 0.8148148148148149  L 10.489583333333334 7.944444444444445  L 12.963541666666668 6.416666666666667  L 15.4375 7.944444444444445  L 15.4375 0.8148148148148149  L 16.427083333333336 0.8148148148148149  C 17.466145833333336 0.8148148148148149  18.40625 1.7824074074074077  18.40625 2.851851851851852  L 18.40625 19.14814814814815  C 18.40625 20.21759259259259  17.466145833333336 21.18518518518519  16.427083333333336 21  L 4.552083333333334 21  C 3.513020833333334 21.18518518518519  2.572916666666667 20.21759259259259  2.572916666666667 19.14814814814815  L 2.572916666666667 18.12962962962963  L 0.59375 18.12962962962963  L 0.59375 16.09259259259259  L 2.572916666666667 16.09259259259259  L 2.572916666666667 12.018518518518519  L 0.59375 12.018518518518519  L 0.59375 9.981481481481483  L 2.572916666666667 9.981481481481483  L 2.572916666666667 5.907407407407408  Z M 4.552083333333334 12.018518518518519  L 4.552083333333334 9.981481481481483  L 2.572916666666667 9.981481481481483  L 2.572916666666667 12.018518518518519  L 4.552083333333334 12.018518518518519  Z M 2.572916666666667 5.907407407407408  L 4.552083333333334 5.907407407407408  L 4.552083333333334 3.8703703703703702  L 2.572916666666667 3.8703703703703702  L 2.572916666666667 5.907407407407408  Z M 2.572916666666667 18.12962962962963  L 4.552083333333334 18.12962962962963  L 4.552083333333334 16.09259259259259  L 2.572916666666667 16.09259259259259  L 2.572916666666667 18.12962962962963  Z " fill-rule="nonzero" fill="#333333" stroke="none" transform="matrix(1 0 0 1 20 110 )" />
  </g>
</svg>