<?xml version="1.0" encoding="utf-8"?>
<svg version="1.1" xmlns:xlink="http://www.w3.org/1999/xlink" width="15px" height="12px" xmlns="http://www.w3.org/2000/svg">
  <g transform="matrix(1 0 0 1 -303 -17 )">
    <path d="M 7.187880517916561 2.6151500800000003  C 9.273566816259086 2.61524747  11.279498148602304 3.46935828  12.791079379193976 5.000950619999999  C 12.90490495566849 5.11919529  13.086843628105488 5.117703730000001  13.198949830313023 4.99760682  L 14.287022178952475 3.82727719  C 14.343786842252934 3.7663643799999997  14.375434953760877 3.68385445  14.374969016459517 3.5980054299999997  C 14.374492766662527 3.5121564000000003  14.341940905539854 3.4300466  14.284512492522383 3.3698455000000003  C 10.317095746388043 -0.6823848899999998  4.0580381022124445 -0.6823848899999998  0.09062229357764784 3.3698455000000003  C 0.033150755578564894 3.4300019199999996  0.0005426444798552701 3.5120867899999997  0 3.5979359300000002  C -0.0005167300685083135 3.68378508  0.031075131463450645 3.76632009  0.08779854478144004 3.82727719  L 1.17618495578701 4.99760682  C 1.2882189705253404 5.1178849500000005  1.4702982679023513 5.11937767  1.5840554069061088 5.000950619999999  C 3.0958288249157913 3.4692577499999997  5.101990782160694 2.6151444699999997  7.187880517916561 2.6151500800000003  Z M 7.187880517916561 6.42273393  C 8.333829404382378 6.42265909  9.438884558281844 6.87661235  10.288323883653899 7.6963869  C 10.40321445967442 7.8127317000000005  10.584196882519041 7.8102093  10.696194334772946 7.6907025  L 11.783011371447527 6.52037286  C 11.840245722047738 6.458985739999999  11.872002583509364 6.37570878  11.871193521354245 6.28917317  C 11.870351646713141 6.202637559999999  11.837013223425807 6.120065950000001  11.778619185819982 6.05993174  C 9.19190591357227 3.49552319  5.186051683824372 3.49552319  2.59933841157666 6.05993174  C 2.54090874898606 6.120065220000001  2.507571263198269 6.202678199999999  2.506791263530791 6.28924177  C 2.506038451351708 6.37580535  2.5379059377661615 6.45907439  2.5952602883152323 6.52037286  L 3.6817642001232946 7.6907025  C 3.7937607148776005 7.8102093  3.9747440752218206 7.8127317000000005  4.089634651242394 7.6963869  C 4.9385124143538315 6.87715403  6.042689131127767 6.42323962  7.187880517916561 6.42273393  Z M 7.3965219914697204 11.2378044  L 9.276490877512542 9.2158092  C 9.334615852733057 9.1550129  9.366624901587123 9.0713489  9.364962714795722 8.9845705  C 9.363299590504779 8.897792  9.328111480505918 8.8155907  9.267706506257452 8.7573743  C 8.067088268097901 7.675103099999999  6.308673705234766 7.675103099999999  5.108055467075216 8.7573743  C 5.047608305344736 8.8155439  5.0123630078702925 8.8977193  5.010640821104463 8.9844982  C 5.00891769683909 9.0712771  5.040871433216768 9.1549675  5.09895703345401 9.2158092  L 6.97923904436335 11.2378044  C 7.034349020869194 11.2972294  7.109483988838063 11.3306727  7.187880517916561 11.3306727  C 7.266277984494605 11.3306727  7.341412952463474 11.2972294  7.3965219914697204 11.2378044  Z " fill-rule="nonzero" fill="#ffffff" stroke="none" transform="matrix(1 0 0 1 303 17 )" />
  </g>
</svg>