<svg t="1596166245857" class="icon" viewBox="0 0 1024 1024" version="1.1" xmlns="http://www.w3.org/2000/svg" p-id="10474"><path d="M978 315.1c-25.5-60.2-61.9-114.3-108.4-160.8S769.1 71.5 708.9 46C646.5 19.6 580.3 6.2 512 6.2c-68.3 0-134.5 13.4-196.9 39.8-60.2 25.5-114.3 61.9-160.8 108.4S71.5 254.9 46 315.1C19.6 377.5 6.2 443.7 6.2 512c0 68.3 13.4 134.5 39.8 196.9 25.5 60.2 61.9 114.3 108.4 160.8S254.9 952.5 315.1 978c62.4 26.4 128.6 39.8 196.9 39.8 68.3 0 134.5-13.4 196.9-39.8 60.2-25.5 114.3-61.9 160.8-108.4S952.5 769.1 978 708.9c26.4-62.4 39.8-128.6 39.8-196.9 0-68.3-13.4-134.5-39.8-196.9zM512 993.4c-265.4 0-481.4-216-481.4-481.4S246.6 30.6 512 30.6s481.4 216 481.4 481.4-216 481.4-481.4 481.4z" fill="#231815" p-id="10475"></path><path d="M750.4 449.4L451.8 273.6c-50.2-29.5-113.5 6.3-114 64.5l-3 346.4c-0.5 58.2 62.2 95.1 112.9 66.5l301.5-170.6c50.7-28.7 51.3-101.5 1.2-131z m-313-26.3c-27.7 0-50.2-22.5-50.2-50.2 0-27.7 22.5-50.2 50.2-50.2s50.2 22.5 50.2 50.2c0 27.7-22.4 50.2-50.2 50.2z" fill="#231815" p-id="10476"></path></svg>