<?xml version="1.0" encoding="utf-8"?>
<svg version="1.1" xmlns:xlink="http://www.w3.org/1999/xlink" width="22px" height="20px" xmlns="http://www.w3.org/2000/svg">
  <g transform="matrix(1 0 0 1 -9 -8 )">
    <path d="M 9.900000000000002 15  L 9.900000000000002 13  L 12.100000000000001 13  L 12.100000000000001 15  L 9.900000000000002 15  Z M 9.900000000000002 11  L 9.900000000000002 5  L 12.100000000000001 5  L 12.100000000000001 11  L 9.900000000000002 11  Z M 22 10  C 22 4.475000000000001  17.072 0  10.9945 0  C 4.917000000000001 0  0 4.475  0 10  C 0 15.524999999999999  4.917000000000001 20  10.9945 20  C 17.072 20  22 15.524999999999999  22 10  Z M 19.800000000000004 10  C 19.800000000000004 14.420000000000002  15.862000000000002 18  11 18  C 6.138000000000002 18  2.2000000000000015 14.420000000000002  2.2000000000000015 10  C 2.2000000000000015 5.579999999999998  6.138000000000002 2  11 2  C 15.862000000000002 2  19.800000000000004 5.58  19.800000000000004 10  Z " fill-rule="nonzero" fill="#8a1410" stroke="none" transform="matrix(1 0 0 1 9 8 )" />
  </g>
</svg>