<?xml version="1.0" encoding="utf-8"?>
<svg version="1.1" xmlns:xlink="http://www.w3.org/1999/xlink" width="12px" height="12px" xmlns="http://www.w3.org/2000/svg">
  <g transform="matrix(1 0 0 1 -317 -87 )">
    <path d="M 11.828571428571427 0.5934065934065897  C 11.802197802197801 0.38241758241757884  11.617582417582417 0.19780219780219405  11.406593406593407 0.19780219780219785  L 10.615384615384617 0.19780219780219785  C 10.404395604395607 0.19780219780219785  10.219780219780219 0.38241758241758256  10.219780219780219 0.5934065934065935  L 10.219780219780219 2.4395604395604398  C 10.219780219780219 2.676923076923077  10.087912087912088 2.7824175824175823  9.903296703296704 2.6241758241758237  C 9.824175824175825 2.5186813186813186  9.745054945054944 2.4395604395604398  9.639560439560439 2.3604395604395605  C 8.32087912087912 1.0417582417582418  6.474725274725275 0.48791208791208796  4.5758241758241756 0.857142857142857  C 3.916483516483517 0.989010989010989  3.2835164835164834 1.2527472527472525  2.729670329670329 1.621978021978022  C 1.1208791208791207 2.6769230769230763  0.1978021978021975 4.391208791208791  0.1714285714285712 6.237362637362638  C 0.14505494505494473 7.661538461538463  0.6989010989010986 9.085714285714287  1.701098901098901 10.114285714285714  C 2.756043956043956 11.221978021978021  4.1802197802197805 11.828571428571427  5.70989010989011 11.828571428571427  C 7.054945054945055 11.828571428571427  8.32087912087912 11.353846153846153  9.323076923076922 10.509890109890108  C 9.507692307692308 10.35164835164835  9.507692307692308 10.087912087912088  9.349450549450548 9.929670329670328  L 8.795604395604395 9.375824175824174  C 8.663736263736263 9.243956043956041  8.426373626373625 9.217582417582415  8.268131868131867 9.349450549450546  C 7.318681318681317 10.140659340659338  6.0263736263736245 10.457142857142856  4.734065934065933 10.140659340659338  C 4.39120879120879 10.06153846153846  4.048351648351646 9.903296703296702  3.7318681318681306 9.718681318681316  C 2.2285714285714278 8.795604395604393  1.5164835164835155 7.054945054945051  1.9384615384615373 5.314285714285711  C 2.0175824175824166 4.971428571428568  2.1758241758241743 4.628571428571425  2.360439560439559 4.312087912087909  C 3.098901098901097 3.019780219780216  4.39120879120879 2.3076923076923044  5.762637362637362 2.3076923076923044  C 6.8175824175824165 2.3076923076923044  7.819780219780217 2.729670329670327  8.558241758241758 3.468131868131865  C 8.69010989010989 3.5736263736263703  8.795604395604395 3.705494505494502  8.874725274725275 3.8373626373626344  C 8.953846153846154 4.0483516483516455  8.76923076923077 4.153846153846151  8.531868131868132 4.153846153846151  L 6.685714285714286 4.153846153846151  C 6.474725274725275 4.153846153846151  6.290109890109891 4.338461538461535  6.290109890109891 4.549450549450546  L 6.290109890109891 5.367032967032964  C 6.290109890109891 5.578021978021975  6.448351648351649 5.736263736263733  6.65934065934066 5.736263736263733  L 11.485714285714286 5.736263736263733  C 11.670329670329672 5.736263736263733  11.828571428571427 5.578021978021974  11.828571428571427 5.393406593406589  L 11.828571428571427 0.5934065934065897  Z " fill-rule="nonzero" fill="#ffffff" stroke="none" transform="matrix(1 0 0 1 317 87 )" />
  </g>
</svg>