<?xml version="1.0" encoding="utf-8"?>
<svg version="1.1" xmlns:xlink="http://www.w3.org/1999/xlink" width="10px" height="10px" xmlns="http://www.w3.org/2000/svg">
  <g transform="matrix(1 0 0 1 -552 -55 )">
    <path d="M 0.375 9.977777777777778  C 0.16875000000000018 9.977777777777778  0 9.857777777777779  0 9.711111111111112  L 0 0.28888888888888886  C 0 0.1422222222222222  0.16875000000000018 0.022222222222222223  0.375 0.022222222222222223  L 1.875 0.022222222222222223  C 2.08125 0.022222222222222223  2.25 0.1422222222222222  2.25 0.28888888888888886  L 2.25 4.20888888888889  L 8.359375 0.1866666666666668  C 9.003125 -0.1933333333333333  10 0.12444444444444447  10 0.7333333333333334  L 10 9.266666666666666  C 10 9.875555555555556  9.003125 10.193333333333332  8.359375 9.813333333333334  L 2.25 5.815555555555555  L 2.25 9.711111111111112  C 2.25 9.857777777777779  2.08125 9.977777777777778  1.875 9.977777777777778  L 0.375 9.977777777777778  Z " fill-rule="nonzero" fill="#000000" stroke="none" fill-opacity="0.6431372549019608" transform="matrix(1 0 0 1 552 55 )" />
  </g>
</svg>