<?xml version="1.0" encoding="utf-8"?>
<svg version="1.1" xmlns:xlink="http://www.w3.org/1999/xlink" width="9px" height="10px" xmlns="http://www.w3.org/2000/svg">
  <g transform="matrix(1 0 0 1 -17 -41 )">
    <path d="M 0.33749999999999997 9.977777777777778  C 0.15187500000000018 9.977777777777778  0 9.857777777777779  0 9.711111111111112  L 0 0.28888888888888886  C 0 0.1422222222222222  0.15187500000000018 0.022222222222222223  0.33749999999999997 0.022222222222222223  L 1.6875 0.022222222222222223  C 1.8731249999999997 0.022222222222222223  2.025 0.1422222222222222  2.025 0.28888888888888886  L 2.025 4.20888888888889  L 7.5234375 0.1866666666666668  C 8.1028125 -0.1933333333333333  9 0.12444444444444447  9 0.7333333333333334  L 9 9.266666666666666  C 9 9.875555555555556  8.1028125 10.193333333333332  7.5234375 9.813333333333334  L 2.025 5.815555555555555  L 2.025 9.711111111111112  C 2.025 9.857777777777779  1.8731249999999997 9.977777777777778  1.6875 9.977777777777778  L 0.33749999999999997 9.977777777777778  Z " fill-rule="nonzero" fill="#000000" stroke="none" fill-opacity="0.6431372549019608" transform="matrix(1 0 0 1 17 41 )" />
  </g>
</svg>