<?xml version="1.0" encoding="utf-8"?>
<svg version="1.1" xmlns:xlink="http://www.w3.org/1999/xlink" width="67px" height="127px" xmlns="http://www.w3.org/2000/svg">
  <defs>
    <filter x="47px" y="27px" width="67px" height="127px" filterUnits="userSpaceOnUse" id="filter768">
      <feOffset dx="-1" dy="1" in="SourceAlpha" result="shadowOffsetInner" />
      <feGaussianBlur stdDeviation="2.5" in="shadowOffsetInner" result="shadowGaussian" />
      <feComposite in2="shadowGaussian" operator="atop" in="SourceAlpha" result="shadowComposite" />
      <feColorMatrix type="matrix" values="0 0 0 0 0  0 0 0 0 0  0 0 0 0 0  0 0 0 0.34901960784313724 0  " in="shadowComposite" />
    </filter>
    <g id="widget769">
      <path d="M 0 115.18604651162791  L 0 5.441860465116279  C 0 4.426046511627902  0.8799999999999927 3.627906976744186  2.0000000000000027 4  L 55 4  C 56.11999999999998 3.627906976744186  57 4.426046511627902  57 5.441860465116279  L 57 115.18604651162791  C 57 116.20186046511628  56.11999999999998 117  55 117  L 2.0000000000000027 117  C 0.8799999999999927 117  0 116.20186046511628  0 115.18604651162791  Z M 24.000000000000007 4.534883720930233  L 28.5 0  L 32.99999999999999 4.534883720930233  L 24.000000000000007 4.534883720930233  Z " fill-rule="nonzero" fill="#ffffff" stroke="none" transform="matrix(1 0 0 1 53 31 )" />
    </g>
  </defs>
  <g transform="matrix(1 0 0 1 -47 -27 )">
    <use xlink:href="#widget769" filter="url(#filter768)" />
    <use xlink:href="#widget769" />
  </g>
</svg>