<?xml version="1.0" encoding="utf-8"?>
<svg version="1.1" xmlns:xlink="http://www.w3.org/1999/xlink" width="19px" height="20px" xmlns="http://www.w3.org/2000/svg">
  <g transform="matrix(1 0 0 1 -177 -49 )">
    <path d="M 18.62 10  C 18.62 4.719999999999999  14.515999999999998 0.39999999999999974  9.5 0.39999999999999974  C 4.483999999999999 0.39999999999999974  0.3799999999999997 4.719999999999999  0.3799999999999997 10  C 0.3799999999999997 15.279999999999998  4.483999999999999 19.6  9.5 19.6  C 14.515999999999998 19.6  18.62 15.279999999999998  18.62 10  Z M 16.796 10  C 16.796 14.223999999999998  13.512799999999999 17.68  9.5 17.68  C 5.487199999999999 17.68  2.204 14.223999999999998  2.204 10  C 2.204 5.775999999999999  5.487199999999999 2.3200000000000003  9.5 2.3200000000000003  C 13.512799999999999 2.3200000000000003  16.796 5.775999999999999  16.796 10  Z M 13.056799999999999 12.4  L 10.411999999999999 9.616  L 10.411999999999999 5.5200000000000005  C 10.411999999999999 5.167999999999999  10.138399999999999 4.880000000000001  9.804 4.880000000000001  L 9.196 4.880000000000001  C 8.8616 4.880000000000001  8.588 5.167999999999999  8.588 5.5200000000000005  L 8.588 10  C 8.588 10.255999999999998  8.679199999999998 10.512  8.8616 10.671999999999999  L 11.779999999999998 13.744  C 12.0232 14  12.387999999999998 14  12.6312 13.744  L 13.056799999999999 13.296000000000001  C 13.299999999999997 13.040000000000001  13.299999999999997 12.656  13.056799999999999 12.4  Z " fill-rule="nonzero" fill="#ffffff" stroke="none" transform="matrix(1 0 0 1 177 49 )" />
  </g>
</svg>