<?xml version="1.0" encoding="utf-8"?>
<svg version="1.1" xmlns:xlink="http://www.w3.org/1999/xlink" width="10px" height="8px" xmlns="http://www.w3.org/2000/svg">
  <g transform="matrix(1 0 0 1 -197 -19 )">
    <path d="M 4.0358974358974375 7.692307692307693  C 3.9128205128205145 7.84895104895105  3.707692307692309 7.84895104895105  3.584615384615385 7.692307692307693  L 0.20000000000000032 3.9776223776223776  C 0.07692307692307723 3.843356643356643  0.07692307692307723 3.619580419580419  0.20000000000000032 3.4853146853146852  L 0.6512820512820516 2.9930069930069934  C 0.7743589743589747 2.858741258741259  0.97948717948718 2.858741258741259  1.102564102564103 2.9930069930069934  L 3.6461538461538465 5.79020979020979  C 3.7282051282051287 5.87972027972028  3.871794871794873 5.87972027972028  3.9538461538461545 5.79020979020979  L 8.938461538461539 0.3076923076923079  C 9.061538461538461 0.17342657342657344  9.26666666666667 0.17342657342657344  9.389743589743592 0.3076923076923079  L 9.841025641025642 0.8  C 9.964102564102568 0.9342657342657342  9.964102564102568 1.1580419580419579  9.841025641025642 1.2923076923076922  L 4.0358974358974375 7.692307692307693  Z " fill-rule="nonzero" fill="#ffffff" stroke="none" transform="matrix(1 0 0 1 197 19 )" />
  </g>
</svg>