<?xml version="1.0" encoding="utf-8"?>
<svg version="1.1" xmlns:xlink="http://www.w3.org/1999/xlink" width="8px" height="10px" xmlns="http://www.w3.org/2000/svg">
  <g transform="matrix(1 0 0 1 -194 -193 )">
    <path d="M 7.7 0.022222222222222223  C 7.865 0.022222222222222223  8 0.1422222222222222  8 0.28888888888888886  L 8 9.711111111111112  C 8 9.857777777777779  7.865 9.977777777777778  7.7 9.977777777777778  L 6.5 9.977777777777778  C 6.334999999999999 9.977777777777778  6.2 9.857777777777779  6.2 9.711111111111112  L 6.2 5.791111111111111  L 1.3125 9.813333333333334  C 0.7975000000000001 10.193333333333332  0 9.875555555555556  0 9.266666666666666  L 0 0.7333333333333334  C 0 0.12444444444444447  0.7975000000000001 -0.1933333333333334  1.3125 0.18666666666666665  L 6.2 4.184444444444445  L 6.2 0.28888888888888886  C 6.2 0.1422222222222222  6.334999999999999 0.022222222222222223  6.5 0.022222222222222223  L 7.7 0.022222222222222223  Z " fill-rule="nonzero" fill="#000000" stroke="none" fill-opacity="0.6431372549019608" transform="matrix(1 0 0 1 194 193 )" />
  </g>
</svg>