<?xml version="1.0" encoding="utf-8"?>
<svg version="1.1" xmlns:xlink="http://www.w3.org/1999/xlink" width="8px" height="10px" xmlns="http://www.w3.org/2000/svg">
  <g transform="matrix(1 0 0 1 -16 -193 )">
    <path d="M 0.3 9.977777777777778  C 0.13500000000000015 9.977777777777778  0 9.857777777777779  0 9.711111111111112  L 0 0.28888888888888886  C 0 0.1422222222222222  0.13500000000000015 0.022222222222222223  0.3 0.022222222222222223  L 1.5 0.022222222222222223  C 1.6649999999999998 0.022222222222222223  1.8 0.1422222222222222  1.8 0.28888888888888886  L 1.8 4.20888888888889  L 6.6875 0.1866666666666668  C 7.202500000000001 -0.1933333333333333  8 0.12444444444444447  8 0.7333333333333334  L 8 9.266666666666666  C 8 9.875555555555556  7.202500000000001 10.193333333333332  6.6875 9.813333333333334  L 1.8 5.815555555555555  L 1.8 9.711111111111112  C 1.8 9.857777777777779  1.6649999999999998 9.977777777777778  1.5 9.977777777777778  L 0.3 9.977777777777778  Z " fill-rule="nonzero" fill="#000000" stroke="none" fill-opacity="0.6431372549019608" transform="matrix(1 0 0 1 16 193 )" />
  </g>
</svg>