<?xml version="1.0" encoding="utf-8"?>
<svg version="1.1" xmlns:xlink="http://www.w3.org/1999/xlink" width="21px" height="22px" xmlns="http://www.w3.org/2000/svg">
  <g transform="matrix(1 0 0 1 -305 -8 )">
    <path d="M 21 11  C 21 4.922500000000005  16.301249999999996 0  10.5 0  C 4.698750000000004 0  0 4.922500000000005  0 11  C 0 17.077499999999993  4.698750000000004 22  10.5 22  C 16.301249999999996 22  21 17.077499999999993  21 11  Z M 7.34999999999998 6.600000000000007  C 7.34999999999998 4.779500000000016  8.762250000000009 3.3000000000000207  10.5 3.3000000000000207  C 12.237749999999991 3.3000000000000207  13.65000000000002 4.779500000000016  13.65000000000002 6.600000000000007  C 13.65000000000002 8.426000000000005  12.237749999999991 9.899999999999993  10.5 9.899999999999993  C 8.762250000000009 9.899999999999993  7.34999999999998 8.426000000000005  7.34999999999998 6.600000000000007  Z M 16.800000000000004 15.377999999999991  C 15.440249999999997 17.512000000000004  13.130250000000009 18.920000000000023  10.5 18.920000000000023  C 7.869749999999991 18.920000000000023  5.559750000000003 17.512000000000004  4.199999999999993 15.377999999999991  C 4.226250000000003 13.194500000000005  8.405249999999995 11.990000000000004  10.5 11.990000000000004  C 12.594750000000005 11.990000000000004  16.76849999999999 13.194500000000005  16.800000000000004 15.377999999999991  Z " fill-rule="nonzero" fill="#cccccc" stroke="none" transform="matrix(1 0 0 1 305 8 )" />
  </g>
</svg>