<?xml version="1.0" encoding="utf-8"?>
<svg version="1.1" xmlns:xlink="http://www.w3.org/1999/xlink" width="21px" height="22px" xmlns="http://www.w3.org/2000/svg">
  <g transform="matrix(1 0 0 1 -171 -8 )">
    <path d="M 2.1 19.8  L 2.1 4.4  L 0 4.4  L 0 19.8  C 0 21.0155  0.93975 22  2.1 22  L 16.8 22  L 16.8 19.8  L 2.1 19.8  Z M 21 2.2  C 21 0.9844999999999999  20.06025 0  18.900000000000002 0  L 6.3 0  C 5.139749999999999 0  4.2 0.9844999999999999  4.2 2.2  L 4.2 15.399999999999999  C 4.2 16.6155  5.139749999999999 17.6  6.3 17.6  L 18.900000000000002 17.6  C 20.06025 17.6  21 16.6155  21 15.399999999999999  L 21 2.2  Z M 17.849999999999998 8  L 17.849999999999998 10  L 7.35 10  L 7.35 8  L 17.849999999999998 8  Z M 13.65 12.100000000000001  L 13.65 14.3  L 7.35 14.3  L 7.35 12.100000000000001  L 13.65 12.100000000000001  Z M 17.849999999999998 3.3  L 17.849999999999998 5.5  L 7.35 5.5  L 7.35 3.3  L 17.849999999999998 3.3  Z " fill-rule="nonzero" fill="#cccccc" stroke="none" transform="matrix(1 0 0 1 171 8 )" />
  </g>
</svg>