<?xml version="1.0" encoding="utf-8"?>
<svg version="1.1" xmlns:xlink="http://www.w3.org/1999/xlink" width="29px" height="28px" xmlns="http://www.w3.org/2000/svg">
  <g transform="matrix(1 0 0 1 -14 -397 )">
    <path d="M 28.021884765624996 6.348403320312514  C 28.021928710937495 5.555278320312512  27.866669921874994 4.7997265625000125  27.593461914062495 4.103500976562501  L 23.607578124999996 8.089384765624999  C 22.646054687499998 9.050908203125001  21.087094726562498 9.050908203125001  20.125615234374994 8.089384765624999  C 19.164091796874995 7.127861328125  19.164091796874995 5.5689013671875  20.125615234374994 4.607421875000002  L 24.111499023437496 0.6215380859375017  C 23.415273437499998 0.3483300781250005  22.659721679687493 0.19311523437500178  21.866596679687493 0.19311523437500178  C 18.467119140624995 0.19311523437500178  15.711264648437496 2.9489257812500007  15.711264648437496 6.348447265625001  C 15.711264648437496 7.141572265625002  15.8664794921875 7.897124023437499  16.139687499999994 8.593349609375  L 9.338710937499997 15.394326171875004  C 8.642485351562495 15.121118164062505  7.886933593749996 14.965903320312503  7.093808593749996 14.965903320312503  C 3.6943310546874955 14.965903320312503  0.9384765624999947 17.7217578125  0.9384765624999947 21.1212353515625  C 0.9384765624999947 21.9143603515625  1.0936914062499952 22.669912109374998  1.3668994140624946 23.366137695312503  L 5.3527832031249964 19.380253906250005  C 6.314306640624995 18.418730468750002  7.873266601562496 18.418730468750002  8.834746093749995 19.380253906250005  C 9.796269531249994 20.341777343750003  9.796269531249994 21.900737304687503  8.834746093749995 22.862216796875003  L 4.848862304687497 26.84810058593751  C 5.545087890624998 27.12130859375001  6.300639648437496 27.27652343750001  7.093764648437498 27.27652343750001  C 10.493242187499998 27.27652343750001  13.249096679687497 24.520712890625006  13.249096679687497 21.12119140625001  C 13.249096679687497 20.32806640625001  13.093881835937498 19.572514648437508  12.820673828124999 18.87628906250001  L 19.621650390624996 12.07531250000001  C 20.317875976562494 12.348520507812509  21.073427734374995 12.503735351562511  21.866552734374995 12.503735351562511  C 25.266030273437494 12.503735351562511  28.021884765624996 9.747880859375012  28.021884765624996 6.348403320312514  Z " fill-rule="nonzero" fill="#231f20" stroke="none" transform="matrix(1 0 0 1 14 397 )" />
  </g>
</svg>