<?xml version="1.0" encoding="utf-8"?>
<svg version="1.1" xmlns:xlink="http://www.w3.org/1999/xlink" width="29px" height="29px" xmlns="http://www.w3.org/2000/svg">
  <g transform="matrix(1 0 0 1 -14 -395 )">
    <path d="M 27.593505859375 4.8725048828125  L 23.607578125000003 8.8583447265625  C 22.6460546875 9.819868164062498  21.0870947265625 9.819868164062498  20.125615234375 8.8583447265625  C 19.164091796875 7.8968212890624985  19.164091796875 6.337861328124998  20.125615234375 5.376381835937501  L 24.111499023437503 1.3904980468750008  C 23.4152734375 1.1172900390624996  22.659721679687504 0.9620751953125009  21.866596679687504 0.9620751953125009  C 18.467119140625005 0.9620751953125009  15.711264648437508 3.7178857421875  15.711264648437508 7.1174072265625  C 15.711264648437508 10.516884765624997  18.467119140625005 13.2727392578125  21.866596679687504 13.2727392578125  C 25.26607421875 13.2727392578125  28.0219287109375 10.516884765624997  28.0219287109375 7.1174072265625  C 28.0219287109375 6.3242822265625005  27.8667138671875 5.568730468750001  27.593505859375 4.8725048828125  Z M 1.3669433593750018 24.1349658203125  L 5.352871093749998 20.149125976562498  C 6.314394531249999 19.1876025390625  7.8733544921875005 19.1876025390625  8.834833984374999 20.149125976562498  C 9.796357421874998 21.1106494140625  9.796357421874998 22.669609375  8.834833984374999 23.6310888671875  L 4.848950195312499 27.61697265625  C 5.54517578125 27.8901806640625  6.3007275390625 28.0453955078125  7.0938525390625 28.0453955078125  C 10.493330078125002 28.0453955078125  13.2491845703125 25.289584960937503  13.2491845703125 21.890063476562503  C 13.2491845703125 18.490585937500004  10.493330078125002 15.734731445312505  7.093852539062503 15.734731445312505  C 3.6943750000000044 15.734731445312505  0.938520507812502 18.490585937500004  0.938520507812502 21.890063476562503  C 0.938520507812502 22.683188476562503  1.0937353515625023 23.438740234375004  1.3669433593750018 24.1349658203125  Z " fill-rule="nonzero" fill="#ffffff" stroke="none" transform="matrix(1 0 0 1 14 395 )" />
  </g>
</svg>