<?xml version="1.0" encoding="utf-8"?>
<svg version="1.1" xmlns:xlink="http://www.w3.org/1999/xlink" width="19px" height="19px" xmlns="http://www.w3.org/2000/svg">
  <g transform="matrix(1 0 0 1 -100 -400 )">
    <path d="M 4.707548828124999 4.892358398437505  C 5.98029296875 3.619570312500004  7.64845703125 2.9831982421875036  9.316621093749998 2.983198242187502  C 10.984785156249998 2.983198242187502  12.652949218749999 3.6195703125000005  13.925693359375 4.8923583984375005  C 16.471225585937496 7.437890625000001  16.471225585937496 11.564970703125002  13.925693359375 14.110502929687506  C 12.652949218749999 15.383247070312503  10.984785156249998 16.019663085937502  9.316621093749998 16.019663085937502  C 7.64845703125 16.019663085937502  5.98029296875 15.383291015625002  4.707548828124999 14.110502929687506  C 2.162016601562499 11.564970703125006  2.162016601562499 7.437890625000005  4.707548828124999 4.892358398437505  Z M 15.670366210937502 3.1476416015625013  C 13.973242187499999 1.4504736328125016  11.716738281250002 0.5158007812500021  9.316621093749998 0.5158007812500021  C 6.916459960937498 0.5158007812500021  4.659999999999998 1.4504736328125016  2.9628320312499983 3.1476416015625013  C -0.5406201171875011 6.651093750000001  -0.5406201171875011 12.351679687500003  2.9628320312499983 15.85517578125  C 4.659999999999998 17.552343750000002  6.916459960937498 18.4870166015625  9.316621093749998 18.4870166015625  C 11.7167822265625 18.4870166015625  13.973242187499999 17.552343750000002  15.670366210937502 15.85517578125  C 19.173862304687503 12.351679687499999  19.173862304687503 6.651137695312504  15.670366210937502 3.1476416015625013  Z " fill-rule="nonzero" fill="#231f20" stroke="none" transform="matrix(1 0 0 1 100 400 )" />
  </g>
</svg>