<?xml version="1.0" encoding="utf-8"?>
<svg version="1.1" xmlns:xlink="http://www.w3.org/1999/xlink" width="19px" height="19px" xmlns="http://www.w3.org/2000/svg">
  <g transform="matrix(1 0 0 1 -100 -399 )">
    <path d="M 4.707548828124999 4.658681640625  C 5.98029296875 3.385893554687499  7.64845703125 2.749521484375  9.316621093749998 2.749521484375  C 10.984785156249998 2.749521484375  12.652949218749999 3.385893554687499  13.925693359375 4.658681640625  C 16.471225585937496 7.204213867187502  16.471225585937496 11.331293945312499  13.925693359375 13.876826171874999  C 12.652949218749999 15.1495703125  10.984785156249998 15.785986328124999  9.316621093749998 15.785986328124999  C 7.64845703125 15.785986328124999  5.98029296875 15.149614257812498  4.707548828124999 13.876826171874999  C 2.162016601562499 11.331293945312499  2.162016601562499 7.204213867187502  4.707548828124999 4.658681640625  Z M 15.670366210937502 2.913964843750003  C 13.973242187499999 1.2167968750000018  11.716738281250002 0.2821240234375022  9.316621093749998 0.2821240234375004  C 6.916459960937498 0.2821240234375004  4.659999999999998 1.216796875  2.9628320312499983 2.9139648437499996  C -0.5406201171875011 6.417416992187501  -0.5406201171875011 12.1180029296875  2.9628320312499983 15.621499023437503  C 4.659999999999998 17.318666992187502  6.916459960937498 18.253339843750002  9.316621093749998 18.253339843750002  C 11.7167822265625 18.253339843750002  13.973242187499999 17.318666992187502  15.670366210937502 15.621499023437503  C 19.173862304687503 12.1180029296875  19.173862304687503 6.417460937500003  15.670366210937502 2.913964843750003  Z " fill-rule="nonzero" fill="#ffffff" stroke="none" transform="matrix(1 0 0 1 100 399 )" />
  </g>
</svg>