<?xml version="1.0" encoding="utf-8"?>
<svg version="1.1" xmlns:xlink="http://www.w3.org/1999/xlink" width="21px" height="22px" xmlns="http://www.w3.org/2000/svg">
  <g transform="matrix(1 0 0 1 -16 -453 )">
    <path d="M 2.337075195312508 15.945502929687494  C 0.8142822265625096 17.1184912109375  0.3777294921875072 19.1042041015625  1.3600390625000003 20.3810791015625  C 2.343666992187501 21.657954101562503  4.375390625 21.740791015625  5.898183593750002 20.567802734375  C 6.517548828125001 20.090468750000007  7.615874023437502 18.793071289062503  7.615874023437502 16.134775390625002  L 7.615874023437502 7.913354492187499  L 19.327827148437503 5.676494140625  L 19.327827148437503 10.865556640624998  C 19.327827148437503 12.696054687499998  17.845156250000002 13.116875  17.349365234375007 13.2102587890625  C 17.305991210937506 13.215532226562498  17.263891601562502 13.226035156250001  17.220473632812507 13.233945312499998  L 17.165234375000008 13.240537109374998  L 17.173144531250006 13.243173828124995  C 16.586650390625007 13.349697265624993  15.996201171875004 13.595615234374995  15.466264648437505 14.003251953125  C 13.943471679687505 15.176240234374998  13.505556640625008 17.161953125  14.489184570312503 18.438828124999997  C 15.472812500000007 19.715703124999997  17.504536132812504 19.799858398437493  19.027329101562504 18.626870117187494  C 19.797910156250005 18.0324658203125  20.560625000000005 16.886108398437496  20.560625000000005 15.094633789062495  L 20.560625000000005 1.3303466796875014  C 20.560625000000005 0.6044580078125001  19.971494140625005 0.1941845703125011  19.245605468750004 0.41641601562499986  L 7.410429687500006 2.6532763671875  C 6.684541015625008 2.874189453125  6.383032226562507 3.6434960937500027  6.383032226562507 4.369384765625  L 6.383032226562507 12.378505859374997  C 6.383032226562507 14.211640624999992  4.690961914062504 15.060532226562497  4.196533203125005 15.152553710937497  C 4.171528320312504 15.1565087890625  4.146567382812506 15.164375000000001  4.120244140625006 15.168330078124999  C 4.084892525007213 15.174237554740502  4.049368004649063 15.17905915836997  4.013720703125006 15.182788085937496  L 4.028178710937507 15.189379882812496  C 3.4469580078125066 15.298540039062498  2.861738281250007 15.541821289062499  2.337075195312508 15.945502929687494  Z " fill-rule="nonzero" fill="#231f20" stroke="none" transform="matrix(1 0 0 1 16 453 )" />
  </g>
</svg>