<?xml version="1.0" encoding="utf-8"?>
<svg version="1.1" xmlns:xlink="http://www.w3.org/1999/xlink" width="26px" height="24px" xmlns="http://www.w3.org/2000/svg">
  <g transform="matrix(1 0 0 1 -312 -413 )">
    <path d="M 10.244462890625002 5.5043408203125  C 10.244462890625002 4.8210791015625  9.6906201171875 4.267236328125001  9.0073583984375 4.267236328125001  L 6.5331494140625 4.267236328125001  L 6.5331494140625 1.7930273437499995  C 6.5331494140625 1.1097656249999996  5.979262695312501 0.5559228515624994  5.296044921875 0.5559228515624994  C 4.612827148437498 0.5559228515624994  4.0589404296875 1.1097656249999996  4.0589404296875 1.7930273437499995  L 4.0589404296875 4.267236328125001  L 1.5847314453124977 4.267236328125001  C 0.9015136718749979 4.267236328125001  0.3476269531249976 4.8210791015625  0.3476269531249976 5.5043408203125  C 0.3476269531249976 6.187514648437499  0.9015136718749979 6.741445312500002  1.5847314453124977 6.741445312500002  L 4.0589404296875 6.741445312500002  L 4.0589404296875 9.215654296875002  C 4.0589404296875 9.898828125000001  4.612827148437498 10.452758789062504  5.296044921875 10.452758789062504  C 5.979262695312501 10.452758789062504  6.5331494140625 9.898828125000001  6.5331494140625 9.215654296875002  L 6.5331494140625 6.741445312500002  L 9.0073583984375 6.741445312500002  C 9.690576171875001 6.741445312500002  10.244462890625002 6.187514648437499  10.244462890625002 5.5043408203125  Z M 15.192924804687502 5.5043408203125  C 15.192924804687502 6.187514648437499  15.7468115234375 6.741445312499998  16.430029296875 6.741445312499998  L 23.8527001953125 6.741445312499998  C 24.53591796875 6.741445312499998  25.0898046875 6.187514648437499  25.0898046875 5.5043408203125  C 25.0898046875 4.8210791015625  24.53591796875 4.267236328124998  23.8527001953125 4.267236328124998  L 16.430029296875 4.267236328124998  C 15.746811523437497 4.267236328124998  15.192924804687502 4.8210791015625  15.192924804687502 5.5043408203125  Z M 25.0898046875 18.494003906249997  C 25.089848632812497 17.810742187499997  24.535961914062497 17.2568994140625  23.8527001953125 17.2568994140625  L 16.430029296875 17.2568994140625  C 15.746811523437497 17.2568994140625  15.192924804687502 17.810742187499997  15.192924804687502 18.494003906249997  C 15.192924804687502 19.177177734374997  15.7468115234375 19.731108398437495  16.430029296875 19.731108398437495  L 23.8527001953125 19.731108398437495  C 24.53591796875 19.731108398437495  25.0898046875 19.177177734374993  25.0898046875 18.494003906249997  Z M 9.519804687500002 16.6383251953125  C 10.002939453124998 16.155234375  10.002939453124998 15.371953125000001  9.519804687500002 14.888818359375001  C 9.036669921875003 14.4056396484375  8.253388671875001 14.4056396484375  7.770253906250002 14.888818359375001  L 5.296044921875 17.36302734375  L 2.8218359374999995 14.888818359375001  C 2.338701171875 14.4056396484375  1.555419921875 14.4056396484375  1.0722851562499986 14.888818359375001  C 0.5891503906249991 15.371909179687503  0.5891503906249991 16.155234375  1.0722851562499986 16.6383251953125  L 3.546494140624999 19.112534179687504  L 1.0722851562499986 21.586743164062504  C 0.5891503906249991 22.06983398437501  0.5891503906249991 22.853159179687502  1.0722851562499986 23.336250000000007  C 1.555419921875 23.819340820312505  2.338701171875 23.819340820312505  2.8218359374999995 23.336250000000007  L 5.296044921875 20.862041015625003  L 7.770253906250002 23.336250000000007  C 8.253388671875001 23.819340820312505  9.036669921875 23.819340820312505  9.519804687500002 23.336250000000007  C 10.002939453124998 22.853159179687502  10.002939453124998 22.06983398437501  9.519804687500002 21.586743164062504  L 7.045595703124998 19.112534179687504  L 9.519804687500002 16.6383251953125  Z " fill-rule="nonzero" fill="#231f20" stroke="none" transform="matrix(1 0 0 1 312 413 )" />
  </g>
</svg>