<?xml version="1.0" encoding="utf-8"?>
<svg version="1.1" xmlns:xlink="http://www.w3.org/1999/xlink" width="4px" height="16px" xmlns="http://www.w3.org/2000/svg">
  <g transform="matrix(1 0 0 1 -37 -511 )">
    <path d="M 3.108417968750004 3.540639648437498  C 3.108417968750004 4.217968750000001  2.5593212890625026 4.767065429687499  1.8819921875000034 4.767065429687499  C 1.2046630859375043 4.767065429687499  0.6555664062500028 4.217968750000001  0.6555664062500028 3.540639648437498  L 0.6555664062500028 1.701000976562499  C 0.6555664062500028 1.023671874999998  1.2046630859375043 0.47457519531249837  1.8819921875000034 0.47457519531249837  C 2.5593212890625026 0.47457519531249837  3.108417968750004 1.023671874999998  3.108417968750004 1.701000976562499  L 3.108417968750004 3.540639648437498  Z M 3.108417968750004 9.059555664062497  C 3.108417968750004 9.736928710937498  2.5593212890625026 10.285981445312498  1.8819921875000034 10.285981445312498  C 1.2046630859375043 10.285981445312498  0.6555664062500028 9.736884765625  0.6555664062500028 9.059555664062497  L 0.6555664062500028 7.219916992187496  C 0.6555664062500028 6.542587890624997  1.2046630859375043 5.993491210937496  1.8819921875000034 5.993491210937496  C 2.5593212890625026 5.993491210937496  3.108417968750004 6.542587890624997  3.108417968750004 7.219916992187496  L 3.108417968750004 9.059555664062497  Z M 3.108417968750004 14.578515624999998  C 3.108417968750004 15.255844726562497  2.5593212890625026 15.804941406249998  1.8819921875000034 15.804941406249998  C 1.2046630859375043 15.804941406249998  0.6555664062500028 15.255844726562497  0.6555664062500028 14.578515624999998  L 0.6555664062500028 12.738876953124997  C 0.6555664062500028 12.061547851562498  1.2046630859375043 11.512451171874996  1.8819921875000034 11.512451171874996  C 2.5593212890625026 11.512451171874996  3.108417968750004 12.061547851562498  3.108417968750004 12.738876953124997  L 3.108417968750004 14.578515624999998  Z " fill-rule="nonzero" fill="#231f20" stroke="none" transform="matrix(1 0 0 1 37 511 )" />
  </g>
</svg>