<?xml version="1.0" encoding="utf-8"?>
<svg version="1.1" xmlns:xlink="http://www.w3.org/1999/xlink" width="6px" height="18px" xmlns="http://www.w3.org/2000/svg">
  <g transform="matrix(1 0 0 1 -16 -512 )">
    <path d="M 3.8723046875000016 0.08778808593749865  C 4.549633789062501 0.08778808593749865  5.098730468750002 0.6368847656249983  5.098730468749999 1.3142138671874974  C 5.098730468749999 1.9915429687500001  4.549633789062499 2.540639648437498  3.872304687499998 2.540639648437498  L 2.0326660156250007 2.540639648437498  C 1.3553369140624998 2.540639648437498  0.8062402343750001 1.9915429687500001  0.8062402343750001 1.3142138671874974  C 0.8062402343750001 0.6368847656249983  1.3553369140624998 0.08778808593749865  2.0326660156250007 0.08778808593749865  L 3.8723046875000016 0.08778808593749865  Z M 3.8723046875000016 4.993491210937499  C 4.549633789062501 4.993491210937499  5.098730468750002 5.542587890624997  5.098730468749999 6.2199169921875  C 5.098730468749999 6.897246093749999  4.549633789062499 7.4463427734375  3.872304687499998 7.4463427734375  L 2.0326660156250007 7.4463427734375  C 1.3553369140624998 7.4463427734375  0.8062402343750001 6.897246093749999  0.8062402343750001 6.2199169921875  C 0.8062402343750001 5.542587890624997  1.3553369140624998 4.993491210937499  2.0326660156250007 4.993491210937499  L 3.8723046875000016 4.993491210937499  Z M 3.8723046875000016 9.89923828125  C 4.549633789062501 9.899194335937501  5.098730468750002 10.448291015625003  5.098730468749999 11.1256640625  C 5.098730468749999 11.802993164062503  4.549633789062499 12.35208984375  3.872304687499998 12.35208984375  L 2.0326660156250007 12.35208984375  C 1.3553369140624998 12.35208984375  0.8062402343750001 11.802993164062503  0.8062402343750001 11.1256640625  C 0.8062402343750001 10.448334960937501  1.3553369140624998 9.89923828125  2.0326660156250007 9.89923828125  L 3.8723046875000016 9.89923828125  Z M 3.8723046875000016 14.804941406249998  C 4.549633789062501 14.804941406249998  5.098730468750002 15.354038085937496  5.098730468749999 16.0313671875  C 5.098730468749999 16.708696289062498  4.549633789062499 17.257792968749996  3.872304687499998 17.257792968749996  L 2.0326660156250007 17.257792968749996  C 1.3553369140624998 17.257792968749996  0.8062402343750001 16.708696289062498  0.8062402343750001 16.0313671875  C 0.8062402343750001 15.354038085937496  1.3553369140624998 14.804941406249998  2.0326660156250007 14.804941406249998  L 3.8723046875000016 14.804941406249998  Z " fill-rule="nonzero" fill="#231f20" stroke="none" transform="matrix(1 0 0 1 16 512 )" />
  </g>
</svg>