<?xml version="1.0" encoding="utf-8"?>
<svg version="1.1" xmlns:xlink="http://www.w3.org/1999/xlink" width="6px" height="19px" xmlns="http://www.w3.org/2000/svg">
  <g transform="matrix(1 0 0 1 -16 -510 )">
    <path d="M 3.8723046875000016 0.8613623046874999  C 4.549633789062501 0.8613623046874999  5.098730468750002 1.4104150390625012  5.098730468749999 2.0877880859375004  C 5.098730468749999 2.7651171875000014  4.549633789062499 3.314213867187501  3.872304687499998 3.314213867187501  L 2.0326660156250007 3.314213867187501  C 1.3553369140624998 3.314213867187501  0.8062402343750001 2.7651171875000014  0.8062402343750001 2.0877880859375004  C 0.8062402343750001 1.4104589843749995  1.3553369140624998 0.8613623046874999  2.0326660156250007 0.8613623046874999  L 3.8723046875000016 0.8613623046874999  Z M 3.8723046875000016 5.767065429687499  C 4.549633789062501 5.767065429687499  5.098730468750002 6.316162109375  5.098730468749999 6.993491210937504  C 5.098730468749999 7.670820312500002  4.549633789062499 8.219916992187503  3.872304687499998 8.219916992187503  L 2.0326660156250007 8.219916992187503  C 1.3553369140624998 8.219916992187503  0.8062402343750001 7.670820312500002  0.8062402343750001 6.993491210937504  C 0.8062402343750001 6.316162109375  1.3553369140624998 5.767065429687499  2.0326660156250007 5.767065429687499  L 3.8723046875000016 5.767065429687499  Z M 3.8723046875000016 10.6727685546875  C 4.549633789062501 10.6727685546875  5.098730468750002 11.221865234375002  5.098730468749999 11.899194335937501  C 5.098730468749999 12.5765234375  4.549633789062499 13.125620117187502  3.872304687499998 13.125620117187502  L 2.0326660156250007 13.125620117187502  C 1.3553369140624998 13.125620117187502  0.8062402343750001 12.5765234375  0.8062402343750001 11.899194335937501  C 0.8062402343750001 11.221865234375002  1.3553369140624998 10.6727685546875  2.0326660156250007 10.6727685546875  L 3.8723046875000016 10.6727685546875  Z M 3.8723046875000016 15.578515624999998  C 4.549633789062501 15.578515624999998  5.098730468750002 16.127612304687496  5.098730468749999 16.80494140625  C 5.098730468749999 17.482270507812498  4.549633789062499 18.0313671875  3.872304687499998 18.0313671875  L 2.0326660156250007 18.0313671875  C 1.3553369140624998 18.0313671875  0.8062402343750001 17.482270507812498  0.8062402343750001 16.80494140625  C 0.8062402343750001 16.127612304687496  1.3553369140624998 15.578515624999998  2.0326660156250007 15.578515624999998  L 3.8723046875000016 15.578515624999998  Z " fill-rule="nonzero" fill="#e0e0d1" stroke="none" transform="matrix(1 0 0 1 16 510 )" />
  </g>
</svg>