<?xml version="1.0" encoding="utf-8"?>
<svg version="1.1" xmlns:xlink="http://www.w3.org/1999/xlink" width="13px" height="12px" xmlns="http://www.w3.org/2000/svg">
  <g transform="matrix(1 0 0 1 -99 -514 )">
    <path d="M 0.18817871093749972 1.6332080078124989  L 0.18817871093749972 0.4102978515625004  L 12.417104492187498 0.4102978515625004  L 12.417104492187498 1.6332080078124989  L 0.18817871093749972 1.6332080078124989  Z M 0.18817871093749972 4  L 0.18817871093749972 3  L 12.417104492187498 3  L 12.417104492187498 4  L 0.18817871093749972 4  Z M 0.18817871093749972 6.5247607421875  L 0.18817871093749972 5.301850585937501  L 12.417104492187498 5.301850585937501  L 12.417104492187498 6.5247607421875  L 0.18817871093749972 6.5247607421875  Z M 0.18817871093749972 9  L 0.18817871093749972 7.747626953125  L 12.417104492187498 7.747626953125  L 12.417104492187498 9  L 0.18817871093749972 9  Z M 0.18817871093749972 11.416357421874999  L 0.18817871093749972 10  L 12.417104492187498 10  L 12.417104492187498 11.416357421874999  L 0.18817871093749972 11.416357421874999  Z " fill-rule="nonzero" fill="#e0e0d1" stroke="none" transform="matrix(1 0 0 1 99 514 )" />
  </g>
</svg>