<?xml version="1.0" encoding="utf-8"?>
<svg version="1.1" xmlns:xlink="http://www.w3.org/1999/xlink" width="25px" height="31px" xmlns="http://www.w3.org/2000/svg">
  <g transform="matrix(1 0 0 1 -169 -504 )">
    <path d="M 24.422319335937495 25.271591796875  C 23.381782226562493 24.740996093750006  20.97015136718749 24.225825195312503  19.6511328125 23.6526904296875  C 17.316186523437498 22.638037109375002  16.463076171874995 21.060312500000002  16.203007812499994 19.6998095703125  C 17.884794921874995 18.3465576171875  19.223676757812495 16.182514648437497  19.96002441406249 13.850161132812499  C 20.716982421874995 12.885034179687501  21.15801757812499 11.879038085937502  21.15801757812499 11.026806640625  C 21.15801757812499 10.4432568359375  20.945849609374992 10.021249999999998  20.574599609374992 9.708095703125  C 20.450410156249994 4.754931640625001  16.943749999999994 0.7782324218749999  12.607006835937492 0.7167529296874999  C 12.573124999999994 0.71626953125  12.540253906249992 0.7109521484374994  12.506240234374994 0.7109521484374994  C 12.492924804687494 0.7109521484374994  12.480048828124993 0.7131494140624994  12.46673339843749 0.7132373046874987  C 8.157456054687493 0.7371874999999983  4.655498046874991 4.630302734375  4.446230468749993 9.518076171874998  C 3.905878906249994 9.8408544921875  3.594658203124995 10.315332031249998  3.594658203124995 11.026850585937499  C 3.594658203124995 12.029550781250002  4.201059570312493 13.2449462890625  5.221953124999995 14.355795898437503  C 5.947402343749994 16.3888818359375  7.127333984374997 18.254711914062504  8.582934570312496 19.512207031250004  C 8.366503906249996 20.912875976562503  7.544594726562498 22.591147460937503  5.101542968749996 23.652734375000005  C 3.7825244140624963 24.225869140625004  1.3708935546874947 24.741040039062504  0.33026855468749616 25.271591796875  C 2.9959033203124967 28.1859130859375  8.044824218749994 30.019267578125003  12.300576171874997 30.0409326171875  L 12.361044921874996 30.042470703124998  C 12.366142578124997 30.042470703124998  12.371196289062496 30.042822265625006  12.376293945312494 30.042822265625006  C 16.662543945312496 30.042822265625006  21.740820312499995 28.2033154296875  24.422319335937495 25.271591796875  Z " fill-rule="nonzero" fill="#ffffff" stroke="none" transform="matrix(1 0 0 1 169 504 )" />
  </g>
</svg>