<?xml version="1.0" encoding="utf-8"?>
<svg version="1.1" xmlns:xlink="http://www.w3.org/1999/xlink" width="25px" height="26px" xmlns="http://www.w3.org/2000/svg">
  <g transform="matrix(1 0 0 1 -16 -588 )">
    <path d="M 24.840327148437503 2.948769531249999  C 24.840327148437503 1.5868164062499979  23.7362890625 0.482778320312498  22.3743359375 1  L 2.646494140625 1  C 1.2845410156250008 0.48277832031250156  0.18050292968750092 1.5868164062500014  0.18050292968750092 2.948769531250001  L 0.18050292968750092 22.676611328125  C 0.18050292968750092 24.0385205078125  1.2845410156250008 25.1426025390625  2.646494140625 25  L 22.3743359375 25  C 23.7362890625 25.1426025390625  24.840327148437503 24.0385205078125  24.840327148437503 22.676611328125  L 24.840327148437503 2.948769531249999  Z M 5.112441406249999 20.210620117187503  L 5.112441406249999 22.676611328125  L 2.6464501953125 22.676611328125  L 2.6464501953125 20.210620117187503  L 5.112441406249999 20.210620117187503  Z M 5.112441406249999 15.895146484375001  L 5.112441406249999 18.3611376953125  L 2.6464501953125 18.3611376953125  L 2.6464501953125 15.895146484375001  L 5.112441406249999 15.895146484375001  Z M 5.112441406249999 11.5796728515625  L 5.112441406249999 14.045664062499998  L 2.6464501953125 14.045664062499998  L 2.6464501953125 11.5796728515625  L 5.112441406249999 11.5796728515625  Z M 5.112441406249999 7.264199218749998  L 5.112441406249999 9.7301904296875  L 2.6464501953125 9.7301904296875  L 2.6464501953125 7.264199218749998  L 5.112441406249999 7.264199218749998  Z M 5.112441406249999 2.9487255859374972  L 5.112441406249999 5.414716796874998  L 2.6464501953125 5.414716796874998  L 2.6464501953125 2.9487255859374972  L 5.112441406249999 2.9487255859374972  Z M 17.442353515625 14.045664062499998  L 17.442353515625 22.676611328125  L 7.578432617187499 22.676611328125  L 7.578432617187499 14.045664062499998  L 17.442353515625 14.045664062499998  Z M 17.442353515625 2.948769531249999  L 17.442353515625 11.579672851562506  L 7.578432617187499 11.579672851562506  L 7.578432617187499 2.948769531249999  L 17.442353515625 2.948769531249999  Z M 22.3743359375 20.210620117187506  L 22.3743359375 22.676611328125006  L 19.9083447265625 22.676611328125006  L 19.9083447265625 20.210620117187506  L 22.3743359375 20.210620117187506  Z M 22.3743359375 15.895146484375005  L 22.3743359375 18.361137695312507  L 19.9083447265625 18.361137695312507  L 19.9083447265625 15.895146484375005  L 22.3743359375 15.895146484375005  Z M 22.3743359375 11.579672851562506  L 22.3743359375 14.045664062500006  L 19.9083447265625 14.045664062500006  L 19.9083447265625 11.579672851562506  L 22.3743359375 11.579672851562506  Z M 22.3743359375 7.2641992187500035  L 22.3743359375 9.730190429687504  L 19.9083447265625 9.730190429687504  L 19.9083447265625 7.2641992187500035  L 22.3743359375 7.2641992187500035  Z M 22.3743359375 2.9487255859375026  L 22.3743359375 5.414716796875002  L 19.9083447265625 5.414716796875002  L 19.9083447265625 2.9487255859375026  L 22.3743359375 2.9487255859375026  Z " fill-rule="nonzero" fill="#231f20" stroke="none" transform="matrix(1 0 0 1 16 588 )" />
  </g>
</svg>