<?xml version="1.0" encoding="utf-8"?>
<svg version="1.1" xmlns:xlink="http://www.w3.org/1999/xlink" width="25px" height="25px" xmlns="http://www.w3.org/2000/svg">
  <g transform="matrix(1 0 0 1 -16 -587 )">
    <path d="M 24.840327148437503 2.7157519531249985  C 24.840327148437503 1.353798828124999  23.7362890625 0.24976074218749922  22.3743359375 0.249760742187501  L 2.646494140625 0.249760742187501  C 1.2845410156250008 0.249760742187501  0.18050292968750092 1.3537988281250009  0.18050292968750092 2.7157519531249985  L 0.18050292968750092 22.443593749999998  C 0.18050292968750092 23.8055029296875  1.2845410156250008 24.9095849609375  2.646494140625 25  L 22.3743359375 25  C 23.7362890625 24.9095849609375  24.840327148437503 23.8055029296875  24.840327148437503 22.443593749999998  L 24.840327148437503 2.7157519531249985  Z M 5.112441406249999 19.977646484375  L 5.112441406249999 22.443637695312503  L 2.6464501953125 22.443637695312503  L 2.6464501953125 19.977646484375  L 5.112441406249999 19.977646484375  Z M 5.112441406249999 15.662172851562497  L 5.112441406249999 18.1281640625  L 2.6464501953125 18.1281640625  L 2.6464501953125 15.662172851562497  L 5.112441406249999 15.662172851562497  Z M 5.112441406249999 11.34669921875  L 5.112441406249999 13.8126904296875  L 2.6464501953125 13.8126904296875  L 2.6464501953125 11.34669921875  L 5.112441406249999 11.34669921875  Z M 5.112441406249999 7.0312255859374995  L 5.112441406249999 9.497216796874998  L 2.6464501953125 9.497216796874998  L 2.6464501953125 7.0312255859374995  L 5.112441406249999 7.0312255859374995  Z M 5.112441406249999 2.7157519531249967  L 5.112441406249999 5.181743164062498  L 2.6464501953125 5.181743164062498  L 2.6464501953125 2.7157519531249967  L 5.112441406249999 2.7157519531249967  Z M 17.442353515625 13.8126904296875  L 17.442353515625 22.443637695312496  L 7.578432617187499 22.443637695312496  L 7.578432617187499 13.8126904296875  L 17.442353515625 13.8126904296875  Z M 17.442353515625 2.7157519531249985  L 17.442353515625 11.346699218749997  L 7.578432617187499 11.346699218749997  L 7.578432617187499 2.7157519531249985  L 17.442353515625 2.7157519531249985  Z M 22.3743359375 19.977646484374997  L 22.3743359375 22.443637695312496  L 19.9083447265625 22.443637695312496  L 19.9083447265625 19.977646484374997  L 22.3743359375 19.977646484374997  Z M 22.3743359375 15.662172851562495  L 22.3743359375 18.128164062499994  L 19.9083447265625 18.128164062499994  L 19.9083447265625 15.662172851562495  L 22.3743359375 15.662172851562495  Z M 22.3743359375 11.346699218749993  L 22.3743359375 13.812690429687494  L 19.9083447265625 13.812690429687494  L 19.9083447265625 11.346699218749993  L 22.3743359375 11.346699218749993  Z M 22.3743359375 7.031225585937491  L 22.3743359375 9.497216796874994  L 19.9083447265625 9.497216796874994  L 19.9083447265625 7.031225585937491  L 22.3743359375 7.031225585937491  Z M 22.3743359375 2.7157519531249914  L 22.3743359375 5.1817431640624925  L 19.9083447265625 5.1817431640624925  L 19.9083447265625 2.7157519531249914  L 22.3743359375 2.7157519531249914  Z " fill-rule="nonzero" fill="#e0e0d1" stroke="none" transform="matrix(1 0 0 1 16 587 )" />
  </g>
</svg>