<?xml version="1.0" encoding="utf-8"?>
<svg version="1.1" xmlns:xlink="http://www.w3.org/1999/xlink" width="3px" height="13px" xmlns="http://www.w3.org/2000/svg">
  <g transform="matrix(1 0 0 1 -94 -583 )">
    <path d="M 2.7450585937499987 1.6214990234375009  L 2.7450585937499987 6.544604492187499  C 2.7450585937499987 7.224350585937497  2.1940283203125013 7.775380859374998  1.5142822265625036 7.775380859374998  C 0.8345361328125023 7.775380859374998  0.2835058593750013 7.224350585937497  0.2835058593750013 6.544604492187499  L 0.2835058593750013 1.6214990234375009  C 0.2835058593750013 0.9417529296874997  0.8345361328125023 0.39072265625000213  1.5142822265625036 0.39072265625000213  C 2.1940283203125013 0.39072265625000213  2.7450585937499987 0.9417529296874997  2.7450585937499987 1.6214990234375009  Z M 1.5142822265625036 10.236933593750003  C 2.193984375000003 10.236933593750003  2.7450585937499987 10.787963867187504  2.7450585937499987 11.467709960937501  C 2.7450585937499987 12.147456054687499  2.1940283203125013 12.698486328124996  1.5142822265625036 12.698486328124996  C 0.8345361328125023 12.698486328124996  0.2835058593750013 12.147456054687499  0.2835058593750013 11.467709960937501  C 0.2835058593750013 10.787963867187504  0.8345361328125023 10.236933593750003  1.5142822265625036 10.236933593750003  Z " fill-rule="nonzero" fill="#4f5d73" stroke="none" transform="matrix(1 0 0 1 94 583 )" />
  </g>
</svg>