<?xml version="1.0" encoding="utf-8"?>
<svg version="1.1" xmlns:xlink="http://www.w3.org/1999/xlink" width="21px" height="15px" xmlns="http://www.w3.org/2000/svg">
  <g transform="matrix(1 0 0 1 -322 -517 )">
    <path d="M 0.6211816406250001 8.119448242187499  L 0.6211816406250001 0.7409423828124986  L 7.999687500000001 0.7409423828124986  L 7.999687500000001 8.119448242187499  L 0.6211816406250001 8.119448242187499  Z M 12.918662109375001 3.2004736328125  L 12.918662109375001 2.5855908203125004  L 20.297167968750003 2.5855908203125004  L 20.297167968750003 3.2004736328125  L 12.918662109375001 3.2004736328125  Z M 12.918662109375001 1.970708007812501  L 12.918662109375001 1.3558251953125016  L 20.297167968750003 1.3558251953125016  L 20.297167968750003 1.970708007812501  L 12.918662109375001 1.970708007812501  Z M 10.4591748046875 3.200429687499998  L 10.4591748046875 0.7409423828124986  L 12.303779296875003 0.7409423828124986  L 12.303779296875003 3.200429687499998  L 10.4591748046875 3.200429687499998  Z M 10.4591748046875 5.045078125  L 10.4591748046875 4.4301953125  L 20.297167968750003 4.4301953125  L 20.297167968750003 5.045078125  L 10.4591748046875 5.045078125  Z M 10.4591748046875 6.274843749999999  L 10.4591748046875 5.659960937499999  L 20.297167968750003 5.659960937499999  L 20.297167968750003 6.274843749999999  L 10.4591748046875 6.274843749999999  Z M 10.4591748046875 7.504565429687499  L 10.4591748046875 6.889682617187503  L 20.297167968750003 6.889682617187503  L 20.297167968750003 7.504565429687499  L 10.4591748046875 7.504565429687499  Z M 10.4591748046875 8.734331054687498  L 10.4591748046875 8.119448242187499  L 20.297167968750003 8.119448242187499  L 20.297167968750003 8.734331054687498  L 10.4591748046875 8.734331054687498  Z M 12.841801757812501 10.578935546874998  L 12.841801757812501 9.964052734374999  L 20.297124023437497 9.964052734374999  L 20.297124023437497 10.578935546874998  L 12.841801757812501 10.578935546874998  Z M 0.6211816406250001 10.578935546874998  L 0.6211816406250001 9.964052734374999  L 7.999687500000001 9.964052734374999  L 7.999687500000001 10.578935546874998  L 0.6211816406250001 10.578935546874998  Z M 0.6211816406250001 11.808701171875  L 0.6211816406250001 11.193818359375001  L 7.999687500000001 11.193818359375001  L 7.999687500000001 11.808701171875  L 0.6211816406250001 11.808701171875  Z M 0.6211816406250001 13.038422851562498  L 0.6211816406250001 12.423540039062498  L 7.999687500000001 12.423540039062498  L 7.999687500000001 13.038422851562498  L 0.6211816406250001 13.038422851562498  Z M 0.6211816406250001 14.2681884765625  L 0.6211816406250001 13.6533056640625  L 7.999687500000001 13.6533056640625  L 7.999687500000001 14.2681884765625  L 0.6211816406250001 14.2681884765625  Z M 10.4591748046875 11.808701171875  L 10.4591748046875 11.193818359375001  L 20.297167968750003 11.193818359375001  L 20.297167968750003 11.808701171875  L 10.4591748046875 11.808701171875  Z M 10.4591748046875 13.038422851562498  L 10.4591748046875 12.423540039062498  L 20.297167968750003 12.423540039062498  L 20.297167968750003 13.038422851562498  L 10.4591748046875 13.038422851562498  Z M 10.4591748046875 14.2681884765625  L 10.4591748046875 13.6533056640625  L 20.297167968750003 13.6533056640625  L 20.297167968750003 14.2681884765625  L 10.4591748046875 14.2681884765625  Z " fill-rule="nonzero" fill="#4f5d73" stroke="none" transform="matrix(1 0 0 1 322 517 )" />
  </g>
</svg>