<?xml version="1.0" encoding="utf-8"?>
<svg version="1.1" xmlns:xlink="http://www.w3.org/1999/xlink" width="18px" height="18px" xmlns="http://www.w3.org/2000/svg">
  <g transform="matrix(1 0 0 1 -183 -438 )">
    <path d="M 17.792456896551723 9.795833333333334  C 17.792456896551723 9.441666666666668  17.662499999999998 9.106250000000001  17.427801724137932 8.854166666666666  L 9.932974137931035 0.8083333333333332  L 9.430603448275862 0.26875000000000043  C 9.192327915875667 0.014513418882122764  8.807672084124334 0.014513418882123949  8.56939655172414 0.2687500000000001  L 0.572198275862069 8.854166666666666  C 0.33524275277852805 9.107682982792202  0.20373388680879112 9.453295329529059  0.2075431034482759 9.8125  C 0.21530172413793106 10.545833333333334  0.7836206896551725 11.13125  1.4663793103448277 11.13125  L 2.29073275862069 11.13125  L 2.29073275862069 18  L 15.709267241379308 18  L 15.709267241379308 11.13125  L 16.551077586206894 11.13125  C 16.882758620689653 11.13125  17.195043103448278 10.991666666666665  17.42974137931034 10.73958333333333  C 17.663167568202265 10.489672791477052  17.793781556955565 10.149828075641818  17.792456896551723 9.795833333333334  Z M 10.086206896551722 12.166666666666666  L 10.086206896551722 16.416666666666668  L 7.913793103448276 16.416666666666668  L 7.913793103448276 12.166666666666666  L 10.086206896551722 12.166666666666666  Z M 16.176724137931032 9.631249999999998  L 14.312715517241378 9.631249999999998  L 14.312715517241378 16.416666666666668  L 11.327586206896552 16.416666666666668  L 11.327586206896552 11.666666666666666  C 11.327586206896552 11.206249999999999  10.980387931034484 10.833333333333334  10.551724137931034 10.833333333333334  L 7.448275862068965 10.833333333333334  C 7.019612068965516 10.833333333333334  6.672413793103448 11.206249999999999  6.672413793103448 11.666666666666666  L 6.672413793103448 16.416666666666668  L 3.6872844827586206 16.416666666666668  L 3.6872844827586206 9.631249999999998  L 1.825215517241379 9.631249999999998  L 9.001939655172414 1.9291666666666658  L 9.450000000000001 2.410416666666666  L 16.176724137931032 9.631249999999998  Z " fill-rule="nonzero" fill="#000000" stroke="none" transform="matrix(1 0 0 1 183 438 )" />
  </g>
</svg>