<?xml version="1.0" encoding="utf-8"?>
<svg version="1.1" xmlns:xlink="http://www.w3.org/1999/xlink" width="10px" height="16px" xmlns="http://www.w3.org/2000/svg">
  <g transform="matrix(1 0 0 1 -20 -39 )">
    <path d="M 0.3366223752741462 8.611229399671032  C 0.280708826754406 8.552628042763132  0.2511075520833401 8.480905941611809  0.21294770422157683 8.413816755756585  C 0.2024086622808028 8.39341060855267  0.18532691885972952 8.376328865131569  0.17609640899127044 8.355250781250021  C -0.004835704495533832 7.978921916118452  0.05440224780704739 7.5184221217105005  0.37478220257678174 7.21576048519735  L 7.6372822848135655 0.3467063733552749  C 8.033345339912273 -0.02764200246708981  8.657660142543904 -0.009888301809198197  9.032680475603087 0.3855381578947146  C 9.407028851425366 0.781601212993408  9.389911746162255 1.4059160156249817  8.993848691063562 1.7809363486842358  L 2.4773929139255415 7.945395004111859  L 8.968208395010919 14.201309950657873  C 9.360310471491175 14.579583943256551  9.372158066063548 15.203934107730305  8.993848691063562 15.59670814144738  C 8.800432408168803 15.798011019736805  8.541872087445142 15.898697820723697  8.283311766721454 15.898697820723697  C 8.036599020011039 15.898697820723697  7.789886293859581 15.806604934210554  7.598450500274197 15.622383799342145  L 0.4017310512610237 8.686205160361851  C 0.3879029673794321 8.672377076480274  0.38266881853071766 8.653314843749968  0.36884073464914024 8.63885018503288  C 0.3583016927083662 8.628983100328924  0.34712605537288255 8.621733079769768  0.3366223752741462 8.611229399671032  Z " fill-rule="nonzero" fill="#ffdbad" stroke="none" transform="matrix(1 0 0 1 20 39 )" />
  </g>
</svg>