<svg t="1610710117729" class="icon" viewBox="0 0 1024 1024" version="1.1" xmlns="http://www.w3.org/2000/svg" p-id="6490" width="200" height="200"><path d="M512 509.744m-448.494 0a448.494 448.494 0 1 0 896.988 0 448.494 448.494 0 1 0-896.988 0Z" fill="#76C2AF" p-id="6491"></path><path d="M708.216 691.944c0 30.962-25.1 56.062-56.062 56.062H371.846c-30.962 0-56.062-25.1-56.062-56.062V411.636c0-30.962 25.1-56.062 56.062-56.062h280.309c30.962 0 56.062 25.1 56.062 56.062v280.308z" fill="#231F20" p-id="6492"></path><path d="M371.846 691.944c-15.453 0-28.031-12.578-28.031-28.031V383.605c0-15.453 12.578-28.031 28.031-28.031h280.309c15.453 0 28.031 12.578 28.031 28.031v280.309c0 15.453-12.578 28.031-28.031 28.031H371.846z" fill="#FFFFFF" p-id="6493"></path><path d="M652.154 383.605v280.309H371.846V383.605h280.308m0-56.062H371.846c-30.962 0-56.062 25.099-56.062 56.062v280.309c0 30.962 25.1 56.062 56.062 56.062h280.309c30.962 0 56.062-25.099 56.062-56.062V383.605c-0.001-30.963-25.101-56.062-56.063-56.062z" fill="#4F5D73" p-id="6494"></path><path d="M518.33 635.883a28.004 28.004 0 0 1-22.255-11.004l-85.762-112.123c-9.403-12.291-7.056-29.885 5.242-39.288 12.291-9.389 29.885-7.062 39.288 5.235l58.683 76.722c32.37-58.231 102.679-165.147 214.516-237.407 12.996-8.411 30.365-4.674 38.755 8.329 8.404 13.003 4.674 30.358-8.328 38.755-143.063 92.442-213.722 252.319-214.42 253.92a28.034 28.034 0 0 1-22.317 16.657 28.858 28.858 0 0 1-3.402 0.204z" fill="#231F20" p-id="6495"></path><path d="M518.337 607.852a28.072 28.072 0 0 1-22.269-11.004l-85.762-112.123c-9.403-12.291-7.062-29.892 5.242-39.295 12.291-9.389 29.906-7.049 39.295 5.242l58.69 76.729c32.356-58.238 102.666-165.147 214.502-237.414 13.016-8.39 30.358-4.667 38.761 8.322 8.404 13.003 4.681 30.358-8.322 38.761-143.07 92.442-213.735 252.319-214.433 253.92a28.012 28.012 0 0 1-25.704 16.862z" fill="#C75C5C" p-id="6496"></path></svg>