<?xml version="1.0" encoding="utf-8"?>
<svg version="1.1" xmlns:xlink="http://www.w3.org/1999/xlink" width="21px" height="22px" xmlns="http://www.w3.org/2000/svg">
  <g transform="matrix(1 0 0 1 -319 -478 )">
    <path d="M 20 0.48806640625000064  L 1 0.48806640625000064  L 1 19.817983398437498  C 0.6411328125000004 20.468769531249997  1.0418701171874982 21.056713867187497  1.6545117187500011 21.306367187499994  C 1.8543972737610679 21.387141309877784  2.0679557627094773 21.428707185957855  2.283544921875002 21.428798828124997  C 2.7105615234375002 21.428798828124997  3.1310302734375024 21.2644873046875  3.444711914062502 20.956826171875  L 10.49560546875 14.041547851562498  L 17.546455078125 20.956826171875  C 17.860136718750002 21.2644873046875  18.28060546875 21.428798828124997  18.7076220703125 21.428798828124997  C 18.919482421875003 21.428798828124997  19.133012695312498 21.388544921874995  19.335029296875003 21.3063671875  C 19.949296875 21.056669921875  20.350034179687498 20.4687255859375  20 19.817983398437498  L 20 0.48806640625000064  Z " fill-rule="nonzero" fill="#f5cf87" stroke="none" transform="matrix(1 0 0 1 319 478 )" />
  </g>
</svg>