<?xml version="1.0" encoding="utf-8"?>
<svg version="1.1" xmlns:xlink="http://www.w3.org/1999/xlink" width="20px" height="18px" xmlns="http://www.w3.org/2000/svg">
  <g transform="matrix(1 0 0 1 -108 -589 )">
    <path d="M 10.3725 5.7524999999999995  C 10.832737295121266 5.752500000000001  11.20583333984375 6.125596044722485  11.20583333984375 6.5858333398437505  L 11.20583333984375 9.91916666015625  C 11.20583333984375 10.379403955277514  10.832737295121264 10.7525  10.3725 10.7525  C 9.912262704878735 10.7525  9.53916666015625 10.379403955277514  9.53916666015625 9.91916666015625  L 9.53916666015625 6.5858333398437505  C 9.53916666015625 6.125596044722485  9.912262704878735 5.7524999999999995  10.3725 5.7524999999999995  Z M 9.539292511803634 12.419166669921871  C 9.539292511803634 12.198186302201558  9.627076622024616 11.98625671522913  9.78333333984375 11.829999999999998  C 9.93959005427888 11.673743288154872  10.15151963706539 11.585959181725507  10.3725 11.585959181725507  C 10.832667789175673 11.585959181725507  11.205707488196367 11.958998880746197  11.205707488196367 12.419166669921871  C 11.205707488196367 12.64014703764219  11.117923377975385 12.852076624614622  10.96166666015625 13.008333339843748  C 10.80540994572112 13.164590051688872  10.59348036293461 13.252374158118242  10.3725 13.252374158118242  C 9.912332210824324 13.252374158118242  9.539292511803634 12.879334459097548  9.539292511803634 12.419166669921871  Z M 11.085 2.73416666015625  C 10.93385487661652 2.4852361015304503  10.66372374047818 2.3332675959611597  10.3725 2.33333333984375  C 10.08166666015625 2.33333333984375  9.8125 2.485  9.66083333984375 2.7325  L 2.61083333984375 14.501666660156248  C 2.5372378905521904 14.628559649732775  2.4984779246808633 14.772645856441553  2.4984779246808633 14.919336418374128  C 2.4984779246808633 15.372561465496062  2.8610340318647043 15.74251436447295  3.3141666601562503 15.751666660156246  L 17.421666660156248 15.751666660156246  C 17.878325035582 15.746677085702007  18.245895315199792 15.375068692308268  18.245895315199792 14.918383058967652  C 18.245895315199792 14.776628257265997  18.209734630441922 14.637216494305452  18.14083333984375 14.513333339843749  L 11.085 2.73416666015625  Z M 8.2325 1.8741666601562503  C 8.685522804772734 1.125061256477521  9.497063916404176 0.6671472881153866  10.3725 0.6666666601562499  C 11.24666666015625 0.6666666601562499  12.05666666015625 1.1233333203124998  12.5125 1.8741666601562499  L 19.5775 13.66916666015625  C 19.796945858637358 14.049230710540808  19.912475407450472 14.480366011571649  19.912475407450472 14.919234063801252  C 19.912475407450472 16.292782094863398  18.804344338048345 17.409080459398986  17.430833339843748 17.41916666015625  L 3.305 17.41916666015625  C 1.9350449689699154 17.404170333057383  0.8323648191954075 16.289353539153012  0.8323648191954075 14.919316431308452  C 0.8323648191954075 14.475839623008543  0.9503321307094298 14.040344332499767  1.1741666601562502 13.657499999999999  L 8.2325 1.8741666601562503  Z " fill-rule="nonzero" fill="#000000" stroke="none" transform="matrix(1 0 0 1 108 589 )" />
  </g>
</svg>