<?xml version="1.0" encoding="utf-8"?>
<svg version="1.1" xmlns:xlink="http://www.w3.org/1999/xlink" width="18px" height="18px" xmlns="http://www.w3.org/2000/svg">
  <g transform="matrix(1 0 0 1 -179 -589 )">
    <path d="M 13.375 7.125  L 17.75 7.125  L 17.75 2.75  L 16.323124999999997 4.176875  C 14.704941887265944 1.7251584609932644  11.963839217896735 0.249776090602164  9.026250000000001 0.24937499999999968  C 4.1937500000000005 0.24937500000000012  0.275625 4.166874999999999  0.275625 9  C 0.275625 13.833125  4.1937500000000005 17.750625  9.026250000000001 17.750625000000003  C 12.588659942276673 17.751334784793134  15.795957544755442 15.592538756737522  17.136250000000004 12.291875000000001  C 17.172656673189017 12.202249269657615  17.1913761487238 12.106425379820156  17.1913761487238 12.009687500000005  C 17.1913761487238 11.595576856594866  16.85567314340514 11.259873851276208  16.4415625 11.259873851276208  C 16.136419883151078 11.259873851276208  15.861713443310034 11.444791407000896  15.746875000000003 11.727500000000003  C 14.63580800222477 14.46232889793501  11.97815766203205 16.250984669531285  9.026250000000001 16.250625000000003  C 5.021875 16.250625  1.7756249999999998 13.004375  1.7756249999999998 9  C 1.7756249999999998 4.995625  5.021875 1.7493750000000001  9.026250000000001 1.7493750000000001  C 11.613125 1.7493750000000001  13.946875000000002 3.118125  15.237500000000004 5.261875  L 13.375 7.125  Z " fill-rule="nonzero" fill="#000000" stroke="none" transform="matrix(1 0 0 1 179 589 )" />
  </g>
</svg>