<?xml version="1.0" encoding="utf-8"?>
<svg version="1.1" xmlns:xlink="http://www.w3.org/1999/xlink" width="18px" height="17px" xmlns="http://www.w3.org/2000/svg">
  <g transform="matrix(1 0 0 1 -248 -589 )">
    <path d="M 17.61525129982669 13.79838243789717  C 17.871750433275565 14.05372616984402  18 14.35162719044868  18 14.69208549971115  C 18 15.03909108415174  17.871750433275565 15.33371846716734  17.61525129982669 15.575967648757942  L 16.50259965337955 16.636626227614094  C 16.23223570190641 16.8788754092047  15.91681109185442 17  15.55632582322357 17  C 15.188908145580589 17  14.876949740034663 16.8788754092047  14.620450606585788 16.636626227614094  L 10.84575389948007 13.061813980358174  C 10.582322357019065 12.826112073945696  10.450606585788561 12.5314846909301  10.450606585788561 12.177931831311382  C 10.450606585788561 11.830926246870787  10.599653379549395 11.516657038320815  10.897746967071056 11.235124205661467  L 8.235701906412478 8.720970537261698  L 6.925476603119583 9.958405545927208  C 6.828422876949741 10.050067398420952  6.710571923743501 10.095898324667822  6.571923743500867 10.095898324667822  C 6.433275563258233 10.095898324667822  6.315424610051994 10.050067398420952  6.218370883882149 9.958405545927208  C 6.232235701906413 9.971500096283457  6.275563258232236 10.010783747352203  6.348353552859619 10.076256499133448  C 6.421143847487002 10.141729250914691  6.464471403812826 10.1842865395725  6.478336221837088 10.203928365106874  C 6.492201039861352 10.223570190641249  6.526863084922011 10.261217022915464  6.5823223570190645 10.316868861929521  C 6.637781629116118 10.372520700943577  6.672443674176777 10.416714808395918  6.686308492201039 10.449451184286541  C 6.7001733102253045 10.48218756017716  6.720970537261699 10.526381667629499  6.748700173310226 10.582033506643558  C 6.776429809358753 10.637685345657614  6.795493934142114 10.691700365877141  6.805892547660312 10.744078567302136  C 6.81629116117851 10.796456768727131  6.8214904679376085 10.85538224533025  6.8214904679376085 10.920854997111498  C 6.8214904679376085 11.16965145388022  6.724436741767765 11.392258809936454  6.530329289428076 11.588677065280185  C 6.509532062391681 11.608318890814559  6.452339688041595 11.667244367417677  6.3587521663778155 11.765453495089544  C 6.265164644714039 11.86366262276141  6.199306759098788 11.930772193337186  6.161178509532062 11.966782206816868  C 6.123050259965339 12.002792220296552  6.05892547660312 12.056807240516079  5.9688041594454075 12.128827267475447  C 5.878682842287695 12.200847294434817  5.802426343154246 12.25158867706528  5.74003466204506 12.28105141536684  C 5.677642980935875 12.310514153668398  5.601386481802427 12.33997689196996  5.511265164644714 12.369439630271518  C 5.421143847487002 12.39890236857308  5.331022530329291 12.41363373772386  5.240901213171577 12.41363373772386  C 4.963604852686309 12.41363373772386  4.727902946273831 12.321971885230118  4.533795493934142 12.138648180242633  L 0.29116117850953205 8.131715771230501  C 0.09705372616984403 7.948392066243019  0 7.72578471018679  0 7.463893703061815  C 0 7.378779125746196  0.015597920277296359 7.293664548430579  0.04679376083188908 7.208549971114962  C 0.0779896013864818 7.123435393799344  0.10918544194107452 7.0514153668399775  0.14038128249566725 6.992489890236858  C 0.17157712305025996 6.9335644136337375  0.22530329289428083 6.861544386674368  0.30155979202772965 6.776429809358752  C 0.3778162911611786 6.691315232043135  0.43500866551126527 6.630752936645482  0.4731369150779896 6.594742923165801  C 0.511265164644714 6.558732909686115  0.5823223570190641 6.496533795493934  0.6863084922010398 6.408145580589255  C 0.7902946273830156 6.319757365684575  0.8526863084922011 6.26574234546505  0.8734835355285961 6.2461005199306765  C 1.0814558058925476 6.0627768149431915  1.3171577123050262 5.971114962449451  1.5805892547660312 5.971114962449451  C 1.6499133448873486 5.971114962449451  1.712305025996534 5.976025418833045  1.7677642980935875 5.98584633160023  C 1.8232235701906414 5.995667244367418  1.880415944540728 6.01367225110726  1.9393414211438476 6.0398613518197575  C 1.9982668977469673 6.066050452532253  2.045060658578856 6.0856922780666265  2.079722703639515 6.098786828422877  C 2.1143847487001732 6.111881378779124  2.1611785095320624 6.144617754669746  2.220103986135182 6.196995956094743  C 2.279029462738302 6.249374157519738  2.318890814558059 6.28211053341036  2.3396880415944543 6.295205083766609  C 2.3604852686308493 6.308299634122857  2.405545927209706 6.349220103986134  2.4748700173310225 6.417966493356442  C 2.54419410745234 6.486712882726748  2.5857885615251304 6.527633352590024  2.5996533795493932 6.540727902946274  C 2.5025996533795496 6.449066050452531  2.454072790294627 6.337762372424416  2.454072790294627 6.206816868861929  C 2.454072790294627 6.075871365299441  2.5025996533795496 5.964567687271327  2.5996533795493932 5.872905834777586  L 6.218370883882149 2.4552281917966488  C 6.315424610051994 2.3635663393029063  6.433275563258233 2.317735413056037  6.571923743500867 2.317735413056037  C 6.710571923743501 2.317735413056037  6.828422876949741 2.3635663393029063  6.925476603119583 2.4552281917966488  C 6.911611785095321 2.442133641440399  6.868284228769497 2.402849990371654  6.795493934142114 2.3373772385904106  C 6.722703639514732 2.2719044868091656  6.679376083188909 2.229347198151358  6.665511265164645 2.209705372616985  C 6.651646447140382 2.190063547082611  6.616984402079723 2.1524167148083935  6.561525129982669 2.0967648757943387  C 6.506065857885616 2.041113036780281  6.471403812824957 1.9969189293279401  6.457538994800694 1.9641825534373187  C 6.4436741767764305 1.9314461775466953  6.4228769497400355 1.8872520700943558  6.395147313691508 1.8316002310803006  C 6.367417677642981 1.7759483920662418  6.348353552859619 1.7219333718467165  6.337954939341421 1.6695551704217213  C 6.327556325823224 1.6171769689967244  6.322357019064125 1.5582514923936053  6.322357019064125 1.492778740612362  C 6.322357019064125 1.2439822838436343  6.419410745233969 1.0213749277874058  6.613518197573657 0.8249566724436748  C 6.634315424610052 0.8053148469093011  6.6915077989601395 0.746389370306182  6.785095320623917 0.6481802426343156  C 6.878682842287695 0.5499711149624492  6.944540727902947 0.4828615443866724  6.982668977469671 0.4468515309069908  C 7.020797227036396 0.41084151742730546  7.084922010398613 0.35682649720777837  7.175043327556327 0.28480647024841144  C 7.265164644714039 0.21278644328904073  7.341421143847487 0.16204506065857938  7.403812824956672 0.13258232235701983  C 7.466204506065858 0.1031195840554584  7.542461005199307 0.07365684575389886  7.6325823223570195 0.044194107452339315  C 7.722703639514732 0.014731369150779772  7.8128249566724435 0  7.902946273830156 0  C 8.180242634315425 0  8.415944540727905 0.09166185249374059  8.610051993067591 0.27498555748122555  L 12.852686308492201 4.2819179664933555  C 13.046793760831891 4.465241671480839  13.143847487001734 4.6878490275370694  13.143847487001734 4.949740034662045  C 13.143847487001734 5.034854611977662  13.128249566724437 5.119969189293278  13.097053726169845 5.2050837666088965  C 13.065857885615252 5.290198343924511  13.034662045060658 5.362218370883882  13.003466204506065 5.421143847487001  C 12.972270363951473 5.48006932409012  12.918544194107453 5.5520893510494895  12.842287694974004 5.637203928365108  C 12.766031195840556 5.722318505680723  12.708838821490469 5.782880801078374  12.670710571923744 5.818890814558059  C 12.632582322357022 5.854900828037742  12.56152512998267 5.9170999422299255  12.457538994800693 6.005488157134604  C 12.353552859618716 6.093876372039285  12.291161178509533 6.14789139225881  12.270363951473136 6.167533217793183  C 12.062391681109187 6.350856922780665  11.826689774696709 6.442518775274407  11.5632582322357 6.442518775274407  C 11.493934142114387 6.442518775274407  11.4315424610052 6.437608318890815  11.376083188908146 6.4277874061236275  C 11.320623916811092 6.417966493356442  11.263431542461007 6.399961486616598  11.204506065857885 6.373772385904102  C 11.145580589254768 6.347583285191602  11.098786828422877 6.3279414596572305  11.064124783362217 6.314846909300983  C 11.02946273830156 6.301752358944731  10.982668977469672 6.26901598305411  10.923743500866552 6.2166377816291165  C 10.864818024263432 6.16425958020412  10.824956672443674 6.131523204313498  10.80415944540728 6.11842865395725  C 10.783362218370883 6.105334103601001  10.738301559792028 6.064413633737723  10.668977469670711 5.995667244367418  C 10.599653379549395 5.926920854997111  10.558058925476605 5.886000385133833  10.544194107452341 5.872905834777586  C 10.641247833622186 5.964567687271327  10.689774696707106 6.075871365299441  10.689774696707106 6.206816868861929  C 10.689774696707106 6.337762372424416  10.641247833622186 6.449066050452531  10.544194107452341 6.540727902946274  L 9.233968804159446 7.778162911611785  L 11.896013864818025 10.292316580011555  C 12.19410745233969 10.010783747352203  12.526863084922011 9.870017331022531  12.894280762564993 9.870017331022531  C 13.25476603119584 9.870017331022531  13.570190641247834 9.991141921817832  13.84055459272097 10.233391103408435  L 17.61525129982669 13.79838243789717  Z " fill-rule="nonzero" fill="#000000" stroke="none" transform="matrix(1 0 0 1 248 589 )" />
  </g>
</svg>