<?xml version="1.0" encoding="utf-8"?>
<svg version="1.1" xmlns:xlink="http://www.w3.org/1999/xlink" width="18px" height="18px" xmlns="http://www.w3.org/2000/svg">
  <g transform="matrix(1 0 0 1 -320 -589 )">
    <path d="M 0.25 2  C 0.25 1.033203125  1.033203125 0.25  2 0.25  L 6.001953125 0.25  C 6.96875 0.25  7.751953125 1.033203125  7.751953125 2  L 7.751953125 6.001953125  C 7.75 6.966796875  6.966796875 7.75  6 7.75  L 2 7.75  C 1.033203125 7.75  0.25 6.966796875  0.25 6  L 0.25 2  Z M 10.25 2  C 10.25 1.033203125  11.033203125 0.25  12 0.25  L 16.001953125 0.25  C 16.96875 0.25  17.751953125 1.033203125  17.751953125 2  L 17.751953125 6.001953125  C 17.75 6.966796875  16.966796875 7.75  16 7.75  L 12 7.75  C 11.033203125 7.75  10.25 6.966796875  10.25 6  L 10.25 2  Z M 2 10.25  L 6.001953125 10.25  C 6.96875 10.25  7.751953125 11.033203125  7.751953125 12  L 7.751953125 16.001953125  C 7.75 16.966796875  6.966796875 17.75  6 17.75  L 2 17.75  C 1.033203125 17.75  0.25 16.966796875  0.25 16  L 0.25 12  C 0.25 11.033203125  1.033203125 10.25  2 10.25  Z M 12.61904762276788 11.952380948660789  L 17 16.333333337053546  L 16.333333337053546 17  L 11.952380948660789 12.61904762276788  L 11.952380948660789 14.809523805803565  L 11 14.809523805803565  L 11 11  L 14.809523805803565 11  L 14.809523805803565 11.952380948660789  L 12.61904762276788 11.952380948660789  Z " fill-rule="nonzero" fill="#ffcc00" stroke="none" transform="matrix(1 0 0 1 320 589 )" />
  </g>
</svg>