<?xml version="1.0" encoding="utf-8"?>
<svg version="1.1" xmlns:xlink="http://www.w3.org/1999/xlink" width="20px" height="20px" xmlns="http://www.w3.org/2000/svg">
  <g transform="matrix(1 0 0 1 -39 -588 )">
    <path d="M 4.311625000000049 1.59050000000002  L 6.0922500000000355 2.92837499999996  C 6.638658447637681 2.625970478728618  7.218470967435337 2.3883234849397468  7.819937500000037 2.2202499999999645  L 8.237937500000044 0.03125  L 11.924312500000042 0.03125  L 12.23849999999993 2.2360625000000027  C 12.84006249999993 2.4093125000000555  13.416875000000005 2.6513125000000173  13.960000000000036 2.957249999999931  L 15.803187500000035 1.7046249999999645  L 18.410187500000006 4.311625000000049  L 17.072312500000066 6.0922500000000355  C 17.374812500000075 6.638125000000059  17.612687499999993 7.2169999999999845  17.780437500000062 7.819937500000037  L 19.969437500000026 8.237250000000017  L 19.969437500000026 11.923625000000015  L 17.764625000000024 12.237812499999905  C 17.591933348264206 12.837717894047842  17.34990439931653 13.415449531955346  17.043437500000095 13.95931250000001  L 18.296062500000062 15.802500000000009  L 15.689062499999977 18.40949999999998  L 13.908437499999991 17.07162500000004  C 13.362562499999967 17.37412500000005  12.783687500000042 17.611999999999966  12.180749999999989 17.779750000000035  L 11.763437500000009 19.96875  L 8.077062500000011 19.96875  L 7.7628749999998945 17.763937499999997  C 7.162969605952185 17.591245848264293  6.58523796804468 17.349216899316502  6.041375000000016 17.04275000000007  L 4.197499999999991 18.295375000000035  L 1.59050000000002 15.68837499999995  L 2.92837499999996 13.907749999999965  C 2.6259648283623847 13.361344262559214  2.3883175578480405 12.781531067605215  2.2202499999999645 12.180062499999963  L 0.03125 11.762749999999983  L 0.03125 8.076374999999985  L 2.2360625000000027 7.7621875000000955  C 2.4093125000000555 7.1613124999998945  2.6513125000000173 6.583812500000022  2.957249999999931 6.04068749999999  L 1.7046249999999645 4.197499999999991  L 4.311625000000049 1.59050000000002  Z M 11.007875000000013 3.3546250000000555  L 10.730812499999956 1.4055624999999736  L 9.374374999999986 1.4055624999999736  L 9.003124999999955 3.3546250000000555  L 8.559687499999995 3.4515625000000227  C 7.798994632820268 3.6181052327513044  7.073442250249968 3.9168894723986796  6.416062500000066 4.33431250000001  L 6.014562500000011 4.5886875000001055  L 4.440187499999979 3.4061874999999873  L 3.48112500000002 4.36525000000006  L 4.596249999999941 6.007000000000062  L 4.351499999999987 6.388562499999921  C 3.931026427769325 7.0440368220452  3.628760771656971 7.768171326912011  3.458437500000059 8.528062500000033  L 3.355312500000082 8.992124999999987  L 1.40625 9.269187500000044  L 1.40625 10.624937499999987  L 3.3546250000000555 10.996875000000045  L 3.4515625000000227 11.440312500000005  C 3.6182278599426354 12.200967013434706  3.9170035476292924 12.926498628860827  4.33431250000001 13.583937499999934  L 4.5886875000001055 13.985437499999989  L 3.4061874999999873 15.559812500000021  L 4.36525000000006 16.51887499999998  L 6.007000000000062 15.40375000000006  L 6.388562499999921 15.648500000000013  C 7.0440368220452 16.068973572230675  7.768171326912011 16.37123922834303  8.528062500000033 16.54156249999994  L 8.992124999999987 16.644687499999918  L 9.269187500000044 18.59375  L 10.624937499999987 18.59375  L 10.996875000000045 16.645374999999945  L 11.440312500000005 16.548437499999977  C 12.200967013434706 16.381772140057365  12.926498628860827 16.082996452370708  13.583937499999934 15.66568749999999  L 13.985437499999989 15.411312499999894  L 15.559812500000021 16.593812500000013  L 16.51887499999998 15.63474999999994  L 15.40375000000006 13.992999999999938  L 15.648500000000013 13.61143750000008  C 16.068973572230675 12.9559631779548  16.37123922834303 12.231828673087989  16.54156249999994 11.471937499999967  L 16.644687499999918 11.007875000000013  L 18.59375 10.730812499999956  L 18.59375 9.374374999999986  L 16.645374999999945 9.002437500000042  L 16.548437499999977 8.559000000000083  C 16.381772140057365 7.7983454865652675  16.082996452370708 7.072813871139147  15.66568749999999 6.41537500000004  L 15.411312499999894 6.0138749999999845  L 16.593812500000013 4.439500000000066  L 15.63474999999994 3.4804374999999936  L 13.992999999999938 4.5955624999999145  L 13.61143750000008 4.350812499999961  C 12.955936701507198 3.930389428916669  12.231811388038977 3.628127609445187  11.471937499999967 3.4577500000000327  L 11.007875000000013 3.3546250000000555  Z M 10 5.875  C 12.278174593052086 5.875  14.125 7.721825406947914  14.125 10  C 14.125 12.278174593052086  12.278174593052086 14.125  10 14.125  C 7.721825406947914 14.125  5.875 12.278174593052086  5.875 10  C 5.875 7.721825406947914  7.721825406947914 5.875  10 5.875  Z M 10 7.25  C 8.481216937965314 7.25  7.25 8.481216937965314  7.25 10  C 7.25 11.518783062034686  8.481216937965314 12.75  10 12.75  C 11.518783062034686 12.75  12.75 11.518783062034686  12.75 10  C 12.75 8.481216937965314  11.518783062034686 7.25  10 7.25  Z " fill-rule="nonzero" fill="#000000" stroke="none" transform="matrix(1 0 0 1 39 588 )" />
  </g>
</svg>