<?xml version="1.0" encoding="utf-8"?>
<svg version="1.1" xmlns:xlink="http://www.w3.org/1999/xlink" width="14px" height="15px" xmlns="http://www.w3.org/2000/svg">
  <g transform="matrix(1 0 0 1 -248 -478 )">
    <path d="M 0.7564453124999986 1.7411669921875  L 0.7564453124999986 0.5088085937500004  L 6.918193359375 0.5088085937500004  L 6.918193359375 1.7411669921875  L 0.7564453124999986 1.7411669921875  Z M 0.7564453124999986 11.599990234375003  L 0.7564453124999986 10.367631835937502  L 13.079941406249997 10.367631835937502  L 13.079941406249997 11.599990234375003  L 0.7564453124999986 11.599990234375003  Z M 0.7564453124999986 8.519116210937497  L 0.7564453124999986 7  L 13.079941406249997 7  L 13.079941406249997 8.519116210937497  L 0.7564453124999986 8.519116210937497  Z M 0.7564453124999986 5.438242187500002  L 0.7564453124999986 4.205883789062501  L 13.079941406249997 4.205883789062501  L 13.079941406249997 5.438242187500002  L 0.7564453124999986 5.438242187500002  Z M 0.7564453124999986 14.680864257812502  L 0.7564453124999986 13.448505859375  L 13.079941406249997 13.448505859375  L 13.079941406249997 14.680864257812502  L 0.7564453124999986 14.680864257812502  Z " fill-rule="nonzero" fill="#231f20" stroke="none" transform="matrix(1 0 0 1 248 478 )" />
  </g>
</svg>