<?xml version="1.0" encoding="utf-8"?>
<svg version="1.1" xmlns:xlink="http://www.w3.org/1999/xlink" width="28px" height="25px" xmlns="http://www.w3.org/2000/svg">
  <g transform="matrix(1 0 0 1 -163 -8 )">
    <path d="M 27.440000000000005 1.4999999999999978  C 27.52960000000001 2.1799999999999984  27.036800000000003 2.7799999999999976  26.2752 2.9000000000000004  L 15 4.34  L 15 18.099999999999998  C 15.344000000000001 18.339999999999996  15.164800000000005 18.5  14.896 18.5  L 13.104000000000003 18.5  C 12.835200000000002 18.5  12.656000000000002 18.339999999999996  13 18.099999999999998  L 13 4.699999999999999  L 2.0832000000000024 6.1000000000000005  L 1.9040000000000026 6.1000000000000005  C 1.2320000000000035 6.1000000000000005  0.6496000000000031 5.659999999999998  0.560000000000003 5.06  C 0.47040000000000287 4.419999999999999  0.9632000000000017 3.7799999999999994  1.6800000000000024 3.6999999999999997  L 10.012800000000006 2.58  C 10.774400000000004 1.339999999999999  12.252800000000002 0.45999999999999963  13.955200000000001 0.45999999999999963  C 15.2096 0.45999999999999963  16.284800000000004 0.9000000000000001  17.0912 1.6199999999999992  L 25.9168 0.49999999999999817  C 26.6336 0.41999999999999815  27.350400000000004 0.8599999999999971  27.440000000000005 1.4999999999999978  Z M 5.3984000000000005 20.06  C 7.056000000000002 20.06  8.6688 19.259999999999998  10.102400000000001 17.659999999999997  C 10.416000000000004 17.299999999999997  10.505600000000001 16.86  10.281600000000003 16.419999999999998  L 6.697600000000001 8.82  C 6.5184000000000015 8.379999999999997  6.025600000000001 8.1  5.488000000000001 8.1  C 4.950400000000002 8.1  4.457600000000002 8.38  4.233600000000002 8.82  L 0.6496000000000014 16.419999999999998  C 0.47040000000000126 16.779999999999998  0.5152000000000012 17.18  0.7391999999999999 17.539999999999996  C 0.8288 17.659999999999997  2.576 20.06  5.3984000000000005 20.06  Z M 3.561600000000001 16.499999999999996  L 5.488000000000001 12.38  L 7.414400000000002 16.499999999999996  L 3.561600000000001 16.499999999999996  Z M 27.30560000000001 14.02  L 23.7664 6.420000000000001  C 23.542399999999997 5.980000000000001  23.049599999999998 5.700000000000003  22.511999999999997 5.700000000000003  C 21.9744 5.700000000000003  21.4816 5.980000000000005  21.2576 6.420000000000001  L 17.6736 14.020000000000001  C 17.4944 14.38  17.5392 14.780000000000001  17.763199999999998 15.14  C 17.852800000000006 15.259999999999998  19.6 17.659999999999997  22.422400000000003 17.659999999999997  C 24.080000000000002 17.659999999999997  25.648000000000003 16.86  27.126400000000007 15.259999999999998  C 27.440000000000005 14.899999999999999  27.52960000000001 14.459999999999997  27.30560000000001 14.02  Z M 20.585600000000003 14.099999999999998  L 22.511999999999997 9.979999999999999  L 24.438399999999998 14.099999999999998  L 20.585600000000003 14.099999999999998  Z M 20.8544 23.060000000000002  C 19.062399999999997 21.7  16.508799999999994 20.9  14 20.9  C 11.491199999999997 20.9  8.937600000000002 21.7  7.145600000000003 23.060000000000002  C 6.966400000000002 23.220000000000006  6.832000000000001 23.420000000000005  6.832000000000001 23.660000000000004  L 6.832000000000001 23.7  C 6.832000000000001 24.139999999999997  7.235199999999999 24.5  7.728000000000001 24.5  L 20.272 24.5  C 20.764799999999997 24.5  21.168 24.139999999999997  21.168 23.7  L 21.168 23.660000000000004  C 21.168 23.420000000000005  21.0784 23.220000000000006  20.8544 23.060000000000002  Z " fill-rule="nonzero" fill="#ffffff" stroke="none" transform="matrix(1 0 0 1 163 8 )" />
  </g>
</svg>