<?xml version="1.0" encoding="utf-8"?>
<svg version="1.1" xmlns:xlink="http://www.w3.org/1999/xlink" width="25px" height="25px" xmlns="http://www.w3.org/2000/svg">
  <g transform="matrix(1 0 0 1 -92 -7 )">
    <path d="M 0.5681818181818182 3.125  C 0.5681818181818182 1.3991101567787705  2.0944838073950223 0  3.977272727272727 0  L 21.022727272727273 0  C 22.905516192604978 0  24.431818181818183 1.3991101567787705  24 3.125  L 24 21.875  C 24.431818181818183 23.60088984322123  22.905516192604978 25  21.022727272727273 25  L 3.977272727272727 25  C 2.0944838073950223 25  0.5681818181818182 23.60088984322123  0.5681818181818182 21.875  L 0.5681818181818182 20.3125  L 2.272727272727273 20.3125  L 2.272727272727273 21.875  C 2.272727272727273 22.737944921610616  3.035878267333875 23.4375  3.977272727272727 23  L 21.022727272727273 23  C 21.96412173266613 23.4375  22.727272727272727 22.737944921610616  22.727272727272727 21.875  L 22.727272727272727 3.125  C 22.727272727272727 2.2620550783893854  21.96412173266613 1.5625  21.022727272727273 2  L 3.977272727272727 2  C 3.035878267333875 1.5625  2.272727272727273 2.2620550783893854  2.272727272727273 3.125  L 2.272727272727273 4.6875  L 0.5681818181818182 4.6875  L 0.5681818181818182 3.125  Z " fill-rule="nonzero" fill="#ffffff" stroke="none" transform="matrix(1 0 0 1 92 7 )" />
  </g>
</svg>