<?xml version="1.0" encoding="utf-8"?>
<svg version="1.1" xmlns:xlink="http://www.w3.org/1999/xlink" width="10px" height="8px" xmlns="http://www.w3.org/2000/svg">
  <g transform="matrix(1 0 0 1 -100 -15 )">
    <path d="M 8.61111111111111 0.9986593244718716  C 8.832489879208177 0.9986593244718716  9.044770672760833 1.0779374489685463  9.20111111111111 1.2189999999999994  C 9.357847278923835 1.3597063945152499  9.445934083920141 1.5507591087126382  9.445934083920141 1.75  C 9.445934083920141 1.9492408912873618  9.357847278923835 2.14029360548475  9.20111111111111 2.2810000000000006  L 4.20111111111111 6.780999999999999  C 4.044770672760832 6.922062551031452  3.832489879208178 7.001340675528127  3.6111111111111094 7.001340675528127  C 3.3897323430140403 7.001340675528127  3.177451549461389 6.922062551031452  3.021111111111108 6.780999999999999  L 0.5211111111111085 4.530999999999999  C 0.3646333821057782 4.390170043895202  0.2767251093109834 4.199163633911811  0.2767251093109834 3.9999999999999982  C 0.2767251093109834 3.5852632021601494  0.6502924468446104 3.249052598379885  1.1111111111111092 3.249052598379885  C 1.3324040376797917 3.249052598379885  1.5446333821057776 3.3281700438952004  1.70111111111111 3.4689999999999976  L 3.611111111111111 5.189499999999999  L 8.021111111111113 1.2189999999999976  C 8.177451549461392 1.077937448968548  8.389732343014044 0.9986593244718716  8.61111111111111 0.9986593244718716  Z " fill-rule="nonzero" fill="#ffffff" stroke="none" transform="matrix(1 0 0 1 100 15 )" />
  </g>
</svg>