<?xml version="1.0" encoding="utf-8"?>
<svg version="1.1" xmlns:xlink="http://www.w3.org/1999/xlink" width="28px" height="25px" xmlns="http://www.w3.org/2000/svg">
  <g transform="matrix(1 0 0 1 -312 -8 )">
    <path d="M 7.728000000000001 2.0999999999999996  C 7.728000000000001 1.2200000000000004  6.9216 0.49999999999999967  5.936 0.49999999999999967  L 2.352 0.49999999999999967  C 1.3664000000000005 0.49999999999999967  0.5599999999999996 1.2200000000000004  0.5599999999999996 2.0999999999999996  L 0.5599999999999996 5.3  C 0.5599999999999996 6.18  1.3664000000000005 6.9  2.352 6.9  L 5.936 6.9  C 6.9216 6.9  7.728000000000001 6.18  7.728000000000001 5.3  L 7.728000000000001 2.0999999999999996  Z M 17.584 2.0999999999999996  C 17.584 1.2200000000000004  16.7776 0.49999999999999967  15.791999999999998 0.49999999999999967  L 12.207999999999998 0.49999999999999967  C 11.222399999999999 0.49999999999999967  10.416 1.2200000000000004  10.416 2.0999999999999996  L 10.416 5.3  C 10.416 6.18  11.222399999999999 6.9  12.207999999999998 6.9  L 15.791999999999998 6.9  C 16.7776 6.9  17.584 6.18  17.584 5.3  L 17.584 2.0999999999999996  Z M 27.439999999999998 2.0999999999999996  C 27.439999999999998 1.2200000000000004  26.6336 0.49999999999999967  25.647999999999996 0.49999999999999967  L 22.064 0.49999999999999967  C 21.0784 0.49999999999999967  20.272 1.2200000000000004  20.272 2.0999999999999996  L 20.272 5.3  C 20.272 6.18  21.0784 6.9  22.064 6.9  L 25.647999999999996 6.9  C 26.6336 6.9  27.439999999999998 6.18  27.439999999999998 5.3  L 27.439999999999998 2.0999999999999996  Z M 7.728000000000001 10.899999999999999  C 7.728000000000001 10.019999999999998  6.9216 9.3  5.936 9.3  L 2.352 9.3  C 1.3664000000000005 9.3  0.5599999999999996 10.019999999999998  0.5599999999999996 10.899999999999999  L 0.5599999999999996 14.099999999999998  C 0.5599999999999996 14.979999999999999  1.3664000000000005 15.7  2.352 15.7  L 5.936 15.7  C 6.9216 15.7  7.728000000000001 14.979999999999999  7.728000000000001 14.099999999999998  L 7.728000000000001 10.899999999999999  Z M 17.584 10.899999999999999  C 17.584 10.019999999999998  16.7776 9.3  15.791999999999998 9.3  L 12.207999999999998 9.3  C 11.222399999999999 9.3  10.416 10.019999999999998  10.416 10.899999999999999  L 10.416 14.099999999999998  C 10.416 14.979999999999999  11.222399999999999 15.7  12.207999999999998 15.7  L 15.791999999999998 15.7  C 16.7776 15.7  17.584 14.979999999999999  17.584 14.099999999999998  L 17.584 10.899999999999999  Z M 27.439999999999998 10.899999999999999  C 27.439999999999998 10.019999999999998  26.6336 9.3  25.647999999999996 9.3  L 22.064 9.3  C 21.0784 9.3  20.272 10.019999999999998  20.272 10.899999999999999  L 20.272 14.099999999999998  C 20.272 14.979999999999999  21.0784 15.7  22.064 15.7  L 25.647999999999996 15.7  C 26.6336 15.7  27.439999999999998 14.979999999999999  27.439999999999998 14.099999999999998  L 27.439999999999998 10.899999999999999  Z M 7.728000000000001 19.7  C 7.728000000000001 18.819999999999997  6.9216 18.099999999999998  5.936 18.099999999999998  L 2.352 18.099999999999998  C 1.3664000000000005 18.099999999999998  0.5599999999999996 18.819999999999997  0.5599999999999996 19.7  L 0.5599999999999996 22.9  C 0.5599999999999996 23.78  1.3664000000000005 24.5  2.352 24.5  L 5.936 24.5  C 6.9216 24.5  7.728000000000001 23.78  7.728000000000001 22.9  L 7.728000000000001 19.7  Z M 17.584 19.7  C 17.584 18.819999999999997  16.7776 18.099999999999998  15.791999999999998 18.099999999999998  L 12.207999999999998 18.099999999999998  C 11.222399999999999 18.099999999999998  10.416 18.819999999999997  10.416 19.7  L 10.416 22.9  C 10.416 23.78  11.222399999999999 24.5  12.207999999999998 24.5  L 15.791999999999998 24.5  C 16.7776 24.5  17.584 23.78  17.584 22.9  L 17.584 19.7  Z M 27.439999999999998 19.7  C 27.439999999999998 18.819999999999997  26.6336 18.099999999999998  25.647999999999996 18.099999999999998  L 22.064 18.099999999999998  C 21.0784 18.099999999999998  20.272 18.819999999999997  20.272 19.7  L 20.272 22.9  C 20.272 23.78  21.0784 24.5  22.064 24.5  L 25.647999999999996 24.5  C 26.6336 24.5  27.439999999999998 23.78  27.439999999999998 22.9  L 27.439999999999998 19.7  Z " fill-rule="nonzero" fill="#ffffff" stroke="none" transform="matrix(1 0 0 1 312 8 )" />
  </g>
</svg>