<?xml version="1.0" encoding="utf-8"?>
<svg version="1.1" xmlns:xlink="http://www.w3.org/1999/xlink" width="26px" height="24px" xmlns="http://www.w3.org/2000/svg">
  <g transform="matrix(1 0 0 1 -310 -8 )">
    <path d="M 7.5016393442622915 6.845901639344249  C 7.5016393442622915 3.3237348538845373  9.973770491803267 0.3968638631503797  13.042622950819668 0.3968638631503797  C 16.111475409836068 0.3968638631503797  18.583606557377042 3.2741268709907434  18.583606557377042 6.845901639344249  L 18.583606557377042 8.48296507483962  C 16.750819672131158 8.234925160370622  14.875409836065579 8.135709194583034  13.042622950819668 8.135709194583034  C 11.209836065573782 8.135709194583034  9.334426229508201 8.234925160370622  7.5016393442622915 8.48296507483962  L 7.5016393442622915 6.845901639344249  Z M 25.829508196721306 16.370634354953687  C 25.829508196721306 17.958089807555236  24.593442622950818 19.24789736279402  23.101639344262296 19.24789736279402  L 23.655737704918028 13.592587312900939  C 24.891803278688542 13.84062722736994  25.829508196721306 15.03121881682111  25.829508196721306 16.370634354953687  Z M 2.3868852459016416 13.592587312900939  L 2.9409836065573716 19.24789736279402  C 1.449180327868852 19.24789736279402  0.2131147540983636 17.958089807555236  0.2131147540983636 16.370634354953687  C 0.2131147540983636 14.981610833927315  1.150819672131153 13.84062722736994  2.3868852459016416 13.592587312900939  Z M 22.76065573770493 12.005131860299363  C 22.76065573770493 10.913756236635782  22.12131147540984 9.971204561653611  21.183606557377047 9.871988595865995  C 18.37049180327868 9.524732715609408  15.68524590163934 9.375908766928028  13.085245901639334 9.375908766928028  C 10.485245901639356 9.375908766928028  7.757377049180322 9.524732715609408  4.986885245901647 9.871988595865995  C 4.049180327868857 9.971204561653611  3.3672131147540982 10.963364219529575  3.495081967213127 12.005131860299363  L 4.347540983606556 21.62908054169636  C 4.432786885245891 22.522024233784737  5.029508196721314 23.26614397719173  5.839344262295076 23.365359942979346  C 8.226229508196717 23.712615823235932  10.655737704918026 23.861439771917315  13.127868852459029 23.861439771917315  C 15.600000000000005 23.861439771917315  18.029508196721316 23.712615823235932  20.416393442622958 23.365359942979346  C 21.183606557377047 23.26614397719173  21.82295081967214 22.522024233784737  21.908196721311473 21.62908054169636  L 22.76065573770493 12.005131860299363  Z M 9.547540983606567 16.767498218104066  C 9.547540983606567 17.809265858873857  9.036065573770504 18.602993585174612  8.354098360655746 18.602993585174612  C 7.672131147540986 18.602993585174612  7.160655737704924 17.809265858873857  7.160655737704924 16.767498218104066  C 7.160655737704924 15.725730577334282  7.714754098360655 14.932002851033491  8.354098360655746 14.932002851033491  C 8.99344262295081 14.932002851033491  9.547540983606567 15.725730577334282  9.547540983606567 16.767498218104066  Z M 15.472131147540976 19.743977191732018  L 15.472131147540976 20.636920883820395  C 15.472131147540976 20.73613684960798  15.42950819672131 20.83535281539557  15.386885245901642 20.88496079828939  C 15.344262295081972 20.934568781183188  15.259016393442613 20.98417676407698  15.173770491803278 20.98417676407698  L 10.954098360655726 20.98417676407698  C 10.86885245901639 20.98417676407698  10.783606557377055 20.934568781183188  10.740983606557363 20.88496079828939  C 10.698360655737693 20.83535281539557  10.655737704918026 20.73613684960798  10.655737704918026 20.636920883820395  L 10.655737704918026 19.743977191732018  C 10.655737704918026 19.545545260156814  10.783606557377055 19.396721311475403  10.954098360655726 19.396721311475403  L 11.039344262295087 19.396721311475403  C 11.209836065573757 19.396721311475403  11.337704918032784 19.545545260156814  11.337704918032784 19.743977191732018  L 11.337704918032784 20.190449037776194  L 14.790163934426245 20.190449037776194  L 14.790163934426245 19.743977191732018  C 14.790163934426245 19.545545260156814  14.918032786885249 19.396721311475403  15.088524590163942 19.396721311475403  L 15.173770491803278 19.396721311475403  C 15.344262295081972 19.396721311475403  15.472131147540976 19.545545260156814  15.472131147540976 19.743977191732018  Z M 18.92459016393441 16.767498218104066  C 18.92459016393441 17.809265858873857  18.41311475409835 18.602993585174612  17.731147540983613 18.602993585174612  C 17.049180327868857 18.602993585174612  16.537704918032794 17.809265858873857  16.537704918032794 16.767498218104066  C 16.537704918032794 15.725730577334282  17.091803278688527 14.932002851033491  17.731147540983613 14.932002851033491  C 18.37049180327868 14.932002851033491  18.92459016393441 15.725730577334282  18.92459016393441 16.767498218104066  Z " fill-rule="nonzero" fill="#ffffff" stroke="none" transform="matrix(1 0 0 1 310 8 )" />
  </g>
</svg>