<?xml version="1.0" encoding="utf-8"?>
<svg version="1.1" xmlns:xlink="http://www.w3.org/1999/xlink" width="99px" height="89px" xmlns="http://www.w3.org/2000/svg">
  <g transform="matrix(1 0 0 1 -11 -17 )">
    <path d="M 98.33440616684447 47.06539324319175  C 98.33440616684447 46.324855349831495  98.28762102840619 45.585054308070596  98.1943292348285 44.850393700787414  L 83.27613906585077 11.925252493438322  L 83.27613906585077 9  L 56.17125836187057 9  C 56.18971680706284 8.496962248237182  56.19895896123137 8.283594122740354  56.19895896123137 8.07012629681877  C 56.19895896123137 4.129995328216609  53.10955797690218 0.8789113082289788  49.16741323078651 0.6705863614013907  C 45.2252684489992 0.8789112643124923  42.13586741428264 4.1299952995326805  42.13586741428264 8.070126301366614  C 42.13586741428264 8.283594125765873  42.145109568319356 8.49696224974248  42.16356801324878 9  L 14.778533531690329 9  L 14.778533531690329 12.414585796023516  L 0.1404971402907904 44.850393700787414  C 0.04720534671309906 45.58505430807065  0.0004202082748463454 46.324855349831466  0.0004202082748463454 47.065393243191814  C 0.0004202082748463454 56.79444092783669  7.902455493812795 64.68139239512499  17.650110011227753 64.68139239512499  C 27.397764528642707 64.68139239512499  35.29979981418066 56.79444092783669  35.29979981418066 47.065393243191814  C 35.29979981418066 46.324855349831466  35.253014675742406 45.58505430807065  35.159722882164715 44.850393700787414  L 22.062532440352555 16  L 43 16  L 43 77  L 22.062532440352555 77  C 21.560523130373525 77.48848057029548  21.05331507658221 77.4496400335957  20.545360606502527 77.4496400335957  C 15.052634640318786 77.4496400335957  10.599900465032817 81.89387459699853  10.599900465032817 87.37611576057441  C 10.599900465032817 87.88310062059429  10.638815284375113 88.38934048912427  10.716303324538245 88  L 87.1982923842138 88  C 87.23831800364047 88.522229040762  87.25837470519923 88.15217617641548  87.25837470519923 87.78185258294599  C 87.25837470519923 82.10657475498914  82.64885411229204 77.50585305607945  76.96272229852991 77.50585305607945  C 76.59169043391267 77.50585305607945  76.22092981624593 77.52587147518102  75.85206318194577 77  L 53 77  L 53 16  L 76.27229393476676 16  L 63.175103492954584 44.850393700787414  C 63.08181169937694 45.585054308070596  63.035026560938654 46.324855349831495  63.035026560938654 47.06539324319175  C 63.035026560938654 56.79444092783663  70.93706184647658 64.68139239512493  80.68471636389154 64.68139239512493  C 90.4323708813065 64.68139239512493  98.33440616684447 56.79444092783663  98.33440616684447 47.06539324319175  Z M 17.790186943243697 19.405061621202364  L 27.8056854858811 44  L 7.774688314152598 44  L 17.790186943243697 19.405061621202364  Z M 90.56013806096672 44  L 70.52914088923819 44  L 80.54463943187562 19.405061621202364  L 90.56013806096672 44  Z " fill-rule="nonzero" fill="#88120e" stroke="none" transform="matrix(1 0 0 1 11 17 )" />
  </g>
</svg>