<?xml version="1.0" encoding="utf-8"?>
<svg version="1.1" xmlns:xlink="http://www.w3.org/1999/xlink" width="20px" height="20px" xmlns="http://www.w3.org/2000/svg">
  <g transform="matrix(1 0 0 1 -25 -101 )">
    <path d="M 19.48044734375 17.169546777343783  L 19.476003300781258 17.17176878906247  L 15.29082906250001 14.007612636718761  C 18.36610443359374 10.719023378906229  18.260558496093758 5.710590800781233  15.048628906250016 2.5442126367187825  C 11.835588320312503 -0.622165527343725  6.613841855468763 -0.8632546874999889  3.097495566406245 1.9920407226562133  C -0.4177397070312523 4.847336132812472  -1.0243511132812486 9.824660410156241  1.7076221875000002 13.37989205078128  C 4.439595488281231 16.937345703125004  9.578016210937491 17.85837289062499  13.466550820312513 15.489699824218746  L 16.98400812499998 19.511555605468743  C 17.690108231505747 20.159286955191135  18.774347237244264 20.159286955191135  19.48044734375 19.511555605468743  C 19.81152828125002 19.204916875000038  19.998177949218757 18.782733124999993  19.998177949218757 18.340551191406234  C 19.998177949218757 17.89948027343752  19.81152828125002 17.476185507812488  19.48044734375 17.169546777343783  Z M 8.75586890625 14.699771796874984  L 8.754757890625001 14.70088281249997  C 5.125088593750014 14.69754978515624  2.185356445312493 11.874473671875023  2.188689472656243 8.395901699218768  C 2.1920225000000073 4.917329746093742  5.136198710937492 2.099808691406281  8.765868007812514 2.099808691406281  C 12.395537304687494 2.1009197070312666  15.336380468750008 4.921773808593741  15.336380468750008 8.400345742187483  C 15.333047441406244 11.881139707031252  12.387760234374994 14.699771796874984  8.75586890625 14.699771796874984  Z " fill-rule="nonzero" fill="#949494" stroke="none" transform="matrix(1 0 0 1 25 101 )" />
  </g>
</svg>