<?xml version="1.0" encoding="utf-8"?>
<svg version="1.1" xmlns:xlink="http://www.w3.org/1999/xlink" width="25px" height="23px" xmlns="http://www.w3.org/2000/svg">
  <g transform="matrix(1 0 0 1 -16 -181 )">
    <path d="M 17.57999999999999 19.749333333333333  C 17.699999999999992 19.46311111111111  17.499999999999993 19.21777777777778  17.26 19.21777777777778  L 7.739999999999997 19.21777777777778  C 7.4599999999999955 19.21777777777778  7.299999999999995 19.46311111111111  7.339999999999996 19.749333333333333  C 7.739999999999997 21.303111111111107  9.899999999999997 22.488888888888887  12.459999999999996 22.488888888888887  C 15.059999999999995 22.488888888888887  17.219999999999995 21.303111111111107  17.57999999999999 19.749333333333333  Z M 24.5 2.862222222222222  C 24.5 1.5128888888888887  23.419999999999998 0.4088888888888893  22.099999999999998 0.4088888888888893  L 2.9000000000000004 0.4088888888888893  C 1.5799999999999992 0.4088888888888893  0.49999999999999967 1.5128888888888887  0.49999999999999967 2.862222222222222  L 0.49999999999999967 14.311111111111108  C 0.49999999999999967 15.660444444444442  1.5799999999999992 16.764444444444447  2.9000000000000004 16.764444444444447  L 22.099999999999998 16.764444444444447  C 23.419999999999998 16.764444444444447  24.5 15.660444444444442  24.5 14.311111111111108  L 24.5 2.862222222222222  Z M 22.099999999999998 3.68  L 22.099999999999998 13.493333333333334  C 22.099999999999998 13.943111111111111  21.739999999999995 14.311111111111108  21.3 14  L 3.6999999999999997 14  C 3.259999999999999 14.311111111111108  2.9000000000000004 13.943111111111111  2.9000000000000004 13.493333333333334  L 2.9000000000000004 3.68  C 2.9000000000000004 3.2302222222222206  3.259999999999999 2.862222222222222  3.6999999999999997 3  L 21.3 3  C 21.739999999999995 2.862222222222222  22.099999999999998 3.2302222222222206  22.099999999999998 3.68  Z " fill-rule="nonzero" fill="#ffffff" stroke="none" transform="matrix(1 0 0 1 16 181 )" />
  </g>
</svg>