<?xml version="1.0" encoding="utf-8"?>
<svg version="1.1" xmlns:xlink="http://www.w3.org/1999/xlink" width="23px" height="25px" xmlns="http://www.w3.org/2000/svg">
  <g transform="matrix(1 0 0 1 -16 -76 )">
    <path d="M 23 2.9000000000000004  C 22.934285714285718 1.5799999999999992  21.869714285714284 0.49999999999999967  20.568571428571428 0.49999999999999967  L 7.951428571428571 0.49999999999999967  C 6.650285714285714 0.49999999999999967  5.585714285714286 1.5799999999999992  5.585714285714286 2.9000000000000004  L 5.585714285714286 3.2999999999999994  C 5.585714285714286 3.5399999999999996  5.743428571428569 3.6999999999999997  5.980000000000001 4  L 17.414285714285715 4  C 18.71542857142857 3.6999999999999997  19.78 4.7799999999999985  19.78 6.1000000000000005  L 19.78 18.5  C 19.78 18.739999999999995  19.937714285714282 18.9  20.174285714285716 18.9  L 20.568571428571428 18.9  C 21.869714285714284 18.9  22.934285714285718 17.819999999999997  23 16.499999999999996  L 23 2.9000000000000004  Z M 17 8.5  C 17.414285714285715 7.180000000000001  16.349714285714285 6.1000000000000005  15.048571428571428 6.1000000000000005  L 2.4314285714285706 6.1000000000000005  C 1.1302857142857137 6.1000000000000005  0.06571428571428578 7.180000000000001  0 8.5  L 0 22.099999999999998  C 0.06571428571428578 23.419999999999998  1.1302857142857137 24.5  2.4314285714285706 24.5  L 15.048571428571428 24.5  C 16.349714285714285 24.5  17.414285714285715 23.419999999999998  17 22.099999999999998  L 17 8.5  Z M 3.2199999999999998 10.899999999999999  L 3.2199999999999998 10.099999999999998  C 3.2199999999999998 9.659999999999998  3.574857142857142 9.3  4.008571428571427 9.3  L 11.894285714285713 9.3  C 12.327999999999998 9.3  12.682857142857141 9.659999999999998  12.682857142857141 10.099999999999998  L 12.682857142857141 10.899999999999999  C 12.682857142857141 11.34  12.327999999999998 11.7  11.894285714285713 11.7  L 4.008571428571427 11.7  C 3.574857142857142 11.7  3.2199999999999998 11.34  3.2199999999999998 10.899999999999999  Z M 12.682857142857141 19.7  L 12.682857142857141 20.5  C 12.682857142857141 20.939999999999994  12.327999999999998 21.3  11.894285714285713 21.3  L 4.008571428571427 21.3  C 3.574857142857142 21.3  3.2199999999999998 20.939999999999994  3.2199999999999998 20.5  L 3.2199999999999998 19.7  C 3.2199999999999998 19.26  3.574857142857142 18.9  4.008571428571427 18.9  L 11.894285714285713 18.9  C 12.327999999999998 18.9  12.682857142857141 19.26  12.682857142857141 19.7  Z M 14.26 14.899999999999999  L 14.26 15.7  C 14.26 16.14  13.90514285714286 16.499999999999996  13.47142857142857 16.499999999999996  L 4.008571428571427 16.499999999999996  C 3.574857142857142 16.499999999999996  3.2199999999999998 16.14  3.2199999999999998 15.7  L 3.2199999999999998 14.899999999999999  C 3.2199999999999998 14.459999999999997  3.574857142857142 14.099999999999998  4.008571428571427 14.099999999999998  L 13.47142857142857 14.099999999999998  C 13.90514285714286 14.099999999999998  14.26 14.459999999999997  14.26 14.899999999999999  Z " fill-rule="nonzero" fill="#ffffff" stroke="none" transform="matrix(1 0 0 1 16 76 )" />
  </g>
</svg>