<?xml version="1.0" encoding="utf-8"?>
<svg version="1.1" xmlns:xlink="http://www.w3.org/1999/xlink" width="20px" height="20px" xmlns="http://www.w3.org/2000/svg">
  <g transform="matrix(1 0 0 1 -31 -8 )">
    <path d="M 19.366379310344826 11.93287037037037  C 19.90301724137931 11.354166666666668  19.90301724137931 10.416666666666668  19.364224137931036 9.837962962962962  L 10.487068965517242 0.31018518518518534  C 10.357977958592567 0.17126028592527556  10.182741142662435 0.09319021832013821  10 0.09319021832013821  C 9.817258857337563 0.09319021832013821  9.642022041407433 0.17126028592527623  9.512931034482758 0.31018518518518534  L 0.6357758620689655 9.837962962962962  C 0.3771551724137931 10.115740740740742  0.2306034482758621 10.493055555555555  0.2306034482758621 10.886574074074073  C 0.2306034482758621 11.7037037037037  0.8491379310344829 12.368055555555555  1.6099137931034482 12.368055555555555  L 2.545258620689655 12.368055555555555  L 2.545258620689655 19.166666666666668  C 2.545258620689655 19.57638888888889  2.853448275862069 19.90740740740741  3.2349137931034484 19.90740740740741  L 8.620689655172413 19.90740740740741  L 8.620689655172413 14.722222222222223  L 11.03448275862069 14.722222222222223  L 11.03448275862069 19.90740740740741  L 16.76508620689655 19.90740740740741  C 17.14655172413793 19.90740740740741  17.45474137931034 19.57638888888889  17.45474137931034 19.166666666666668  L 17.45474137931034 12.368055555555555  L 18.390086206896548 12.368055555555555  C 18.756465517241377 12.368055555555555  19.10775862068965 12.212962962962962  19.366379310344826 11.93287037037037  Z " fill-rule="nonzero" fill="#cccccc" stroke="none" transform="matrix(1 0 0 1 31 8 )" />
  </g>
</svg>