<?xml version="1.0" encoding="utf-8"?>
<svg version="1.1" xmlns:xlink="http://www.w3.org/1999/xlink" width="20px" height="21px" xmlns="http://www.w3.org/2000/svg">
  <g transform="matrix(1 0 0 1 -100 -8 )">
    <path d="M 0.439275568181816 5.080717329545391  C 0.439275568181816 2.5286132812500752  2.396661931818172 0.4709339488636272  4.82954545454546 0.4709339488636272  C 7.255504261363632 0.4709339488636272  9.219815340909074 2.5358842329545843  9.219815340909074 5.080717329545391  L 9.219815340909074 9.399662642045415  C 9.219815340909074 9.559623579545491  9.095170454545466 9.69050071022728  8.942826704545453 9.69050071022728  L 4.82954545454546 9.69050071022728  C 2.403586647727288 9.69050071022728  0.439275568181816 7.625550426136322  0.439275568181816 5.080717329545391  Z M 0.43696732954545403 16.01138139204539  C 0.42080965909091994 13.459277343750076  2.435901988636356 11.36766690340917  4.868785511363644 11.36766690340917  L 8.942826704545453 11.36766690340917  C 9.095170454545466 11.36766690340917  9.219815340909074 11.49854403409083  9.219815340909074 11.658504971590906  L 9.219815340909074 15.936248224431838  C 9.219815340909074 18.49077592329549  7.2278053977272885 20.606622869318137  4.794921875 20.587233664772693  C 2.396661931818172 20.56784446022738  0.45543323863635 18.529554332386372  0.43696732954545403 16.01138139204539  Z M 10.81711647727272 5.083140980113602  C 10.81711647727272 2.5358842329545843  12.78142755681819 0.4709339488636272  15.207386363636362 0.4709339488636272  C 17.62872869318181 0.4709339488636272  19.59303977272728 2.531036931818161  19.597656250000007 5.073446377840882  C 19.60227272727273 7.613432173295391  17.589488636363654 9.692924360795491  15.168146306818178 9.692924360795491  L 11.094105113636367 9.692924360795491  C 10.941761363636356 9.692924360795491  10.81711647727272 9.562047230113702  10.81711647727272 9.402086292613628  L 10.81711647727272 5.083140980113602  Z M 10.814808238636356 11.658504971590906  C 10.81711647727272 11.49854403409083  10.941761363636356 11.36766690340917  11.094105113636367 11.36766690340917  L 15.168146306818178 11.36766690340917  C 17.601029829545467 11.36766690340917  19.616122159090903 13.459277343750076  19.597656250000007 16.0138050426136  C 19.57919034090908 18.531977982954583  17.637961647727288 20.570268110795464  15.23970170454546 20.589657315340908  C 12.806818181818171 20.60904651988635  10.814808238636356 18.493199573863702  10.814808238636356 15.938671874999924  L 10.814808238636356 11.658504971590906  Z " fill-rule="nonzero" fill="#8a1410" stroke="none" transform="matrix(1 0 0 1 100 8 )" />
  </g>
</svg>