<?xml version="1.0" encoding="utf-8"?>
<svg version="1.1" xmlns:xlink="http://www.w3.org/1999/xlink" width="21px" height="22px" xmlns="http://www.w3.org/2000/svg">
  <g transform="matrix(1 0 0 1 -239 -8 )">
    <path d="M 0.47383361225799375 18.753090921016337  C 0.47383361225799375 18.753090921016337  0.47383361225799375 3.3115459331409056  0.47383361225799375 3.3115459331409056  C 0.47383361225799375 2.3418657993375973  0.775153653836145 1.6125685558469058  1.3727717362997964 1.1195799163923539  C 1.9754118194563375 0.6265912769375745  2.8643059421121224 0.37805981407211675  4.049498105653288 0.37805981407211675  C 4.049498105653288 0.37805981407211675  17.28246993163143 0.37805981407211675  17.28246993163143 0.37805981407211675  C 18.467662095172596 0.37805981407211675  19.36157821852139 0.6265912769376882  19.959196300984924 1.1195799163923539  C 20.56183638414146 1.6125685558469058  20.858134425026723 2.3459400856140746  20.858134425026723 3.3115459331409056  C 20.858134425026723 3.3115459331409056  20.858134425026723 18.753090921016337  20.858134425026723 18.753090921016337  C 20.858134425026723 19.726845341096123  20.556814383448454 20.46021687086329  19.959196300984924 20.94505693776489  C 19.35655621782826 21.433971290942964  18.467662095172596 21.67435418125558  17.28246993163143 21.67435418125558  C 17.28246993163143 21.67435418125558  4.049498105653288 21.67435418125558  4.049498105653288 21.67435418125558  C 2.8643059421121224 21.67435418125558  1.9703898187632092 21.429897004666486  1.3727717362997964 20.94505693776489  C 0.7701316531432554 20.456142584586814  0.47383361225799375 19.726845341096123  0.47383361225799375 18.753090921016337  Z M 1.9804338201493465 18.56063117719748  C 1.9804338201493465 19.10667410968722  2.161225845096118 19.525174167434784  2.517787894297129 19.812145635604566  C 2.879371944191149 20.099117103774347  3.4117040176460423 20.246588552694902  4.1248281160479445 20.246588552694902  C 4.1248281160479445 20.246588552694902  17.2121619219299 20.246588552694902  17.2121619219299 20.246588552694902  C 17.925286020331807 20.246588552694902  18.457618093786696 20.103102818609955  18.8192021436806 19.812145635604566  C 19.18078619357462 19.525174167434784  19.35655621782838 19.10667410968722  19.35655621782838 18.56063117719748  C 19.35655621782838 18.56063117719748  19.35655621782838 3.506586242791968  19.35655621782838 3.506586242791968  C 19.35655621782838 2.95655759546662  19.175764192881612 2.534071822883334  18.8192021436806 2.243114639877831  C 18.457618093786696 1.9521574568724418  17.925286020331807 1.8046860079518865  17.2121619219299 1.8046860079518865  C 17.2121619219299 1.8046860079518865  4.1248281160479445 1.8046860079518865  4.1248281160479445 1.8046860079518865  C 3.4117040176460423 1.8046860079518865  2.879371944191149 1.9521574568724418  2.517787894297129 2.243114639877831  C 2.1562038444032283 2.534071822883334  1.9804338201493465 2.95655759546662  1.9804338201493465 3.506586242791968  C 1.9804338201493465 3.506586242791968  1.9804338201493465 18.56063117719748  1.9804338201493465 18.56063117719748  Z M 5.943864773301323 6.89957130919413  C 5.763072748354313 6.89957130919413  5.612412727565237 6.842177015560196  5.5019287123197556 6.736954143897947  C 5.386422696381504 6.626948414432832  5.331180688758883 6.493028395953616  5.331180688758883 6.3304112306574325  C 5.331180688758883 6.1677940653612495  5.386422696381504 5.909519744008435  5.5019287123197556 5.804296872346185  C 5.617434728258127 5.69429114288107  5.763072748354313 5.641679707049889  5.943864773301323 5.641679707049889  C 5.943864773301323 5.641679707049889  15.093950035894323 5.641679707049889  15.093950035894323 5.641679707049889  C 15.264698059455196 5.641679707049889  15.410336079551382 5.69429114288107  15.530864096182643 5.804296872346185  C 15.651392112813904 5.9143026018113005  15.706634120436643 6.1677940653612495  15.706634120436643 6.3304112306574325  C 15.706634120436643 6.493028395953616  15.646370112120895 6.6317312722356965  15.530864096182643 6.736954143897947  C 15.410336079551263 6.846959873363062  15.269720060148085 6.89957130919413  15.093950035894323 6.89957130919413  C 15.093950035894323 6.89957130919413  5.943864773301323 6.89957130919413  5.943864773301323 6.89957130919413  Z M 5.943864773301323 11.696777685432039  C 5.763072748354313 11.696777685432039  5.612412727565237 11.639383391798106  5.5019287123197556 11.52937766233299  C 5.386422696381504 11.414589075065123  5.331180688758883 11.161097611515174  5.331180688758883 10.993697588416126  C 5.331180688758883 10.835863280922695  5.386422696381504 10.706726120246344  5.5019287123197556 10.596720390781229  C 5.617434728258127 10.486714661316114  5.763072748354313 10.434103225485046  5.943864773301323 10.434103225485046  C 5.943864773301323 10.434103225485046  15.093950035894323 10.434103225485046  15.093950035894323 10.434103225485046  C 15.264698059455196 10.434103225485046  15.410336079551382 10.486714661316114  15.530864096182643 10.596720390781229  C 15.651392112813904 10.706726120246344  15.706634120436643 10.835863280922695  15.706634120436643 10.993697588416126  C 15.706634120436643 11.156314753712309  15.646370112120895 11.414589075065123  15.530864096182643 11.52937766233299  C 15.410336079551263 11.644166249600858  15.269720060148085 11.696777685432039  15.093950035894323 11.696777685432039  C 15.093950035894323 11.696777685432039  5.943864773301323 11.696777685432039  5.943864773301323 11.696777685432039  Z M 5.943864773301323 16.48441834606433  C 5.763072748354313 16.484418346064217  5.612412727565237 16.43180691023315  5.5019287123197556 16.321801180768148  C 5.386422696381504 16.211795451303033  5.331180688758883 16.082658290626682  5.331180688758883 15.924823983133251  C 5.331180688758883 15.762206817837068  5.386422696381504 15.503932496484254  5.5019287123197556 15.389143909216386  C 5.617434728258127 15.274355321948406  5.763072748354313 15.221743886117338  5.943864773301323 15.221743886117338  C 5.943864773301323 15.221743886117338  15.093950035894323 15.221743886117338  15.093950035894323 15.221743886117338  C 15.264698059455196 15.221743886117338  15.410336079551382 15.279138179751271  15.530864096182643 15.389143909216386  C 15.651392112813904 15.503932496484254  15.706634120436643 15.757423960034203  15.706634120436643 15.924823983133251  C 15.706634120436643 16.082658290626682  15.646370112120895 16.211795451303033  15.530864096182643 16.321801180768148  C 15.410336079551263 16.43180691023315  15.269720060148085 16.48441834606433  15.093950035894323 16.48441834606433  C 15.093950035894323 16.48441834606433  5.943864773301323 16.48441834606433  5.943864773301323 16.48441834606433  Z " fill-rule="nonzero" fill="#cccccc" stroke="none" transform="matrix(1 0 0 1 239 8 )" />
  </g>
</svg>