<?xml version="1.0" encoding="utf-8"?>
<svg version="1.1" xmlns:xlink="http://www.w3.org/1999/xlink" width="13px" height="13px" xmlns="http://www.w3.org/2000/svg">
  <g transform="matrix(1 0 0 1 -120 -801 )">
    <path d="M 9.989205777167381 12.91290403303208  C 10.133302770914707 13.025367963644399  10.32886297671465 13.025367963644399  10.472959970461973 12.933352020416137  C 10.627349606619822 12.831112083495851  10.689105461082962 12.647080197039337  10.637642249030344 12.47327230427485  C 10.637642249030344 12.47327230427485  9.484866299051742 8.393898821155453  9.484866299051742 8.393898821155453  C 9.443695729409647 8.240538915775025  9.495158941462266 8.066731023010538  9.618670650388545 7.964491086090252  C 9.618670650388545 7.964491086090252  12.850560367292843 5.357372694622968  12.850560367292843 5.357372694622968  C 12.984364718629646 5.244908764010655  13.035827930682256 5.071100871246168  12.974072076219121 4.907516972173711  C 12.922608864166506 4.743933073101254  12.768219228008657 4.63146914248894  12.593244307029762 4.63146914248894  C 12.593244307029762 4.63146914248894  8.589406409336219 4.5190052118766255  8.589406409336219 4.5190052118766255  C 8.414431488357323 4.5190052118766255  8.260041852199477 4.40654128126431  8.20857864014686 4.242957382191855  C 8.20857864014686 4.242957382191855  6.891120411599882 0.2862718233767998  6.891120411599882 0.2862718233767998  C 6.8396571995472675 0.12268792430434278  6.674974920978896 0  6.500000000000002 0  C 6.325025079021105 0  6.160342800452734 0.12268792430434278  6.108879588400117 0.2862718233767998  C 6.108879588400117 0.2862718233767998  4.7914213598531425 4.242957382191855  4.7914213598531425 4.242957382191855  C 4.739958147800525 4.40654128126431  4.585568511642675 4.5190052118766255  4.410593590663781 4.5190052118766255  C 4.410593590663781 4.5190052118766255  0.40675569297023895 4.63146914248894  0.40675569297023895 4.63146914248894  C 0.23178077199134375 4.63146914248894  0.07739113583349505 4.743933073101254  0.025927923780878794 4.907516972173711  C -0.035827930682260624 5.071100871246168  0.015635281370355542 5.244908764010655  0.1494396327071578 5.357372694622968  C 0.1494396327071578 5.357372694622968  3.381329349611457 7.964491086090252  3.381329349611457 7.964491086090252  C 3.5048410585377363 8.066731023010538  3.556304270590352 8.240538915775025  3.5151337009482586 8.393898821155453  C 3.5151337009482586 8.393898821155453  2.3623577509696556 12.47327230427485  2.3623577509696556 12.47327230427485  C 2.310894538917039 12.647080197039337  2.3726503933801784 12.831112083495851  2.527040029538028 12.933352020416137  C 2.6711370232853526 13.025367963644399  2.8666972290852946 13.025367963644399  3.0107942228326197 12.91290403303208  C 3.0107942228326197 12.91290403303208  6.252976582147443 10.551161490173481  6.252976582147443 10.551161490173481  C 6.397073575894769 10.438697559561167  6.602926424105233 10.438697559561167  6.747023417852559 10.551161490173481  C 6.747023417852559 10.551161490173481  9.989205777167381 12.91290403303208  9.989205777167381 12.91290403303208  Z " fill-rule="nonzero" fill="#ffcd4e" stroke="none" transform="matrix(1 0 0 1 120 801 )" />
  </g>
</svg>