<?xml version="1.0" encoding="utf-8"?>
<svg version="1.1" xmlns:xlink="http://www.w3.org/1999/xlink" width="18px" height="18px" xmlns="http://www.w3.org/2000/svg">
  <g transform="matrix(1 0 0 1 -3 -3 )">
    <path d="M 16.47025495750708 15.960339943342778  C 16.47025495750708 16.245892351274787  16.245892351274787 16.47025495750708  15.960339943342778 16.47025495750708  C 15.960339943342778 16.47025495750708  2.0396600566572243 16.47025495750708  2.0396600566572243 16.47025495750708  C 1.7541076487252125 16.47025495750708  1.5297450424929178 16.245892351274787  1.5297450424929178 15.960339943342778  C 1.5297450424929178 15.960339943342778  1.5297450424929178 2.0396600566572243  1.5297450424929178 2.0396600566572243  C 1.5297450424929178 1.7541076487252125  1.7541076487252125 1.5297450424929178  2.0396600566572243 1.5297450424929178  C 2.0396600566572243 1.5297450424929178  9.005099150141644 1.5297450424929178  9.005099150141644 1.5297450424929178  L 9.005099150141644 0  C 9.005099150141644 0  2.0396600566572243 0  2.0396600566572243 0  C 0.9178470254957508 0  0 0.9178470254957508  0 2.0396600566572243  C 0 2.0396600566572243  0 15.960339943342778  0 15.960339943342778  C 0 17.09235127478754  0.9178470254957508 18  2.0396600566572243 18  C 2.0396600566572243 18  15.960339943342778 18  15.960339943342778 18  C 17.09235127478754 18  18 17.09235127478754  18 15.960339943342778  C 18 15.960339943342778  18 9.005099150141644  18 9.005099150141644  L 16.47025495750708 9.005099150141644  C 16.47025495750708 9.005099150141644  16.47025495750708 15.960339943342778  16.47025495750708 15.960339943342778  Z " fill-rule="nonzero" fill="#999999" stroke="none" transform="matrix(1 0 0 1 3 3 )" />
  </g>
</svg>