<?xml version="1.0" encoding="utf-8"?>
<svg version="1.1" xmlns:xlink="http://www.w3.org/1999/xlink" width="10px" height="14px" xmlns="http://www.w3.org/2000/svg">
  <g transform="matrix(1 0 0 1 -15 -10 )">
    <path d="M 8.33592534992224 13.772347279436945  C 8.724727838258165 14.073843498338805  9.346811819595645 14.073843498338805  9.720062208398133 13.784407128193017  C 10.09331259720062 13.49497075804723  10.09331259720062 13.012576807804255  9.720062208398133 12.723140437658472  C 9.720062208398133 12.723140437658472  2.3483670295489887 6.994712278523141  2.3483670295489887 6.994712278523141  C 2.3483670295489887 6.994712278523141  9.720062208398133 1.2783439681438846  9.720062208398133 1.2783439681438846  C 10.09331259720062 0.988907597998099  10.09331259720062 0.506513647755124  9.720062208398133 0.21707727760933915  C 9.346811819595645 -0.07235909253644636  8.724727838258165 -0.07235909253644636  8.351477449455675 0.21707727760933915  C 8.351477449455675 0.21707727760933915  0.2799377916018665 6.464078933255868  0.2799377916018665 6.464078933255868  C -0.09331259720062215 6.753515303401654  -0.09331259720062215 7.23590925364463  0.2799377916018665 7.525345623790415  C 0.2799377916018665 7.525345623790415  8.33592534992224 13.772347279436945  8.33592534992224 13.772347279436945  Z " fill-rule="nonzero" fill="#4b5559" stroke="none" transform="matrix(1 0 0 1 15 10 )" />
  </g>
</svg>