<?xml version="1.0" encoding="utf-8"?>
<svg version="1.1" xmlns:xlink="http://www.w3.org/1999/xlink" width="18px" height="16px" xmlns="http://www.w3.org/2000/svg">
  <g transform="matrix(1 0 0 1 0 -7 )">
    <path d="M 0 10.672002471447943  L 0 5.328004950317741  C 0 5.3268172919263925  0 5.325629633302924  0 5.324441974645701  C 0 2.3838338706899673  2.383834816603566 0  5.324444087402956 0  C 5.327407449091374 0  5.330370810263099 0  5.333334167820946 0  L 12.444444802082014 0  C 15.38933349349534 0  17.77777777777778 2.3955618661180367  17.77777777777778 5.328004950317741  L 17.77777777777778 16  L 5.333334167820946 16  C 2.38844547640757 15.9999999999999  0 13.604445555647644  0 10.672002471447943  Z M 5.333334167820946 14  L 16.000000119212526 14  L 16.000000119212526 5.328004950317741  C 15.995104014697013 3.3672222682372297  14.40523340268015 1.7797370920580864  12.444444802082014 1.7777843749028968  L 5.333334167820946 1.7777843749028968  C 5.33037061306863 1.7777769459284585  5.327407050169214 1.7777732314367913  5.32444348610549 1.7777732314367913  C 3.3656737047216065 1.7777732314367913  1.7777770572677885 3.36566924880794  1.7777770572677885 5.324438252945381  C 1.7777770572677885 5.325627152294247  1.7777776550754223 5.326816051569949  1.7777788506903867 5.328004950317741  L 1.7777788506903867 10.672002471447943  C 1.7826749552058978 12.632785153528452  3.372545567222763 14.220270329707596  5.333334167820946 14  Z M 10.66666714351671 8.888892187451448  L 10.66666714351671 7.111115234314337  L 12.444444802082014 7.111115234314337  L 12.444444802082014 8.888892187451448  L 10.66666714351671 8.888892187451448  Z M 5.333334167820946 8.888892187451448  L 5.333334167820946 7.111115234314337  L 7.11111182638615 7.111115234314337  L 7.11111182638615 8.888892187451448  L 5.333334167820946 8.888892187451448  Z " fill-rule="nonzero" fill="#999999" stroke="none" transform="matrix(1 0 0 1 0 7 )" />
  </g>
</svg>