<?xml version="1.0" encoding="utf-8"?>
<svg version="1.1" xmlns:xlink="http://www.w3.org/1999/xlink" width="18px" height="18px" xmlns="http://www.w3.org/2000/svg">
  <g transform="matrix(1 0 0 1 0 -7 )">
    <path d="M 11.866090335044328 3.6417272569586148  L 11.127272188967998 6.5454545171127645  L 16.363635572011763 6.5454545171127645  C 17.267374209832838 6.5454545171127645  17.999999129212938 7.278079468762842  17.999999129212938 8.181818146390956  L 17.999999129212938 9.903272684391613  C 18.000219727772823 10.117113591358486  17.958524689180702 10.328924396736113  17.877271862422848 10.526727227146605  L 15.344999257654031 16.675363564159408  C 15.218662429067326 16.981946019681736  14.919773887034745 17.181959009592443  14.588181112448487 17  L 0.818181778600588 17  C 0.36631245969004866 17.18181810742101  0 16.815505631595972  0 16.363636292781912  L 0 8.181818146390956  C 0 7.729948807576899  0.36631245969004866 7.36363633175186  0.818181778600588 7.36363633175186  L 3.6670907316878356 7.36363633175186  C 3.93289883741598 7.3637043336831045  4.182173971478841 7.234642661280336  4.335545244804516 7.017545424159524  L 8.797090483513523 0.6954545424432312  C 8.913639752197167 0.530290640855757  9.1333497977784 0.475015484548555  9.314181367589093 0.5653636339156151  L 10.79836311397056 1.3074545397932744  C 11.65895865114771 1.737602725391065  12.103452637379995 2.7093585863708474  11.866090335044328 3.6417272569586148  Z M 5.672454271037878 7.960909056438401  C 5.467908826387731 8.25054541882064  5.206090657235542 8.487818145065978  4.909090671603528 8.662909053398742  L 4.909090671603528 15.545454478142815  L 14.039999320786091 15.545454478142815  L 16.363635572011763 9.903272684391613  L 16.363635572011763 8.181818146390956  L 11.127272188967998 8.181818146390956  C 10.223624806688916 8.18168911570936  9.491142286063633 7.449101965088529  9.491142286063633 6.545454533794366  C 9.491142286063633 6.409423871200017  9.508104343800778 6.273924018197052  9.541635902040058 6.14209088249569  L 10.28045404811639 3.2391818041561793  C 10.328098507224944 3.05260402962318  10.239173309978321 2.8580588577290533  10.066908603901636 2.7719999879972557  L 9.526090448246647 2.5019999891663542  L 5.672454271037878 7.960909056438401  Z M 3.272727114402352 15.545454478142815  L 3.272727114402352 8.999999961030053  L 1.636363557201176 8.999999961030053  L 1.636363557201176 15.545454478142815  L 3.272727114402352 15.545454478142815  Z " fill-rule="nonzero" fill="#999999" stroke="none" transform="matrix(1 0 0 1 0 7 )" />
  </g>
</svg>