<?xml version="1.0" encoding="utf-8"?>
<svg version="1.1" xmlns:xlink="http://www.w3.org/1999/xlink" width="20px" height="11px" xmlns="http://www.w3.org/2000/svg">
  <g transform="matrix(1 0 0 1 -57 -657 )">
    <path d="M 0.05556640625002274 1.5538699127906739  C 0.05556640625002274 2.4065497819767643  0.7037109374999773 3.0697674418604493  1.5370117187500227 3.0697674418604493  C 2.3703124999999545 3.0697674418604493  3.0185058593749545 2.4065497819767643  3.0185058593749545 1.5538699127906739  C 3.0185058593749545 0.7011900436046403  2.370361328125 0.03792242005812341  1.5370605468749545 0.03792242005812341  C 0.7037597656250227 0.03792242005812341  0.05556640625002274 0.7011400799418652  0.05556640625002274 1.5538199491278988  Z M 11.537011718750023 9.512481831395348  C 11.537011718750023 10.17569949127909  12.092578125000045 10.74418604651163  12.74072265625 10.74418604651163  C 13.388867187499955 10.74418604651163  13.944433593749977 10.17569949127909  13.944433593749977 9.512481831395348  C 13.944433593749977 8.849264171511606  13.388867187499955 8.280777616279067  12.74072265625 8.280777616279067  C 12.092578125000045 8.186046511627922  11.537060546874955 8.75453306686046  11.537060546874955 9.512481831395348  Z M 9.037060546874955 0.03792242005812341  C 8.203710937499977 0.03792242005812341  7.555566406250023 0.7011400799418652  7.555566406250023 1.5538199491278988  C 7.555566406250023 2.4065497819767643  8.203710937499977 3.0697674418604493  9.037011718750023 3.0697674418604493  C 9.870361328125 3.0697674418604493  10.518505859374955 2.4065497819767643  10.518505859374955 1.5538699127906739  C 10.518505859374955 0.7011400799418652  9.870361328125 0.03792242005812341  9.037060546874955 0.03792242005812341  Z M 17.462890625 9.512581758720899  C 17.462890625 10.175749454941865  18.018457031250023 10.744236010174404  18.666601562499977 10.744236010174404  C 19.314746093750045 10.744236010174404  19.870312499999955 10.175749454941865  19.870312499999955 9.512531795058123  C 19.870312499999955 8.849314135174438  19.314746093750045 8.280827579941842  18.666601562499977 8.280827579941842  C 18.018457031250023 8.186096475290697  17.462890625 8.754583030523236  17.462890625 9.512531795058123  Z " fill-rule="nonzero" fill="#46bb36" stroke="none" transform="matrix(1 0 0 1 57 657 )" />
  </g>
</svg>