<?xml version="1.0" encoding="utf-8"?>
<svg version="1.1" xmlns:xlink="http://www.w3.org/1999/xlink" width="24px" height="21px" xmlns="http://www.w3.org/2000/svg">
  <g transform="matrix(1 0 0 1 -297 -654 )">
    <path d="M 24 2.0326704545454533  C 23.93181818181813 0.9779829545454534  23.068892045454504 0.11505681818181657  22.014204545454504 0.11505681818181657  L 1.9857954545454959 0.11505681818181657  C 0.9311079545454959 0.11505681818181657  0.06818181818186986 0.9779829545454534  0 2.0326704545454533  L 0 18.691938920454533  C 0.06818181818186986 19.74662642045454  0.9311079545454959 20.609552556818173  1.9857954545454959 20.609552556818173  L 22.014204545454504 20.609552556818173  C 23.068892045454504 20.609552556818173  23.93181818181813 19.74662642045454  24 18.691938920454533  L 24 2.0326704545454533  Z M 22.014204545454504 14.193536931818173  L 22.014204545454504 18.686612215909086  L 22.01154119318187 18.689275568181813  L 1.991122159090878 18.689275568181813  L 1.9884588068181301 18.686612215909086  L 1.9884588068181301 13.018998579545453  L 6.931640625 7.963955965909086  L 12.719105113636374 15.152343749999993  C 13.038707386363626 15.514559659090905  13.576704545454504 15.583806818181813  13.976207386363626 15.312144886363633  L 18.250887784090878 12.42240767045454  L 22.014204545454504 14.193536931818173  Z M 22.01154119318187 2.03533380681818  L 22.014204545454504 11.780539772727264  L 18.868785511363626 10.483487215909086  C 18.54119318181813 10.23313210227272  18.091086647727252 10.219815340909086  17.75017755681813 10.45152698863636  L 13.600674715909122 13.250710227272721  L 7.68536931818187 5.921164772727273  C 7.50958806818187 5.721413352272727  7.256569602272748 5.604225852272727  6.990234375 5.596235795454547  C 6.723899147727252 5.58824573863636  6.465553977272748 5.694779829545453  6.27911931818187 5.883877840909086  L 1.9857954545454959 10.27574573863636  L 1.9857954545454959 2.03533380681818  L 1.9884588068181301 2  L 22.008877840909122 2  L 22.01154119318187 2.03533380681818  Z M 19.643821022727252 6.688210227272727  C 19.643821022727252 5.204723011363633  18.43732244318187 3.99822443181818  16.953835227272748 3.99822443181818  C 15.470348011363626 3.99822443181818  14.26384943181813 5.204723011363633  14.26384943181813 6.688210227272727  C 14.26384943181813 8.171697443181813  15.470348011363626 9.378196022727266  16.953835227272748 9.378196022727266  C 18.43732244318187 9.378196022727266  19.643821022727252 8.171697443181813  19.643821022727252 6.688210227272727  Z M 17.726207386363626 6.688210227272727  C 17.726207386363626 7.114346590909086  17.379971590909122 7.460582386363633  16.953835227272748 7.460582386363633  C 16.527698863636374 7.460582386363633  16.18146306818187 7.114346590909086  16.18146306818187 6.688210227272727  C 16.18146306818187 6.26207386363636  16.527698863636374 5.915838068181813  16.953835227272748 5.915838068181813  C 17.379971590909122 5.915838068181813  17.726207386363626 6.26207386363636  17.726207386363626 6.688210227272727  Z " fill-rule="nonzero" fill="#000000" stroke="none" transform="matrix(1 0 0 1 297 654 )" />
  </g>
</svg>