<?xml version="1.0" encoding="utf-8"?>
<svg version="1.1" xmlns:xlink="http://www.w3.org/1999/xlink" width="18px" height="12px" xmlns="http://www.w3.org/2000/svg">
  <g transform="matrix(1 0 0 1 -135 -663 )">
    <path d="M 17.921432676244535 5.188981837052438  C 17.921432676244535 1.9566165023352369  13.974302706314688 -0.08598650752463755  9.043276979619122 0.08623559937728942  C 4.111048446374866 0.42624597820446297  0.16512128299370943 2.9772952776336297  0.16512128299370943 6.3781463414634345  C 0.16512128299370943 9.778997405293183  4.111048446374866 12.159667877529841  9.043276979619122 11.989338868707819  C 13.975505512863378 11.819009859885853  17.921432676244535 8.758866632070578  17.921432676244535 5.188981837052438  Z M 8.058178416304713 2.4669558899844333  C 12.99040694954897 1.7856896730669405  13.979162044771101 6.717509081473793  12.497544938189094 8.586046704722378  C 11.017756097561005 10.628649714582252  7.893682592716345 11.478999481058622  5.09917808219177 9.949276595744664  C 3.783885065152049 9.268608199273501  3.783885065152049 7.738187856772186  3.783885065152049 7.738187856772186  C 3.783885065152049 7.738187856772186  3.1265272302038056 2.9772952776336297  8.058178416304713 2.4669558899844333  Z " fill-rule="nonzero" fill="#fb5555" stroke="none" transform="matrix(1 0 0 1 135 663 )" />
  </g>
</svg>