<?xml version="1.0" encoding="utf-8"?>
<svg version="1.1" xmlns:xlink="http://www.w3.org/1999/xlink" width="241px" height="241px" xmlns="http://www.w3.org/2000/svg">
  <g transform="matrix(1 0 0 1 -59 -1127 )">
    <path d="M 179.5 1131  C 244.74 1131  296 1182.26  296 1247.5  C 296 1312.74  244.74 1364  179.5 1364  C 114.25999999999999 1364  63 1312.74  63 1247.5  C 63 1182.26  114.25999999999999 1131  179.5 1131  Z " fill-rule="nonzero" fill="#ffffff" stroke="none" fill-opacity="0" />
    <path d="M 179.5 1129.5  C 245.58 1129.5  297.5 1181.42  297.5 1247.5  C 297.5 1313.58  245.58 1365.5  179.5 1365.5  C 113.41999999999999 1365.5  61.5 1313.58  61.5 1247.5  C 61.5 1181.42  113.41999999999999 1129.5  179.5 1129.5  Z " stroke-width="5" stroke="#142344" fill="none" />
  </g>
</svg>