<?xml version="1.0" encoding="utf-8"?>
<svg version="1.1" xmlns:xlink="http://www.w3.org/1999/xlink" width="219px" height="219px" xmlns="http://www.w3.org/2000/svg">
  <g transform="matrix(1 0 0 1 -70 -1138 )">
    <path d="M 179.5 1142  C 238.58 1142  285 1188.42  285 1247.5  C 285 1306.58  238.58 1353  179.5 1353  C 120.41999999999999 1353  74 1306.58  74 1247.5  C 74 1188.42  120.41999999999999 1142  179.5 1142  Z " fill-rule="nonzero" fill="#ffffff" stroke="none" fill-opacity="0" />
    <path d="M 179.5 1140.5  C 239.42000000000002 1140.5  286.5 1187.58  286.5 1247.5  C 286.5 1307.42  239.42000000000002 1354.5  179.5 1354.5  C 119.57999999999998 1354.5  72.5 1307.42  72.5 1247.5  C 72.5 1187.58  119.57999999999998 1140.5  179.5 1140.5  Z " stroke-width="5" stroke="#142445" fill="none" />
  </g>
</svg>