<?xml version="1.0" encoding="utf-8"?>
<svg version="1.1" xmlns:xlink="http://www.w3.org/1999/xlink" width="4px" height="3px" xmlns="http://www.w3.org/2000/svg">
  <g transform="matrix(1 0 0 1 -31 -1073 )">
    <path d="M 1.1655251086474436 2.87053300813011  L 0.6916693569844483 2.87053300813011  L 0.6916693569844483 0.677907544715481  L 0.6682111219511171 0.677907544715481  L 0.005907796008841615 1.1079746666666779  L 0.005907796008841615 0.6743236422764767  L 0.6916693569844483 0.21845252032517237  L 1.1655251086474436 0.21845252032517237  L 1.1655251086474436 2.87053300813011  Z M 2.4627638847007347 0.9961572032519825  L 2.0029830598668923 0.9882726504065431  L 2.0029830598668923 0.9667692682926372  C 2.0029830598668923 0.5632229593495595  2.3204507671839565 0.16541089430893408  2.955386217294972 0.16541089430893408  C 3.5269845144123337 0.16541089430893408  3.8999699866963056 0.48151021138210126  3.8999699866963056 0.9008256585366325  C 3.8999699866963056 1.2541974634145845  3.665387920177409 1.4792659186991841  3.400310172949048 1.7408900813007904  L 2.687180736141954 2.457668585365809  L 2.687180736141954 2.480605495934924  L 3.9507960975608967 2.480605495934924  L 3.9507960975608967 2.87053300813011  L 2.0194038137472035 2.87053300813011  L 2.0194038137472035 2.583821626016288  L 3.0930076807094338 1.5086538536585294  C 3.249395725055365 1.3516793495934962  3.41907675388029 1.1767853983740224  3.41907675388029 0.9495666016259747  C 3.41907675388029 0.7108793495934833  3.2181181374721746 0.5517545365853493  2.945221002217295 0.5517545365853493  C 2.9358376664092702 0.5512199003939031  2.9264384871084985 0.5509523890717674  2.917037042582251 0.5509523890717674  C 2.6661300690161625 0.5509523890717674  2.462729778724224 0.7374026551726729  2.462729778724224 0.9674007142750725  C 2.462729778724224 0.9691016948014521  2.462741147596489 0.9708026593655177  2.4627638847007347 0.9725035121950896  L 2.4627638847007347 0.9961572032519825  Z " fill-rule="nonzero" fill="#000000" stroke="none" transform="matrix(1 0 0 1 31 1073 )" />
  </g>
</svg>