<?xml version="1.0" encoding="utf-8"?>
<svg version="1.1" xmlns:xlink="http://www.w3.org/1999/xlink" width="16px" height="9px" xmlns="http://www.w3.org/2000/svg">
  <g transform="matrix(1 0 0 1 -340 -60 )">
    <path d="M 7.432955842751696 0.5570517450044901  L 7.432158577941701 0.5562660523516901  L 7.995820407458513 0  C 7.995820407458513 0  15.768294311434333 7.657300783772923  15.768294311434333 7.657300783772923  C 16.07523887150728 7.9597900980401946  16.07922515818576 8.461058088230239  15.768294311434333 8.76747582893244  C 15.619205366228098 8.915453318651885  15.416398401139984 8.99874049407548  15.204798275014372 8.99888796616066  C 14.993198148888762 8.99903543824584  14.790271849864531 8.916031033591711  14.640970671086455 8.76826150317071  C 14.640970671086455 8.76826150317071  7.997414918392758 2.224278535168492  7.997414918392758 2.224278535168492  C 7.997414918392758 2.224278535168492  1.3594399633117988 8.769047195823509  1.3594399633117988 8.769047195823509  C 1.210381388987616 8.916873385047486  1.0076466255213412 9  0.7961767755428575 9  C 0.5847069255643741 9  0.38197216209809887 8.916873385047486  0.2329135877739165 8.769047195823509  C -0.07701515314336613 8.46195674526917  -0.07772692011824904 7.966039692219398  0.23131907683967087 7.658086458011196  C 0.23131907683967087 7.658086458011196  7.4010654932665565 0.5892648859657761  7.4010654932665565 0.5892648859657761  L 7.432955842751696 0.5570517450044901  Z " fill-rule="nonzero" fill="#3d3d3d" stroke="none" transform="matrix(1 0 0 1 340 60 )" />
  </g>
</svg>