<?xml version="1.0" encoding="utf-8"?>
<svg version="1.1" xmlns:xlink="http://www.w3.org/1999/xlink" width="9px" height="5px" xmlns="http://www.w3.org/2000/svg">
  <g transform="matrix(1 0 0 1 -325 -142 )">
    <path d="M 4.180589200092207 0.30903669575093895  L 4.4976489791954135 0  C 4.4976489791954135 0  8.869665550181812 4.254055990984957  8.869665550181812 4.254055990984957  C 9.042321865222846 4.422105610022331  9.04456415147949 4.700587826794576  8.869665550181812 4.870819904962467  C 8.785803018503305 4.953029621473269  8.67172410064124 4.999300274486378  8.552699029695585 4.99938220342259  C 8.433673958749928 4.9994641323588  8.319527915548798 4.953350574217617  8.235546002486132 4.871256390650394  C 8.235546002486132 4.871256390650394  4.498545891595927 1.235710297315829  4.498545891595927 1.235710297315829  C 4.498545891595927 1.235710297315829  0.7646849793628868 4.871692886568616  0.7646849793628868 4.871692886568616  C 0.680839531305534 4.953818547248604  0.5668012268557544 5  0.44784943624285733 5  C 0.32889764562996043 5  0.2148593411801806 4.953818547248604  0.13101389312282802 4.871692886568616  C -0.04332102364314345 4.701087080705094  -0.04372139256651508 4.425577606788554  0.13011698072231487 4.254492476672887  C 0.13011698072231487 4.254492476672887  4.163099339962438 0.3273693810920978  4.163099339962438 0.3273693810920978  L 4.181037661547829 0.30947319166916115  Z " fill-rule="nonzero" fill="#f6d08a" stroke="none" transform="matrix(1 0 0 1 325 142 )" />
  </g>
</svg>