<?xml version="1.0" encoding="utf-8"?>
<svg version="1.1" xmlns:xlink="http://www.w3.org/1999/xlink" width="11px" height="7px" xmlns="http://www.w3.org/2000/svg">
  <g transform="matrix(1 0 0 1 -336 -325 )">
    <path d="M 5.110157141891791 0.4332624683368256  L 5.1096090223349195 0.43265137405131454  L 5.497126530127728 0  C 5.497126530127728 0  10.840702339111104 5.95567838737894  10.840702339111104 5.95567838737894  C 11.051726724161256 6.190947854031263  11.05446729625271 6.5808229575124075  10.840702339111104 6.8191478669474535  C 10.738203689281818 6.934241470062577  10.598773900783739 6.9990203842809295  10.453298814072381 6.999135084791625  C 10.307823727361024 6.99924978530232  10.168311896781866 6.9346908039046635  10.065667336371938 6.819758946910551  C 10.065667336371938 6.819758946910551  5.4982227563950214 1.7299944162421608  5.4982227563950214 1.7299944162421608  C 5.4982227563950214 1.7299944162421608  0.9346149747768617 6.820370041196062  0.9346149747768617 6.820370041196062  C 0.832137204928986 6.935345966148045  0.6927570550459221 7  0.5473715331857145 7  C 0.4019860113255072 7  0.26260586144244297 6.935345966148045  0.1601280915945676 6.820370041196062  C -0.05294791778606421 6.581521912987132  -0.053437257581296214 6.195808649503976  0.15903186532727373 5.956289467342041  C 0.15903186532727373 5.956289467342041  5.088232526620757 0.45831713352893694  5.088232526620757 0.45831713352893694  L 5.110157141891791 0.4332624683368256  Z " fill-rule="nonzero" fill="#3d3d3d" stroke="none" transform="matrix(1 0 0 1 336 325 )" />
  </g>
</svg>